%TF.GenerationSoftware,KiCad,Pcbnew,5.1.6*%
%TF.CreationDate,2020-08-05T08:53:36+02:00*%
%TF.ProjectId,MCT_Labor_5529,4d43545f-4c61-4626-9f72-5f353532392e,rev?*%
%TF.SameCoordinates,Original*%
%TF.FileFunction,Legend,Bot*%
%TF.FilePolarity,Positive*%
%FSLAX46Y46*%
G04 Gerber Fmt 4.6, Leading zero omitted, Abs format (unit mm)*
G04 Created by KiCad (PCBNEW 5.1.6) date 2020-08-05 08:53:36*
%MOMM*%
%LPD*%
G01*
G04 APERTURE LIST*
%ADD10O,1.840000X2.290000*%
%ADD11C,6.500000*%
%ADD12C,0.900000*%
%ADD13C,1.600000*%
%ADD14C,2.490000*%
%ADD15C,3.550000*%
%ADD16C,1.624000*%
%ADD17R,1.624000X1.624000*%
%ADD18C,2.640000*%
%ADD19O,3.910000X2.100000*%
%ADD20C,2.200000*%
%ADD21C,1.850000*%
%ADD22C,1.900000*%
%ADD23R,1.900000X1.900000*%
%ADD24C,6.600000*%
%ADD25C,3.100000*%
%ADD26O,1.900000X2.700000*%
%ADD27R,1.900000X2.700000*%
%ADD28O,2.100000X1.300000*%
%ADD29C,4.100000*%
%ADD30C,1.540000*%
%ADD31O,1.700000X1.700000*%
%ADD32R,1.700000X1.700000*%
%ADD33O,1.800000X1.800000*%
%ADD34R,1.800000X1.800000*%
%ADD35C,2.700000*%
%ADD36R,2.700000X2.700000*%
G04 APERTURE END LIST*
%LPC*%
%TO.C,J10*%
G36*
G01*
X207516300Y-91457387D02*
X207516300Y-93218653D01*
G75*
G02*
X207251933Y-93483020I-264367J0D01*
G01*
X205940667Y-93483020D01*
G75*
G02*
X205676300Y-93218653I0J264367D01*
G01*
X205676300Y-91457387D01*
G75*
G02*
X205940667Y-91193020I264367J0D01*
G01*
X207251933Y-91193020D01*
G75*
G02*
X207516300Y-91457387I0J-264367D01*
G01*
G37*
D10*
X204056300Y-92338020D03*
X201516300Y-92338020D03*
X198976300Y-92338020D03*
%TD*%
D11*
%TO.C,REF\u002A\u002A*%
X206000000Y-146000000D03*
D12*
X208400000Y-146000000D03*
X207697056Y-147697056D03*
X206000000Y-148400000D03*
X204302944Y-147697056D03*
X203600000Y-146000000D03*
X204302944Y-144302944D03*
X206000000Y-143600000D03*
X207697056Y-144302944D03*
%TD*%
D11*
%TO.C,REF\u002A\u002A*%
X54000000Y-54000000D03*
D12*
X56400000Y-54000000D03*
X55697056Y-55697056D03*
X54000000Y-56400000D03*
X52302944Y-55697056D03*
X51600000Y-54000000D03*
X52302944Y-52302944D03*
X54000000Y-51600000D03*
X55697056Y-52302944D03*
%TD*%
%TO.C,e*%
X55697056Y-144302944D03*
X54000000Y-143600000D03*
X52302944Y-144302944D03*
X51600000Y-146000000D03*
X52302944Y-147697056D03*
X54000000Y-148400000D03*
X55697056Y-147697056D03*
X56400000Y-146000000D03*
D11*
X54000000Y-146000000D03*
%TD*%
D12*
%TO.C,REF\u002A\u002A*%
X207697056Y-52302944D03*
X206000000Y-51600000D03*
X204302944Y-52302944D03*
X203600000Y-54000000D03*
X204302944Y-55697056D03*
X206000000Y-56400000D03*
X207697056Y-55697056D03*
X208400000Y-54000000D03*
D11*
X206000000Y-54000000D03*
%TD*%
D13*
%TO.C,U10*%
X58500000Y-87500000D03*
X61040000Y-87500000D03*
X104220000Y-87500000D03*
X101680000Y-87500000D03*
X58500000Y-90040000D03*
X58500000Y-92580000D03*
X58500000Y-95120000D03*
X58500000Y-97660000D03*
X58500000Y-100200000D03*
X58500000Y-102740000D03*
X58500000Y-105280000D03*
X58500000Y-107820000D03*
X58500000Y-110360000D03*
X104220000Y-110360000D03*
X104220000Y-107820000D03*
X104220000Y-105280000D03*
X104220000Y-102740000D03*
X104220000Y-100200000D03*
X104220000Y-97660000D03*
X104220000Y-95120000D03*
X104220000Y-92580000D03*
X104220000Y-90040000D03*
X61040000Y-90040000D03*
X61040000Y-92580000D03*
X61040000Y-95120000D03*
X61040000Y-97660000D03*
X61040000Y-100200000D03*
X61040000Y-102740000D03*
X61040000Y-105280000D03*
X61040000Y-107820000D03*
X61040000Y-110360000D03*
X101680000Y-110360000D03*
X101680000Y-107820000D03*
X101680000Y-105280000D03*
X101680000Y-102740000D03*
X101680000Y-100200000D03*
X101680000Y-97660000D03*
X101680000Y-95120000D03*
X101680000Y-92580000D03*
X101680000Y-90040000D03*
%TD*%
D14*
%TO.C,BT1*%
X61840000Y-128120000D03*
D15*
X70170000Y-144120000D03*
X125370000Y-128120000D03*
%TD*%
D16*
%TO.C,J6*%
X162463800Y-106204400D03*
X162463800Y-104204400D03*
X162463800Y-102204400D03*
D17*
X162463800Y-100204400D03*
%TD*%
D18*
%TO.C,SW3*%
X52045000Y-74775000D03*
X52045000Y-61575000D03*
D19*
X61575000Y-72875000D03*
X61575000Y-68175000D03*
X61575000Y-63475000D03*
%TD*%
D20*
%TO.C,SW2*%
X55175000Y-124670000D03*
D21*
X52685000Y-123420000D03*
X52685000Y-118920000D03*
D20*
X55175000Y-117660000D03*
%TD*%
%TO.C,SW1*%
X55175000Y-114510000D03*
D21*
X52685000Y-113260000D03*
X52685000Y-108760000D03*
D20*
X55175000Y-107500000D03*
%TD*%
D22*
%TO.C,LD_F3*%
X192550100Y-135911100D03*
D23*
X190010100Y-135911100D03*
%TD*%
D22*
%TO.C,LD_F2*%
X192550100Y-120911100D03*
D23*
X190010100Y-120911100D03*
%TD*%
%TO.C,LD_F1*%
X190010100Y-105551100D03*
D22*
X192550100Y-105551100D03*
%TD*%
D24*
%TO.C,J13*%
X205000000Y-136000000D03*
%TD*%
%TO.C,J12*%
X205000000Y-118000000D03*
%TD*%
%TO.C,J11*%
X205000000Y-127000000D03*
%TD*%
%TO.C,J8*%
X205000000Y-109000000D03*
%TD*%
D25*
%TO.C,U1*%
X188225000Y-53570000D03*
X188224480Y-84570700D03*
X113225900Y-84570700D03*
X113225900Y-53570000D03*
D26*
X156825000Y-53570000D03*
X154285000Y-53570000D03*
X151745000Y-53570000D03*
X149205000Y-53570000D03*
X146665000Y-53570000D03*
X144125000Y-53570000D03*
X141585000Y-53570000D03*
X139045000Y-53570000D03*
X136505000Y-53570000D03*
X133965000Y-53570000D03*
X131425000Y-53570000D03*
X128885000Y-53570000D03*
X126345000Y-53570000D03*
X123805000Y-53570000D03*
X121265000Y-53570000D03*
D27*
X118725000Y-53570000D03*
%TD*%
D28*
%TO.C,X1*%
X109630000Y-115275000D03*
X131630000Y-115275000D03*
X109630000Y-113275000D03*
X131630000Y-113275000D03*
X109630000Y-111275000D03*
X131630000Y-111275000D03*
X109630000Y-109275000D03*
X131630000Y-109275000D03*
X109630000Y-107275000D03*
X131630000Y-107275000D03*
X109630000Y-105275000D03*
X131630000Y-105275000D03*
X109630000Y-103275000D03*
X131630000Y-103275000D03*
X109630000Y-101275000D03*
X131630000Y-101275000D03*
X109630000Y-99275000D03*
X131630000Y-99275000D03*
X109630000Y-97275000D03*
X131630000Y-97275000D03*
%TD*%
D16*
%TO.C,U5*%
X122535000Y-119610000D03*
X122535000Y-122150000D03*
X119995000Y-119610000D03*
X119995000Y-122150000D03*
X117455000Y-119610000D03*
X117455000Y-122150000D03*
X114915000Y-119610000D03*
D17*
X114915000Y-122150000D03*
%TD*%
D29*
%TO.C,RV2*%
X203195000Y-85315000D03*
X203195000Y-76515000D03*
D22*
X196195000Y-83415000D03*
X196195000Y-80915000D03*
X196195000Y-78415000D03*
%TD*%
D30*
%TO.C,RV1*%
X102215000Y-56745000D03*
X104755000Y-54205000D03*
X107295000Y-56745000D03*
%TD*%
D31*
%TO.C,RN1*%
X181033740Y-120994300D03*
X181033740Y-123534300D03*
X181033740Y-126074300D03*
X181033740Y-128614300D03*
X181033740Y-131154300D03*
X181033740Y-133694300D03*
X181033740Y-136234300D03*
X181033740Y-138774300D03*
D32*
X181033740Y-141314300D03*
%TD*%
D33*
%TO.C,JP5*%
X135966520Y-106329640D03*
X138506520Y-106329640D03*
D34*
X141046520Y-106329640D03*
%TD*%
D33*
%TO.C,JP4*%
X135966520Y-103789640D03*
X138506520Y-103789640D03*
D34*
X141046520Y-103789640D03*
%TD*%
D33*
%TO.C,JP3*%
X135966520Y-111409640D03*
X138506520Y-111409640D03*
D34*
X141046520Y-111409640D03*
%TD*%
D33*
%TO.C,JP1*%
X135966520Y-108869640D03*
X138506520Y-108869640D03*
D34*
X141046520Y-108869640D03*
%TD*%
D35*
%TO.C,J18*%
X202545000Y-69445000D03*
D36*
X202545000Y-64365000D03*
%TD*%
D33*
%TO.C,J14*%
X167620000Y-90400000D03*
X170160000Y-90400000D03*
X167620000Y-92940000D03*
X170160000Y-92940000D03*
X167620000Y-95480000D03*
X170160000Y-95480000D03*
X167620000Y-98020000D03*
X170160000Y-98020000D03*
X167620000Y-100560000D03*
D34*
X170160000Y-100560000D03*
%TD*%
D33*
%TO.C,J7*%
X141046520Y-98709640D03*
X141046520Y-96169640D03*
X141046520Y-93629640D03*
D34*
X141046520Y-91089640D03*
%TD*%
D16*
%TO.C,J5*%
X154843800Y-106204400D03*
X154843800Y-104204400D03*
X154843800Y-102204400D03*
D17*
X154843800Y-100204400D03*
%TD*%
D33*
%TO.C,J4*%
X138506520Y-121569640D03*
X135966520Y-121569640D03*
X138506520Y-119029640D03*
X135966520Y-119029640D03*
X138506520Y-116489640D03*
X135966520Y-116489640D03*
X138506520Y-113949640D03*
D34*
X135966520Y-113949640D03*
%TD*%
D16*
%TO.C,J3*%
X147223800Y-106204400D03*
X147223800Y-104204400D03*
X147223800Y-102204400D03*
D17*
X147223800Y-100204400D03*
%TD*%
D33*
%TO.C,J2*%
X138506520Y-101249640D03*
X135966520Y-101249640D03*
X138506520Y-98709640D03*
X135966520Y-98709640D03*
X138506520Y-96169640D03*
X135966520Y-96169640D03*
X138506520Y-93629640D03*
X135966520Y-93629640D03*
X138506520Y-91089640D03*
D34*
X135966520Y-91089640D03*
%TD*%
D24*
%TO.C,J9*%
X205000000Y-100000000D03*
%TD*%
D34*
%TO.C,J15*%
X180881340Y-147710020D03*
D33*
X180881340Y-145170020D03*
%TD*%
M02*
