%TF.GenerationSoftware,KiCad,Pcbnew,5.1.9*%
%TF.CreationDate,2021-01-21T09:53:43+01:00*%
%TF.ProjectId,MCT_Labor_5529,4d43545f-4c61-4626-9f72-5f353532392e,rev?*%
%TF.SameCoordinates,Original*%
%TF.FileFunction,Soldermask,Bot*%
%TF.FilePolarity,Negative*%
%FSLAX46Y46*%
G04 Gerber Fmt 4.6, Leading zero omitted, Abs format (unit mm)*
G04 Created by KiCad (PCBNEW 5.1.9) date 2021-01-21 09:53:43*
%MOMM*%
%LPD*%
G01*
G04 APERTURE LIST*
%ADD10O,1.840000X2.290000*%
%ADD11C,6.500000*%
%ADD12C,0.900000*%
%ADD13C,1.600000*%
%ADD14C,2.490000*%
%ADD15C,3.550000*%
%ADD16C,1.624000*%
%ADD17C,2.640000*%
%ADD18O,3.910000X2.100000*%
%ADD19C,2.200000*%
%ADD20C,1.850000*%
%ADD21C,1.900000*%
%ADD22C,6.600000*%
%ADD23C,3.100000*%
%ADD24O,1.900000X2.700000*%
%ADD25O,2.100000X1.300000*%
%ADD26C,4.100000*%
%ADD27C,1.540000*%
%ADD28O,1.700000X1.700000*%
%ADD29O,1.800000X1.800000*%
%ADD30C,2.700000*%
G04 APERTURE END LIST*
%TO.C,J10*%
G36*
G01*
X207516300Y-91457386D02*
X207516300Y-93218654D01*
G75*
G02*
X207251934Y-93483020I-264366J0D01*
G01*
X205940666Y-93483020D01*
G75*
G02*
X205676300Y-93218654I0J264366D01*
G01*
X205676300Y-91457386D01*
G75*
G02*
X205940666Y-91193020I264366J0D01*
G01*
X207251934Y-91193020D01*
G75*
G02*
X207516300Y-91457386I0J-264366D01*
G01*
G37*
D10*
X204056300Y-92338020D03*
X201516300Y-92338020D03*
X198976300Y-92338020D03*
%TD*%
D11*
%TO.C,REF\u002A\u002A*%
X206000000Y-146000000D03*
D12*
X208400000Y-146000000D03*
X207697056Y-147697056D03*
X206000000Y-148400000D03*
X204302944Y-147697056D03*
X203600000Y-146000000D03*
X204302944Y-144302944D03*
X206000000Y-143600000D03*
X207697056Y-144302944D03*
%TD*%
D11*
%TO.C,REF\u002A\u002A*%
X54000000Y-54000000D03*
D12*
X56400000Y-54000000D03*
X55697056Y-55697056D03*
X54000000Y-56400000D03*
X52302944Y-55697056D03*
X51600000Y-54000000D03*
X52302944Y-52302944D03*
X54000000Y-51600000D03*
X55697056Y-52302944D03*
%TD*%
%TO.C,e*%
X55697056Y-144302944D03*
X54000000Y-143600000D03*
X52302944Y-144302944D03*
X51600000Y-146000000D03*
X52302944Y-147697056D03*
X54000000Y-148400000D03*
X55697056Y-147697056D03*
X56400000Y-146000000D03*
D11*
X54000000Y-146000000D03*
%TD*%
D12*
%TO.C,REF\u002A\u002A*%
X207697056Y-52302944D03*
X206000000Y-51600000D03*
X204302944Y-52302944D03*
X203600000Y-54000000D03*
X204302944Y-55697056D03*
X206000000Y-56400000D03*
X207697056Y-55697056D03*
X208400000Y-54000000D03*
D11*
X206000000Y-54000000D03*
%TD*%
D13*
%TO.C,U10*%
X58500000Y-87500000D03*
X61040000Y-87500000D03*
X104220000Y-87500000D03*
X101680000Y-87500000D03*
X58500000Y-90040000D03*
X58500000Y-92580000D03*
X58500000Y-95120000D03*
X58500000Y-97660000D03*
X58500000Y-100200000D03*
X58500000Y-102740000D03*
X58500000Y-105280000D03*
X58500000Y-107820000D03*
X58500000Y-110360000D03*
X104220000Y-110360000D03*
X104220000Y-107820000D03*
X104220000Y-105280000D03*
X104220000Y-102740000D03*
X104220000Y-100200000D03*
X104220000Y-97660000D03*
X104220000Y-95120000D03*
X104220000Y-92580000D03*
X104220000Y-90040000D03*
X61040000Y-90040000D03*
X61040000Y-92580000D03*
X61040000Y-95120000D03*
X61040000Y-97660000D03*
X61040000Y-100200000D03*
X61040000Y-102740000D03*
X61040000Y-105280000D03*
X61040000Y-107820000D03*
X61040000Y-110360000D03*
X101680000Y-110360000D03*
X101680000Y-107820000D03*
X101680000Y-105280000D03*
X101680000Y-102740000D03*
X101680000Y-100200000D03*
X101680000Y-97660000D03*
X101680000Y-95120000D03*
X101680000Y-92580000D03*
X101680000Y-90040000D03*
%TD*%
D14*
%TO.C,BT1*%
X61840000Y-128120000D03*
D15*
X70170000Y-144120000D03*
X125370000Y-128120000D03*
%TD*%
D16*
%TO.C,J6*%
X162463800Y-106204400D03*
X162463800Y-104204400D03*
X162463800Y-102204400D03*
G36*
G01*
X161651800Y-100966400D02*
X161651800Y-99442400D01*
G75*
G02*
X161701800Y-99392400I50000J0D01*
G01*
X163225800Y-99392400D01*
G75*
G02*
X163275800Y-99442400I0J-50000D01*
G01*
X163275800Y-100966400D01*
G75*
G02*
X163225800Y-101016400I-50000J0D01*
G01*
X161701800Y-101016400D01*
G75*
G02*
X161651800Y-100966400I0J50000D01*
G01*
G37*
%TD*%
D17*
%TO.C,SW3*%
X52045000Y-74775000D03*
X52045000Y-61575000D03*
D18*
X61575000Y-72875000D03*
X61575000Y-68175000D03*
X61575000Y-63475000D03*
%TD*%
D19*
%TO.C,SW2*%
X55175000Y-124670000D03*
D20*
X52685000Y-123420000D03*
X52685000Y-118920000D03*
D19*
X55175000Y-117660000D03*
%TD*%
%TO.C,SW1*%
X55175000Y-114510000D03*
D20*
X52685000Y-113260000D03*
X52685000Y-108760000D03*
D19*
X55175000Y-107500000D03*
%TD*%
D21*
%TO.C,LD_F3*%
X192550100Y-135911100D03*
G36*
G01*
X189060100Y-136811100D02*
X189060100Y-135011100D01*
G75*
G02*
X189110100Y-134961100I50000J0D01*
G01*
X190910100Y-134961100D01*
G75*
G02*
X190960100Y-135011100I0J-50000D01*
G01*
X190960100Y-136811100D01*
G75*
G02*
X190910100Y-136861100I-50000J0D01*
G01*
X189110100Y-136861100D01*
G75*
G02*
X189060100Y-136811100I0J50000D01*
G01*
G37*
%TD*%
%TO.C,LD_F2*%
X192550100Y-120911100D03*
G36*
G01*
X189060100Y-121811100D02*
X189060100Y-120011100D01*
G75*
G02*
X189110100Y-119961100I50000J0D01*
G01*
X190910100Y-119961100D01*
G75*
G02*
X190960100Y-120011100I0J-50000D01*
G01*
X190960100Y-121811100D01*
G75*
G02*
X190910100Y-121861100I-50000J0D01*
G01*
X189110100Y-121861100D01*
G75*
G02*
X189060100Y-121811100I0J50000D01*
G01*
G37*
%TD*%
%TO.C,LD_F1*%
G36*
G01*
X189060100Y-106451100D02*
X189060100Y-104651100D01*
G75*
G02*
X189110100Y-104601100I50000J0D01*
G01*
X190910100Y-104601100D01*
G75*
G02*
X190960100Y-104651100I0J-50000D01*
G01*
X190960100Y-106451100D01*
G75*
G02*
X190910100Y-106501100I-50000J0D01*
G01*
X189110100Y-106501100D01*
G75*
G02*
X189060100Y-106451100I0J50000D01*
G01*
G37*
X192550100Y-105551100D03*
%TD*%
D22*
%TO.C,J13*%
X205000000Y-136000000D03*
%TD*%
%TO.C,J12*%
X205000000Y-118000000D03*
%TD*%
%TO.C,J11*%
X205000000Y-127000000D03*
%TD*%
%TO.C,J8*%
X205000000Y-109000000D03*
%TD*%
D23*
%TO.C,U1*%
X188225000Y-53570000D03*
X188224480Y-84570700D03*
X113225900Y-84570700D03*
X113225900Y-53570000D03*
D24*
X156825000Y-53570000D03*
X154285000Y-53570000D03*
X151745000Y-53570000D03*
X149205000Y-53570000D03*
X146665000Y-53570000D03*
X144125000Y-53570000D03*
X141585000Y-53570000D03*
X139045000Y-53570000D03*
X136505000Y-53570000D03*
X133965000Y-53570000D03*
X131425000Y-53570000D03*
X128885000Y-53570000D03*
X126345000Y-53570000D03*
X123805000Y-53570000D03*
X121265000Y-53570000D03*
G36*
G01*
X117775000Y-54870000D02*
X117775000Y-52270000D01*
G75*
G02*
X117825000Y-52220000I50000J0D01*
G01*
X119625000Y-52220000D01*
G75*
G02*
X119675000Y-52270000I0J-50000D01*
G01*
X119675000Y-54870000D01*
G75*
G02*
X119625000Y-54920000I-50000J0D01*
G01*
X117825000Y-54920000D01*
G75*
G02*
X117775000Y-54870000I0J50000D01*
G01*
G37*
%TD*%
D25*
%TO.C,X1*%
X109630000Y-115275000D03*
X131630000Y-115275000D03*
X109630000Y-113275000D03*
X131630000Y-113275000D03*
X109630000Y-111275000D03*
X131630000Y-111275000D03*
X109630000Y-109275000D03*
X131630000Y-109275000D03*
X109630000Y-107275000D03*
X131630000Y-107275000D03*
X109630000Y-105275000D03*
X131630000Y-105275000D03*
X109630000Y-103275000D03*
X131630000Y-103275000D03*
X109630000Y-101275000D03*
X131630000Y-101275000D03*
X109630000Y-99275000D03*
X131630000Y-99275000D03*
X109630000Y-97275000D03*
X131630000Y-97275000D03*
%TD*%
D16*
%TO.C,U5*%
X122535000Y-119610000D03*
X122535000Y-122150000D03*
X119995000Y-119610000D03*
X119995000Y-122150000D03*
X117455000Y-119610000D03*
X117455000Y-122150000D03*
X114915000Y-119610000D03*
G36*
G01*
X115677000Y-122962000D02*
X114153000Y-122962000D01*
G75*
G02*
X114103000Y-122912000I0J50000D01*
G01*
X114103000Y-121388000D01*
G75*
G02*
X114153000Y-121338000I50000J0D01*
G01*
X115677000Y-121338000D01*
G75*
G02*
X115727000Y-121388000I0J-50000D01*
G01*
X115727000Y-122912000D01*
G75*
G02*
X115677000Y-122962000I-50000J0D01*
G01*
G37*
%TD*%
D26*
%TO.C,RV2*%
X203195000Y-85315000D03*
X203195000Y-76515000D03*
D21*
X196195000Y-83415000D03*
X196195000Y-80915000D03*
X196195000Y-78415000D03*
%TD*%
D27*
%TO.C,RV1*%
X102215000Y-56745000D03*
X104755000Y-54205000D03*
X107295000Y-56745000D03*
%TD*%
D28*
%TO.C,RN1*%
X181033740Y-120994300D03*
X181033740Y-123534300D03*
X181033740Y-126074300D03*
X181033740Y-128614300D03*
X181033740Y-131154300D03*
X181033740Y-133694300D03*
X181033740Y-136234300D03*
X181033740Y-138774300D03*
G36*
G01*
X181833740Y-142164300D02*
X180233740Y-142164300D01*
G75*
G02*
X180183740Y-142114300I0J50000D01*
G01*
X180183740Y-140514300D01*
G75*
G02*
X180233740Y-140464300I50000J0D01*
G01*
X181833740Y-140464300D01*
G75*
G02*
X181883740Y-140514300I0J-50000D01*
G01*
X181883740Y-142114300D01*
G75*
G02*
X181833740Y-142164300I-50000J0D01*
G01*
G37*
%TD*%
D29*
%TO.C,JP5*%
X135966520Y-106329640D03*
X138506520Y-106329640D03*
G36*
G01*
X140196520Y-105429640D02*
X141896520Y-105429640D01*
G75*
G02*
X141946520Y-105479640I0J-50000D01*
G01*
X141946520Y-107179640D01*
G75*
G02*
X141896520Y-107229640I-50000J0D01*
G01*
X140196520Y-107229640D01*
G75*
G02*
X140146520Y-107179640I0J50000D01*
G01*
X140146520Y-105479640D01*
G75*
G02*
X140196520Y-105429640I50000J0D01*
G01*
G37*
%TD*%
%TO.C,JP4*%
X135966520Y-103789640D03*
X138506520Y-103789640D03*
G36*
G01*
X140196520Y-102889640D02*
X141896520Y-102889640D01*
G75*
G02*
X141946520Y-102939640I0J-50000D01*
G01*
X141946520Y-104639640D01*
G75*
G02*
X141896520Y-104689640I-50000J0D01*
G01*
X140196520Y-104689640D01*
G75*
G02*
X140146520Y-104639640I0J50000D01*
G01*
X140146520Y-102939640D01*
G75*
G02*
X140196520Y-102889640I50000J0D01*
G01*
G37*
%TD*%
%TO.C,JP3*%
X135966520Y-111409640D03*
X138506520Y-111409640D03*
G36*
G01*
X140196520Y-110509640D02*
X141896520Y-110509640D01*
G75*
G02*
X141946520Y-110559640I0J-50000D01*
G01*
X141946520Y-112259640D01*
G75*
G02*
X141896520Y-112309640I-50000J0D01*
G01*
X140196520Y-112309640D01*
G75*
G02*
X140146520Y-112259640I0J50000D01*
G01*
X140146520Y-110559640D01*
G75*
G02*
X140196520Y-110509640I50000J0D01*
G01*
G37*
%TD*%
%TO.C,JP1*%
X135966520Y-108869640D03*
X138506520Y-108869640D03*
G36*
G01*
X140196520Y-107969640D02*
X141896520Y-107969640D01*
G75*
G02*
X141946520Y-108019640I0J-50000D01*
G01*
X141946520Y-109719640D01*
G75*
G02*
X141896520Y-109769640I-50000J0D01*
G01*
X140196520Y-109769640D01*
G75*
G02*
X140146520Y-109719640I0J50000D01*
G01*
X140146520Y-108019640D01*
G75*
G02*
X140196520Y-107969640I50000J0D01*
G01*
G37*
%TD*%
D30*
%TO.C,J18*%
X202545000Y-69445000D03*
G36*
G01*
X201245000Y-63015000D02*
X203845000Y-63015000D01*
G75*
G02*
X203895000Y-63065000I0J-50000D01*
G01*
X203895000Y-65665000D01*
G75*
G02*
X203845000Y-65715000I-50000J0D01*
G01*
X201245000Y-65715000D01*
G75*
G02*
X201195000Y-65665000I0J50000D01*
G01*
X201195000Y-63065000D01*
G75*
G02*
X201245000Y-63015000I50000J0D01*
G01*
G37*
%TD*%
D29*
%TO.C,J14*%
X167620000Y-90400000D03*
X170160000Y-90400000D03*
X167620000Y-92940000D03*
X170160000Y-92940000D03*
X167620000Y-95480000D03*
X170160000Y-95480000D03*
X167620000Y-98020000D03*
X170160000Y-98020000D03*
X167620000Y-100560000D03*
G36*
G01*
X171060000Y-99710000D02*
X171060000Y-101410000D01*
G75*
G02*
X171010000Y-101460000I-50000J0D01*
G01*
X169310000Y-101460000D01*
G75*
G02*
X169260000Y-101410000I0J50000D01*
G01*
X169260000Y-99710000D01*
G75*
G02*
X169310000Y-99660000I50000J0D01*
G01*
X171010000Y-99660000D01*
G75*
G02*
X171060000Y-99710000I0J-50000D01*
G01*
G37*
%TD*%
%TO.C,J7*%
X141046520Y-98709640D03*
X141046520Y-96169640D03*
X141046520Y-93629640D03*
G36*
G01*
X140146520Y-91939640D02*
X140146520Y-90239640D01*
G75*
G02*
X140196520Y-90189640I50000J0D01*
G01*
X141896520Y-90189640D01*
G75*
G02*
X141946520Y-90239640I0J-50000D01*
G01*
X141946520Y-91939640D01*
G75*
G02*
X141896520Y-91989640I-50000J0D01*
G01*
X140196520Y-91989640D01*
G75*
G02*
X140146520Y-91939640I0J50000D01*
G01*
G37*
%TD*%
D16*
%TO.C,J5*%
X154843800Y-106204400D03*
X154843800Y-104204400D03*
X154843800Y-102204400D03*
G36*
G01*
X154031800Y-100966400D02*
X154031800Y-99442400D01*
G75*
G02*
X154081800Y-99392400I50000J0D01*
G01*
X155605800Y-99392400D01*
G75*
G02*
X155655800Y-99442400I0J-50000D01*
G01*
X155655800Y-100966400D01*
G75*
G02*
X155605800Y-101016400I-50000J0D01*
G01*
X154081800Y-101016400D01*
G75*
G02*
X154031800Y-100966400I0J50000D01*
G01*
G37*
%TD*%
D29*
%TO.C,J4*%
X138506520Y-121569640D03*
X135966520Y-121569640D03*
X138506520Y-119029640D03*
X135966520Y-119029640D03*
X138506520Y-116489640D03*
X135966520Y-116489640D03*
X138506520Y-113949640D03*
G36*
G01*
X135066520Y-114799640D02*
X135066520Y-113099640D01*
G75*
G02*
X135116520Y-113049640I50000J0D01*
G01*
X136816520Y-113049640D01*
G75*
G02*
X136866520Y-113099640I0J-50000D01*
G01*
X136866520Y-114799640D01*
G75*
G02*
X136816520Y-114849640I-50000J0D01*
G01*
X135116520Y-114849640D01*
G75*
G02*
X135066520Y-114799640I0J50000D01*
G01*
G37*
%TD*%
D16*
%TO.C,J3*%
X147223800Y-106204400D03*
X147223800Y-104204400D03*
X147223800Y-102204400D03*
G36*
G01*
X146411800Y-100966400D02*
X146411800Y-99442400D01*
G75*
G02*
X146461800Y-99392400I50000J0D01*
G01*
X147985800Y-99392400D01*
G75*
G02*
X148035800Y-99442400I0J-50000D01*
G01*
X148035800Y-100966400D01*
G75*
G02*
X147985800Y-101016400I-50000J0D01*
G01*
X146461800Y-101016400D01*
G75*
G02*
X146411800Y-100966400I0J50000D01*
G01*
G37*
%TD*%
D29*
%TO.C,J2*%
X138506520Y-101249640D03*
X135966520Y-101249640D03*
X138506520Y-98709640D03*
X135966520Y-98709640D03*
X138506520Y-96169640D03*
X135966520Y-96169640D03*
X138506520Y-93629640D03*
X135966520Y-93629640D03*
X138506520Y-91089640D03*
G36*
G01*
X135066520Y-91939640D02*
X135066520Y-90239640D01*
G75*
G02*
X135116520Y-90189640I50000J0D01*
G01*
X136816520Y-90189640D01*
G75*
G02*
X136866520Y-90239640I0J-50000D01*
G01*
X136866520Y-91939640D01*
G75*
G02*
X136816520Y-91989640I-50000J0D01*
G01*
X135116520Y-91989640D01*
G75*
G02*
X135066520Y-91939640I0J50000D01*
G01*
G37*
%TD*%
D22*
%TO.C,J9*%
X205000000Y-100000000D03*
%TD*%
%TO.C,J15*%
G36*
G01*
X181781340Y-146860020D02*
X181781340Y-148560020D01*
G75*
G02*
X181731340Y-148610020I-50000J0D01*
G01*
X180031340Y-148610020D01*
G75*
G02*
X179981340Y-148560020I0J50000D01*
G01*
X179981340Y-146860020D01*
G75*
G02*
X180031340Y-146810020I50000J0D01*
G01*
X181731340Y-146810020D01*
G75*
G02*
X181781340Y-146860020I0J-50000D01*
G01*
G37*
D29*
X180881340Y-145170020D03*
%TD*%
M02*
