%TF.GenerationSoftware,KiCad,Pcbnew,5.1.6*%
%TF.CreationDate,2020-08-10T13:19:17+02:00*%
%TF.ProjectId,MCT_Labor_5529,4d43545f-4c61-4626-9f72-5f353532392e,rev?*%
%TF.SameCoordinates,Original*%
%TF.FileFunction,Soldermask,Top*%
%TF.FilePolarity,Negative*%
%FSLAX46Y46*%
G04 Gerber Fmt 4.6, Leading zero omitted, Abs format (unit mm)*
G04 Created by KiCad (PCBNEW 5.1.6) date 2020-08-10 13:19:17*
%MOMM*%
%LPD*%
G01*
G04 APERTURE LIST*
%ADD10O,1.840000X2.290000*%
%ADD11C,6.500000*%
%ADD12C,0.900000*%
%ADD13C,1.600000*%
%ADD14C,2.490000*%
%ADD15C,3.550000*%
%ADD16R,7.440000X6.450000*%
%ADD17C,1.624000*%
%ADD18R,1.624000X1.624000*%
%ADD19C,2.640000*%
%ADD20O,3.910000X2.100000*%
%ADD21C,2.200000*%
%ADD22C,1.850000*%
%ADD23C,1.900000*%
%ADD24R,1.900000X1.900000*%
%ADD25C,6.600000*%
%ADD26C,3.100000*%
%ADD27O,1.900000X2.700000*%
%ADD28R,1.900000X2.700000*%
%ADD29O,2.100000X1.300000*%
%ADD30R,0.700000X2.300000*%
%ADD31R,3.550000X2.250000*%
%ADD32R,0.750000X1.160000*%
%ADD33R,2.600000X1.100000*%
%ADD34R,1.100000X1.900000*%
%ADD35R,2.600000X1.300000*%
%ADD36R,1.300000X2.600000*%
%ADD37C,4.100000*%
%ADD38C,1.540000*%
%ADD39O,1.700000X1.700000*%
%ADD40R,1.700000X1.700000*%
%ADD41R,0.900000X1.000000*%
%ADD42O,1.800000X1.800000*%
%ADD43R,1.800000X1.800000*%
%ADD44C,2.700000*%
%ADD45R,2.700000X2.700000*%
%ADD46R,1.100000X1.650000*%
%ADD47R,1.600000X1.600000*%
%ADD48R,0.800000X1.850000*%
%ADD49R,0.900000X1.500000*%
%ADD50R,1.550000X1.100000*%
%ADD51R,0.900000X1.600000*%
%ADD52R,1.400000X1.600000*%
%ADD53R,1.000000X0.900000*%
%ADD54R,1.000000X1.300000*%
%ADD55R,0.900000X1.100000*%
%ADD56R,3.600000X2.400000*%
%ADD57R,3.500000X3.100000*%
%ADD58R,1.160000X0.750000*%
G04 APERTURE END LIST*
%TO.C,J10*%
G36*
G01*
X207516300Y-91457387D02*
X207516300Y-93218653D01*
G75*
G02*
X207251933Y-93483020I-264367J0D01*
G01*
X205940667Y-93483020D01*
G75*
G02*
X205676300Y-93218653I0J264367D01*
G01*
X205676300Y-91457387D01*
G75*
G02*
X205940667Y-91193020I264367J0D01*
G01*
X207251933Y-91193020D01*
G75*
G02*
X207516300Y-91457387I0J-264367D01*
G01*
G37*
D10*
X204056300Y-92338020D03*
X201516300Y-92338020D03*
X198976300Y-92338020D03*
%TD*%
D11*
%TO.C,REF\u002A\u002A*%
X206000000Y-146000000D03*
D12*
X208400000Y-146000000D03*
X207697056Y-147697056D03*
X206000000Y-148400000D03*
X204302944Y-147697056D03*
X203600000Y-146000000D03*
X204302944Y-144302944D03*
X206000000Y-143600000D03*
X207697056Y-144302944D03*
%TD*%
D11*
%TO.C,REF\u002A\u002A*%
X54000000Y-54000000D03*
D12*
X56400000Y-54000000D03*
X55697056Y-55697056D03*
X54000000Y-56400000D03*
X52302944Y-55697056D03*
X51600000Y-54000000D03*
X52302944Y-52302944D03*
X54000000Y-51600000D03*
X55697056Y-52302944D03*
%TD*%
%TO.C,e*%
X55697056Y-144302944D03*
X54000000Y-143600000D03*
X52302944Y-144302944D03*
X51600000Y-146000000D03*
X52302944Y-147697056D03*
X54000000Y-148400000D03*
X55697056Y-147697056D03*
X56400000Y-146000000D03*
D11*
X54000000Y-146000000D03*
%TD*%
D12*
%TO.C,REF\u002A\u002A*%
X207697056Y-52302944D03*
X206000000Y-51600000D03*
X204302944Y-52302944D03*
X203600000Y-54000000D03*
X204302944Y-55697056D03*
X206000000Y-56400000D03*
X207697056Y-55697056D03*
X208400000Y-54000000D03*
D11*
X206000000Y-54000000D03*
%TD*%
D13*
%TO.C,U10*%
X58500000Y-87500000D03*
X61040000Y-87500000D03*
X104220000Y-87500000D03*
X101680000Y-87500000D03*
X58500000Y-90040000D03*
X58500000Y-92580000D03*
X58500000Y-95120000D03*
X58500000Y-97660000D03*
X58500000Y-100200000D03*
X58500000Y-102740000D03*
X58500000Y-105280000D03*
X58500000Y-107820000D03*
X58500000Y-110360000D03*
X104220000Y-110360000D03*
X104220000Y-107820000D03*
X104220000Y-105280000D03*
X104220000Y-102740000D03*
X104220000Y-100200000D03*
X104220000Y-97660000D03*
X104220000Y-95120000D03*
X104220000Y-92580000D03*
X104220000Y-90040000D03*
X61040000Y-90040000D03*
X61040000Y-92580000D03*
X61040000Y-95120000D03*
X61040000Y-97660000D03*
X61040000Y-100200000D03*
X61040000Y-102740000D03*
X61040000Y-105280000D03*
X61040000Y-107820000D03*
X61040000Y-110360000D03*
X101680000Y-110360000D03*
X101680000Y-107820000D03*
X101680000Y-105280000D03*
X101680000Y-102740000D03*
X101680000Y-100200000D03*
X101680000Y-97660000D03*
X101680000Y-95120000D03*
X101680000Y-92580000D03*
X101680000Y-90040000D03*
%TD*%
D14*
%TO.C,BT1*%
X61840000Y-128120000D03*
D15*
X70170000Y-144120000D03*
X125370000Y-128120000D03*
D16*
X137100000Y-136120000D03*
X58440000Y-136120000D03*
%TD*%
%TO.C,U3*%
G36*
G01*
X177449680Y-118068480D02*
X177449680Y-118418480D01*
G75*
G02*
X177274680Y-118593480I-175000J0D01*
G01*
X175574680Y-118593480D01*
G75*
G02*
X175399680Y-118418480I0J175000D01*
G01*
X175399680Y-118068480D01*
G75*
G02*
X175574680Y-117893480I175000J0D01*
G01*
X177274680Y-117893480D01*
G75*
G02*
X177449680Y-118068480I0J-175000D01*
G01*
G37*
G36*
G01*
X177449680Y-116798480D02*
X177449680Y-117148480D01*
G75*
G02*
X177274680Y-117323480I-175000J0D01*
G01*
X175574680Y-117323480D01*
G75*
G02*
X175399680Y-117148480I0J175000D01*
G01*
X175399680Y-116798480D01*
G75*
G02*
X175574680Y-116623480I175000J0D01*
G01*
X177274680Y-116623480D01*
G75*
G02*
X177449680Y-116798480I0J-175000D01*
G01*
G37*
G36*
G01*
X177449680Y-115528480D02*
X177449680Y-115878480D01*
G75*
G02*
X177274680Y-116053480I-175000J0D01*
G01*
X175574680Y-116053480D01*
G75*
G02*
X175399680Y-115878480I0J175000D01*
G01*
X175399680Y-115528480D01*
G75*
G02*
X175574680Y-115353480I175000J0D01*
G01*
X177274680Y-115353480D01*
G75*
G02*
X177449680Y-115528480I0J-175000D01*
G01*
G37*
G36*
G01*
X177449680Y-114258480D02*
X177449680Y-114608480D01*
G75*
G02*
X177274680Y-114783480I-175000J0D01*
G01*
X175574680Y-114783480D01*
G75*
G02*
X175399680Y-114608480I0J175000D01*
G01*
X175399680Y-114258480D01*
G75*
G02*
X175574680Y-114083480I175000J0D01*
G01*
X177274680Y-114083480D01*
G75*
G02*
X177449680Y-114258480I0J-175000D01*
G01*
G37*
G36*
G01*
X177449680Y-112988480D02*
X177449680Y-113338480D01*
G75*
G02*
X177274680Y-113513480I-175000J0D01*
G01*
X175574680Y-113513480D01*
G75*
G02*
X175399680Y-113338480I0J175000D01*
G01*
X175399680Y-112988480D01*
G75*
G02*
X175574680Y-112813480I175000J0D01*
G01*
X177274680Y-112813480D01*
G75*
G02*
X177449680Y-112988480I0J-175000D01*
G01*
G37*
G36*
G01*
X177449680Y-111718480D02*
X177449680Y-112068480D01*
G75*
G02*
X177274680Y-112243480I-175000J0D01*
G01*
X175574680Y-112243480D01*
G75*
G02*
X175399680Y-112068480I0J175000D01*
G01*
X175399680Y-111718480D01*
G75*
G02*
X175574680Y-111543480I175000J0D01*
G01*
X177274680Y-111543480D01*
G75*
G02*
X177449680Y-111718480I0J-175000D01*
G01*
G37*
G36*
G01*
X177449680Y-110448480D02*
X177449680Y-110798480D01*
G75*
G02*
X177274680Y-110973480I-175000J0D01*
G01*
X175574680Y-110973480D01*
G75*
G02*
X175399680Y-110798480I0J175000D01*
G01*
X175399680Y-110448480D01*
G75*
G02*
X175574680Y-110273480I175000J0D01*
G01*
X177274680Y-110273480D01*
G75*
G02*
X177449680Y-110448480I0J-175000D01*
G01*
G37*
G36*
G01*
X177449680Y-109178480D02*
X177449680Y-109528480D01*
G75*
G02*
X177274680Y-109703480I-175000J0D01*
G01*
X175574680Y-109703480D01*
G75*
G02*
X175399680Y-109528480I0J175000D01*
G01*
X175399680Y-109178480D01*
G75*
G02*
X175574680Y-109003480I175000J0D01*
G01*
X177274680Y-109003480D01*
G75*
G02*
X177449680Y-109178480I0J-175000D01*
G01*
G37*
G36*
G01*
X172499680Y-109178480D02*
X172499680Y-109528480D01*
G75*
G02*
X172324680Y-109703480I-175000J0D01*
G01*
X170624680Y-109703480D01*
G75*
G02*
X170449680Y-109528480I0J175000D01*
G01*
X170449680Y-109178480D01*
G75*
G02*
X170624680Y-109003480I175000J0D01*
G01*
X172324680Y-109003480D01*
G75*
G02*
X172499680Y-109178480I0J-175000D01*
G01*
G37*
G36*
G01*
X172499680Y-110448480D02*
X172499680Y-110798480D01*
G75*
G02*
X172324680Y-110973480I-175000J0D01*
G01*
X170624680Y-110973480D01*
G75*
G02*
X170449680Y-110798480I0J175000D01*
G01*
X170449680Y-110448480D01*
G75*
G02*
X170624680Y-110273480I175000J0D01*
G01*
X172324680Y-110273480D01*
G75*
G02*
X172499680Y-110448480I0J-175000D01*
G01*
G37*
G36*
G01*
X172499680Y-111718480D02*
X172499680Y-112068480D01*
G75*
G02*
X172324680Y-112243480I-175000J0D01*
G01*
X170624680Y-112243480D01*
G75*
G02*
X170449680Y-112068480I0J175000D01*
G01*
X170449680Y-111718480D01*
G75*
G02*
X170624680Y-111543480I175000J0D01*
G01*
X172324680Y-111543480D01*
G75*
G02*
X172499680Y-111718480I0J-175000D01*
G01*
G37*
G36*
G01*
X172499680Y-112988480D02*
X172499680Y-113338480D01*
G75*
G02*
X172324680Y-113513480I-175000J0D01*
G01*
X170624680Y-113513480D01*
G75*
G02*
X170449680Y-113338480I0J175000D01*
G01*
X170449680Y-112988480D01*
G75*
G02*
X170624680Y-112813480I175000J0D01*
G01*
X172324680Y-112813480D01*
G75*
G02*
X172499680Y-112988480I0J-175000D01*
G01*
G37*
G36*
G01*
X172499680Y-114258480D02*
X172499680Y-114608480D01*
G75*
G02*
X172324680Y-114783480I-175000J0D01*
G01*
X170624680Y-114783480D01*
G75*
G02*
X170449680Y-114608480I0J175000D01*
G01*
X170449680Y-114258480D01*
G75*
G02*
X170624680Y-114083480I175000J0D01*
G01*
X172324680Y-114083480D01*
G75*
G02*
X172499680Y-114258480I0J-175000D01*
G01*
G37*
G36*
G01*
X172499680Y-115528480D02*
X172499680Y-115878480D01*
G75*
G02*
X172324680Y-116053480I-175000J0D01*
G01*
X170624680Y-116053480D01*
G75*
G02*
X170449680Y-115878480I0J175000D01*
G01*
X170449680Y-115528480D01*
G75*
G02*
X170624680Y-115353480I175000J0D01*
G01*
X172324680Y-115353480D01*
G75*
G02*
X172499680Y-115528480I0J-175000D01*
G01*
G37*
G36*
G01*
X172499680Y-116798480D02*
X172499680Y-117148480D01*
G75*
G02*
X172324680Y-117323480I-175000J0D01*
G01*
X170624680Y-117323480D01*
G75*
G02*
X170449680Y-117148480I0J175000D01*
G01*
X170449680Y-116798480D01*
G75*
G02*
X170624680Y-116623480I175000J0D01*
G01*
X172324680Y-116623480D01*
G75*
G02*
X172499680Y-116798480I0J-175000D01*
G01*
G37*
G36*
G01*
X172499680Y-118068480D02*
X172499680Y-118418480D01*
G75*
G02*
X172324680Y-118593480I-175000J0D01*
G01*
X170624680Y-118593480D01*
G75*
G02*
X170449680Y-118418480I0J175000D01*
G01*
X170449680Y-118068480D01*
G75*
G02*
X170624680Y-117893480I175000J0D01*
G01*
X172324680Y-117893480D01*
G75*
G02*
X172499680Y-118068480I0J-175000D01*
G01*
G37*
%TD*%
D17*
%TO.C,J6*%
X162463800Y-106204400D03*
X162463800Y-104204400D03*
X162463800Y-102204400D03*
D18*
X162463800Y-100204400D03*
%TD*%
D19*
%TO.C,SW3*%
X52045000Y-74775000D03*
X52045000Y-61575000D03*
D20*
X61575000Y-72875000D03*
X61575000Y-68175000D03*
X61575000Y-63475000D03*
%TD*%
D21*
%TO.C,SW2*%
X55175000Y-124670000D03*
D22*
X52685000Y-123420000D03*
X52685000Y-118920000D03*
D21*
X55175000Y-117660000D03*
%TD*%
%TO.C,SW1*%
X55175000Y-114510000D03*
D22*
X52685000Y-113260000D03*
X52685000Y-108760000D03*
D21*
X55175000Y-107500000D03*
%TD*%
%TO.C,R49*%
G36*
G01*
X67937420Y-113251500D02*
X67937420Y-113776500D01*
G75*
G02*
X67674920Y-114039000I-262500J0D01*
G01*
X67049920Y-114039000D01*
G75*
G02*
X66787420Y-113776500I0J262500D01*
G01*
X66787420Y-113251500D01*
G75*
G02*
X67049920Y-112989000I262500J0D01*
G01*
X67674920Y-112989000D01*
G75*
G02*
X67937420Y-113251500I0J-262500D01*
G01*
G37*
G36*
G01*
X69687420Y-113251500D02*
X69687420Y-113776500D01*
G75*
G02*
X69424920Y-114039000I-262500J0D01*
G01*
X68799920Y-114039000D01*
G75*
G02*
X68537420Y-113776500I0J262500D01*
G01*
X68537420Y-113251500D01*
G75*
G02*
X68799920Y-112989000I262500J0D01*
G01*
X69424920Y-112989000D01*
G75*
G02*
X69687420Y-113251500I0J-262500D01*
G01*
G37*
%TD*%
D23*
%TO.C,LD_F3*%
X192550100Y-135911100D03*
D24*
X190010100Y-135911100D03*
%TD*%
D23*
%TO.C,LD_F2*%
X192550100Y-120911100D03*
D24*
X190010100Y-120911100D03*
%TD*%
%TO.C,LD_F1*%
X190010100Y-105551100D03*
D23*
X192550100Y-105551100D03*
%TD*%
D25*
%TO.C,J13*%
X205000000Y-136000000D03*
%TD*%
%TO.C,J12*%
X205000000Y-118000000D03*
%TD*%
%TO.C,J11*%
X205000000Y-127000000D03*
%TD*%
%TO.C,J8*%
X205000000Y-109000000D03*
%TD*%
D26*
%TO.C,U1*%
X188225000Y-53570000D03*
X188224480Y-84570700D03*
X113225900Y-84570700D03*
X113225900Y-53570000D03*
D27*
X156825000Y-53570000D03*
X154285000Y-53570000D03*
X151745000Y-53570000D03*
X149205000Y-53570000D03*
X146665000Y-53570000D03*
X144125000Y-53570000D03*
X141585000Y-53570000D03*
X139045000Y-53570000D03*
X136505000Y-53570000D03*
X133965000Y-53570000D03*
X131425000Y-53570000D03*
X128885000Y-53570000D03*
X126345000Y-53570000D03*
X123805000Y-53570000D03*
X121265000Y-53570000D03*
D28*
X118725000Y-53570000D03*
%TD*%
D29*
%TO.C,X1*%
X109630000Y-115275000D03*
X131630000Y-115275000D03*
X109630000Y-113275000D03*
X131630000Y-113275000D03*
X109630000Y-111275000D03*
X131630000Y-111275000D03*
X109630000Y-109275000D03*
X131630000Y-109275000D03*
X109630000Y-107275000D03*
X131630000Y-107275000D03*
X109630000Y-105275000D03*
X131630000Y-105275000D03*
X109630000Y-103275000D03*
X131630000Y-103275000D03*
X109630000Y-101275000D03*
X131630000Y-101275000D03*
X109630000Y-99275000D03*
X131630000Y-99275000D03*
X109630000Y-97275000D03*
X131630000Y-97275000D03*
%TD*%
D30*
%TO.C,U12*%
X76474640Y-100121180D03*
X81554640Y-100121180D03*
X79014640Y-100121180D03*
D31*
X79014640Y-93821180D03*
D30*
X77744640Y-100121180D03*
X80284640Y-100121180D03*
%TD*%
D32*
%TO.C,U11*%
X72656980Y-116765020D03*
X74556980Y-116765020D03*
X74556980Y-118965020D03*
X73606980Y-118965020D03*
X72656980Y-118965020D03*
%TD*%
%TO.C,U9*%
G36*
G01*
X86265440Y-114962120D02*
X86515440Y-114962120D01*
G75*
G02*
X86640440Y-115087120I0J-125000D01*
G01*
X86640440Y-116562120D01*
G75*
G02*
X86515440Y-116687120I-125000J0D01*
G01*
X86265440Y-116687120D01*
G75*
G02*
X86140440Y-116562120I0J125000D01*
G01*
X86140440Y-115087120D01*
G75*
G02*
X86265440Y-114962120I125000J0D01*
G01*
G37*
G36*
G01*
X85615440Y-114962120D02*
X85865440Y-114962120D01*
G75*
G02*
X85990440Y-115087120I0J-125000D01*
G01*
X85990440Y-116562120D01*
G75*
G02*
X85865440Y-116687120I-125000J0D01*
G01*
X85615440Y-116687120D01*
G75*
G02*
X85490440Y-116562120I0J125000D01*
G01*
X85490440Y-115087120D01*
G75*
G02*
X85615440Y-114962120I125000J0D01*
G01*
G37*
G36*
G01*
X84965440Y-114962120D02*
X85215440Y-114962120D01*
G75*
G02*
X85340440Y-115087120I0J-125000D01*
G01*
X85340440Y-116562120D01*
G75*
G02*
X85215440Y-116687120I-125000J0D01*
G01*
X84965440Y-116687120D01*
G75*
G02*
X84840440Y-116562120I0J125000D01*
G01*
X84840440Y-115087120D01*
G75*
G02*
X84965440Y-114962120I125000J0D01*
G01*
G37*
G36*
G01*
X84315440Y-114962120D02*
X84565440Y-114962120D01*
G75*
G02*
X84690440Y-115087120I0J-125000D01*
G01*
X84690440Y-116562120D01*
G75*
G02*
X84565440Y-116687120I-125000J0D01*
G01*
X84315440Y-116687120D01*
G75*
G02*
X84190440Y-116562120I0J125000D01*
G01*
X84190440Y-115087120D01*
G75*
G02*
X84315440Y-114962120I125000J0D01*
G01*
G37*
G36*
G01*
X84315440Y-110737120D02*
X84565440Y-110737120D01*
G75*
G02*
X84690440Y-110862120I0J-125000D01*
G01*
X84690440Y-112337120D01*
G75*
G02*
X84565440Y-112462120I-125000J0D01*
G01*
X84315440Y-112462120D01*
G75*
G02*
X84190440Y-112337120I0J125000D01*
G01*
X84190440Y-110862120D01*
G75*
G02*
X84315440Y-110737120I125000J0D01*
G01*
G37*
G36*
G01*
X84965440Y-110737120D02*
X85215440Y-110737120D01*
G75*
G02*
X85340440Y-110862120I0J-125000D01*
G01*
X85340440Y-112337120D01*
G75*
G02*
X85215440Y-112462120I-125000J0D01*
G01*
X84965440Y-112462120D01*
G75*
G02*
X84840440Y-112337120I0J125000D01*
G01*
X84840440Y-110862120D01*
G75*
G02*
X84965440Y-110737120I125000J0D01*
G01*
G37*
G36*
G01*
X85615440Y-110737120D02*
X85865440Y-110737120D01*
G75*
G02*
X85990440Y-110862120I0J-125000D01*
G01*
X85990440Y-112337120D01*
G75*
G02*
X85865440Y-112462120I-125000J0D01*
G01*
X85615440Y-112462120D01*
G75*
G02*
X85490440Y-112337120I0J125000D01*
G01*
X85490440Y-110862120D01*
G75*
G02*
X85615440Y-110737120I125000J0D01*
G01*
G37*
G36*
G01*
X86265440Y-110737120D02*
X86515440Y-110737120D01*
G75*
G02*
X86640440Y-110862120I0J-125000D01*
G01*
X86640440Y-112337120D01*
G75*
G02*
X86515440Y-112462120I-125000J0D01*
G01*
X86265440Y-112462120D01*
G75*
G02*
X86140440Y-112337120I0J125000D01*
G01*
X86140440Y-110862120D01*
G75*
G02*
X86265440Y-110737120I125000J0D01*
G01*
G37*
%TD*%
D33*
%TO.C,U7*%
X128230000Y-99600000D03*
X128230000Y-101600000D03*
X128230000Y-103600000D03*
X128230000Y-105600000D03*
X128230000Y-107600000D03*
X128230000Y-109600000D03*
X128230000Y-111600000D03*
X128230000Y-113600000D03*
D34*
X125630000Y-115100000D03*
X123630000Y-115100000D03*
X121630000Y-115100000D03*
X119630000Y-115100000D03*
X117630000Y-115100000D03*
X115630000Y-115100000D03*
D33*
X113030000Y-113600000D03*
X113030000Y-111600000D03*
X113030000Y-109600000D03*
X113030000Y-107600000D03*
X113030000Y-105600000D03*
X113030000Y-103600000D03*
X113030000Y-101600000D03*
X113030000Y-99600000D03*
%TD*%
%TO.C,U6*%
G36*
G01*
X149903240Y-70795120D02*
X149553240Y-70795120D01*
G75*
G02*
X149378240Y-70620120I0J175000D01*
G01*
X149378240Y-68920120D01*
G75*
G02*
X149553240Y-68745120I175000J0D01*
G01*
X149903240Y-68745120D01*
G75*
G02*
X150078240Y-68920120I0J-175000D01*
G01*
X150078240Y-70620120D01*
G75*
G02*
X149903240Y-70795120I-175000J0D01*
G01*
G37*
G36*
G01*
X151173240Y-70795120D02*
X150823240Y-70795120D01*
G75*
G02*
X150648240Y-70620120I0J175000D01*
G01*
X150648240Y-68920120D01*
G75*
G02*
X150823240Y-68745120I175000J0D01*
G01*
X151173240Y-68745120D01*
G75*
G02*
X151348240Y-68920120I0J-175000D01*
G01*
X151348240Y-70620120D01*
G75*
G02*
X151173240Y-70795120I-175000J0D01*
G01*
G37*
G36*
G01*
X152443240Y-70795120D02*
X152093240Y-70795120D01*
G75*
G02*
X151918240Y-70620120I0J175000D01*
G01*
X151918240Y-68920120D01*
G75*
G02*
X152093240Y-68745120I175000J0D01*
G01*
X152443240Y-68745120D01*
G75*
G02*
X152618240Y-68920120I0J-175000D01*
G01*
X152618240Y-70620120D01*
G75*
G02*
X152443240Y-70795120I-175000J0D01*
G01*
G37*
G36*
G01*
X153713240Y-70795120D02*
X153363240Y-70795120D01*
G75*
G02*
X153188240Y-70620120I0J175000D01*
G01*
X153188240Y-68920120D01*
G75*
G02*
X153363240Y-68745120I175000J0D01*
G01*
X153713240Y-68745120D01*
G75*
G02*
X153888240Y-68920120I0J-175000D01*
G01*
X153888240Y-70620120D01*
G75*
G02*
X153713240Y-70795120I-175000J0D01*
G01*
G37*
G36*
G01*
X154983240Y-70795120D02*
X154633240Y-70795120D01*
G75*
G02*
X154458240Y-70620120I0J175000D01*
G01*
X154458240Y-68920120D01*
G75*
G02*
X154633240Y-68745120I175000J0D01*
G01*
X154983240Y-68745120D01*
G75*
G02*
X155158240Y-68920120I0J-175000D01*
G01*
X155158240Y-70620120D01*
G75*
G02*
X154983240Y-70795120I-175000J0D01*
G01*
G37*
G36*
G01*
X156253240Y-70795120D02*
X155903240Y-70795120D01*
G75*
G02*
X155728240Y-70620120I0J175000D01*
G01*
X155728240Y-68920120D01*
G75*
G02*
X155903240Y-68745120I175000J0D01*
G01*
X156253240Y-68745120D01*
G75*
G02*
X156428240Y-68920120I0J-175000D01*
G01*
X156428240Y-70620120D01*
G75*
G02*
X156253240Y-70795120I-175000J0D01*
G01*
G37*
G36*
G01*
X157523240Y-70795120D02*
X157173240Y-70795120D01*
G75*
G02*
X156998240Y-70620120I0J175000D01*
G01*
X156998240Y-68920120D01*
G75*
G02*
X157173240Y-68745120I175000J0D01*
G01*
X157523240Y-68745120D01*
G75*
G02*
X157698240Y-68920120I0J-175000D01*
G01*
X157698240Y-70620120D01*
G75*
G02*
X157523240Y-70795120I-175000J0D01*
G01*
G37*
G36*
G01*
X158793240Y-70795120D02*
X158443240Y-70795120D01*
G75*
G02*
X158268240Y-70620120I0J175000D01*
G01*
X158268240Y-68920120D01*
G75*
G02*
X158443240Y-68745120I175000J0D01*
G01*
X158793240Y-68745120D01*
G75*
G02*
X158968240Y-68920120I0J-175000D01*
G01*
X158968240Y-70620120D01*
G75*
G02*
X158793240Y-70795120I-175000J0D01*
G01*
G37*
G36*
G01*
X158793240Y-75745120D02*
X158443240Y-75745120D01*
G75*
G02*
X158268240Y-75570120I0J175000D01*
G01*
X158268240Y-73870120D01*
G75*
G02*
X158443240Y-73695120I175000J0D01*
G01*
X158793240Y-73695120D01*
G75*
G02*
X158968240Y-73870120I0J-175000D01*
G01*
X158968240Y-75570120D01*
G75*
G02*
X158793240Y-75745120I-175000J0D01*
G01*
G37*
G36*
G01*
X157523240Y-75745120D02*
X157173240Y-75745120D01*
G75*
G02*
X156998240Y-75570120I0J175000D01*
G01*
X156998240Y-73870120D01*
G75*
G02*
X157173240Y-73695120I175000J0D01*
G01*
X157523240Y-73695120D01*
G75*
G02*
X157698240Y-73870120I0J-175000D01*
G01*
X157698240Y-75570120D01*
G75*
G02*
X157523240Y-75745120I-175000J0D01*
G01*
G37*
G36*
G01*
X156253240Y-75745120D02*
X155903240Y-75745120D01*
G75*
G02*
X155728240Y-75570120I0J175000D01*
G01*
X155728240Y-73870120D01*
G75*
G02*
X155903240Y-73695120I175000J0D01*
G01*
X156253240Y-73695120D01*
G75*
G02*
X156428240Y-73870120I0J-175000D01*
G01*
X156428240Y-75570120D01*
G75*
G02*
X156253240Y-75745120I-175000J0D01*
G01*
G37*
G36*
G01*
X154983240Y-75745120D02*
X154633240Y-75745120D01*
G75*
G02*
X154458240Y-75570120I0J175000D01*
G01*
X154458240Y-73870120D01*
G75*
G02*
X154633240Y-73695120I175000J0D01*
G01*
X154983240Y-73695120D01*
G75*
G02*
X155158240Y-73870120I0J-175000D01*
G01*
X155158240Y-75570120D01*
G75*
G02*
X154983240Y-75745120I-175000J0D01*
G01*
G37*
G36*
G01*
X153713240Y-75745120D02*
X153363240Y-75745120D01*
G75*
G02*
X153188240Y-75570120I0J175000D01*
G01*
X153188240Y-73870120D01*
G75*
G02*
X153363240Y-73695120I175000J0D01*
G01*
X153713240Y-73695120D01*
G75*
G02*
X153888240Y-73870120I0J-175000D01*
G01*
X153888240Y-75570120D01*
G75*
G02*
X153713240Y-75745120I-175000J0D01*
G01*
G37*
G36*
G01*
X152443240Y-75745120D02*
X152093240Y-75745120D01*
G75*
G02*
X151918240Y-75570120I0J175000D01*
G01*
X151918240Y-73870120D01*
G75*
G02*
X152093240Y-73695120I175000J0D01*
G01*
X152443240Y-73695120D01*
G75*
G02*
X152618240Y-73870120I0J-175000D01*
G01*
X152618240Y-75570120D01*
G75*
G02*
X152443240Y-75745120I-175000J0D01*
G01*
G37*
G36*
G01*
X151173240Y-75745120D02*
X150823240Y-75745120D01*
G75*
G02*
X150648240Y-75570120I0J175000D01*
G01*
X150648240Y-73870120D01*
G75*
G02*
X150823240Y-73695120I175000J0D01*
G01*
X151173240Y-73695120D01*
G75*
G02*
X151348240Y-73870120I0J-175000D01*
G01*
X151348240Y-75570120D01*
G75*
G02*
X151173240Y-75745120I-175000J0D01*
G01*
G37*
G36*
G01*
X149903240Y-75745120D02*
X149553240Y-75745120D01*
G75*
G02*
X149378240Y-75570120I0J175000D01*
G01*
X149378240Y-73870120D01*
G75*
G02*
X149553240Y-73695120I175000J0D01*
G01*
X149903240Y-73695120D01*
G75*
G02*
X150078240Y-73870120I0J-175000D01*
G01*
X150078240Y-75570120D01*
G75*
G02*
X149903240Y-75745120I-175000J0D01*
G01*
G37*
%TD*%
D17*
%TO.C,U5*%
X122535000Y-119610000D03*
X122535000Y-122150000D03*
X119995000Y-119610000D03*
X119995000Y-122150000D03*
X117455000Y-119610000D03*
X117455000Y-122150000D03*
X114915000Y-119610000D03*
D18*
X114915000Y-122150000D03*
%TD*%
%TO.C,U4*%
G36*
G01*
X129446000Y-68314440D02*
X129446000Y-67964440D01*
G75*
G02*
X129621000Y-67789440I175000J0D01*
G01*
X131321000Y-67789440D01*
G75*
G02*
X131496000Y-67964440I0J-175000D01*
G01*
X131496000Y-68314440D01*
G75*
G02*
X131321000Y-68489440I-175000J0D01*
G01*
X129621000Y-68489440D01*
G75*
G02*
X129446000Y-68314440I0J175000D01*
G01*
G37*
G36*
G01*
X129446000Y-69584440D02*
X129446000Y-69234440D01*
G75*
G02*
X129621000Y-69059440I175000J0D01*
G01*
X131321000Y-69059440D01*
G75*
G02*
X131496000Y-69234440I0J-175000D01*
G01*
X131496000Y-69584440D01*
G75*
G02*
X131321000Y-69759440I-175000J0D01*
G01*
X129621000Y-69759440D01*
G75*
G02*
X129446000Y-69584440I0J175000D01*
G01*
G37*
G36*
G01*
X129446000Y-70854440D02*
X129446000Y-70504440D01*
G75*
G02*
X129621000Y-70329440I175000J0D01*
G01*
X131321000Y-70329440D01*
G75*
G02*
X131496000Y-70504440I0J-175000D01*
G01*
X131496000Y-70854440D01*
G75*
G02*
X131321000Y-71029440I-175000J0D01*
G01*
X129621000Y-71029440D01*
G75*
G02*
X129446000Y-70854440I0J175000D01*
G01*
G37*
G36*
G01*
X129446000Y-72124440D02*
X129446000Y-71774440D01*
G75*
G02*
X129621000Y-71599440I175000J0D01*
G01*
X131321000Y-71599440D01*
G75*
G02*
X131496000Y-71774440I0J-175000D01*
G01*
X131496000Y-72124440D01*
G75*
G02*
X131321000Y-72299440I-175000J0D01*
G01*
X129621000Y-72299440D01*
G75*
G02*
X129446000Y-72124440I0J175000D01*
G01*
G37*
G36*
G01*
X129446000Y-73394440D02*
X129446000Y-73044440D01*
G75*
G02*
X129621000Y-72869440I175000J0D01*
G01*
X131321000Y-72869440D01*
G75*
G02*
X131496000Y-73044440I0J-175000D01*
G01*
X131496000Y-73394440D01*
G75*
G02*
X131321000Y-73569440I-175000J0D01*
G01*
X129621000Y-73569440D01*
G75*
G02*
X129446000Y-73394440I0J175000D01*
G01*
G37*
G36*
G01*
X129446000Y-74664440D02*
X129446000Y-74314440D01*
G75*
G02*
X129621000Y-74139440I175000J0D01*
G01*
X131321000Y-74139440D01*
G75*
G02*
X131496000Y-74314440I0J-175000D01*
G01*
X131496000Y-74664440D01*
G75*
G02*
X131321000Y-74839440I-175000J0D01*
G01*
X129621000Y-74839440D01*
G75*
G02*
X129446000Y-74664440I0J175000D01*
G01*
G37*
G36*
G01*
X129446000Y-75934440D02*
X129446000Y-75584440D01*
G75*
G02*
X129621000Y-75409440I175000J0D01*
G01*
X131321000Y-75409440D01*
G75*
G02*
X131496000Y-75584440I0J-175000D01*
G01*
X131496000Y-75934440D01*
G75*
G02*
X131321000Y-76109440I-175000J0D01*
G01*
X129621000Y-76109440D01*
G75*
G02*
X129446000Y-75934440I0J175000D01*
G01*
G37*
G36*
G01*
X129446000Y-77204440D02*
X129446000Y-76854440D01*
G75*
G02*
X129621000Y-76679440I175000J0D01*
G01*
X131321000Y-76679440D01*
G75*
G02*
X131496000Y-76854440I0J-175000D01*
G01*
X131496000Y-77204440D01*
G75*
G02*
X131321000Y-77379440I-175000J0D01*
G01*
X129621000Y-77379440D01*
G75*
G02*
X129446000Y-77204440I0J175000D01*
G01*
G37*
G36*
G01*
X124496000Y-77204440D02*
X124496000Y-76854440D01*
G75*
G02*
X124671000Y-76679440I175000J0D01*
G01*
X126371000Y-76679440D01*
G75*
G02*
X126546000Y-76854440I0J-175000D01*
G01*
X126546000Y-77204440D01*
G75*
G02*
X126371000Y-77379440I-175000J0D01*
G01*
X124671000Y-77379440D01*
G75*
G02*
X124496000Y-77204440I0J175000D01*
G01*
G37*
G36*
G01*
X124496000Y-75934440D02*
X124496000Y-75584440D01*
G75*
G02*
X124671000Y-75409440I175000J0D01*
G01*
X126371000Y-75409440D01*
G75*
G02*
X126546000Y-75584440I0J-175000D01*
G01*
X126546000Y-75934440D01*
G75*
G02*
X126371000Y-76109440I-175000J0D01*
G01*
X124671000Y-76109440D01*
G75*
G02*
X124496000Y-75934440I0J175000D01*
G01*
G37*
G36*
G01*
X124496000Y-74664440D02*
X124496000Y-74314440D01*
G75*
G02*
X124671000Y-74139440I175000J0D01*
G01*
X126371000Y-74139440D01*
G75*
G02*
X126546000Y-74314440I0J-175000D01*
G01*
X126546000Y-74664440D01*
G75*
G02*
X126371000Y-74839440I-175000J0D01*
G01*
X124671000Y-74839440D01*
G75*
G02*
X124496000Y-74664440I0J175000D01*
G01*
G37*
G36*
G01*
X124496000Y-73394440D02*
X124496000Y-73044440D01*
G75*
G02*
X124671000Y-72869440I175000J0D01*
G01*
X126371000Y-72869440D01*
G75*
G02*
X126546000Y-73044440I0J-175000D01*
G01*
X126546000Y-73394440D01*
G75*
G02*
X126371000Y-73569440I-175000J0D01*
G01*
X124671000Y-73569440D01*
G75*
G02*
X124496000Y-73394440I0J175000D01*
G01*
G37*
G36*
G01*
X124496000Y-72124440D02*
X124496000Y-71774440D01*
G75*
G02*
X124671000Y-71599440I175000J0D01*
G01*
X126371000Y-71599440D01*
G75*
G02*
X126546000Y-71774440I0J-175000D01*
G01*
X126546000Y-72124440D01*
G75*
G02*
X126371000Y-72299440I-175000J0D01*
G01*
X124671000Y-72299440D01*
G75*
G02*
X124496000Y-72124440I0J175000D01*
G01*
G37*
G36*
G01*
X124496000Y-70854440D02*
X124496000Y-70504440D01*
G75*
G02*
X124671000Y-70329440I175000J0D01*
G01*
X126371000Y-70329440D01*
G75*
G02*
X126546000Y-70504440I0J-175000D01*
G01*
X126546000Y-70854440D01*
G75*
G02*
X126371000Y-71029440I-175000J0D01*
G01*
X124671000Y-71029440D01*
G75*
G02*
X124496000Y-70854440I0J175000D01*
G01*
G37*
G36*
G01*
X124496000Y-69584440D02*
X124496000Y-69234440D01*
G75*
G02*
X124671000Y-69059440I175000J0D01*
G01*
X126371000Y-69059440D01*
G75*
G02*
X126546000Y-69234440I0J-175000D01*
G01*
X126546000Y-69584440D01*
G75*
G02*
X126371000Y-69759440I-175000J0D01*
G01*
X124671000Y-69759440D01*
G75*
G02*
X124496000Y-69584440I0J175000D01*
G01*
G37*
G36*
G01*
X124496000Y-68314440D02*
X124496000Y-67964440D01*
G75*
G02*
X124671000Y-67789440I175000J0D01*
G01*
X126371000Y-67789440D01*
G75*
G02*
X126546000Y-67964440I0J-175000D01*
G01*
X126546000Y-68314440D01*
G75*
G02*
X126371000Y-68489440I-175000J0D01*
G01*
X124671000Y-68489440D01*
G75*
G02*
X124496000Y-68314440I0J175000D01*
G01*
G37*
%TD*%
%TO.C,U2*%
G36*
G01*
X178404960Y-90722320D02*
X178404960Y-90372320D01*
G75*
G02*
X178579960Y-90197320I175000J0D01*
G01*
X180279960Y-90197320D01*
G75*
G02*
X180454960Y-90372320I0J-175000D01*
G01*
X180454960Y-90722320D01*
G75*
G02*
X180279960Y-90897320I-175000J0D01*
G01*
X178579960Y-90897320D01*
G75*
G02*
X178404960Y-90722320I0J175000D01*
G01*
G37*
G36*
G01*
X178404960Y-91992320D02*
X178404960Y-91642320D01*
G75*
G02*
X178579960Y-91467320I175000J0D01*
G01*
X180279960Y-91467320D01*
G75*
G02*
X180454960Y-91642320I0J-175000D01*
G01*
X180454960Y-91992320D01*
G75*
G02*
X180279960Y-92167320I-175000J0D01*
G01*
X178579960Y-92167320D01*
G75*
G02*
X178404960Y-91992320I0J175000D01*
G01*
G37*
G36*
G01*
X178404960Y-93262320D02*
X178404960Y-92912320D01*
G75*
G02*
X178579960Y-92737320I175000J0D01*
G01*
X180279960Y-92737320D01*
G75*
G02*
X180454960Y-92912320I0J-175000D01*
G01*
X180454960Y-93262320D01*
G75*
G02*
X180279960Y-93437320I-175000J0D01*
G01*
X178579960Y-93437320D01*
G75*
G02*
X178404960Y-93262320I0J175000D01*
G01*
G37*
G36*
G01*
X178404960Y-94532320D02*
X178404960Y-94182320D01*
G75*
G02*
X178579960Y-94007320I175000J0D01*
G01*
X180279960Y-94007320D01*
G75*
G02*
X180454960Y-94182320I0J-175000D01*
G01*
X180454960Y-94532320D01*
G75*
G02*
X180279960Y-94707320I-175000J0D01*
G01*
X178579960Y-94707320D01*
G75*
G02*
X178404960Y-94532320I0J175000D01*
G01*
G37*
G36*
G01*
X178404960Y-95802320D02*
X178404960Y-95452320D01*
G75*
G02*
X178579960Y-95277320I175000J0D01*
G01*
X180279960Y-95277320D01*
G75*
G02*
X180454960Y-95452320I0J-175000D01*
G01*
X180454960Y-95802320D01*
G75*
G02*
X180279960Y-95977320I-175000J0D01*
G01*
X178579960Y-95977320D01*
G75*
G02*
X178404960Y-95802320I0J175000D01*
G01*
G37*
G36*
G01*
X178404960Y-97072320D02*
X178404960Y-96722320D01*
G75*
G02*
X178579960Y-96547320I175000J0D01*
G01*
X180279960Y-96547320D01*
G75*
G02*
X180454960Y-96722320I0J-175000D01*
G01*
X180454960Y-97072320D01*
G75*
G02*
X180279960Y-97247320I-175000J0D01*
G01*
X178579960Y-97247320D01*
G75*
G02*
X178404960Y-97072320I0J175000D01*
G01*
G37*
G36*
G01*
X178404960Y-98342320D02*
X178404960Y-97992320D01*
G75*
G02*
X178579960Y-97817320I175000J0D01*
G01*
X180279960Y-97817320D01*
G75*
G02*
X180454960Y-97992320I0J-175000D01*
G01*
X180454960Y-98342320D01*
G75*
G02*
X180279960Y-98517320I-175000J0D01*
G01*
X178579960Y-98517320D01*
G75*
G02*
X178404960Y-98342320I0J175000D01*
G01*
G37*
G36*
G01*
X178404960Y-99612320D02*
X178404960Y-99262320D01*
G75*
G02*
X178579960Y-99087320I175000J0D01*
G01*
X180279960Y-99087320D01*
G75*
G02*
X180454960Y-99262320I0J-175000D01*
G01*
X180454960Y-99612320D01*
G75*
G02*
X180279960Y-99787320I-175000J0D01*
G01*
X178579960Y-99787320D01*
G75*
G02*
X178404960Y-99612320I0J175000D01*
G01*
G37*
G36*
G01*
X183354960Y-99612320D02*
X183354960Y-99262320D01*
G75*
G02*
X183529960Y-99087320I175000J0D01*
G01*
X185229960Y-99087320D01*
G75*
G02*
X185404960Y-99262320I0J-175000D01*
G01*
X185404960Y-99612320D01*
G75*
G02*
X185229960Y-99787320I-175000J0D01*
G01*
X183529960Y-99787320D01*
G75*
G02*
X183354960Y-99612320I0J175000D01*
G01*
G37*
G36*
G01*
X183354960Y-98342320D02*
X183354960Y-97992320D01*
G75*
G02*
X183529960Y-97817320I175000J0D01*
G01*
X185229960Y-97817320D01*
G75*
G02*
X185404960Y-97992320I0J-175000D01*
G01*
X185404960Y-98342320D01*
G75*
G02*
X185229960Y-98517320I-175000J0D01*
G01*
X183529960Y-98517320D01*
G75*
G02*
X183354960Y-98342320I0J175000D01*
G01*
G37*
G36*
G01*
X183354960Y-97072320D02*
X183354960Y-96722320D01*
G75*
G02*
X183529960Y-96547320I175000J0D01*
G01*
X185229960Y-96547320D01*
G75*
G02*
X185404960Y-96722320I0J-175000D01*
G01*
X185404960Y-97072320D01*
G75*
G02*
X185229960Y-97247320I-175000J0D01*
G01*
X183529960Y-97247320D01*
G75*
G02*
X183354960Y-97072320I0J175000D01*
G01*
G37*
G36*
G01*
X183354960Y-95802320D02*
X183354960Y-95452320D01*
G75*
G02*
X183529960Y-95277320I175000J0D01*
G01*
X185229960Y-95277320D01*
G75*
G02*
X185404960Y-95452320I0J-175000D01*
G01*
X185404960Y-95802320D01*
G75*
G02*
X185229960Y-95977320I-175000J0D01*
G01*
X183529960Y-95977320D01*
G75*
G02*
X183354960Y-95802320I0J175000D01*
G01*
G37*
G36*
G01*
X183354960Y-94532320D02*
X183354960Y-94182320D01*
G75*
G02*
X183529960Y-94007320I175000J0D01*
G01*
X185229960Y-94007320D01*
G75*
G02*
X185404960Y-94182320I0J-175000D01*
G01*
X185404960Y-94532320D01*
G75*
G02*
X185229960Y-94707320I-175000J0D01*
G01*
X183529960Y-94707320D01*
G75*
G02*
X183354960Y-94532320I0J175000D01*
G01*
G37*
G36*
G01*
X183354960Y-93262320D02*
X183354960Y-92912320D01*
G75*
G02*
X183529960Y-92737320I175000J0D01*
G01*
X185229960Y-92737320D01*
G75*
G02*
X185404960Y-92912320I0J-175000D01*
G01*
X185404960Y-93262320D01*
G75*
G02*
X185229960Y-93437320I-175000J0D01*
G01*
X183529960Y-93437320D01*
G75*
G02*
X183354960Y-93262320I0J175000D01*
G01*
G37*
G36*
G01*
X183354960Y-91992320D02*
X183354960Y-91642320D01*
G75*
G02*
X183529960Y-91467320I175000J0D01*
G01*
X185229960Y-91467320D01*
G75*
G02*
X185404960Y-91642320I0J-175000D01*
G01*
X185404960Y-91992320D01*
G75*
G02*
X185229960Y-92167320I-175000J0D01*
G01*
X183529960Y-92167320D01*
G75*
G02*
X183354960Y-91992320I0J175000D01*
G01*
G37*
G36*
G01*
X183354960Y-90722320D02*
X183354960Y-90372320D01*
G75*
G02*
X183529960Y-90197320I175000J0D01*
G01*
X185229960Y-90197320D01*
G75*
G02*
X185404960Y-90372320I0J-175000D01*
G01*
X185404960Y-90722320D01*
G75*
G02*
X185229960Y-90897320I-175000J0D01*
G01*
X183529960Y-90897320D01*
G75*
G02*
X183354960Y-90722320I0J175000D01*
G01*
G37*
%TD*%
D35*
%TO.C,SW_UP1*%
X166250000Y-119810000D03*
X153750000Y-119810000D03*
X166250000Y-112190000D03*
X153750000Y-112190000D03*
%TD*%
D36*
%TO.C,SW_RIGHT1*%
X168690000Y-134750000D03*
X168690000Y-122250000D03*
X176310000Y-134750000D03*
X176310000Y-122250000D03*
%TD*%
%TO.C,SW_LEFT1*%
X143690000Y-134750000D03*
X143690000Y-122250000D03*
X151310000Y-134750000D03*
X151310000Y-122250000D03*
%TD*%
D35*
%TO.C,SW_F3*%
X197685100Y-147221100D03*
X185185100Y-147221100D03*
X197685100Y-139601100D03*
X185185100Y-139601100D03*
%TD*%
%TO.C,SW_F2*%
X197685100Y-132221100D03*
X185185100Y-132221100D03*
X197685100Y-124601100D03*
X185185100Y-124601100D03*
%TD*%
%TO.C,SW_F1*%
X197685100Y-117221100D03*
X185185100Y-117221100D03*
X197685100Y-109601100D03*
X185185100Y-109601100D03*
%TD*%
%TO.C,SW_DOWN1*%
X166250000Y-144810000D03*
X153750000Y-144810000D03*
X166250000Y-137190000D03*
X153750000Y-137190000D03*
%TD*%
D36*
%TO.C,SW_CENTER1*%
X156190000Y-134750000D03*
X156190000Y-122250000D03*
X163810000Y-134750000D03*
X163810000Y-122250000D03*
%TD*%
D37*
%TO.C,RV2*%
X203195000Y-85315000D03*
X203195000Y-76515000D03*
D23*
X196195000Y-83415000D03*
X196195000Y-80915000D03*
X196195000Y-78415000D03*
%TD*%
D38*
%TO.C,RV1*%
X102215000Y-56745000D03*
X104755000Y-54205000D03*
X107295000Y-56745000D03*
%TD*%
D39*
%TO.C,RN1*%
X181033740Y-120994300D03*
X181033740Y-123534300D03*
X181033740Y-126074300D03*
X181033740Y-128614300D03*
X181033740Y-131154300D03*
X181033740Y-133694300D03*
X181033740Y-136234300D03*
X181033740Y-138774300D03*
D40*
X181033740Y-141314300D03*
%TD*%
%TO.C,R53*%
G36*
G01*
X81469940Y-102099580D02*
X81994940Y-102099580D01*
G75*
G02*
X82257440Y-102362080I0J-262500D01*
G01*
X82257440Y-102987080D01*
G75*
G02*
X81994940Y-103249580I-262500J0D01*
G01*
X81469940Y-103249580D01*
G75*
G02*
X81207440Y-102987080I0J262500D01*
G01*
X81207440Y-102362080D01*
G75*
G02*
X81469940Y-102099580I262500J0D01*
G01*
G37*
G36*
G01*
X81469940Y-103849580D02*
X81994940Y-103849580D01*
G75*
G02*
X82257440Y-104112080I0J-262500D01*
G01*
X82257440Y-104737080D01*
G75*
G02*
X81994940Y-104999580I-262500J0D01*
G01*
X81469940Y-104999580D01*
G75*
G02*
X81207440Y-104737080I0J262500D01*
G01*
X81207440Y-104112080D01*
G75*
G02*
X81469940Y-103849580I262500J0D01*
G01*
G37*
%TD*%
%TO.C,R52*%
G36*
G01*
X53501220Y-128471780D02*
X52976220Y-128471780D01*
G75*
G02*
X52713720Y-128209280I0J262500D01*
G01*
X52713720Y-127584280D01*
G75*
G02*
X52976220Y-127321780I262500J0D01*
G01*
X53501220Y-127321780D01*
G75*
G02*
X53763720Y-127584280I0J-262500D01*
G01*
X53763720Y-128209280D01*
G75*
G02*
X53501220Y-128471780I-262500J0D01*
G01*
G37*
G36*
G01*
X53501220Y-130221780D02*
X52976220Y-130221780D01*
G75*
G02*
X52713720Y-129959280I0J262500D01*
G01*
X52713720Y-129334280D01*
G75*
G02*
X52976220Y-129071780I262500J0D01*
G01*
X53501220Y-129071780D01*
G75*
G02*
X53763720Y-129334280I0J-262500D01*
G01*
X53763720Y-129959280D01*
G75*
G02*
X53501220Y-130221780I-262500J0D01*
G01*
G37*
%TD*%
%TO.C,R51*%
G36*
G01*
X67866300Y-118732820D02*
X67866300Y-119257820D01*
G75*
G02*
X67603800Y-119520320I-262500J0D01*
G01*
X66978800Y-119520320D01*
G75*
G02*
X66716300Y-119257820I0J262500D01*
G01*
X66716300Y-118732820D01*
G75*
G02*
X66978800Y-118470320I262500J0D01*
G01*
X67603800Y-118470320D01*
G75*
G02*
X67866300Y-118732820I0J-262500D01*
G01*
G37*
G36*
G01*
X69616300Y-118732820D02*
X69616300Y-119257820D01*
G75*
G02*
X69353800Y-119520320I-262500J0D01*
G01*
X68728800Y-119520320D01*
G75*
G02*
X68466300Y-119257820I0J262500D01*
G01*
X68466300Y-118732820D01*
G75*
G02*
X68728800Y-118470320I262500J0D01*
G01*
X69353800Y-118470320D01*
G75*
G02*
X69616300Y-118732820I0J-262500D01*
G01*
G37*
%TD*%
%TO.C,R50*%
G36*
G01*
X71093260Y-117727580D02*
X70568260Y-117727580D01*
G75*
G02*
X70305760Y-117465080I0J262500D01*
G01*
X70305760Y-116840080D01*
G75*
G02*
X70568260Y-116577580I262500J0D01*
G01*
X71093260Y-116577580D01*
G75*
G02*
X71355760Y-116840080I0J-262500D01*
G01*
X71355760Y-117465080D01*
G75*
G02*
X71093260Y-117727580I-262500J0D01*
G01*
G37*
G36*
G01*
X71093260Y-119477580D02*
X70568260Y-119477580D01*
G75*
G02*
X70305760Y-119215080I0J262500D01*
G01*
X70305760Y-118590080D01*
G75*
G02*
X70568260Y-118327580I262500J0D01*
G01*
X71093260Y-118327580D01*
G75*
G02*
X71355760Y-118590080I0J-262500D01*
G01*
X71355760Y-119215080D01*
G75*
G02*
X71093260Y-119477580I-262500J0D01*
G01*
G37*
%TD*%
%TO.C,R47*%
G36*
G01*
X166326260Y-104659840D02*
X166851260Y-104659840D01*
G75*
G02*
X167113760Y-104922340I0J-262500D01*
G01*
X167113760Y-105547340D01*
G75*
G02*
X166851260Y-105809840I-262500J0D01*
G01*
X166326260Y-105809840D01*
G75*
G02*
X166063760Y-105547340I0J262500D01*
G01*
X166063760Y-104922340D01*
G75*
G02*
X166326260Y-104659840I262500J0D01*
G01*
G37*
G36*
G01*
X166326260Y-102909840D02*
X166851260Y-102909840D01*
G75*
G02*
X167113760Y-103172340I0J-262500D01*
G01*
X167113760Y-103797340D01*
G75*
G02*
X166851260Y-104059840I-262500J0D01*
G01*
X166326260Y-104059840D01*
G75*
G02*
X166063760Y-103797340I0J262500D01*
G01*
X166063760Y-103172340D01*
G75*
G02*
X166326260Y-102909840I262500J0D01*
G01*
G37*
%TD*%
%TO.C,R46*%
G36*
G01*
X168451460Y-104059840D02*
X167926460Y-104059840D01*
G75*
G02*
X167663960Y-103797340I0J262500D01*
G01*
X167663960Y-103172340D01*
G75*
G02*
X167926460Y-102909840I262500J0D01*
G01*
X168451460Y-102909840D01*
G75*
G02*
X168713960Y-103172340I0J-262500D01*
G01*
X168713960Y-103797340D01*
G75*
G02*
X168451460Y-104059840I-262500J0D01*
G01*
G37*
G36*
G01*
X168451460Y-105809840D02*
X167926460Y-105809840D01*
G75*
G02*
X167663960Y-105547340I0J262500D01*
G01*
X167663960Y-104922340D01*
G75*
G02*
X167926460Y-104659840I262500J0D01*
G01*
X168451460Y-104659840D01*
G75*
G02*
X168713960Y-104922340I0J-262500D01*
G01*
X168713960Y-105547340D01*
G75*
G02*
X168451460Y-105809840I-262500J0D01*
G01*
G37*
%TD*%
%TO.C,R45*%
G36*
G01*
X173737980Y-104598880D02*
X174262980Y-104598880D01*
G75*
G02*
X174525480Y-104861380I0J-262500D01*
G01*
X174525480Y-105486380D01*
G75*
G02*
X174262980Y-105748880I-262500J0D01*
G01*
X173737980Y-105748880D01*
G75*
G02*
X173475480Y-105486380I0J262500D01*
G01*
X173475480Y-104861380D01*
G75*
G02*
X173737980Y-104598880I262500J0D01*
G01*
G37*
G36*
G01*
X173737980Y-102848880D02*
X174262980Y-102848880D01*
G75*
G02*
X174525480Y-103111380I0J-262500D01*
G01*
X174525480Y-103736380D01*
G75*
G02*
X174262980Y-103998880I-262500J0D01*
G01*
X173737980Y-103998880D01*
G75*
G02*
X173475480Y-103736380I0J262500D01*
G01*
X173475480Y-103111380D01*
G75*
G02*
X173737980Y-102848880I262500J0D01*
G01*
G37*
%TD*%
%TO.C,R44*%
G36*
G01*
X171939660Y-104603960D02*
X172464660Y-104603960D01*
G75*
G02*
X172727160Y-104866460I0J-262500D01*
G01*
X172727160Y-105491460D01*
G75*
G02*
X172464660Y-105753960I-262500J0D01*
G01*
X171939660Y-105753960D01*
G75*
G02*
X171677160Y-105491460I0J262500D01*
G01*
X171677160Y-104866460D01*
G75*
G02*
X171939660Y-104603960I262500J0D01*
G01*
G37*
G36*
G01*
X171939660Y-102853960D02*
X172464660Y-102853960D01*
G75*
G02*
X172727160Y-103116460I0J-262500D01*
G01*
X172727160Y-103741460D01*
G75*
G02*
X172464660Y-104003960I-262500J0D01*
G01*
X171939660Y-104003960D01*
G75*
G02*
X171677160Y-103741460I0J262500D01*
G01*
X171677160Y-103116460D01*
G75*
G02*
X171939660Y-102853960I262500J0D01*
G01*
G37*
%TD*%
%TO.C,R43*%
G36*
G01*
X170773020Y-103998880D02*
X170248020Y-103998880D01*
G75*
G02*
X169985520Y-103736380I0J262500D01*
G01*
X169985520Y-103111380D01*
G75*
G02*
X170248020Y-102848880I262500J0D01*
G01*
X170773020Y-102848880D01*
G75*
G02*
X171035520Y-103111380I0J-262500D01*
G01*
X171035520Y-103736380D01*
G75*
G02*
X170773020Y-103998880I-262500J0D01*
G01*
G37*
G36*
G01*
X170773020Y-105748880D02*
X170248020Y-105748880D01*
G75*
G02*
X169985520Y-105486380I0J262500D01*
G01*
X169985520Y-104861380D01*
G75*
G02*
X170248020Y-104598880I262500J0D01*
G01*
X170773020Y-104598880D01*
G75*
G02*
X171035520Y-104861380I0J-262500D01*
G01*
X171035520Y-105486380D01*
G75*
G02*
X170773020Y-105748880I-262500J0D01*
G01*
G37*
%TD*%
%TO.C,R42*%
G36*
G01*
X196394000Y-90338760D02*
X195869000Y-90338760D01*
G75*
G02*
X195606500Y-90076260I0J262500D01*
G01*
X195606500Y-89451260D01*
G75*
G02*
X195869000Y-89188760I262500J0D01*
G01*
X196394000Y-89188760D01*
G75*
G02*
X196656500Y-89451260I0J-262500D01*
G01*
X196656500Y-90076260D01*
G75*
G02*
X196394000Y-90338760I-262500J0D01*
G01*
G37*
G36*
G01*
X196394000Y-92088760D02*
X195869000Y-92088760D01*
G75*
G02*
X195606500Y-91826260I0J262500D01*
G01*
X195606500Y-91201260D01*
G75*
G02*
X195869000Y-90938760I262500J0D01*
G01*
X196394000Y-90938760D01*
G75*
G02*
X196656500Y-91201260I0J-262500D01*
G01*
X196656500Y-91826260D01*
G75*
G02*
X196394000Y-92088760I-262500J0D01*
G01*
G37*
%TD*%
%TO.C,R41*%
G36*
G01*
X172806400Y-106576380D02*
X172806400Y-107101380D01*
G75*
G02*
X172543900Y-107363880I-262500J0D01*
G01*
X171918900Y-107363880D01*
G75*
G02*
X171656400Y-107101380I0J262500D01*
G01*
X171656400Y-106576380D01*
G75*
G02*
X171918900Y-106313880I262500J0D01*
G01*
X172543900Y-106313880D01*
G75*
G02*
X172806400Y-106576380I0J-262500D01*
G01*
G37*
G36*
G01*
X174556400Y-106576380D02*
X174556400Y-107101380D01*
G75*
G02*
X174293900Y-107363880I-262500J0D01*
G01*
X173668900Y-107363880D01*
G75*
G02*
X173406400Y-107101380I0J262500D01*
G01*
X173406400Y-106576380D01*
G75*
G02*
X173668900Y-106313880I262500J0D01*
G01*
X174293900Y-106313880D01*
G75*
G02*
X174556400Y-106576380I0J-262500D01*
G01*
G37*
%TD*%
%TO.C,R40*%
G36*
G01*
X178041280Y-106581460D02*
X178041280Y-107106460D01*
G75*
G02*
X177778780Y-107368960I-262500J0D01*
G01*
X177153780Y-107368960D01*
G75*
G02*
X176891280Y-107106460I0J262500D01*
G01*
X176891280Y-106581460D01*
G75*
G02*
X177153780Y-106318960I262500J0D01*
G01*
X177778780Y-106318960D01*
G75*
G02*
X178041280Y-106581460I0J-262500D01*
G01*
G37*
G36*
G01*
X176291280Y-106581460D02*
X176291280Y-107106460D01*
G75*
G02*
X176028780Y-107368960I-262500J0D01*
G01*
X175403780Y-107368960D01*
G75*
G02*
X175141280Y-107106460I0J262500D01*
G01*
X175141280Y-106581460D01*
G75*
G02*
X175403780Y-106318960I262500J0D01*
G01*
X176028780Y-106318960D01*
G75*
G02*
X176291280Y-106581460I0J-262500D01*
G01*
G37*
%TD*%
%TO.C,R39*%
G36*
G01*
X194252780Y-84085280D02*
X193727780Y-84085280D01*
G75*
G02*
X193465280Y-83822780I0J262500D01*
G01*
X193465280Y-83197780D01*
G75*
G02*
X193727780Y-82935280I262500J0D01*
G01*
X194252780Y-82935280D01*
G75*
G02*
X194515280Y-83197780I0J-262500D01*
G01*
X194515280Y-83822780D01*
G75*
G02*
X194252780Y-84085280I-262500J0D01*
G01*
G37*
G36*
G01*
X194252780Y-85835280D02*
X193727780Y-85835280D01*
G75*
G02*
X193465280Y-85572780I0J262500D01*
G01*
X193465280Y-84947780D01*
G75*
G02*
X193727780Y-84685280I262500J0D01*
G01*
X194252780Y-84685280D01*
G75*
G02*
X194515280Y-84947780I0J-262500D01*
G01*
X194515280Y-85572780D01*
G75*
G02*
X194252780Y-85835280I-262500J0D01*
G01*
G37*
%TD*%
%TO.C,R38*%
G36*
G01*
X84050360Y-117542844D02*
X84050360Y-118857756D01*
G75*
G02*
X83782816Y-119125300I-267544J0D01*
G01*
X82792904Y-119125300D01*
G75*
G02*
X82525360Y-118857756I0J267544D01*
G01*
X82525360Y-117542844D01*
G75*
G02*
X82792904Y-117275300I267544J0D01*
G01*
X83782816Y-117275300D01*
G75*
G02*
X84050360Y-117542844I0J-267544D01*
G01*
G37*
G36*
G01*
X87025360Y-117542844D02*
X87025360Y-118857756D01*
G75*
G02*
X86757816Y-119125300I-267544J0D01*
G01*
X85767904Y-119125300D01*
G75*
G02*
X85500360Y-118857756I0J267544D01*
G01*
X85500360Y-117542844D01*
G75*
G02*
X85767904Y-117275300I267544J0D01*
G01*
X86757816Y-117275300D01*
G75*
G02*
X87025360Y-117542844I0J-267544D01*
G01*
G37*
%TD*%
%TO.C,R37*%
G36*
G01*
X87873280Y-114819840D02*
X88398280Y-114819840D01*
G75*
G02*
X88660780Y-115082340I0J-262500D01*
G01*
X88660780Y-115707340D01*
G75*
G02*
X88398280Y-115969840I-262500J0D01*
G01*
X87873280Y-115969840D01*
G75*
G02*
X87610780Y-115707340I0J262500D01*
G01*
X87610780Y-115082340D01*
G75*
G02*
X87873280Y-114819840I262500J0D01*
G01*
G37*
G36*
G01*
X87873280Y-113069840D02*
X88398280Y-113069840D01*
G75*
G02*
X88660780Y-113332340I0J-262500D01*
G01*
X88660780Y-113957340D01*
G75*
G02*
X88398280Y-114219840I-262500J0D01*
G01*
X87873280Y-114219840D01*
G75*
G02*
X87610780Y-113957340I0J262500D01*
G01*
X87610780Y-113332340D01*
G75*
G02*
X87873280Y-113069840I262500J0D01*
G01*
G37*
%TD*%
%TO.C,R36*%
G36*
G01*
X89367960Y-110583720D02*
X89367960Y-110058720D01*
G75*
G02*
X89630460Y-109796220I262500J0D01*
G01*
X90255460Y-109796220D01*
G75*
G02*
X90517960Y-110058720I0J-262500D01*
G01*
X90517960Y-110583720D01*
G75*
G02*
X90255460Y-110846220I-262500J0D01*
G01*
X89630460Y-110846220D01*
G75*
G02*
X89367960Y-110583720I0J262500D01*
G01*
G37*
G36*
G01*
X87617960Y-110583720D02*
X87617960Y-110058720D01*
G75*
G02*
X87880460Y-109796220I262500J0D01*
G01*
X88505460Y-109796220D01*
G75*
G02*
X88767960Y-110058720I0J-262500D01*
G01*
X88767960Y-110583720D01*
G75*
G02*
X88505460Y-110846220I-262500J0D01*
G01*
X87880460Y-110846220D01*
G75*
G02*
X87617960Y-110583720I0J262500D01*
G01*
G37*
%TD*%
%TO.C,R35*%
G36*
G01*
X82932980Y-106851860D02*
X83457980Y-106851860D01*
G75*
G02*
X83720480Y-107114360I0J-262500D01*
G01*
X83720480Y-107739360D01*
G75*
G02*
X83457980Y-108001860I-262500J0D01*
G01*
X82932980Y-108001860D01*
G75*
G02*
X82670480Y-107739360I0J262500D01*
G01*
X82670480Y-107114360D01*
G75*
G02*
X82932980Y-106851860I262500J0D01*
G01*
G37*
G36*
G01*
X82932980Y-105101860D02*
X83457980Y-105101860D01*
G75*
G02*
X83720480Y-105364360I0J-262500D01*
G01*
X83720480Y-105989360D01*
G75*
G02*
X83457980Y-106251860I-262500J0D01*
G01*
X82932980Y-106251860D01*
G75*
G02*
X82670480Y-105989360I0J262500D01*
G01*
X82670480Y-105364360D01*
G75*
G02*
X82932980Y-105101860I262500J0D01*
G01*
G37*
%TD*%
%TO.C,R34*%
G36*
G01*
X85988600Y-106779440D02*
X86513600Y-106779440D01*
G75*
G02*
X86776100Y-107041940I0J-262500D01*
G01*
X86776100Y-107666940D01*
G75*
G02*
X86513600Y-107929440I-262500J0D01*
G01*
X85988600Y-107929440D01*
G75*
G02*
X85726100Y-107666940I0J262500D01*
G01*
X85726100Y-107041940D01*
G75*
G02*
X85988600Y-106779440I262500J0D01*
G01*
G37*
G36*
G01*
X85988600Y-105029440D02*
X86513600Y-105029440D01*
G75*
G02*
X86776100Y-105291940I0J-262500D01*
G01*
X86776100Y-105916940D01*
G75*
G02*
X86513600Y-106179440I-262500J0D01*
G01*
X85988600Y-106179440D01*
G75*
G02*
X85726100Y-105916940I0J262500D01*
G01*
X85726100Y-105291940D01*
G75*
G02*
X85988600Y-105029440I262500J0D01*
G01*
G37*
%TD*%
%TO.C,R33*%
G36*
G01*
X130109000Y-119347500D02*
X130109000Y-119872500D01*
G75*
G02*
X129846500Y-120135000I-262500J0D01*
G01*
X129221500Y-120135000D01*
G75*
G02*
X128959000Y-119872500I0J262500D01*
G01*
X128959000Y-119347500D01*
G75*
G02*
X129221500Y-119085000I262500J0D01*
G01*
X129846500Y-119085000D01*
G75*
G02*
X130109000Y-119347500I0J-262500D01*
G01*
G37*
G36*
G01*
X131859000Y-119347500D02*
X131859000Y-119872500D01*
G75*
G02*
X131596500Y-120135000I-262500J0D01*
G01*
X130971500Y-120135000D01*
G75*
G02*
X130709000Y-119872500I0J262500D01*
G01*
X130709000Y-119347500D01*
G75*
G02*
X130971500Y-119085000I262500J0D01*
G01*
X131596500Y-119085000D01*
G75*
G02*
X131859000Y-119347500I0J-262500D01*
G01*
G37*
%TD*%
%TO.C,R32*%
G36*
G01*
X133277540Y-120153280D02*
X132752540Y-120153280D01*
G75*
G02*
X132490040Y-119890780I0J262500D01*
G01*
X132490040Y-119265780D01*
G75*
G02*
X132752540Y-119003280I262500J0D01*
G01*
X133277540Y-119003280D01*
G75*
G02*
X133540040Y-119265780I0J-262500D01*
G01*
X133540040Y-119890780D01*
G75*
G02*
X133277540Y-120153280I-262500J0D01*
G01*
G37*
G36*
G01*
X133277540Y-121903280D02*
X132752540Y-121903280D01*
G75*
G02*
X132490040Y-121640780I0J262500D01*
G01*
X132490040Y-121015780D01*
G75*
G02*
X132752540Y-120753280I262500J0D01*
G01*
X133277540Y-120753280D01*
G75*
G02*
X133540040Y-121015780I0J-262500D01*
G01*
X133540040Y-121640780D01*
G75*
G02*
X133277540Y-121903280I-262500J0D01*
G01*
G37*
%TD*%
%TO.C,R31*%
G36*
G01*
X130083600Y-120998500D02*
X130083600Y-121523500D01*
G75*
G02*
X129821100Y-121786000I-262500J0D01*
G01*
X129196100Y-121786000D01*
G75*
G02*
X128933600Y-121523500I0J262500D01*
G01*
X128933600Y-120998500D01*
G75*
G02*
X129196100Y-120736000I262500J0D01*
G01*
X129821100Y-120736000D01*
G75*
G02*
X130083600Y-120998500I0J-262500D01*
G01*
G37*
G36*
G01*
X131833600Y-120998500D02*
X131833600Y-121523500D01*
G75*
G02*
X131571100Y-121786000I-262500J0D01*
G01*
X130946100Y-121786000D01*
G75*
G02*
X130683600Y-121523500I0J262500D01*
G01*
X130683600Y-120998500D01*
G75*
G02*
X130946100Y-120736000I262500J0D01*
G01*
X131571100Y-120736000D01*
G75*
G02*
X131833600Y-120998500I0J-262500D01*
G01*
G37*
%TD*%
%TO.C,R30*%
G36*
G01*
X109096140Y-90253560D02*
X109096140Y-89728560D01*
G75*
G02*
X109358640Y-89466060I262500J0D01*
G01*
X109983640Y-89466060D01*
G75*
G02*
X110246140Y-89728560I0J-262500D01*
G01*
X110246140Y-90253560D01*
G75*
G02*
X109983640Y-90516060I-262500J0D01*
G01*
X109358640Y-90516060D01*
G75*
G02*
X109096140Y-90253560I0J262500D01*
G01*
G37*
G36*
G01*
X107346140Y-90253560D02*
X107346140Y-89728560D01*
G75*
G02*
X107608640Y-89466060I262500J0D01*
G01*
X108233640Y-89466060D01*
G75*
G02*
X108496140Y-89728560I0J-262500D01*
G01*
X108496140Y-90253560D01*
G75*
G02*
X108233640Y-90516060I-262500J0D01*
G01*
X107608640Y-90516060D01*
G75*
G02*
X107346140Y-90253560I0J262500D01*
G01*
G37*
%TD*%
%TO.C,R29*%
G36*
G01*
X131325060Y-92351000D02*
X131850060Y-92351000D01*
G75*
G02*
X132112560Y-92613500I0J-262500D01*
G01*
X132112560Y-93238500D01*
G75*
G02*
X131850060Y-93501000I-262500J0D01*
G01*
X131325060Y-93501000D01*
G75*
G02*
X131062560Y-93238500I0J262500D01*
G01*
X131062560Y-92613500D01*
G75*
G02*
X131325060Y-92351000I262500J0D01*
G01*
G37*
G36*
G01*
X131325060Y-90601000D02*
X131850060Y-90601000D01*
G75*
G02*
X132112560Y-90863500I0J-262500D01*
G01*
X132112560Y-91488500D01*
G75*
G02*
X131850060Y-91751000I-262500J0D01*
G01*
X131325060Y-91751000D01*
G75*
G02*
X131062560Y-91488500I0J262500D01*
G01*
X131062560Y-90863500D01*
G75*
G02*
X131325060Y-90601000I262500J0D01*
G01*
G37*
%TD*%
%TO.C,R28*%
G36*
G01*
X107834360Y-105985160D02*
X107309360Y-105985160D01*
G75*
G02*
X107046860Y-105722660I0J262500D01*
G01*
X107046860Y-105097660D01*
G75*
G02*
X107309360Y-104835160I262500J0D01*
G01*
X107834360Y-104835160D01*
G75*
G02*
X108096860Y-105097660I0J-262500D01*
G01*
X108096860Y-105722660D01*
G75*
G02*
X107834360Y-105985160I-262500J0D01*
G01*
G37*
G36*
G01*
X107834360Y-107735160D02*
X107309360Y-107735160D01*
G75*
G02*
X107046860Y-107472660I0J262500D01*
G01*
X107046860Y-106847660D01*
G75*
G02*
X107309360Y-106585160I262500J0D01*
G01*
X107834360Y-106585160D01*
G75*
G02*
X108096860Y-106847660I0J-262500D01*
G01*
X108096860Y-107472660D01*
G75*
G02*
X107834360Y-107735160I-262500J0D01*
G01*
G37*
%TD*%
%TO.C,R27*%
G36*
G01*
X160872100Y-94291000D02*
X160347100Y-94291000D01*
G75*
G02*
X160084600Y-94028500I0J262500D01*
G01*
X160084600Y-93403500D01*
G75*
G02*
X160347100Y-93141000I262500J0D01*
G01*
X160872100Y-93141000D01*
G75*
G02*
X161134600Y-93403500I0J-262500D01*
G01*
X161134600Y-94028500D01*
G75*
G02*
X160872100Y-94291000I-262500J0D01*
G01*
G37*
G36*
G01*
X160872100Y-96041000D02*
X160347100Y-96041000D01*
G75*
G02*
X160084600Y-95778500I0J262500D01*
G01*
X160084600Y-95153500D01*
G75*
G02*
X160347100Y-94891000I262500J0D01*
G01*
X160872100Y-94891000D01*
G75*
G02*
X161134600Y-95153500I0J-262500D01*
G01*
X161134600Y-95778500D01*
G75*
G02*
X160872100Y-96041000I-262500J0D01*
G01*
G37*
%TD*%
%TO.C,R26*%
G36*
G01*
X158962100Y-94291000D02*
X158437100Y-94291000D01*
G75*
G02*
X158174600Y-94028500I0J262500D01*
G01*
X158174600Y-93403500D01*
G75*
G02*
X158437100Y-93141000I262500J0D01*
G01*
X158962100Y-93141000D01*
G75*
G02*
X159224600Y-93403500I0J-262500D01*
G01*
X159224600Y-94028500D01*
G75*
G02*
X158962100Y-94291000I-262500J0D01*
G01*
G37*
G36*
G01*
X158962100Y-96041000D02*
X158437100Y-96041000D01*
G75*
G02*
X158174600Y-95778500I0J262500D01*
G01*
X158174600Y-95153500D01*
G75*
G02*
X158437100Y-94891000I262500J0D01*
G01*
X158962100Y-94891000D01*
G75*
G02*
X159224600Y-95153500I0J-262500D01*
G01*
X159224600Y-95778500D01*
G75*
G02*
X158962100Y-96041000I-262500J0D01*
G01*
G37*
%TD*%
%TO.C,R25*%
G36*
G01*
X157062100Y-94285920D02*
X156537100Y-94285920D01*
G75*
G02*
X156274600Y-94023420I0J262500D01*
G01*
X156274600Y-93398420D01*
G75*
G02*
X156537100Y-93135920I262500J0D01*
G01*
X157062100Y-93135920D01*
G75*
G02*
X157324600Y-93398420I0J-262500D01*
G01*
X157324600Y-94023420D01*
G75*
G02*
X157062100Y-94285920I-262500J0D01*
G01*
G37*
G36*
G01*
X157062100Y-96035920D02*
X156537100Y-96035920D01*
G75*
G02*
X156274600Y-95773420I0J262500D01*
G01*
X156274600Y-95148420D01*
G75*
G02*
X156537100Y-94885920I262500J0D01*
G01*
X157062100Y-94885920D01*
G75*
G02*
X157324600Y-95148420I0J-262500D01*
G01*
X157324600Y-95773420D01*
G75*
G02*
X157062100Y-96035920I-262500J0D01*
G01*
G37*
%TD*%
%TO.C,R24*%
G36*
G01*
X155162180Y-94296080D02*
X154637180Y-94296080D01*
G75*
G02*
X154374680Y-94033580I0J262500D01*
G01*
X154374680Y-93408580D01*
G75*
G02*
X154637180Y-93146080I262500J0D01*
G01*
X155162180Y-93146080D01*
G75*
G02*
X155424680Y-93408580I0J-262500D01*
G01*
X155424680Y-94033580D01*
G75*
G02*
X155162180Y-94296080I-262500J0D01*
G01*
G37*
G36*
G01*
X155162180Y-96046080D02*
X154637180Y-96046080D01*
G75*
G02*
X154374680Y-95783580I0J262500D01*
G01*
X154374680Y-95158580D01*
G75*
G02*
X154637180Y-94896080I262500J0D01*
G01*
X155162180Y-94896080D01*
G75*
G02*
X155424680Y-95158580I0J-262500D01*
G01*
X155424680Y-95783580D01*
G75*
G02*
X155162180Y-96046080I-262500J0D01*
G01*
G37*
%TD*%
%TO.C,R23*%
G36*
G01*
X153257180Y-94301160D02*
X152732180Y-94301160D01*
G75*
G02*
X152469680Y-94038660I0J262500D01*
G01*
X152469680Y-93413660D01*
G75*
G02*
X152732180Y-93151160I262500J0D01*
G01*
X153257180Y-93151160D01*
G75*
G02*
X153519680Y-93413660I0J-262500D01*
G01*
X153519680Y-94038660D01*
G75*
G02*
X153257180Y-94301160I-262500J0D01*
G01*
G37*
G36*
G01*
X153257180Y-96051160D02*
X152732180Y-96051160D01*
G75*
G02*
X152469680Y-95788660I0J262500D01*
G01*
X152469680Y-95163660D01*
G75*
G02*
X152732180Y-94901160I262500J0D01*
G01*
X153257180Y-94901160D01*
G75*
G02*
X153519680Y-95163660I0J-262500D01*
G01*
X153519680Y-95788660D01*
G75*
G02*
X153257180Y-96051160I-262500J0D01*
G01*
G37*
%TD*%
%TO.C,R22*%
G36*
G01*
X151322100Y-94291000D02*
X150797100Y-94291000D01*
G75*
G02*
X150534600Y-94028500I0J262500D01*
G01*
X150534600Y-93403500D01*
G75*
G02*
X150797100Y-93141000I262500J0D01*
G01*
X151322100Y-93141000D01*
G75*
G02*
X151584600Y-93403500I0J-262500D01*
G01*
X151584600Y-94028500D01*
G75*
G02*
X151322100Y-94291000I-262500J0D01*
G01*
G37*
G36*
G01*
X151322100Y-96041000D02*
X150797100Y-96041000D01*
G75*
G02*
X150534600Y-95778500I0J262500D01*
G01*
X150534600Y-95153500D01*
G75*
G02*
X150797100Y-94891000I262500J0D01*
G01*
X151322100Y-94891000D01*
G75*
G02*
X151584600Y-95153500I0J-262500D01*
G01*
X151584600Y-95778500D01*
G75*
G02*
X151322100Y-96041000I-262500J0D01*
G01*
G37*
%TD*%
%TO.C,R21*%
G36*
G01*
X149442100Y-94316400D02*
X148917100Y-94316400D01*
G75*
G02*
X148654600Y-94053900I0J262500D01*
G01*
X148654600Y-93428900D01*
G75*
G02*
X148917100Y-93166400I262500J0D01*
G01*
X149442100Y-93166400D01*
G75*
G02*
X149704600Y-93428900I0J-262500D01*
G01*
X149704600Y-94053900D01*
G75*
G02*
X149442100Y-94316400I-262500J0D01*
G01*
G37*
G36*
G01*
X149442100Y-96066400D02*
X148917100Y-96066400D01*
G75*
G02*
X148654600Y-95803900I0J262500D01*
G01*
X148654600Y-95178900D01*
G75*
G02*
X148917100Y-94916400I262500J0D01*
G01*
X149442100Y-94916400D01*
G75*
G02*
X149704600Y-95178900I0J-262500D01*
G01*
X149704600Y-95803900D01*
G75*
G02*
X149442100Y-96066400I-262500J0D01*
G01*
G37*
%TD*%
%TO.C,R20*%
G36*
G01*
X147537100Y-94316400D02*
X147012100Y-94316400D01*
G75*
G02*
X146749600Y-94053900I0J262500D01*
G01*
X146749600Y-93428900D01*
G75*
G02*
X147012100Y-93166400I262500J0D01*
G01*
X147537100Y-93166400D01*
G75*
G02*
X147799600Y-93428900I0J-262500D01*
G01*
X147799600Y-94053900D01*
G75*
G02*
X147537100Y-94316400I-262500J0D01*
G01*
G37*
G36*
G01*
X147537100Y-96066400D02*
X147012100Y-96066400D01*
G75*
G02*
X146749600Y-95803900I0J262500D01*
G01*
X146749600Y-95178900D01*
G75*
G02*
X147012100Y-94916400I262500J0D01*
G01*
X147537100Y-94916400D01*
G75*
G02*
X147799600Y-95178900I0J-262500D01*
G01*
X147799600Y-95803900D01*
G75*
G02*
X147537100Y-96066400I-262500J0D01*
G01*
G37*
%TD*%
%TO.C,R19*%
G36*
G01*
X153800740Y-66371320D02*
X153275740Y-66371320D01*
G75*
G02*
X153013240Y-66108820I0J262500D01*
G01*
X153013240Y-65483820D01*
G75*
G02*
X153275740Y-65221320I262500J0D01*
G01*
X153800740Y-65221320D01*
G75*
G02*
X154063240Y-65483820I0J-262500D01*
G01*
X154063240Y-66108820D01*
G75*
G02*
X153800740Y-66371320I-262500J0D01*
G01*
G37*
G36*
G01*
X153800740Y-68121320D02*
X153275740Y-68121320D01*
G75*
G02*
X153013240Y-67858820I0J262500D01*
G01*
X153013240Y-67233820D01*
G75*
G02*
X153275740Y-66971320I262500J0D01*
G01*
X153800740Y-66971320D01*
G75*
G02*
X154063240Y-67233820I0J-262500D01*
G01*
X154063240Y-67858820D01*
G75*
G02*
X153800740Y-68121320I-262500J0D01*
G01*
G37*
%TD*%
%TO.C,R18*%
G36*
G01*
X158297320Y-67017040D02*
X158822320Y-67017040D01*
G75*
G02*
X159084820Y-67279540I0J-262500D01*
G01*
X159084820Y-67904540D01*
G75*
G02*
X158822320Y-68167040I-262500J0D01*
G01*
X158297320Y-68167040D01*
G75*
G02*
X158034820Y-67904540I0J262500D01*
G01*
X158034820Y-67279540D01*
G75*
G02*
X158297320Y-67017040I262500J0D01*
G01*
G37*
G36*
G01*
X158297320Y-65267040D02*
X158822320Y-65267040D01*
G75*
G02*
X159084820Y-65529540I0J-262500D01*
G01*
X159084820Y-66154540D01*
G75*
G02*
X158822320Y-66417040I-262500J0D01*
G01*
X158297320Y-66417040D01*
G75*
G02*
X158034820Y-66154540I0J262500D01*
G01*
X158034820Y-65529540D01*
G75*
G02*
X158297320Y-65267040I262500J0D01*
G01*
G37*
%TD*%
%TO.C,R17*%
G36*
G01*
X96593100Y-62658400D02*
X97118100Y-62658400D01*
G75*
G02*
X97380600Y-62920900I0J-262500D01*
G01*
X97380600Y-63545900D01*
G75*
G02*
X97118100Y-63808400I-262500J0D01*
G01*
X96593100Y-63808400D01*
G75*
G02*
X96330600Y-63545900I0J262500D01*
G01*
X96330600Y-62920900D01*
G75*
G02*
X96593100Y-62658400I262500J0D01*
G01*
G37*
G36*
G01*
X96593100Y-60908400D02*
X97118100Y-60908400D01*
G75*
G02*
X97380600Y-61170900I0J-262500D01*
G01*
X97380600Y-61795900D01*
G75*
G02*
X97118100Y-62058400I-262500J0D01*
G01*
X96593100Y-62058400D01*
G75*
G02*
X96330600Y-61795900I0J262500D01*
G01*
X96330600Y-61170900D01*
G75*
G02*
X96593100Y-60908400I262500J0D01*
G01*
G37*
%TD*%
%TO.C,R16*%
G36*
G01*
X122751780Y-72843240D02*
X122226780Y-72843240D01*
G75*
G02*
X121964280Y-72580740I0J262500D01*
G01*
X121964280Y-71955740D01*
G75*
G02*
X122226780Y-71693240I262500J0D01*
G01*
X122751780Y-71693240D01*
G75*
G02*
X123014280Y-71955740I0J-262500D01*
G01*
X123014280Y-72580740D01*
G75*
G02*
X122751780Y-72843240I-262500J0D01*
G01*
G37*
G36*
G01*
X122751780Y-74593240D02*
X122226780Y-74593240D01*
G75*
G02*
X121964280Y-74330740I0J262500D01*
G01*
X121964280Y-73705740D01*
G75*
G02*
X122226780Y-73443240I262500J0D01*
G01*
X122751780Y-73443240D01*
G75*
G02*
X123014280Y-73705740I0J-262500D01*
G01*
X123014280Y-74330740D01*
G75*
G02*
X122751780Y-74593240I-262500J0D01*
G01*
G37*
%TD*%
%TO.C,R15*%
G36*
G01*
X187482520Y-93378540D02*
X187482520Y-93903540D01*
G75*
G02*
X187220020Y-94166040I-262500J0D01*
G01*
X186595020Y-94166040D01*
G75*
G02*
X186332520Y-93903540I0J262500D01*
G01*
X186332520Y-93378540D01*
G75*
G02*
X186595020Y-93116040I262500J0D01*
G01*
X187220020Y-93116040D01*
G75*
G02*
X187482520Y-93378540I0J-262500D01*
G01*
G37*
G36*
G01*
X189232520Y-93378540D02*
X189232520Y-93903540D01*
G75*
G02*
X188970020Y-94166040I-262500J0D01*
G01*
X188345020Y-94166040D01*
G75*
G02*
X188082520Y-93903540I0J262500D01*
G01*
X188082520Y-93378540D01*
G75*
G02*
X188345020Y-93116040I262500J0D01*
G01*
X188970020Y-93116040D01*
G75*
G02*
X189232520Y-93378540I0J-262500D01*
G01*
G37*
%TD*%
%TO.C,R14*%
G36*
G01*
X187467280Y-91798660D02*
X187467280Y-92323660D01*
G75*
G02*
X187204780Y-92586160I-262500J0D01*
G01*
X186579780Y-92586160D01*
G75*
G02*
X186317280Y-92323660I0J262500D01*
G01*
X186317280Y-91798660D01*
G75*
G02*
X186579780Y-91536160I262500J0D01*
G01*
X187204780Y-91536160D01*
G75*
G02*
X187467280Y-91798660I0J-262500D01*
G01*
G37*
G36*
G01*
X189217280Y-91798660D02*
X189217280Y-92323660D01*
G75*
G02*
X188954780Y-92586160I-262500J0D01*
G01*
X188329780Y-92586160D01*
G75*
G02*
X188067280Y-92323660I0J262500D01*
G01*
X188067280Y-91798660D01*
G75*
G02*
X188329780Y-91536160I262500J0D01*
G01*
X188954780Y-91536160D01*
G75*
G02*
X189217280Y-91798660I0J-262500D01*
G01*
G37*
%TD*%
%TO.C,R13*%
G36*
G01*
X187452040Y-90228940D02*
X187452040Y-90753940D01*
G75*
G02*
X187189540Y-91016440I-262500J0D01*
G01*
X186564540Y-91016440D01*
G75*
G02*
X186302040Y-90753940I0J262500D01*
G01*
X186302040Y-90228940D01*
G75*
G02*
X186564540Y-89966440I262500J0D01*
G01*
X187189540Y-89966440D01*
G75*
G02*
X187452040Y-90228940I0J-262500D01*
G01*
G37*
G36*
G01*
X189202040Y-90228940D02*
X189202040Y-90753940D01*
G75*
G02*
X188939540Y-91016440I-262500J0D01*
G01*
X188314540Y-91016440D01*
G75*
G02*
X188052040Y-90753940I0J262500D01*
G01*
X188052040Y-90228940D01*
G75*
G02*
X188314540Y-89966440I262500J0D01*
G01*
X188939540Y-89966440D01*
G75*
G02*
X189202040Y-90228940I0J-262500D01*
G01*
G37*
%TD*%
%TO.C,R12*%
G36*
G01*
X194263720Y-136173620D02*
X194788720Y-136173620D01*
G75*
G02*
X195051220Y-136436120I0J-262500D01*
G01*
X195051220Y-137061120D01*
G75*
G02*
X194788720Y-137323620I-262500J0D01*
G01*
X194263720Y-137323620D01*
G75*
G02*
X194001220Y-137061120I0J262500D01*
G01*
X194001220Y-136436120D01*
G75*
G02*
X194263720Y-136173620I262500J0D01*
G01*
G37*
G36*
G01*
X194263720Y-134423620D02*
X194788720Y-134423620D01*
G75*
G02*
X195051220Y-134686120I0J-262500D01*
G01*
X195051220Y-135311120D01*
G75*
G02*
X194788720Y-135573620I-262500J0D01*
G01*
X194263720Y-135573620D01*
G75*
G02*
X194001220Y-135311120I0J262500D01*
G01*
X194001220Y-134686120D01*
G75*
G02*
X194263720Y-134423620I262500J0D01*
G01*
G37*
%TD*%
%TO.C,R11*%
G36*
G01*
X194266260Y-121134280D02*
X194791260Y-121134280D01*
G75*
G02*
X195053760Y-121396780I0J-262500D01*
G01*
X195053760Y-122021780D01*
G75*
G02*
X194791260Y-122284280I-262500J0D01*
G01*
X194266260Y-122284280D01*
G75*
G02*
X194003760Y-122021780I0J262500D01*
G01*
X194003760Y-121396780D01*
G75*
G02*
X194266260Y-121134280I262500J0D01*
G01*
G37*
G36*
G01*
X194266260Y-119384280D02*
X194791260Y-119384280D01*
G75*
G02*
X195053760Y-119646780I0J-262500D01*
G01*
X195053760Y-120271780D01*
G75*
G02*
X194791260Y-120534280I-262500J0D01*
G01*
X194266260Y-120534280D01*
G75*
G02*
X194003760Y-120271780I0J262500D01*
G01*
X194003760Y-119646780D01*
G75*
G02*
X194266260Y-119384280I262500J0D01*
G01*
G37*
%TD*%
%TO.C,R10*%
G36*
G01*
X194253560Y-104245880D02*
X194778560Y-104245880D01*
G75*
G02*
X195041060Y-104508380I0J-262500D01*
G01*
X195041060Y-105133380D01*
G75*
G02*
X194778560Y-105395880I-262500J0D01*
G01*
X194253560Y-105395880D01*
G75*
G02*
X193991060Y-105133380I0J262500D01*
G01*
X193991060Y-104508380D01*
G75*
G02*
X194253560Y-104245880I262500J0D01*
G01*
G37*
G36*
G01*
X194253560Y-105995880D02*
X194778560Y-105995880D01*
G75*
G02*
X195041060Y-106258380I0J-262500D01*
G01*
X195041060Y-106883380D01*
G75*
G02*
X194778560Y-107145880I-262500J0D01*
G01*
X194253560Y-107145880D01*
G75*
G02*
X193991060Y-106883380I0J262500D01*
G01*
X193991060Y-106258380D01*
G75*
G02*
X194253560Y-105995880I262500J0D01*
G01*
G37*
%TD*%
%TO.C,R9*%
G36*
G01*
X169105020Y-119188640D02*
X169630020Y-119188640D01*
G75*
G02*
X169892520Y-119451140I0J-262500D01*
G01*
X169892520Y-120076140D01*
G75*
G02*
X169630020Y-120338640I-262500J0D01*
G01*
X169105020Y-120338640D01*
G75*
G02*
X168842520Y-120076140I0J262500D01*
G01*
X168842520Y-119451140D01*
G75*
G02*
X169105020Y-119188640I262500J0D01*
G01*
G37*
G36*
G01*
X169105020Y-117438640D02*
X169630020Y-117438640D01*
G75*
G02*
X169892520Y-117701140I0J-262500D01*
G01*
X169892520Y-118326140D01*
G75*
G02*
X169630020Y-118588640I-262500J0D01*
G01*
X169105020Y-118588640D01*
G75*
G02*
X168842520Y-118326140I0J262500D01*
G01*
X168842520Y-117701140D01*
G75*
G02*
X169105020Y-117438640I262500J0D01*
G01*
G37*
%TD*%
D41*
%TO.C,Q1*%
X68138360Y-117247040D03*
X67188360Y-115247040D03*
X69088360Y-115247040D03*
%TD*%
D42*
%TO.C,JP5*%
X135966520Y-106329640D03*
X138506520Y-106329640D03*
D43*
X141046520Y-106329640D03*
%TD*%
D42*
%TO.C,JP4*%
X135966520Y-103789640D03*
X138506520Y-103789640D03*
D43*
X141046520Y-103789640D03*
%TD*%
D42*
%TO.C,JP3*%
X135966520Y-111409640D03*
X138506520Y-111409640D03*
D43*
X141046520Y-111409640D03*
%TD*%
D42*
%TO.C,JP1*%
X135966520Y-108869640D03*
X138506520Y-108869640D03*
D43*
X141046520Y-108869640D03*
%TD*%
D44*
%TO.C,J18*%
X202545000Y-69445000D03*
D45*
X202545000Y-64365000D03*
%TD*%
D42*
%TO.C,J14*%
X167620000Y-90400000D03*
X170160000Y-90400000D03*
X167620000Y-92940000D03*
X170160000Y-92940000D03*
X167620000Y-95480000D03*
X170160000Y-95480000D03*
X167620000Y-98020000D03*
X170160000Y-98020000D03*
X167620000Y-100560000D03*
D43*
X170160000Y-100560000D03*
%TD*%
D42*
%TO.C,J7*%
X141046520Y-98709640D03*
X141046520Y-96169640D03*
X141046520Y-93629640D03*
D43*
X141046520Y-91089640D03*
%TD*%
D17*
%TO.C,J5*%
X154843800Y-106204400D03*
X154843800Y-104204400D03*
X154843800Y-102204400D03*
D18*
X154843800Y-100204400D03*
%TD*%
D42*
%TO.C,J4*%
X138506520Y-121569640D03*
X135966520Y-121569640D03*
X138506520Y-119029640D03*
X135966520Y-119029640D03*
X138506520Y-116489640D03*
X135966520Y-116489640D03*
X138506520Y-113949640D03*
D43*
X135966520Y-113949640D03*
%TD*%
D17*
%TO.C,J3*%
X147223800Y-106204400D03*
X147223800Y-104204400D03*
X147223800Y-102204400D03*
D18*
X147223800Y-100204400D03*
%TD*%
D42*
%TO.C,J2*%
X138506520Y-101249640D03*
X135966520Y-101249640D03*
X138506520Y-98709640D03*
X135966520Y-98709640D03*
X138506520Y-96169640D03*
X135966520Y-96169640D03*
X138506520Y-93629640D03*
X135966520Y-93629640D03*
X138506520Y-91089640D03*
D43*
X135966520Y-91089640D03*
%TD*%
D46*
%TO.C,J1*%
X83025600Y-64633400D03*
D47*
X82975600Y-53958400D03*
D48*
X85425600Y-53833400D03*
X86525600Y-53833400D03*
X87625600Y-53833400D03*
X88725600Y-53833400D03*
X89825600Y-53833400D03*
X90925600Y-53833400D03*
X92025600Y-53833400D03*
D49*
X82625600Y-62208400D03*
D50*
X94250600Y-63058400D03*
D51*
X94575600Y-61558400D03*
D52*
X94325600Y-53958400D03*
D48*
X93125600Y-53833400D03*
%TD*%
D53*
%TO.C,D16*%
X73673780Y-103562280D03*
X75673780Y-102612280D03*
X75673780Y-104512280D03*
%TD*%
%TO.C,D15*%
G36*
G01*
X51780070Y-128471780D02*
X51217570Y-128471780D01*
G75*
G02*
X50973820Y-128228030I0J243750D01*
G01*
X50973820Y-127740530D01*
G75*
G02*
X51217570Y-127496780I243750J0D01*
G01*
X51780070Y-127496780D01*
G75*
G02*
X52023820Y-127740530I0J-243750D01*
G01*
X52023820Y-128228030D01*
G75*
G02*
X51780070Y-128471780I-243750J0D01*
G01*
G37*
G36*
G01*
X51780070Y-130046780D02*
X51217570Y-130046780D01*
G75*
G02*
X50973820Y-129803030I0J243750D01*
G01*
X50973820Y-129315530D01*
G75*
G02*
X51217570Y-129071780I243750J0D01*
G01*
X51780070Y-129071780D01*
G75*
G02*
X52023820Y-129315530I0J-243750D01*
G01*
X52023820Y-129803030D01*
G75*
G02*
X51780070Y-130046780I-243750J0D01*
G01*
G37*
%TD*%
D41*
%TO.C,D14*%
X75354500Y-109677840D03*
X74404500Y-107677840D03*
X76304500Y-107677840D03*
%TD*%
%TO.C,D12*%
X176596360Y-103309040D03*
X177546360Y-105309040D03*
X175646360Y-105309040D03*
%TD*%
%TO.C,D11*%
G36*
G01*
X130785200Y-124190500D02*
X130785200Y-123665500D01*
G75*
G02*
X131047700Y-123403000I262500J0D01*
G01*
X131672700Y-123403000D01*
G75*
G02*
X131935200Y-123665500I0J-262500D01*
G01*
X131935200Y-124190500D01*
G75*
G02*
X131672700Y-124453000I-262500J0D01*
G01*
X131047700Y-124453000D01*
G75*
G02*
X130785200Y-124190500I0J262500D01*
G01*
G37*
G36*
G01*
X129035200Y-124190500D02*
X129035200Y-123665500D01*
G75*
G02*
X129297700Y-123403000I262500J0D01*
G01*
X129922700Y-123403000D01*
G75*
G02*
X130185200Y-123665500I0J-262500D01*
G01*
X130185200Y-124190500D01*
G75*
G02*
X129922700Y-124453000I-262500J0D01*
G01*
X129297700Y-124453000D01*
G75*
G02*
X129035200Y-124190500I0J262500D01*
G01*
G37*
%TD*%
D54*
%TO.C,D10*%
X109684140Y-92368500D03*
X106384140Y-92368500D03*
%TD*%
%TO.C,D9*%
G36*
G01*
X160872100Y-90785800D02*
X160347100Y-90785800D01*
G75*
G02*
X160084600Y-90523300I0J262500D01*
G01*
X160084600Y-89898300D01*
G75*
G02*
X160347100Y-89635800I262500J0D01*
G01*
X160872100Y-89635800D01*
G75*
G02*
X161134600Y-89898300I0J-262500D01*
G01*
X161134600Y-90523300D01*
G75*
G02*
X160872100Y-90785800I-262500J0D01*
G01*
G37*
G36*
G01*
X160872100Y-92535800D02*
X160347100Y-92535800D01*
G75*
G02*
X160084600Y-92273300I0J262500D01*
G01*
X160084600Y-91648300D01*
G75*
G02*
X160347100Y-91385800I262500J0D01*
G01*
X160872100Y-91385800D01*
G75*
G02*
X161134600Y-91648300I0J-262500D01*
G01*
X161134600Y-92273300D01*
G75*
G02*
X160872100Y-92535800I-262500J0D01*
G01*
G37*
%TD*%
%TO.C,D8*%
G36*
G01*
X158967100Y-90785800D02*
X158442100Y-90785800D01*
G75*
G02*
X158179600Y-90523300I0J262500D01*
G01*
X158179600Y-89898300D01*
G75*
G02*
X158442100Y-89635800I262500J0D01*
G01*
X158967100Y-89635800D01*
G75*
G02*
X159229600Y-89898300I0J-262500D01*
G01*
X159229600Y-90523300D01*
G75*
G02*
X158967100Y-90785800I-262500J0D01*
G01*
G37*
G36*
G01*
X158967100Y-92535800D02*
X158442100Y-92535800D01*
G75*
G02*
X158179600Y-92273300I0J262500D01*
G01*
X158179600Y-91648300D01*
G75*
G02*
X158442100Y-91385800I262500J0D01*
G01*
X158967100Y-91385800D01*
G75*
G02*
X159229600Y-91648300I0J-262500D01*
G01*
X159229600Y-92273300D01*
G75*
G02*
X158967100Y-92535800I-262500J0D01*
G01*
G37*
%TD*%
%TO.C,D7*%
G36*
G01*
X157062100Y-90785800D02*
X156537100Y-90785800D01*
G75*
G02*
X156274600Y-90523300I0J262500D01*
G01*
X156274600Y-89898300D01*
G75*
G02*
X156537100Y-89635800I262500J0D01*
G01*
X157062100Y-89635800D01*
G75*
G02*
X157324600Y-89898300I0J-262500D01*
G01*
X157324600Y-90523300D01*
G75*
G02*
X157062100Y-90785800I-262500J0D01*
G01*
G37*
G36*
G01*
X157062100Y-92535800D02*
X156537100Y-92535800D01*
G75*
G02*
X156274600Y-92273300I0J262500D01*
G01*
X156274600Y-91648300D01*
G75*
G02*
X156537100Y-91385800I262500J0D01*
G01*
X157062100Y-91385800D01*
G75*
G02*
X157324600Y-91648300I0J-262500D01*
G01*
X157324600Y-92273300D01*
G75*
G02*
X157062100Y-92535800I-262500J0D01*
G01*
G37*
%TD*%
%TO.C,D6*%
G36*
G01*
X155157100Y-90785800D02*
X154632100Y-90785800D01*
G75*
G02*
X154369600Y-90523300I0J262500D01*
G01*
X154369600Y-89898300D01*
G75*
G02*
X154632100Y-89635800I262500J0D01*
G01*
X155157100Y-89635800D01*
G75*
G02*
X155419600Y-89898300I0J-262500D01*
G01*
X155419600Y-90523300D01*
G75*
G02*
X155157100Y-90785800I-262500J0D01*
G01*
G37*
G36*
G01*
X155157100Y-92535800D02*
X154632100Y-92535800D01*
G75*
G02*
X154369600Y-92273300I0J262500D01*
G01*
X154369600Y-91648300D01*
G75*
G02*
X154632100Y-91385800I262500J0D01*
G01*
X155157100Y-91385800D01*
G75*
G02*
X155419600Y-91648300I0J-262500D01*
G01*
X155419600Y-92273300D01*
G75*
G02*
X155157100Y-92535800I-262500J0D01*
G01*
G37*
%TD*%
%TO.C,D5*%
G36*
G01*
X153252100Y-90785800D02*
X152727100Y-90785800D01*
G75*
G02*
X152464600Y-90523300I0J262500D01*
G01*
X152464600Y-89898300D01*
G75*
G02*
X152727100Y-89635800I262500J0D01*
G01*
X153252100Y-89635800D01*
G75*
G02*
X153514600Y-89898300I0J-262500D01*
G01*
X153514600Y-90523300D01*
G75*
G02*
X153252100Y-90785800I-262500J0D01*
G01*
G37*
G36*
G01*
X153252100Y-92535800D02*
X152727100Y-92535800D01*
G75*
G02*
X152464600Y-92273300I0J262500D01*
G01*
X152464600Y-91648300D01*
G75*
G02*
X152727100Y-91385800I262500J0D01*
G01*
X153252100Y-91385800D01*
G75*
G02*
X153514600Y-91648300I0J-262500D01*
G01*
X153514600Y-92273300D01*
G75*
G02*
X153252100Y-92535800I-262500J0D01*
G01*
G37*
%TD*%
%TO.C,D4*%
G36*
G01*
X151347100Y-90785800D02*
X150822100Y-90785800D01*
G75*
G02*
X150559600Y-90523300I0J262500D01*
G01*
X150559600Y-89898300D01*
G75*
G02*
X150822100Y-89635800I262500J0D01*
G01*
X151347100Y-89635800D01*
G75*
G02*
X151609600Y-89898300I0J-262500D01*
G01*
X151609600Y-90523300D01*
G75*
G02*
X151347100Y-90785800I-262500J0D01*
G01*
G37*
G36*
G01*
X151347100Y-92535800D02*
X150822100Y-92535800D01*
G75*
G02*
X150559600Y-92273300I0J262500D01*
G01*
X150559600Y-91648300D01*
G75*
G02*
X150822100Y-91385800I262500J0D01*
G01*
X151347100Y-91385800D01*
G75*
G02*
X151609600Y-91648300I0J-262500D01*
G01*
X151609600Y-92273300D01*
G75*
G02*
X151347100Y-92535800I-262500J0D01*
G01*
G37*
%TD*%
%TO.C,D3*%
G36*
G01*
X149442100Y-90785800D02*
X148917100Y-90785800D01*
G75*
G02*
X148654600Y-90523300I0J262500D01*
G01*
X148654600Y-89898300D01*
G75*
G02*
X148917100Y-89635800I262500J0D01*
G01*
X149442100Y-89635800D01*
G75*
G02*
X149704600Y-89898300I0J-262500D01*
G01*
X149704600Y-90523300D01*
G75*
G02*
X149442100Y-90785800I-262500J0D01*
G01*
G37*
G36*
G01*
X149442100Y-92535800D02*
X148917100Y-92535800D01*
G75*
G02*
X148654600Y-92273300I0J262500D01*
G01*
X148654600Y-91648300D01*
G75*
G02*
X148917100Y-91385800I262500J0D01*
G01*
X149442100Y-91385800D01*
G75*
G02*
X149704600Y-91648300I0J-262500D01*
G01*
X149704600Y-92273300D01*
G75*
G02*
X149442100Y-92535800I-262500J0D01*
G01*
G37*
%TD*%
%TO.C,D2*%
G36*
G01*
X147537100Y-90785800D02*
X147012100Y-90785800D01*
G75*
G02*
X146749600Y-90523300I0J262500D01*
G01*
X146749600Y-89898300D01*
G75*
G02*
X147012100Y-89635800I262500J0D01*
G01*
X147537100Y-89635800D01*
G75*
G02*
X147799600Y-89898300I0J-262500D01*
G01*
X147799600Y-90523300D01*
G75*
G02*
X147537100Y-90785800I-262500J0D01*
G01*
G37*
G36*
G01*
X147537100Y-92535800D02*
X147012100Y-92535800D01*
G75*
G02*
X146749600Y-92273300I0J262500D01*
G01*
X146749600Y-91648300D01*
G75*
G02*
X147012100Y-91385800I262500J0D01*
G01*
X147537100Y-91385800D01*
G75*
G02*
X147799600Y-91648300I0J-262500D01*
G01*
X147799600Y-92273300D01*
G75*
G02*
X147537100Y-92535800I-262500J0D01*
G01*
G37*
%TD*%
D55*
%TO.C,D1*%
X191337020Y-96254380D03*
X191337020Y-98754380D03*
X192737020Y-98754380D03*
X192737020Y-96254380D03*
%TD*%
%TO.C,C23*%
G36*
G01*
X78165400Y-103829260D02*
X78690400Y-103829260D01*
G75*
G02*
X78952900Y-104091760I0J-262500D01*
G01*
X78952900Y-104716760D01*
G75*
G02*
X78690400Y-104979260I-262500J0D01*
G01*
X78165400Y-104979260D01*
G75*
G02*
X77902900Y-104716760I0J262500D01*
G01*
X77902900Y-104091760D01*
G75*
G02*
X78165400Y-103829260I262500J0D01*
G01*
G37*
G36*
G01*
X78165400Y-102079260D02*
X78690400Y-102079260D01*
G75*
G02*
X78952900Y-102341760I0J-262500D01*
G01*
X78952900Y-102966760D01*
G75*
G02*
X78690400Y-103229260I-262500J0D01*
G01*
X78165400Y-103229260D01*
G75*
G02*
X77902900Y-102966760I0J262500D01*
G01*
X77902900Y-102341760D01*
G75*
G02*
X78165400Y-102079260I262500J0D01*
G01*
G37*
%TD*%
%TO.C,C22*%
G36*
G01*
X79806240Y-103841960D02*
X80331240Y-103841960D01*
G75*
G02*
X80593740Y-104104460I0J-262500D01*
G01*
X80593740Y-104729460D01*
G75*
G02*
X80331240Y-104991960I-262500J0D01*
G01*
X79806240Y-104991960D01*
G75*
G02*
X79543740Y-104729460I0J262500D01*
G01*
X79543740Y-104104460D01*
G75*
G02*
X79806240Y-103841960I262500J0D01*
G01*
G37*
G36*
G01*
X79806240Y-102091960D02*
X80331240Y-102091960D01*
G75*
G02*
X80593740Y-102354460I0J-262500D01*
G01*
X80593740Y-102979460D01*
G75*
G02*
X80331240Y-103241960I-262500J0D01*
G01*
X79806240Y-103241960D01*
G75*
G02*
X79543740Y-102979460I0J262500D01*
G01*
X79543740Y-102354460D01*
G75*
G02*
X79806240Y-102091960I262500J0D01*
G01*
G37*
%TD*%
%TO.C,C21*%
G36*
G01*
X74726716Y-98300840D02*
X73411804Y-98300840D01*
G75*
G02*
X73144260Y-98033296I0J267544D01*
G01*
X73144260Y-97043384D01*
G75*
G02*
X73411804Y-96775840I267544J0D01*
G01*
X74726716Y-96775840D01*
G75*
G02*
X74994260Y-97043384I0J-267544D01*
G01*
X74994260Y-98033296D01*
G75*
G02*
X74726716Y-98300840I-267544J0D01*
G01*
G37*
G36*
G01*
X74726716Y-101275840D02*
X73411804Y-101275840D01*
G75*
G02*
X73144260Y-101008296I0J267544D01*
G01*
X73144260Y-100018384D01*
G75*
G02*
X73411804Y-99750840I267544J0D01*
G01*
X74726716Y-99750840D01*
G75*
G02*
X74994260Y-100018384I0J-267544D01*
G01*
X74994260Y-101008296D01*
G75*
G02*
X74726716Y-101275840I-267544J0D01*
G01*
G37*
%TD*%
%TO.C,C20*%
G36*
G01*
X73522060Y-120933744D02*
X73522060Y-122248656D01*
G75*
G02*
X73254516Y-122516200I-267544J0D01*
G01*
X72264604Y-122516200D01*
G75*
G02*
X71997060Y-122248656I0J267544D01*
G01*
X71997060Y-120933744D01*
G75*
G02*
X72264604Y-120666200I267544J0D01*
G01*
X73254516Y-120666200D01*
G75*
G02*
X73522060Y-120933744I0J-267544D01*
G01*
G37*
G36*
G01*
X76497060Y-120933744D02*
X76497060Y-122248656D01*
G75*
G02*
X76229516Y-122516200I-267544J0D01*
G01*
X75239604Y-122516200D01*
G75*
G02*
X74972060Y-122248656I0J267544D01*
G01*
X74972060Y-120933744D01*
G75*
G02*
X75239604Y-120666200I267544J0D01*
G01*
X76229516Y-120666200D01*
G75*
G02*
X76497060Y-120933744I0J-267544D01*
G01*
G37*
%TD*%
%TO.C,C19*%
G36*
G01*
X73638900Y-113298504D02*
X73638900Y-114613416D01*
G75*
G02*
X73371356Y-114880960I-267544J0D01*
G01*
X72381444Y-114880960D01*
G75*
G02*
X72113900Y-114613416I0J267544D01*
G01*
X72113900Y-113298504D01*
G75*
G02*
X72381444Y-113030960I267544J0D01*
G01*
X73371356Y-113030960D01*
G75*
G02*
X73638900Y-113298504I0J-267544D01*
G01*
G37*
G36*
G01*
X76613900Y-113298504D02*
X76613900Y-114613416D01*
G75*
G02*
X76346356Y-114880960I-267544J0D01*
G01*
X75356444Y-114880960D01*
G75*
G02*
X75088900Y-114613416I0J267544D01*
G01*
X75088900Y-113298504D01*
G75*
G02*
X75356444Y-113030960I267544J0D01*
G01*
X76346356Y-113030960D01*
G75*
G02*
X76613900Y-113298504I0J-267544D01*
G01*
G37*
%TD*%
%TO.C,C18*%
G36*
G01*
X194176104Y-67586820D02*
X195491016Y-67586820D01*
G75*
G02*
X195758560Y-67854364I0J-267544D01*
G01*
X195758560Y-68844276D01*
G75*
G02*
X195491016Y-69111820I-267544J0D01*
G01*
X194176104Y-69111820D01*
G75*
G02*
X193908560Y-68844276I0J267544D01*
G01*
X193908560Y-67854364D01*
G75*
G02*
X194176104Y-67586820I267544J0D01*
G01*
G37*
G36*
G01*
X194176104Y-64611820D02*
X195491016Y-64611820D01*
G75*
G02*
X195758560Y-64879364I0J-267544D01*
G01*
X195758560Y-65869276D01*
G75*
G02*
X195491016Y-66136820I-267544J0D01*
G01*
X194176104Y-66136820D01*
G75*
G02*
X193908560Y-65869276I0J267544D01*
G01*
X193908560Y-64879364D01*
G75*
G02*
X194176104Y-64611820I267544J0D01*
G01*
G37*
%TD*%
%TO.C,C16*%
G36*
G01*
X89362880Y-112310920D02*
X89362880Y-111785920D01*
G75*
G02*
X89625380Y-111523420I262500J0D01*
G01*
X90250380Y-111523420D01*
G75*
G02*
X90512880Y-111785920I0J-262500D01*
G01*
X90512880Y-112310920D01*
G75*
G02*
X90250380Y-112573420I-262500J0D01*
G01*
X89625380Y-112573420D01*
G75*
G02*
X89362880Y-112310920I0J262500D01*
G01*
G37*
G36*
G01*
X87612880Y-112310920D02*
X87612880Y-111785920D01*
G75*
G02*
X87875380Y-111523420I262500J0D01*
G01*
X88500380Y-111523420D01*
G75*
G02*
X88762880Y-111785920I0J-262500D01*
G01*
X88762880Y-112310920D01*
G75*
G02*
X88500380Y-112573420I-262500J0D01*
G01*
X87875380Y-112573420D01*
G75*
G02*
X87612880Y-112310920I0J262500D01*
G01*
G37*
%TD*%
%TO.C,C15*%
G36*
G01*
X90229620Y-114237620D02*
X89704620Y-114237620D01*
G75*
G02*
X89442120Y-113975120I0J262500D01*
G01*
X89442120Y-113350120D01*
G75*
G02*
X89704620Y-113087620I262500J0D01*
G01*
X90229620Y-113087620D01*
G75*
G02*
X90492120Y-113350120I0J-262500D01*
G01*
X90492120Y-113975120D01*
G75*
G02*
X90229620Y-114237620I-262500J0D01*
G01*
G37*
G36*
G01*
X90229620Y-115987620D02*
X89704620Y-115987620D01*
G75*
G02*
X89442120Y-115725120I0J262500D01*
G01*
X89442120Y-115100120D01*
G75*
G02*
X89704620Y-114837620I262500J0D01*
G01*
X90229620Y-114837620D01*
G75*
G02*
X90492120Y-115100120I0J-262500D01*
G01*
X90492120Y-115725120D01*
G75*
G02*
X90229620Y-115987620I-262500J0D01*
G01*
G37*
%TD*%
%TO.C,C14*%
G36*
G01*
X145095560Y-95808540D02*
X145095560Y-95283540D01*
G75*
G02*
X145358060Y-95021040I262500J0D01*
G01*
X145983060Y-95021040D01*
G75*
G02*
X146245560Y-95283540I0J-262500D01*
G01*
X146245560Y-95808540D01*
G75*
G02*
X145983060Y-96071040I-262500J0D01*
G01*
X145358060Y-96071040D01*
G75*
G02*
X145095560Y-95808540I0J262500D01*
G01*
G37*
G36*
G01*
X143345560Y-95808540D02*
X143345560Y-95283540D01*
G75*
G02*
X143608060Y-95021040I262500J0D01*
G01*
X144233060Y-95021040D01*
G75*
G02*
X144495560Y-95283540I0J-262500D01*
G01*
X144495560Y-95808540D01*
G75*
G02*
X144233060Y-96071040I-262500J0D01*
G01*
X143608060Y-96071040D01*
G75*
G02*
X143345560Y-95808540I0J262500D01*
G01*
G37*
%TD*%
%TO.C,C13*%
G36*
G01*
X161910360Y-110042700D02*
X161910360Y-109517700D01*
G75*
G02*
X162172860Y-109255200I262500J0D01*
G01*
X162797860Y-109255200D01*
G75*
G02*
X163060360Y-109517700I0J-262500D01*
G01*
X163060360Y-110042700D01*
G75*
G02*
X162797860Y-110305200I-262500J0D01*
G01*
X162172860Y-110305200D01*
G75*
G02*
X161910360Y-110042700I0J262500D01*
G01*
G37*
G36*
G01*
X160160360Y-110042700D02*
X160160360Y-109517700D01*
G75*
G02*
X160422860Y-109255200I262500J0D01*
G01*
X161047860Y-109255200D01*
G75*
G02*
X161310360Y-109517700I0J-262500D01*
G01*
X161310360Y-110042700D01*
G75*
G02*
X161047860Y-110305200I-262500J0D01*
G01*
X160422860Y-110305200D01*
G75*
G02*
X160160360Y-110042700I0J262500D01*
G01*
G37*
%TD*%
%TO.C,C12*%
G36*
G01*
X168376040Y-140870080D02*
X168901040Y-140870080D01*
G75*
G02*
X169163540Y-141132580I0J-262500D01*
G01*
X169163540Y-141757580D01*
G75*
G02*
X168901040Y-142020080I-262500J0D01*
G01*
X168376040Y-142020080D01*
G75*
G02*
X168113540Y-141757580I0J262500D01*
G01*
X168113540Y-141132580D01*
G75*
G02*
X168376040Y-140870080I262500J0D01*
G01*
G37*
G36*
G01*
X168376040Y-139120080D02*
X168901040Y-139120080D01*
G75*
G02*
X169163540Y-139382580I0J-262500D01*
G01*
X169163540Y-140007580D01*
G75*
G02*
X168901040Y-140270080I-262500J0D01*
G01*
X168376040Y-140270080D01*
G75*
G02*
X168113540Y-140007580I0J262500D01*
G01*
X168113540Y-139382580D01*
G75*
G02*
X168376040Y-139120080I262500J0D01*
G01*
G37*
%TD*%
%TO.C,C11*%
G36*
G01*
X154350080Y-110042700D02*
X154350080Y-109517700D01*
G75*
G02*
X154612580Y-109255200I262500J0D01*
G01*
X155237580Y-109255200D01*
G75*
G02*
X155500080Y-109517700I0J-262500D01*
G01*
X155500080Y-110042700D01*
G75*
G02*
X155237580Y-110305200I-262500J0D01*
G01*
X154612580Y-110305200D01*
G75*
G02*
X154350080Y-110042700I0J262500D01*
G01*
G37*
G36*
G01*
X152600080Y-110042700D02*
X152600080Y-109517700D01*
G75*
G02*
X152862580Y-109255200I262500J0D01*
G01*
X153487580Y-109255200D01*
G75*
G02*
X153750080Y-109517700I0J-262500D01*
G01*
X153750080Y-110042700D01*
G75*
G02*
X153487580Y-110305200I-262500J0D01*
G01*
X152862580Y-110305200D01*
G75*
G02*
X152600080Y-110042700I0J262500D01*
G01*
G37*
%TD*%
%TO.C,C10*%
G36*
G01*
X146629720Y-109991900D02*
X146629720Y-109466900D01*
G75*
G02*
X146892220Y-109204400I262500J0D01*
G01*
X147517220Y-109204400D01*
G75*
G02*
X147779720Y-109466900I0J-262500D01*
G01*
X147779720Y-109991900D01*
G75*
G02*
X147517220Y-110254400I-262500J0D01*
G01*
X146892220Y-110254400D01*
G75*
G02*
X146629720Y-109991900I0J262500D01*
G01*
G37*
G36*
G01*
X144879720Y-109991900D02*
X144879720Y-109466900D01*
G75*
G02*
X145142220Y-109204400I262500J0D01*
G01*
X145767220Y-109204400D01*
G75*
G02*
X146029720Y-109466900I0J-262500D01*
G01*
X146029720Y-109991900D01*
G75*
G02*
X145767220Y-110254400I-262500J0D01*
G01*
X145142220Y-110254400D01*
G75*
G02*
X144879720Y-109991900I0J262500D01*
G01*
G37*
%TD*%
%TO.C,C9*%
G36*
G01*
X109306276Y-85115700D02*
X107991364Y-85115700D01*
G75*
G02*
X107723820Y-84848156I0J267544D01*
G01*
X107723820Y-83858244D01*
G75*
G02*
X107991364Y-83590700I267544J0D01*
G01*
X109306276Y-83590700D01*
G75*
G02*
X109573820Y-83858244I0J-267544D01*
G01*
X109573820Y-84848156D01*
G75*
G02*
X109306276Y-85115700I-267544J0D01*
G01*
G37*
G36*
G01*
X109306276Y-88090700D02*
X107991364Y-88090700D01*
G75*
G02*
X107723820Y-87823156I0J267544D01*
G01*
X107723820Y-86833244D01*
G75*
G02*
X107991364Y-86565700I267544J0D01*
G01*
X109306276Y-86565700D01*
G75*
G02*
X109573820Y-86833244I0J-267544D01*
G01*
X109573820Y-87823156D01*
G75*
G02*
X109306276Y-88090700I-267544J0D01*
G01*
G37*
%TD*%
%TO.C,C8*%
G36*
G01*
X147652180Y-72235440D02*
X148177180Y-72235440D01*
G75*
G02*
X148439680Y-72497940I0J-262500D01*
G01*
X148439680Y-73122940D01*
G75*
G02*
X148177180Y-73385440I-262500J0D01*
G01*
X147652180Y-73385440D01*
G75*
G02*
X147389680Y-73122940I0J262500D01*
G01*
X147389680Y-72497940D01*
G75*
G02*
X147652180Y-72235440I262500J0D01*
G01*
G37*
G36*
G01*
X147652180Y-70485440D02*
X148177180Y-70485440D01*
G75*
G02*
X148439680Y-70747940I0J-262500D01*
G01*
X148439680Y-71372940D01*
G75*
G02*
X148177180Y-71635440I-262500J0D01*
G01*
X147652180Y-71635440D01*
G75*
G02*
X147389680Y-71372940I0J262500D01*
G01*
X147389680Y-70747940D01*
G75*
G02*
X147652180Y-70485440I262500J0D01*
G01*
G37*
%TD*%
%TO.C,C7*%
G36*
G01*
X156645540Y-66447520D02*
X156120540Y-66447520D01*
G75*
G02*
X155858040Y-66185020I0J262500D01*
G01*
X155858040Y-65560020D01*
G75*
G02*
X156120540Y-65297520I262500J0D01*
G01*
X156645540Y-65297520D01*
G75*
G02*
X156908040Y-65560020I0J-262500D01*
G01*
X156908040Y-66185020D01*
G75*
G02*
X156645540Y-66447520I-262500J0D01*
G01*
G37*
G36*
G01*
X156645540Y-68197520D02*
X156120540Y-68197520D01*
G75*
G02*
X155858040Y-67935020I0J262500D01*
G01*
X155858040Y-67310020D01*
G75*
G02*
X156120540Y-67047520I262500J0D01*
G01*
X156645540Y-67047520D01*
G75*
G02*
X156908040Y-67310020I0J-262500D01*
G01*
X156908040Y-67935020D01*
G75*
G02*
X156645540Y-68197520I-262500J0D01*
G01*
G37*
%TD*%
%TO.C,C6*%
G36*
G01*
X111553700Y-121383200D02*
X112078700Y-121383200D01*
G75*
G02*
X112341200Y-121645700I0J-262500D01*
G01*
X112341200Y-122270700D01*
G75*
G02*
X112078700Y-122533200I-262500J0D01*
G01*
X111553700Y-122533200D01*
G75*
G02*
X111291200Y-122270700I0J262500D01*
G01*
X111291200Y-121645700D01*
G75*
G02*
X111553700Y-121383200I262500J0D01*
G01*
G37*
G36*
G01*
X111553700Y-119633200D02*
X112078700Y-119633200D01*
G75*
G02*
X112341200Y-119895700I0J-262500D01*
G01*
X112341200Y-120520700D01*
G75*
G02*
X112078700Y-120783200I-262500J0D01*
G01*
X111553700Y-120783200D01*
G75*
G02*
X111291200Y-120520700I0J262500D01*
G01*
X111291200Y-119895700D01*
G75*
G02*
X111553700Y-119633200I262500J0D01*
G01*
G37*
%TD*%
%TO.C,C5*%
G36*
G01*
X145070160Y-93959420D02*
X145070160Y-93434420D01*
G75*
G02*
X145332660Y-93171920I262500J0D01*
G01*
X145957660Y-93171920D01*
G75*
G02*
X146220160Y-93434420I0J-262500D01*
G01*
X146220160Y-93959420D01*
G75*
G02*
X145957660Y-94221920I-262500J0D01*
G01*
X145332660Y-94221920D01*
G75*
G02*
X145070160Y-93959420I0J262500D01*
G01*
G37*
G36*
G01*
X143320160Y-93959420D02*
X143320160Y-93434420D01*
G75*
G02*
X143582660Y-93171920I262500J0D01*
G01*
X144207660Y-93171920D01*
G75*
G02*
X144470160Y-93434420I0J-262500D01*
G01*
X144470160Y-93959420D01*
G75*
G02*
X144207660Y-94221920I-262500J0D01*
G01*
X143582660Y-94221920D01*
G75*
G02*
X143320160Y-93959420I0J262500D01*
G01*
G37*
%TD*%
%TO.C,C4*%
G36*
G01*
X79907060Y-57341560D02*
X79382060Y-57341560D01*
G75*
G02*
X79119560Y-57079060I0J262500D01*
G01*
X79119560Y-56454060D01*
G75*
G02*
X79382060Y-56191560I262500J0D01*
G01*
X79907060Y-56191560D01*
G75*
G02*
X80169560Y-56454060I0J-262500D01*
G01*
X80169560Y-57079060D01*
G75*
G02*
X79907060Y-57341560I-262500J0D01*
G01*
G37*
G36*
G01*
X79907060Y-55591560D02*
X79382060Y-55591560D01*
G75*
G02*
X79119560Y-55329060I0J262500D01*
G01*
X79119560Y-54704060D01*
G75*
G02*
X79382060Y-54441560I262500J0D01*
G01*
X79907060Y-54441560D01*
G75*
G02*
X80169560Y-54704060I0J-262500D01*
G01*
X80169560Y-55329060D01*
G75*
G02*
X79907060Y-55591560I-262500J0D01*
G01*
G37*
%TD*%
%TO.C,C3*%
G36*
G01*
X132511240Y-69409720D02*
X133036240Y-69409720D01*
G75*
G02*
X133298740Y-69672220I0J-262500D01*
G01*
X133298740Y-70297220D01*
G75*
G02*
X133036240Y-70559720I-262500J0D01*
G01*
X132511240Y-70559720D01*
G75*
G02*
X132248740Y-70297220I0J262500D01*
G01*
X132248740Y-69672220D01*
G75*
G02*
X132511240Y-69409720I262500J0D01*
G01*
G37*
G36*
G01*
X132511240Y-67659720D02*
X133036240Y-67659720D01*
G75*
G02*
X133298740Y-67922220I0J-262500D01*
G01*
X133298740Y-68547220D01*
G75*
G02*
X133036240Y-68809720I-262500J0D01*
G01*
X132511240Y-68809720D01*
G75*
G02*
X132248740Y-68547220I0J262500D01*
G01*
X132248740Y-67922220D01*
G75*
G02*
X132511240Y-67659720I262500J0D01*
G01*
G37*
%TD*%
%TO.C,C2*%
G36*
G01*
X171597360Y-119545620D02*
X171597360Y-120070620D01*
G75*
G02*
X171334860Y-120333120I-262500J0D01*
G01*
X170709860Y-120333120D01*
G75*
G02*
X170447360Y-120070620I0J262500D01*
G01*
X170447360Y-119545620D01*
G75*
G02*
X170709860Y-119283120I262500J0D01*
G01*
X171334860Y-119283120D01*
G75*
G02*
X171597360Y-119545620I0J-262500D01*
G01*
G37*
G36*
G01*
X173347360Y-119545620D02*
X173347360Y-120070620D01*
G75*
G02*
X173084860Y-120333120I-262500J0D01*
G01*
X172459860Y-120333120D01*
G75*
G02*
X172197360Y-120070620I0J262500D01*
G01*
X172197360Y-119545620D01*
G75*
G02*
X172459860Y-119283120I262500J0D01*
G01*
X173084860Y-119283120D01*
G75*
G02*
X173347360Y-119545620I0J-262500D01*
G01*
G37*
%TD*%
%TO.C,C1*%
G36*
G01*
X121343400Y-56581560D02*
X121343400Y-57106560D01*
G75*
G02*
X121080900Y-57369060I-262500J0D01*
G01*
X120455900Y-57369060D01*
G75*
G02*
X120193400Y-57106560I0J262500D01*
G01*
X120193400Y-56581560D01*
G75*
G02*
X120455900Y-56319060I262500J0D01*
G01*
X121080900Y-56319060D01*
G75*
G02*
X121343400Y-56581560I0J-262500D01*
G01*
G37*
G36*
G01*
X119593400Y-56581560D02*
X119593400Y-57106560D01*
G75*
G02*
X119330900Y-57369060I-262500J0D01*
G01*
X118705900Y-57369060D01*
G75*
G02*
X118443400Y-57106560I0J262500D01*
G01*
X118443400Y-56581560D01*
G75*
G02*
X118705900Y-56319060I262500J0D01*
G01*
X119330900Y-56319060D01*
G75*
G02*
X119593400Y-56581560I0J-262500D01*
G01*
G37*
%TD*%
%TO.C,C17*%
G36*
G01*
X168425460Y-66265800D02*
X168425460Y-65740800D01*
G75*
G02*
X168687960Y-65478300I262500J0D01*
G01*
X169312960Y-65478300D01*
G75*
G02*
X169575460Y-65740800I0J-262500D01*
G01*
X169575460Y-66265800D01*
G75*
G02*
X169312960Y-66528300I-262500J0D01*
G01*
X168687960Y-66528300D01*
G75*
G02*
X168425460Y-66265800I0J262500D01*
G01*
G37*
G36*
G01*
X166675460Y-66265800D02*
X166675460Y-65740800D01*
G75*
G02*
X166937960Y-65478300I262500J0D01*
G01*
X167562960Y-65478300D01*
G75*
G02*
X167825460Y-65740800I0J-262500D01*
G01*
X167825460Y-66265800D01*
G75*
G02*
X167562960Y-66528300I-262500J0D01*
G01*
X166937960Y-66528300D01*
G75*
G02*
X166675460Y-66265800I0J262500D01*
G01*
G37*
%TD*%
%TO.C,C24*%
G36*
G01*
X177832240Y-68012844D02*
X177832240Y-69327756D01*
G75*
G02*
X177564696Y-69595300I-267544J0D01*
G01*
X176574784Y-69595300D01*
G75*
G02*
X176307240Y-69327756I0J267544D01*
G01*
X176307240Y-68012844D01*
G75*
G02*
X176574784Y-67745300I267544J0D01*
G01*
X177564696Y-67745300D01*
G75*
G02*
X177832240Y-68012844I0J-267544D01*
G01*
G37*
G36*
G01*
X180807240Y-68012844D02*
X180807240Y-69327756D01*
G75*
G02*
X180539696Y-69595300I-267544J0D01*
G01*
X179549784Y-69595300D01*
G75*
G02*
X179282240Y-69327756I0J267544D01*
G01*
X179282240Y-68012844D01*
G75*
G02*
X179549784Y-67745300I267544J0D01*
G01*
X180539696Y-67745300D01*
G75*
G02*
X180807240Y-68012844I0J-267544D01*
G01*
G37*
%TD*%
D56*
%TO.C,D13*%
X174574540Y-73818880D03*
X179974540Y-73818880D03*
%TD*%
D57*
%TO.C,L1*%
X168186420Y-68954180D03*
X168186420Y-73324180D03*
%TD*%
%TO.C,R48*%
G36*
G01*
X178437580Y-65908440D02*
X178437580Y-66433440D01*
G75*
G02*
X178175080Y-66695940I-262500J0D01*
G01*
X177550080Y-66695940D01*
G75*
G02*
X177287580Y-66433440I0J262500D01*
G01*
X177287580Y-65908440D01*
G75*
G02*
X177550080Y-65645940I262500J0D01*
G01*
X178175080Y-65645940D01*
G75*
G02*
X178437580Y-65908440I0J-262500D01*
G01*
G37*
G36*
G01*
X180187580Y-65908440D02*
X180187580Y-66433440D01*
G75*
G02*
X179925080Y-66695940I-262500J0D01*
G01*
X179300080Y-66695940D01*
G75*
G02*
X179037580Y-66433440I0J262500D01*
G01*
X179037580Y-65908440D01*
G75*
G02*
X179300080Y-65645940I262500J0D01*
G01*
X179925080Y-65645940D01*
G75*
G02*
X180187580Y-65908440I0J-262500D01*
G01*
G37*
%TD*%
%TO.C,R54*%
G36*
G01*
X175064400Y-65903360D02*
X175064400Y-66428360D01*
G75*
G02*
X174801900Y-66690860I-262500J0D01*
G01*
X174176900Y-66690860D01*
G75*
G02*
X173914400Y-66428360I0J262500D01*
G01*
X173914400Y-65903360D01*
G75*
G02*
X174176900Y-65640860I262500J0D01*
G01*
X174801900Y-65640860D01*
G75*
G02*
X175064400Y-65903360I0J-262500D01*
G01*
G37*
G36*
G01*
X173314400Y-65903360D02*
X173314400Y-66428360D01*
G75*
G02*
X173051900Y-66690860I-262500J0D01*
G01*
X172426900Y-66690860D01*
G75*
G02*
X172164400Y-66428360I0J262500D01*
G01*
X172164400Y-65903360D01*
G75*
G02*
X172426900Y-65640860I262500J0D01*
G01*
X173051900Y-65640860D01*
G75*
G02*
X173314400Y-65903360I0J-262500D01*
G01*
G37*
%TD*%
D58*
%TO.C,U13*%
X172052120Y-69455160D03*
X172052120Y-70405160D03*
X172052120Y-68505160D03*
X174252120Y-68505160D03*
X174252120Y-69455160D03*
X174252120Y-70405160D03*
%TD*%
%TO.C,C25*%
G36*
G01*
X134421920Y-60488080D02*
X134421920Y-61013080D01*
G75*
G02*
X134159420Y-61275580I-262500J0D01*
G01*
X133534420Y-61275580D01*
G75*
G02*
X133271920Y-61013080I0J262500D01*
G01*
X133271920Y-60488080D01*
G75*
G02*
X133534420Y-60225580I262500J0D01*
G01*
X134159420Y-60225580D01*
G75*
G02*
X134421920Y-60488080I0J-262500D01*
G01*
G37*
G36*
G01*
X136171920Y-60488080D02*
X136171920Y-61013080D01*
G75*
G02*
X135909420Y-61275580I-262500J0D01*
G01*
X135284420Y-61275580D01*
G75*
G02*
X135021920Y-61013080I0J262500D01*
G01*
X135021920Y-60488080D01*
G75*
G02*
X135284420Y-60225580I262500J0D01*
G01*
X135909420Y-60225580D01*
G75*
G02*
X136171920Y-60488080I0J-262500D01*
G01*
G37*
%TD*%
%TO.C,C26*%
G36*
G01*
X141682400Y-60737540D02*
X141157400Y-60737540D01*
G75*
G02*
X140894900Y-60475040I0J262500D01*
G01*
X140894900Y-59850040D01*
G75*
G02*
X141157400Y-59587540I262500J0D01*
G01*
X141682400Y-59587540D01*
G75*
G02*
X141944900Y-59850040I0J-262500D01*
G01*
X141944900Y-60475040D01*
G75*
G02*
X141682400Y-60737540I-262500J0D01*
G01*
G37*
G36*
G01*
X141682400Y-58987540D02*
X141157400Y-58987540D01*
G75*
G02*
X140894900Y-58725040I0J262500D01*
G01*
X140894900Y-58100040D01*
G75*
G02*
X141157400Y-57837540I262500J0D01*
G01*
X141682400Y-57837540D01*
G75*
G02*
X141944900Y-58100040I0J-262500D01*
G01*
X141944900Y-58725040D01*
G75*
G02*
X141682400Y-58987540I-262500J0D01*
G01*
G37*
%TD*%
%TO.C,C27*%
G36*
G01*
X134421920Y-57981100D02*
X134421920Y-58506100D01*
G75*
G02*
X134159420Y-58768600I-262500J0D01*
G01*
X133534420Y-58768600D01*
G75*
G02*
X133271920Y-58506100I0J262500D01*
G01*
X133271920Y-57981100D01*
G75*
G02*
X133534420Y-57718600I262500J0D01*
G01*
X134159420Y-57718600D01*
G75*
G02*
X134421920Y-57981100I0J-262500D01*
G01*
G37*
G36*
G01*
X136171920Y-57981100D02*
X136171920Y-58506100D01*
G75*
G02*
X135909420Y-58768600I-262500J0D01*
G01*
X135284420Y-58768600D01*
G75*
G02*
X135021920Y-58506100I0J262500D01*
G01*
X135021920Y-57981100D01*
G75*
G02*
X135284420Y-57718600I262500J0D01*
G01*
X135909420Y-57718600D01*
G75*
G02*
X136171920Y-57981100I0J-262500D01*
G01*
G37*
%TD*%
%TO.C,U14*%
X139550321Y-59425981D03*
X139550321Y-58475981D03*
X139550321Y-60375981D03*
X137350321Y-60375981D03*
X137350321Y-59425981D03*
X137350321Y-58475981D03*
%TD*%
D25*
%TO.C,J9*%
X205000000Y-100000000D03*
%TD*%
%TO.C,C28*%
G36*
G01*
X174961480Y-147892560D02*
X174436480Y-147892560D01*
G75*
G02*
X174173980Y-147630060I0J262500D01*
G01*
X174173980Y-147005060D01*
G75*
G02*
X174436480Y-146742560I262500J0D01*
G01*
X174961480Y-146742560D01*
G75*
G02*
X175223980Y-147005060I0J-262500D01*
G01*
X175223980Y-147630060D01*
G75*
G02*
X174961480Y-147892560I-262500J0D01*
G01*
G37*
G36*
G01*
X174961480Y-146142560D02*
X174436480Y-146142560D01*
G75*
G02*
X174173980Y-145880060I0J262500D01*
G01*
X174173980Y-145255060D01*
G75*
G02*
X174436480Y-144992560I262500J0D01*
G01*
X174961480Y-144992560D01*
G75*
G02*
X175223980Y-145255060I0J-262500D01*
G01*
X175223980Y-145880060D01*
G75*
G02*
X174961480Y-146142560I-262500J0D01*
G01*
G37*
%TD*%
%TO.C,R1*%
G36*
G01*
X177099000Y-139347460D02*
X177099000Y-139872460D01*
G75*
G02*
X176836500Y-140134960I-262500J0D01*
G01*
X176211500Y-140134960D01*
G75*
G02*
X175949000Y-139872460I0J262500D01*
G01*
X175949000Y-139347460D01*
G75*
G02*
X176211500Y-139084960I262500J0D01*
G01*
X176836500Y-139084960D01*
G75*
G02*
X177099000Y-139347460I0J-262500D01*
G01*
G37*
G36*
G01*
X178849000Y-139347460D02*
X178849000Y-139872460D01*
G75*
G02*
X178586500Y-140134960I-262500J0D01*
G01*
X177961500Y-140134960D01*
G75*
G02*
X177699000Y-139872460I0J262500D01*
G01*
X177699000Y-139347460D01*
G75*
G02*
X177961500Y-139084960I262500J0D01*
G01*
X178586500Y-139084960D01*
G75*
G02*
X178849000Y-139347460I0J-262500D01*
G01*
G37*
%TD*%
%TO.C,R2*%
G36*
G01*
X178831220Y-140899400D02*
X178831220Y-141424400D01*
G75*
G02*
X178568720Y-141686900I-262500J0D01*
G01*
X177943720Y-141686900D01*
G75*
G02*
X177681220Y-141424400I0J262500D01*
G01*
X177681220Y-140899400D01*
G75*
G02*
X177943720Y-140636900I262500J0D01*
G01*
X178568720Y-140636900D01*
G75*
G02*
X178831220Y-140899400I0J-262500D01*
G01*
G37*
G36*
G01*
X177081220Y-140899400D02*
X177081220Y-141424400D01*
G75*
G02*
X176818720Y-141686900I-262500J0D01*
G01*
X176193720Y-141686900D01*
G75*
G02*
X175931220Y-141424400I0J262500D01*
G01*
X175931220Y-140899400D01*
G75*
G02*
X176193720Y-140636900I262500J0D01*
G01*
X176818720Y-140636900D01*
G75*
G02*
X177081220Y-140899400I0J-262500D01*
G01*
G37*
%TD*%
%TO.C,R3*%
G36*
G01*
X178699140Y-147053820D02*
X178699140Y-147578820D01*
G75*
G02*
X178436640Y-147841320I-262500J0D01*
G01*
X177811640Y-147841320D01*
G75*
G02*
X177549140Y-147578820I0J262500D01*
G01*
X177549140Y-147053820D01*
G75*
G02*
X177811640Y-146791320I262500J0D01*
G01*
X178436640Y-146791320D01*
G75*
G02*
X178699140Y-147053820I0J-262500D01*
G01*
G37*
G36*
G01*
X176949140Y-147053820D02*
X176949140Y-147578820D01*
G75*
G02*
X176686640Y-147841320I-262500J0D01*
G01*
X176061640Y-147841320D01*
G75*
G02*
X175799140Y-147578820I0J262500D01*
G01*
X175799140Y-147053820D01*
G75*
G02*
X176061640Y-146791320I262500J0D01*
G01*
X176686640Y-146791320D01*
G75*
G02*
X176949140Y-147053820I0J-262500D01*
G01*
G37*
%TD*%
%TO.C,R4*%
G36*
G01*
X176964380Y-145301220D02*
X176964380Y-145826220D01*
G75*
G02*
X176701880Y-146088720I-262500J0D01*
G01*
X176076880Y-146088720D01*
G75*
G02*
X175814380Y-145826220I0J262500D01*
G01*
X175814380Y-145301220D01*
G75*
G02*
X176076880Y-145038720I262500J0D01*
G01*
X176701880Y-145038720D01*
G75*
G02*
X176964380Y-145301220I0J-262500D01*
G01*
G37*
G36*
G01*
X178714380Y-145301220D02*
X178714380Y-145826220D01*
G75*
G02*
X178451880Y-146088720I-262500J0D01*
G01*
X177826880Y-146088720D01*
G75*
G02*
X177564380Y-145826220I0J262500D01*
G01*
X177564380Y-145301220D01*
G75*
G02*
X177826880Y-145038720I262500J0D01*
G01*
X178451880Y-145038720D01*
G75*
G02*
X178714380Y-145301220I0J-262500D01*
G01*
G37*
%TD*%
%TO.C,U8*%
G36*
G01*
X171198600Y-143831320D02*
X170848600Y-143831320D01*
G75*
G02*
X170673600Y-143656320I0J175000D01*
G01*
X170673600Y-142156320D01*
G75*
G02*
X170848600Y-141981320I175000J0D01*
G01*
X171198600Y-141981320D01*
G75*
G02*
X171373600Y-142156320I0J-175000D01*
G01*
X171373600Y-143656320D01*
G75*
G02*
X171198600Y-143831320I-175000J0D01*
G01*
G37*
G36*
G01*
X172468600Y-143831320D02*
X172118600Y-143831320D01*
G75*
G02*
X171943600Y-143656320I0J175000D01*
G01*
X171943600Y-142156320D01*
G75*
G02*
X172118600Y-141981320I175000J0D01*
G01*
X172468600Y-141981320D01*
G75*
G02*
X172643600Y-142156320I0J-175000D01*
G01*
X172643600Y-143656320D01*
G75*
G02*
X172468600Y-143831320I-175000J0D01*
G01*
G37*
G36*
G01*
X173738600Y-143831320D02*
X173388600Y-143831320D01*
G75*
G02*
X173213600Y-143656320I0J175000D01*
G01*
X173213600Y-142156320D01*
G75*
G02*
X173388600Y-141981320I175000J0D01*
G01*
X173738600Y-141981320D01*
G75*
G02*
X173913600Y-142156320I0J-175000D01*
G01*
X173913600Y-143656320D01*
G75*
G02*
X173738600Y-143831320I-175000J0D01*
G01*
G37*
G36*
G01*
X175008600Y-143831320D02*
X174658600Y-143831320D01*
G75*
G02*
X174483600Y-143656320I0J175000D01*
G01*
X174483600Y-142156320D01*
G75*
G02*
X174658600Y-141981320I175000J0D01*
G01*
X175008600Y-141981320D01*
G75*
G02*
X175183600Y-142156320I0J-175000D01*
G01*
X175183600Y-143656320D01*
G75*
G02*
X175008600Y-143831320I-175000J0D01*
G01*
G37*
G36*
G01*
X175008600Y-138681320D02*
X174658600Y-138681320D01*
G75*
G02*
X174483600Y-138506320I0J175000D01*
G01*
X174483600Y-137006320D01*
G75*
G02*
X174658600Y-136831320I175000J0D01*
G01*
X175008600Y-136831320D01*
G75*
G02*
X175183600Y-137006320I0J-175000D01*
G01*
X175183600Y-138506320D01*
G75*
G02*
X175008600Y-138681320I-175000J0D01*
G01*
G37*
G36*
G01*
X173738600Y-138681320D02*
X173388600Y-138681320D01*
G75*
G02*
X173213600Y-138506320I0J175000D01*
G01*
X173213600Y-137006320D01*
G75*
G02*
X173388600Y-136831320I175000J0D01*
G01*
X173738600Y-136831320D01*
G75*
G02*
X173913600Y-137006320I0J-175000D01*
G01*
X173913600Y-138506320D01*
G75*
G02*
X173738600Y-138681320I-175000J0D01*
G01*
G37*
G36*
G01*
X172468600Y-138681320D02*
X172118600Y-138681320D01*
G75*
G02*
X171943600Y-138506320I0J175000D01*
G01*
X171943600Y-137006320D01*
G75*
G02*
X172118600Y-136831320I175000J0D01*
G01*
X172468600Y-136831320D01*
G75*
G02*
X172643600Y-137006320I0J-175000D01*
G01*
X172643600Y-138506320D01*
G75*
G02*
X172468600Y-138681320I-175000J0D01*
G01*
G37*
G36*
G01*
X171198600Y-138681320D02*
X170848600Y-138681320D01*
G75*
G02*
X170673600Y-138506320I0J175000D01*
G01*
X170673600Y-137006320D01*
G75*
G02*
X170848600Y-136831320I175000J0D01*
G01*
X171198600Y-136831320D01*
G75*
G02*
X171373600Y-137006320I0J-175000D01*
G01*
X171373600Y-138506320D01*
G75*
G02*
X171198600Y-138681320I-175000J0D01*
G01*
G37*
%TD*%
D43*
%TO.C,J15*%
X180881340Y-147710020D03*
D42*
X180881340Y-145170020D03*
%TD*%
%TO.C,D17*%
G36*
G01*
X178805820Y-137721860D02*
X178805820Y-138246860D01*
G75*
G02*
X178543320Y-138509360I-262500J0D01*
G01*
X177918320Y-138509360D01*
G75*
G02*
X177655820Y-138246860I0J262500D01*
G01*
X177655820Y-137721860D01*
G75*
G02*
X177918320Y-137459360I262500J0D01*
G01*
X178543320Y-137459360D01*
G75*
G02*
X178805820Y-137721860I0J-262500D01*
G01*
G37*
G36*
G01*
X177055820Y-137721860D02*
X177055820Y-138246860D01*
G75*
G02*
X176793320Y-138509360I-262500J0D01*
G01*
X176168320Y-138509360D01*
G75*
G02*
X175905820Y-138246860I0J262500D01*
G01*
X175905820Y-137721860D01*
G75*
G02*
X176168320Y-137459360I262500J0D01*
G01*
X176793320Y-137459360D01*
G75*
G02*
X177055820Y-137721860I0J-262500D01*
G01*
G37*
%TD*%
%TO.C,D18*%
G36*
G01*
X177073600Y-142552940D02*
X177073600Y-143077940D01*
G75*
G02*
X176811100Y-143340440I-262500J0D01*
G01*
X176186100Y-143340440D01*
G75*
G02*
X175923600Y-143077940I0J262500D01*
G01*
X175923600Y-142552940D01*
G75*
G02*
X176186100Y-142290440I262500J0D01*
G01*
X176811100Y-142290440D01*
G75*
G02*
X177073600Y-142552940I0J-262500D01*
G01*
G37*
G36*
G01*
X178823600Y-142552940D02*
X178823600Y-143077940D01*
G75*
G02*
X178561100Y-143340440I-262500J0D01*
G01*
X177936100Y-143340440D01*
G75*
G02*
X177673600Y-143077940I0J262500D01*
G01*
X177673600Y-142552940D01*
G75*
G02*
X177936100Y-142290440I262500J0D01*
G01*
X178561100Y-142290440D01*
G75*
G02*
X178823600Y-142552940I0J-262500D01*
G01*
G37*
%TD*%
M02*
