%TF.GenerationSoftware,KiCad,Pcbnew,5.1.9*%
%TF.CreationDate,2021-01-21T09:53:43+01:00*%
%TF.ProjectId,MCT_Labor_5529,4d43545f-4c61-4626-9f72-5f353532392e,rev?*%
%TF.SameCoordinates,Original*%
%TF.FileFunction,Paste,Top*%
%TF.FilePolarity,Positive*%
%FSLAX46Y46*%
G04 Gerber Fmt 4.6, Leading zero omitted, Abs format (unit mm)*
G04 Created by KiCad (PCBNEW 5.1.9) date 2021-01-21 09:53:43*
%MOMM*%
%LPD*%
G01*
G04 APERTURE LIST*
%ADD10R,7.340000X6.350000*%
%ADD11R,0.600000X2.200000*%
%ADD12R,3.450000X2.150000*%
%ADD13R,0.650000X1.060000*%
%ADD14R,2.500000X1.000000*%
%ADD15R,1.000000X1.800000*%
%ADD16R,2.500000X1.200000*%
%ADD17R,1.200000X2.500000*%
%ADD18R,0.800000X0.900000*%
%ADD19R,1.000000X1.550000*%
%ADD20R,1.500000X1.500000*%
%ADD21R,0.700000X1.750000*%
%ADD22R,0.800000X1.400000*%
%ADD23R,1.450000X1.000000*%
%ADD24R,0.800000X1.500000*%
%ADD25R,1.300000X1.500000*%
%ADD26R,0.900000X0.800000*%
%ADD27R,0.800000X1.000000*%
%ADD28R,3.500000X2.300000*%
%ADD29R,3.400000X3.000000*%
%ADD30R,1.060000X0.650000*%
G04 APERTURE END LIST*
%TO.C,D15*%
G36*
G01*
X51736320Y-128421780D02*
X51261320Y-128421780D01*
G75*
G02*
X51023820Y-128184280I0J237500D01*
G01*
X51023820Y-127609280D01*
G75*
G02*
X51261320Y-127371780I237500J0D01*
G01*
X51736320Y-127371780D01*
G75*
G02*
X51973820Y-127609280I0J-237500D01*
G01*
X51973820Y-128184280D01*
G75*
G02*
X51736320Y-128421780I-237500J0D01*
G01*
G37*
G36*
G01*
X51736320Y-130171780D02*
X51261320Y-130171780D01*
G75*
G02*
X51023820Y-129934280I0J237500D01*
G01*
X51023820Y-129359280D01*
G75*
G02*
X51261320Y-129121780I237500J0D01*
G01*
X51736320Y-129121780D01*
G75*
G02*
X51973820Y-129359280I0J-237500D01*
G01*
X51973820Y-129934280D01*
G75*
G02*
X51736320Y-130171780I-237500J0D01*
G01*
G37*
%TD*%
D10*
%TO.C,BT1*%
X137100000Y-136120000D03*
X58440000Y-136120000D03*
%TD*%
%TO.C,U3*%
G36*
G01*
X177399680Y-118093480D02*
X177399680Y-118393480D01*
G75*
G02*
X177249680Y-118543480I-150000J0D01*
G01*
X175599680Y-118543480D01*
G75*
G02*
X175449680Y-118393480I0J150000D01*
G01*
X175449680Y-118093480D01*
G75*
G02*
X175599680Y-117943480I150000J0D01*
G01*
X177249680Y-117943480D01*
G75*
G02*
X177399680Y-118093480I0J-150000D01*
G01*
G37*
G36*
G01*
X177399680Y-116823480D02*
X177399680Y-117123480D01*
G75*
G02*
X177249680Y-117273480I-150000J0D01*
G01*
X175599680Y-117273480D01*
G75*
G02*
X175449680Y-117123480I0J150000D01*
G01*
X175449680Y-116823480D01*
G75*
G02*
X175599680Y-116673480I150000J0D01*
G01*
X177249680Y-116673480D01*
G75*
G02*
X177399680Y-116823480I0J-150000D01*
G01*
G37*
G36*
G01*
X177399680Y-115553480D02*
X177399680Y-115853480D01*
G75*
G02*
X177249680Y-116003480I-150000J0D01*
G01*
X175599680Y-116003480D01*
G75*
G02*
X175449680Y-115853480I0J150000D01*
G01*
X175449680Y-115553480D01*
G75*
G02*
X175599680Y-115403480I150000J0D01*
G01*
X177249680Y-115403480D01*
G75*
G02*
X177399680Y-115553480I0J-150000D01*
G01*
G37*
G36*
G01*
X177399680Y-114283480D02*
X177399680Y-114583480D01*
G75*
G02*
X177249680Y-114733480I-150000J0D01*
G01*
X175599680Y-114733480D01*
G75*
G02*
X175449680Y-114583480I0J150000D01*
G01*
X175449680Y-114283480D01*
G75*
G02*
X175599680Y-114133480I150000J0D01*
G01*
X177249680Y-114133480D01*
G75*
G02*
X177399680Y-114283480I0J-150000D01*
G01*
G37*
G36*
G01*
X177399680Y-113013480D02*
X177399680Y-113313480D01*
G75*
G02*
X177249680Y-113463480I-150000J0D01*
G01*
X175599680Y-113463480D01*
G75*
G02*
X175449680Y-113313480I0J150000D01*
G01*
X175449680Y-113013480D01*
G75*
G02*
X175599680Y-112863480I150000J0D01*
G01*
X177249680Y-112863480D01*
G75*
G02*
X177399680Y-113013480I0J-150000D01*
G01*
G37*
G36*
G01*
X177399680Y-111743480D02*
X177399680Y-112043480D01*
G75*
G02*
X177249680Y-112193480I-150000J0D01*
G01*
X175599680Y-112193480D01*
G75*
G02*
X175449680Y-112043480I0J150000D01*
G01*
X175449680Y-111743480D01*
G75*
G02*
X175599680Y-111593480I150000J0D01*
G01*
X177249680Y-111593480D01*
G75*
G02*
X177399680Y-111743480I0J-150000D01*
G01*
G37*
G36*
G01*
X177399680Y-110473480D02*
X177399680Y-110773480D01*
G75*
G02*
X177249680Y-110923480I-150000J0D01*
G01*
X175599680Y-110923480D01*
G75*
G02*
X175449680Y-110773480I0J150000D01*
G01*
X175449680Y-110473480D01*
G75*
G02*
X175599680Y-110323480I150000J0D01*
G01*
X177249680Y-110323480D01*
G75*
G02*
X177399680Y-110473480I0J-150000D01*
G01*
G37*
G36*
G01*
X177399680Y-109203480D02*
X177399680Y-109503480D01*
G75*
G02*
X177249680Y-109653480I-150000J0D01*
G01*
X175599680Y-109653480D01*
G75*
G02*
X175449680Y-109503480I0J150000D01*
G01*
X175449680Y-109203480D01*
G75*
G02*
X175599680Y-109053480I150000J0D01*
G01*
X177249680Y-109053480D01*
G75*
G02*
X177399680Y-109203480I0J-150000D01*
G01*
G37*
G36*
G01*
X172449680Y-109203480D02*
X172449680Y-109503480D01*
G75*
G02*
X172299680Y-109653480I-150000J0D01*
G01*
X170649680Y-109653480D01*
G75*
G02*
X170499680Y-109503480I0J150000D01*
G01*
X170499680Y-109203480D01*
G75*
G02*
X170649680Y-109053480I150000J0D01*
G01*
X172299680Y-109053480D01*
G75*
G02*
X172449680Y-109203480I0J-150000D01*
G01*
G37*
G36*
G01*
X172449680Y-110473480D02*
X172449680Y-110773480D01*
G75*
G02*
X172299680Y-110923480I-150000J0D01*
G01*
X170649680Y-110923480D01*
G75*
G02*
X170499680Y-110773480I0J150000D01*
G01*
X170499680Y-110473480D01*
G75*
G02*
X170649680Y-110323480I150000J0D01*
G01*
X172299680Y-110323480D01*
G75*
G02*
X172449680Y-110473480I0J-150000D01*
G01*
G37*
G36*
G01*
X172449680Y-111743480D02*
X172449680Y-112043480D01*
G75*
G02*
X172299680Y-112193480I-150000J0D01*
G01*
X170649680Y-112193480D01*
G75*
G02*
X170499680Y-112043480I0J150000D01*
G01*
X170499680Y-111743480D01*
G75*
G02*
X170649680Y-111593480I150000J0D01*
G01*
X172299680Y-111593480D01*
G75*
G02*
X172449680Y-111743480I0J-150000D01*
G01*
G37*
G36*
G01*
X172449680Y-113013480D02*
X172449680Y-113313480D01*
G75*
G02*
X172299680Y-113463480I-150000J0D01*
G01*
X170649680Y-113463480D01*
G75*
G02*
X170499680Y-113313480I0J150000D01*
G01*
X170499680Y-113013480D01*
G75*
G02*
X170649680Y-112863480I150000J0D01*
G01*
X172299680Y-112863480D01*
G75*
G02*
X172449680Y-113013480I0J-150000D01*
G01*
G37*
G36*
G01*
X172449680Y-114283480D02*
X172449680Y-114583480D01*
G75*
G02*
X172299680Y-114733480I-150000J0D01*
G01*
X170649680Y-114733480D01*
G75*
G02*
X170499680Y-114583480I0J150000D01*
G01*
X170499680Y-114283480D01*
G75*
G02*
X170649680Y-114133480I150000J0D01*
G01*
X172299680Y-114133480D01*
G75*
G02*
X172449680Y-114283480I0J-150000D01*
G01*
G37*
G36*
G01*
X172449680Y-115553480D02*
X172449680Y-115853480D01*
G75*
G02*
X172299680Y-116003480I-150000J0D01*
G01*
X170649680Y-116003480D01*
G75*
G02*
X170499680Y-115853480I0J150000D01*
G01*
X170499680Y-115553480D01*
G75*
G02*
X170649680Y-115403480I150000J0D01*
G01*
X172299680Y-115403480D01*
G75*
G02*
X172449680Y-115553480I0J-150000D01*
G01*
G37*
G36*
G01*
X172449680Y-116823480D02*
X172449680Y-117123480D01*
G75*
G02*
X172299680Y-117273480I-150000J0D01*
G01*
X170649680Y-117273480D01*
G75*
G02*
X170499680Y-117123480I0J150000D01*
G01*
X170499680Y-116823480D01*
G75*
G02*
X170649680Y-116673480I150000J0D01*
G01*
X172299680Y-116673480D01*
G75*
G02*
X172449680Y-116823480I0J-150000D01*
G01*
G37*
G36*
G01*
X172449680Y-118093480D02*
X172449680Y-118393480D01*
G75*
G02*
X172299680Y-118543480I-150000J0D01*
G01*
X170649680Y-118543480D01*
G75*
G02*
X170499680Y-118393480I0J150000D01*
G01*
X170499680Y-118093480D01*
G75*
G02*
X170649680Y-117943480I150000J0D01*
G01*
X172299680Y-117943480D01*
G75*
G02*
X172449680Y-118093480I0J-150000D01*
G01*
G37*
%TD*%
%TO.C,R49*%
G36*
G01*
X67887420Y-113276500D02*
X67887420Y-113751500D01*
G75*
G02*
X67649920Y-113989000I-237500J0D01*
G01*
X67074920Y-113989000D01*
G75*
G02*
X66837420Y-113751500I0J237500D01*
G01*
X66837420Y-113276500D01*
G75*
G02*
X67074920Y-113039000I237500J0D01*
G01*
X67649920Y-113039000D01*
G75*
G02*
X67887420Y-113276500I0J-237500D01*
G01*
G37*
G36*
G01*
X69637420Y-113276500D02*
X69637420Y-113751500D01*
G75*
G02*
X69399920Y-113989000I-237500J0D01*
G01*
X68824920Y-113989000D01*
G75*
G02*
X68587420Y-113751500I0J237500D01*
G01*
X68587420Y-113276500D01*
G75*
G02*
X68824920Y-113039000I237500J0D01*
G01*
X69399920Y-113039000D01*
G75*
G02*
X69637420Y-113276500I0J-237500D01*
G01*
G37*
%TD*%
D11*
%TO.C,U12*%
X76474640Y-100121180D03*
X81554640Y-100121180D03*
X79014640Y-100121180D03*
D12*
X79014640Y-93821180D03*
D11*
X77744640Y-100121180D03*
X80284640Y-100121180D03*
%TD*%
D13*
%TO.C,U11*%
X72656980Y-116765020D03*
X74556980Y-116765020D03*
X74556980Y-118965020D03*
X73606980Y-118965020D03*
X72656980Y-118965020D03*
%TD*%
%TO.C,U9*%
G36*
G01*
X86290440Y-115012120D02*
X86490440Y-115012120D01*
G75*
G02*
X86590440Y-115112120I0J-100000D01*
G01*
X86590440Y-116537120D01*
G75*
G02*
X86490440Y-116637120I-100000J0D01*
G01*
X86290440Y-116637120D01*
G75*
G02*
X86190440Y-116537120I0J100000D01*
G01*
X86190440Y-115112120D01*
G75*
G02*
X86290440Y-115012120I100000J0D01*
G01*
G37*
G36*
G01*
X85640440Y-115012120D02*
X85840440Y-115012120D01*
G75*
G02*
X85940440Y-115112120I0J-100000D01*
G01*
X85940440Y-116537120D01*
G75*
G02*
X85840440Y-116637120I-100000J0D01*
G01*
X85640440Y-116637120D01*
G75*
G02*
X85540440Y-116537120I0J100000D01*
G01*
X85540440Y-115112120D01*
G75*
G02*
X85640440Y-115012120I100000J0D01*
G01*
G37*
G36*
G01*
X84990440Y-115012120D02*
X85190440Y-115012120D01*
G75*
G02*
X85290440Y-115112120I0J-100000D01*
G01*
X85290440Y-116537120D01*
G75*
G02*
X85190440Y-116637120I-100000J0D01*
G01*
X84990440Y-116637120D01*
G75*
G02*
X84890440Y-116537120I0J100000D01*
G01*
X84890440Y-115112120D01*
G75*
G02*
X84990440Y-115012120I100000J0D01*
G01*
G37*
G36*
G01*
X84340440Y-115012120D02*
X84540440Y-115012120D01*
G75*
G02*
X84640440Y-115112120I0J-100000D01*
G01*
X84640440Y-116537120D01*
G75*
G02*
X84540440Y-116637120I-100000J0D01*
G01*
X84340440Y-116637120D01*
G75*
G02*
X84240440Y-116537120I0J100000D01*
G01*
X84240440Y-115112120D01*
G75*
G02*
X84340440Y-115012120I100000J0D01*
G01*
G37*
G36*
G01*
X84340440Y-110787120D02*
X84540440Y-110787120D01*
G75*
G02*
X84640440Y-110887120I0J-100000D01*
G01*
X84640440Y-112312120D01*
G75*
G02*
X84540440Y-112412120I-100000J0D01*
G01*
X84340440Y-112412120D01*
G75*
G02*
X84240440Y-112312120I0J100000D01*
G01*
X84240440Y-110887120D01*
G75*
G02*
X84340440Y-110787120I100000J0D01*
G01*
G37*
G36*
G01*
X84990440Y-110787120D02*
X85190440Y-110787120D01*
G75*
G02*
X85290440Y-110887120I0J-100000D01*
G01*
X85290440Y-112312120D01*
G75*
G02*
X85190440Y-112412120I-100000J0D01*
G01*
X84990440Y-112412120D01*
G75*
G02*
X84890440Y-112312120I0J100000D01*
G01*
X84890440Y-110887120D01*
G75*
G02*
X84990440Y-110787120I100000J0D01*
G01*
G37*
G36*
G01*
X85640440Y-110787120D02*
X85840440Y-110787120D01*
G75*
G02*
X85940440Y-110887120I0J-100000D01*
G01*
X85940440Y-112312120D01*
G75*
G02*
X85840440Y-112412120I-100000J0D01*
G01*
X85640440Y-112412120D01*
G75*
G02*
X85540440Y-112312120I0J100000D01*
G01*
X85540440Y-110887120D01*
G75*
G02*
X85640440Y-110787120I100000J0D01*
G01*
G37*
G36*
G01*
X86290440Y-110787120D02*
X86490440Y-110787120D01*
G75*
G02*
X86590440Y-110887120I0J-100000D01*
G01*
X86590440Y-112312120D01*
G75*
G02*
X86490440Y-112412120I-100000J0D01*
G01*
X86290440Y-112412120D01*
G75*
G02*
X86190440Y-112312120I0J100000D01*
G01*
X86190440Y-110887120D01*
G75*
G02*
X86290440Y-110787120I100000J0D01*
G01*
G37*
%TD*%
D14*
%TO.C,U7*%
X128230000Y-99600000D03*
X128230000Y-101600000D03*
X128230000Y-103600000D03*
X128230000Y-105600000D03*
X128230000Y-107600000D03*
X128230000Y-109600000D03*
X128230000Y-111600000D03*
X128230000Y-113600000D03*
D15*
X125630000Y-115100000D03*
X123630000Y-115100000D03*
X121630000Y-115100000D03*
X119630000Y-115100000D03*
X117630000Y-115100000D03*
X115630000Y-115100000D03*
D14*
X113030000Y-113600000D03*
X113030000Y-111600000D03*
X113030000Y-109600000D03*
X113030000Y-107600000D03*
X113030000Y-105600000D03*
X113030000Y-103600000D03*
X113030000Y-101600000D03*
X113030000Y-99600000D03*
%TD*%
%TO.C,U6*%
G36*
G01*
X149878240Y-70745120D02*
X149578240Y-70745120D01*
G75*
G02*
X149428240Y-70595120I0J150000D01*
G01*
X149428240Y-68945120D01*
G75*
G02*
X149578240Y-68795120I150000J0D01*
G01*
X149878240Y-68795120D01*
G75*
G02*
X150028240Y-68945120I0J-150000D01*
G01*
X150028240Y-70595120D01*
G75*
G02*
X149878240Y-70745120I-150000J0D01*
G01*
G37*
G36*
G01*
X151148240Y-70745120D02*
X150848240Y-70745120D01*
G75*
G02*
X150698240Y-70595120I0J150000D01*
G01*
X150698240Y-68945120D01*
G75*
G02*
X150848240Y-68795120I150000J0D01*
G01*
X151148240Y-68795120D01*
G75*
G02*
X151298240Y-68945120I0J-150000D01*
G01*
X151298240Y-70595120D01*
G75*
G02*
X151148240Y-70745120I-150000J0D01*
G01*
G37*
G36*
G01*
X152418240Y-70745120D02*
X152118240Y-70745120D01*
G75*
G02*
X151968240Y-70595120I0J150000D01*
G01*
X151968240Y-68945120D01*
G75*
G02*
X152118240Y-68795120I150000J0D01*
G01*
X152418240Y-68795120D01*
G75*
G02*
X152568240Y-68945120I0J-150000D01*
G01*
X152568240Y-70595120D01*
G75*
G02*
X152418240Y-70745120I-150000J0D01*
G01*
G37*
G36*
G01*
X153688240Y-70745120D02*
X153388240Y-70745120D01*
G75*
G02*
X153238240Y-70595120I0J150000D01*
G01*
X153238240Y-68945120D01*
G75*
G02*
X153388240Y-68795120I150000J0D01*
G01*
X153688240Y-68795120D01*
G75*
G02*
X153838240Y-68945120I0J-150000D01*
G01*
X153838240Y-70595120D01*
G75*
G02*
X153688240Y-70745120I-150000J0D01*
G01*
G37*
G36*
G01*
X154958240Y-70745120D02*
X154658240Y-70745120D01*
G75*
G02*
X154508240Y-70595120I0J150000D01*
G01*
X154508240Y-68945120D01*
G75*
G02*
X154658240Y-68795120I150000J0D01*
G01*
X154958240Y-68795120D01*
G75*
G02*
X155108240Y-68945120I0J-150000D01*
G01*
X155108240Y-70595120D01*
G75*
G02*
X154958240Y-70745120I-150000J0D01*
G01*
G37*
G36*
G01*
X156228240Y-70745120D02*
X155928240Y-70745120D01*
G75*
G02*
X155778240Y-70595120I0J150000D01*
G01*
X155778240Y-68945120D01*
G75*
G02*
X155928240Y-68795120I150000J0D01*
G01*
X156228240Y-68795120D01*
G75*
G02*
X156378240Y-68945120I0J-150000D01*
G01*
X156378240Y-70595120D01*
G75*
G02*
X156228240Y-70745120I-150000J0D01*
G01*
G37*
G36*
G01*
X157498240Y-70745120D02*
X157198240Y-70745120D01*
G75*
G02*
X157048240Y-70595120I0J150000D01*
G01*
X157048240Y-68945120D01*
G75*
G02*
X157198240Y-68795120I150000J0D01*
G01*
X157498240Y-68795120D01*
G75*
G02*
X157648240Y-68945120I0J-150000D01*
G01*
X157648240Y-70595120D01*
G75*
G02*
X157498240Y-70745120I-150000J0D01*
G01*
G37*
G36*
G01*
X158768240Y-70745120D02*
X158468240Y-70745120D01*
G75*
G02*
X158318240Y-70595120I0J150000D01*
G01*
X158318240Y-68945120D01*
G75*
G02*
X158468240Y-68795120I150000J0D01*
G01*
X158768240Y-68795120D01*
G75*
G02*
X158918240Y-68945120I0J-150000D01*
G01*
X158918240Y-70595120D01*
G75*
G02*
X158768240Y-70745120I-150000J0D01*
G01*
G37*
G36*
G01*
X158768240Y-75695120D02*
X158468240Y-75695120D01*
G75*
G02*
X158318240Y-75545120I0J150000D01*
G01*
X158318240Y-73895120D01*
G75*
G02*
X158468240Y-73745120I150000J0D01*
G01*
X158768240Y-73745120D01*
G75*
G02*
X158918240Y-73895120I0J-150000D01*
G01*
X158918240Y-75545120D01*
G75*
G02*
X158768240Y-75695120I-150000J0D01*
G01*
G37*
G36*
G01*
X157498240Y-75695120D02*
X157198240Y-75695120D01*
G75*
G02*
X157048240Y-75545120I0J150000D01*
G01*
X157048240Y-73895120D01*
G75*
G02*
X157198240Y-73745120I150000J0D01*
G01*
X157498240Y-73745120D01*
G75*
G02*
X157648240Y-73895120I0J-150000D01*
G01*
X157648240Y-75545120D01*
G75*
G02*
X157498240Y-75695120I-150000J0D01*
G01*
G37*
G36*
G01*
X156228240Y-75695120D02*
X155928240Y-75695120D01*
G75*
G02*
X155778240Y-75545120I0J150000D01*
G01*
X155778240Y-73895120D01*
G75*
G02*
X155928240Y-73745120I150000J0D01*
G01*
X156228240Y-73745120D01*
G75*
G02*
X156378240Y-73895120I0J-150000D01*
G01*
X156378240Y-75545120D01*
G75*
G02*
X156228240Y-75695120I-150000J0D01*
G01*
G37*
G36*
G01*
X154958240Y-75695120D02*
X154658240Y-75695120D01*
G75*
G02*
X154508240Y-75545120I0J150000D01*
G01*
X154508240Y-73895120D01*
G75*
G02*
X154658240Y-73745120I150000J0D01*
G01*
X154958240Y-73745120D01*
G75*
G02*
X155108240Y-73895120I0J-150000D01*
G01*
X155108240Y-75545120D01*
G75*
G02*
X154958240Y-75695120I-150000J0D01*
G01*
G37*
G36*
G01*
X153688240Y-75695120D02*
X153388240Y-75695120D01*
G75*
G02*
X153238240Y-75545120I0J150000D01*
G01*
X153238240Y-73895120D01*
G75*
G02*
X153388240Y-73745120I150000J0D01*
G01*
X153688240Y-73745120D01*
G75*
G02*
X153838240Y-73895120I0J-150000D01*
G01*
X153838240Y-75545120D01*
G75*
G02*
X153688240Y-75695120I-150000J0D01*
G01*
G37*
G36*
G01*
X152418240Y-75695120D02*
X152118240Y-75695120D01*
G75*
G02*
X151968240Y-75545120I0J150000D01*
G01*
X151968240Y-73895120D01*
G75*
G02*
X152118240Y-73745120I150000J0D01*
G01*
X152418240Y-73745120D01*
G75*
G02*
X152568240Y-73895120I0J-150000D01*
G01*
X152568240Y-75545120D01*
G75*
G02*
X152418240Y-75695120I-150000J0D01*
G01*
G37*
G36*
G01*
X151148240Y-75695120D02*
X150848240Y-75695120D01*
G75*
G02*
X150698240Y-75545120I0J150000D01*
G01*
X150698240Y-73895120D01*
G75*
G02*
X150848240Y-73745120I150000J0D01*
G01*
X151148240Y-73745120D01*
G75*
G02*
X151298240Y-73895120I0J-150000D01*
G01*
X151298240Y-75545120D01*
G75*
G02*
X151148240Y-75695120I-150000J0D01*
G01*
G37*
G36*
G01*
X149878240Y-75695120D02*
X149578240Y-75695120D01*
G75*
G02*
X149428240Y-75545120I0J150000D01*
G01*
X149428240Y-73895120D01*
G75*
G02*
X149578240Y-73745120I150000J0D01*
G01*
X149878240Y-73745120D01*
G75*
G02*
X150028240Y-73895120I0J-150000D01*
G01*
X150028240Y-75545120D01*
G75*
G02*
X149878240Y-75695120I-150000J0D01*
G01*
G37*
%TD*%
%TO.C,U4*%
G36*
G01*
X129496000Y-68289440D02*
X129496000Y-67989440D01*
G75*
G02*
X129646000Y-67839440I150000J0D01*
G01*
X131296000Y-67839440D01*
G75*
G02*
X131446000Y-67989440I0J-150000D01*
G01*
X131446000Y-68289440D01*
G75*
G02*
X131296000Y-68439440I-150000J0D01*
G01*
X129646000Y-68439440D01*
G75*
G02*
X129496000Y-68289440I0J150000D01*
G01*
G37*
G36*
G01*
X129496000Y-69559440D02*
X129496000Y-69259440D01*
G75*
G02*
X129646000Y-69109440I150000J0D01*
G01*
X131296000Y-69109440D01*
G75*
G02*
X131446000Y-69259440I0J-150000D01*
G01*
X131446000Y-69559440D01*
G75*
G02*
X131296000Y-69709440I-150000J0D01*
G01*
X129646000Y-69709440D01*
G75*
G02*
X129496000Y-69559440I0J150000D01*
G01*
G37*
G36*
G01*
X129496000Y-70829440D02*
X129496000Y-70529440D01*
G75*
G02*
X129646000Y-70379440I150000J0D01*
G01*
X131296000Y-70379440D01*
G75*
G02*
X131446000Y-70529440I0J-150000D01*
G01*
X131446000Y-70829440D01*
G75*
G02*
X131296000Y-70979440I-150000J0D01*
G01*
X129646000Y-70979440D01*
G75*
G02*
X129496000Y-70829440I0J150000D01*
G01*
G37*
G36*
G01*
X129496000Y-72099440D02*
X129496000Y-71799440D01*
G75*
G02*
X129646000Y-71649440I150000J0D01*
G01*
X131296000Y-71649440D01*
G75*
G02*
X131446000Y-71799440I0J-150000D01*
G01*
X131446000Y-72099440D01*
G75*
G02*
X131296000Y-72249440I-150000J0D01*
G01*
X129646000Y-72249440D01*
G75*
G02*
X129496000Y-72099440I0J150000D01*
G01*
G37*
G36*
G01*
X129496000Y-73369440D02*
X129496000Y-73069440D01*
G75*
G02*
X129646000Y-72919440I150000J0D01*
G01*
X131296000Y-72919440D01*
G75*
G02*
X131446000Y-73069440I0J-150000D01*
G01*
X131446000Y-73369440D01*
G75*
G02*
X131296000Y-73519440I-150000J0D01*
G01*
X129646000Y-73519440D01*
G75*
G02*
X129496000Y-73369440I0J150000D01*
G01*
G37*
G36*
G01*
X129496000Y-74639440D02*
X129496000Y-74339440D01*
G75*
G02*
X129646000Y-74189440I150000J0D01*
G01*
X131296000Y-74189440D01*
G75*
G02*
X131446000Y-74339440I0J-150000D01*
G01*
X131446000Y-74639440D01*
G75*
G02*
X131296000Y-74789440I-150000J0D01*
G01*
X129646000Y-74789440D01*
G75*
G02*
X129496000Y-74639440I0J150000D01*
G01*
G37*
G36*
G01*
X129496000Y-75909440D02*
X129496000Y-75609440D01*
G75*
G02*
X129646000Y-75459440I150000J0D01*
G01*
X131296000Y-75459440D01*
G75*
G02*
X131446000Y-75609440I0J-150000D01*
G01*
X131446000Y-75909440D01*
G75*
G02*
X131296000Y-76059440I-150000J0D01*
G01*
X129646000Y-76059440D01*
G75*
G02*
X129496000Y-75909440I0J150000D01*
G01*
G37*
G36*
G01*
X129496000Y-77179440D02*
X129496000Y-76879440D01*
G75*
G02*
X129646000Y-76729440I150000J0D01*
G01*
X131296000Y-76729440D01*
G75*
G02*
X131446000Y-76879440I0J-150000D01*
G01*
X131446000Y-77179440D01*
G75*
G02*
X131296000Y-77329440I-150000J0D01*
G01*
X129646000Y-77329440D01*
G75*
G02*
X129496000Y-77179440I0J150000D01*
G01*
G37*
G36*
G01*
X124546000Y-77179440D02*
X124546000Y-76879440D01*
G75*
G02*
X124696000Y-76729440I150000J0D01*
G01*
X126346000Y-76729440D01*
G75*
G02*
X126496000Y-76879440I0J-150000D01*
G01*
X126496000Y-77179440D01*
G75*
G02*
X126346000Y-77329440I-150000J0D01*
G01*
X124696000Y-77329440D01*
G75*
G02*
X124546000Y-77179440I0J150000D01*
G01*
G37*
G36*
G01*
X124546000Y-75909440D02*
X124546000Y-75609440D01*
G75*
G02*
X124696000Y-75459440I150000J0D01*
G01*
X126346000Y-75459440D01*
G75*
G02*
X126496000Y-75609440I0J-150000D01*
G01*
X126496000Y-75909440D01*
G75*
G02*
X126346000Y-76059440I-150000J0D01*
G01*
X124696000Y-76059440D01*
G75*
G02*
X124546000Y-75909440I0J150000D01*
G01*
G37*
G36*
G01*
X124546000Y-74639440D02*
X124546000Y-74339440D01*
G75*
G02*
X124696000Y-74189440I150000J0D01*
G01*
X126346000Y-74189440D01*
G75*
G02*
X126496000Y-74339440I0J-150000D01*
G01*
X126496000Y-74639440D01*
G75*
G02*
X126346000Y-74789440I-150000J0D01*
G01*
X124696000Y-74789440D01*
G75*
G02*
X124546000Y-74639440I0J150000D01*
G01*
G37*
G36*
G01*
X124546000Y-73369440D02*
X124546000Y-73069440D01*
G75*
G02*
X124696000Y-72919440I150000J0D01*
G01*
X126346000Y-72919440D01*
G75*
G02*
X126496000Y-73069440I0J-150000D01*
G01*
X126496000Y-73369440D01*
G75*
G02*
X126346000Y-73519440I-150000J0D01*
G01*
X124696000Y-73519440D01*
G75*
G02*
X124546000Y-73369440I0J150000D01*
G01*
G37*
G36*
G01*
X124546000Y-72099440D02*
X124546000Y-71799440D01*
G75*
G02*
X124696000Y-71649440I150000J0D01*
G01*
X126346000Y-71649440D01*
G75*
G02*
X126496000Y-71799440I0J-150000D01*
G01*
X126496000Y-72099440D01*
G75*
G02*
X126346000Y-72249440I-150000J0D01*
G01*
X124696000Y-72249440D01*
G75*
G02*
X124546000Y-72099440I0J150000D01*
G01*
G37*
G36*
G01*
X124546000Y-70829440D02*
X124546000Y-70529440D01*
G75*
G02*
X124696000Y-70379440I150000J0D01*
G01*
X126346000Y-70379440D01*
G75*
G02*
X126496000Y-70529440I0J-150000D01*
G01*
X126496000Y-70829440D01*
G75*
G02*
X126346000Y-70979440I-150000J0D01*
G01*
X124696000Y-70979440D01*
G75*
G02*
X124546000Y-70829440I0J150000D01*
G01*
G37*
G36*
G01*
X124546000Y-69559440D02*
X124546000Y-69259440D01*
G75*
G02*
X124696000Y-69109440I150000J0D01*
G01*
X126346000Y-69109440D01*
G75*
G02*
X126496000Y-69259440I0J-150000D01*
G01*
X126496000Y-69559440D01*
G75*
G02*
X126346000Y-69709440I-150000J0D01*
G01*
X124696000Y-69709440D01*
G75*
G02*
X124546000Y-69559440I0J150000D01*
G01*
G37*
G36*
G01*
X124546000Y-68289440D02*
X124546000Y-67989440D01*
G75*
G02*
X124696000Y-67839440I150000J0D01*
G01*
X126346000Y-67839440D01*
G75*
G02*
X126496000Y-67989440I0J-150000D01*
G01*
X126496000Y-68289440D01*
G75*
G02*
X126346000Y-68439440I-150000J0D01*
G01*
X124696000Y-68439440D01*
G75*
G02*
X124546000Y-68289440I0J150000D01*
G01*
G37*
%TD*%
%TO.C,U2*%
G36*
G01*
X178454960Y-90697320D02*
X178454960Y-90397320D01*
G75*
G02*
X178604960Y-90247320I150000J0D01*
G01*
X180254960Y-90247320D01*
G75*
G02*
X180404960Y-90397320I0J-150000D01*
G01*
X180404960Y-90697320D01*
G75*
G02*
X180254960Y-90847320I-150000J0D01*
G01*
X178604960Y-90847320D01*
G75*
G02*
X178454960Y-90697320I0J150000D01*
G01*
G37*
G36*
G01*
X178454960Y-91967320D02*
X178454960Y-91667320D01*
G75*
G02*
X178604960Y-91517320I150000J0D01*
G01*
X180254960Y-91517320D01*
G75*
G02*
X180404960Y-91667320I0J-150000D01*
G01*
X180404960Y-91967320D01*
G75*
G02*
X180254960Y-92117320I-150000J0D01*
G01*
X178604960Y-92117320D01*
G75*
G02*
X178454960Y-91967320I0J150000D01*
G01*
G37*
G36*
G01*
X178454960Y-93237320D02*
X178454960Y-92937320D01*
G75*
G02*
X178604960Y-92787320I150000J0D01*
G01*
X180254960Y-92787320D01*
G75*
G02*
X180404960Y-92937320I0J-150000D01*
G01*
X180404960Y-93237320D01*
G75*
G02*
X180254960Y-93387320I-150000J0D01*
G01*
X178604960Y-93387320D01*
G75*
G02*
X178454960Y-93237320I0J150000D01*
G01*
G37*
G36*
G01*
X178454960Y-94507320D02*
X178454960Y-94207320D01*
G75*
G02*
X178604960Y-94057320I150000J0D01*
G01*
X180254960Y-94057320D01*
G75*
G02*
X180404960Y-94207320I0J-150000D01*
G01*
X180404960Y-94507320D01*
G75*
G02*
X180254960Y-94657320I-150000J0D01*
G01*
X178604960Y-94657320D01*
G75*
G02*
X178454960Y-94507320I0J150000D01*
G01*
G37*
G36*
G01*
X178454960Y-95777320D02*
X178454960Y-95477320D01*
G75*
G02*
X178604960Y-95327320I150000J0D01*
G01*
X180254960Y-95327320D01*
G75*
G02*
X180404960Y-95477320I0J-150000D01*
G01*
X180404960Y-95777320D01*
G75*
G02*
X180254960Y-95927320I-150000J0D01*
G01*
X178604960Y-95927320D01*
G75*
G02*
X178454960Y-95777320I0J150000D01*
G01*
G37*
G36*
G01*
X178454960Y-97047320D02*
X178454960Y-96747320D01*
G75*
G02*
X178604960Y-96597320I150000J0D01*
G01*
X180254960Y-96597320D01*
G75*
G02*
X180404960Y-96747320I0J-150000D01*
G01*
X180404960Y-97047320D01*
G75*
G02*
X180254960Y-97197320I-150000J0D01*
G01*
X178604960Y-97197320D01*
G75*
G02*
X178454960Y-97047320I0J150000D01*
G01*
G37*
G36*
G01*
X178454960Y-98317320D02*
X178454960Y-98017320D01*
G75*
G02*
X178604960Y-97867320I150000J0D01*
G01*
X180254960Y-97867320D01*
G75*
G02*
X180404960Y-98017320I0J-150000D01*
G01*
X180404960Y-98317320D01*
G75*
G02*
X180254960Y-98467320I-150000J0D01*
G01*
X178604960Y-98467320D01*
G75*
G02*
X178454960Y-98317320I0J150000D01*
G01*
G37*
G36*
G01*
X178454960Y-99587320D02*
X178454960Y-99287320D01*
G75*
G02*
X178604960Y-99137320I150000J0D01*
G01*
X180254960Y-99137320D01*
G75*
G02*
X180404960Y-99287320I0J-150000D01*
G01*
X180404960Y-99587320D01*
G75*
G02*
X180254960Y-99737320I-150000J0D01*
G01*
X178604960Y-99737320D01*
G75*
G02*
X178454960Y-99587320I0J150000D01*
G01*
G37*
G36*
G01*
X183404960Y-99587320D02*
X183404960Y-99287320D01*
G75*
G02*
X183554960Y-99137320I150000J0D01*
G01*
X185204960Y-99137320D01*
G75*
G02*
X185354960Y-99287320I0J-150000D01*
G01*
X185354960Y-99587320D01*
G75*
G02*
X185204960Y-99737320I-150000J0D01*
G01*
X183554960Y-99737320D01*
G75*
G02*
X183404960Y-99587320I0J150000D01*
G01*
G37*
G36*
G01*
X183404960Y-98317320D02*
X183404960Y-98017320D01*
G75*
G02*
X183554960Y-97867320I150000J0D01*
G01*
X185204960Y-97867320D01*
G75*
G02*
X185354960Y-98017320I0J-150000D01*
G01*
X185354960Y-98317320D01*
G75*
G02*
X185204960Y-98467320I-150000J0D01*
G01*
X183554960Y-98467320D01*
G75*
G02*
X183404960Y-98317320I0J150000D01*
G01*
G37*
G36*
G01*
X183404960Y-97047320D02*
X183404960Y-96747320D01*
G75*
G02*
X183554960Y-96597320I150000J0D01*
G01*
X185204960Y-96597320D01*
G75*
G02*
X185354960Y-96747320I0J-150000D01*
G01*
X185354960Y-97047320D01*
G75*
G02*
X185204960Y-97197320I-150000J0D01*
G01*
X183554960Y-97197320D01*
G75*
G02*
X183404960Y-97047320I0J150000D01*
G01*
G37*
G36*
G01*
X183404960Y-95777320D02*
X183404960Y-95477320D01*
G75*
G02*
X183554960Y-95327320I150000J0D01*
G01*
X185204960Y-95327320D01*
G75*
G02*
X185354960Y-95477320I0J-150000D01*
G01*
X185354960Y-95777320D01*
G75*
G02*
X185204960Y-95927320I-150000J0D01*
G01*
X183554960Y-95927320D01*
G75*
G02*
X183404960Y-95777320I0J150000D01*
G01*
G37*
G36*
G01*
X183404960Y-94507320D02*
X183404960Y-94207320D01*
G75*
G02*
X183554960Y-94057320I150000J0D01*
G01*
X185204960Y-94057320D01*
G75*
G02*
X185354960Y-94207320I0J-150000D01*
G01*
X185354960Y-94507320D01*
G75*
G02*
X185204960Y-94657320I-150000J0D01*
G01*
X183554960Y-94657320D01*
G75*
G02*
X183404960Y-94507320I0J150000D01*
G01*
G37*
G36*
G01*
X183404960Y-93237320D02*
X183404960Y-92937320D01*
G75*
G02*
X183554960Y-92787320I150000J0D01*
G01*
X185204960Y-92787320D01*
G75*
G02*
X185354960Y-92937320I0J-150000D01*
G01*
X185354960Y-93237320D01*
G75*
G02*
X185204960Y-93387320I-150000J0D01*
G01*
X183554960Y-93387320D01*
G75*
G02*
X183404960Y-93237320I0J150000D01*
G01*
G37*
G36*
G01*
X183404960Y-91967320D02*
X183404960Y-91667320D01*
G75*
G02*
X183554960Y-91517320I150000J0D01*
G01*
X185204960Y-91517320D01*
G75*
G02*
X185354960Y-91667320I0J-150000D01*
G01*
X185354960Y-91967320D01*
G75*
G02*
X185204960Y-92117320I-150000J0D01*
G01*
X183554960Y-92117320D01*
G75*
G02*
X183404960Y-91967320I0J150000D01*
G01*
G37*
G36*
G01*
X183404960Y-90697320D02*
X183404960Y-90397320D01*
G75*
G02*
X183554960Y-90247320I150000J0D01*
G01*
X185204960Y-90247320D01*
G75*
G02*
X185354960Y-90397320I0J-150000D01*
G01*
X185354960Y-90697320D01*
G75*
G02*
X185204960Y-90847320I-150000J0D01*
G01*
X183554960Y-90847320D01*
G75*
G02*
X183404960Y-90697320I0J150000D01*
G01*
G37*
%TD*%
D16*
%TO.C,SW_UP1*%
X166250000Y-119810000D03*
X153750000Y-119810000D03*
X166250000Y-112190000D03*
X153750000Y-112190000D03*
%TD*%
D17*
%TO.C,SW_RIGHT1*%
X168690000Y-134750000D03*
X168690000Y-122250000D03*
X176310000Y-134750000D03*
X176310000Y-122250000D03*
%TD*%
%TO.C,SW_LEFT1*%
X143690000Y-134750000D03*
X143690000Y-122250000D03*
X151310000Y-134750000D03*
X151310000Y-122250000D03*
%TD*%
D16*
%TO.C,SW_F3*%
X197685100Y-147221100D03*
X185185100Y-147221100D03*
X197685100Y-139601100D03*
X185185100Y-139601100D03*
%TD*%
%TO.C,SW_F2*%
X197685100Y-132221100D03*
X185185100Y-132221100D03*
X197685100Y-124601100D03*
X185185100Y-124601100D03*
%TD*%
%TO.C,SW_F1*%
X197685100Y-117221100D03*
X185185100Y-117221100D03*
X197685100Y-109601100D03*
X185185100Y-109601100D03*
%TD*%
%TO.C,SW_DOWN1*%
X166250000Y-144810000D03*
X153750000Y-144810000D03*
X166250000Y-137190000D03*
X153750000Y-137190000D03*
%TD*%
D17*
%TO.C,SW_CENTER1*%
X156190000Y-134750000D03*
X156190000Y-122250000D03*
X163810000Y-134750000D03*
X163810000Y-122250000D03*
%TD*%
%TO.C,R53*%
G36*
G01*
X81494940Y-102149580D02*
X81969940Y-102149580D01*
G75*
G02*
X82207440Y-102387080I0J-237500D01*
G01*
X82207440Y-102962080D01*
G75*
G02*
X81969940Y-103199580I-237500J0D01*
G01*
X81494940Y-103199580D01*
G75*
G02*
X81257440Y-102962080I0J237500D01*
G01*
X81257440Y-102387080D01*
G75*
G02*
X81494940Y-102149580I237500J0D01*
G01*
G37*
G36*
G01*
X81494940Y-103899580D02*
X81969940Y-103899580D01*
G75*
G02*
X82207440Y-104137080I0J-237500D01*
G01*
X82207440Y-104712080D01*
G75*
G02*
X81969940Y-104949580I-237500J0D01*
G01*
X81494940Y-104949580D01*
G75*
G02*
X81257440Y-104712080I0J237500D01*
G01*
X81257440Y-104137080D01*
G75*
G02*
X81494940Y-103899580I237500J0D01*
G01*
G37*
%TD*%
%TO.C,R52*%
G36*
G01*
X53476220Y-128421780D02*
X53001220Y-128421780D01*
G75*
G02*
X52763720Y-128184280I0J237500D01*
G01*
X52763720Y-127609280D01*
G75*
G02*
X53001220Y-127371780I237500J0D01*
G01*
X53476220Y-127371780D01*
G75*
G02*
X53713720Y-127609280I0J-237500D01*
G01*
X53713720Y-128184280D01*
G75*
G02*
X53476220Y-128421780I-237500J0D01*
G01*
G37*
G36*
G01*
X53476220Y-130171780D02*
X53001220Y-130171780D01*
G75*
G02*
X52763720Y-129934280I0J237500D01*
G01*
X52763720Y-129359280D01*
G75*
G02*
X53001220Y-129121780I237500J0D01*
G01*
X53476220Y-129121780D01*
G75*
G02*
X53713720Y-129359280I0J-237500D01*
G01*
X53713720Y-129934280D01*
G75*
G02*
X53476220Y-130171780I-237500J0D01*
G01*
G37*
%TD*%
%TO.C,R51*%
G36*
G01*
X67816300Y-118757820D02*
X67816300Y-119232820D01*
G75*
G02*
X67578800Y-119470320I-237500J0D01*
G01*
X67003800Y-119470320D01*
G75*
G02*
X66766300Y-119232820I0J237500D01*
G01*
X66766300Y-118757820D01*
G75*
G02*
X67003800Y-118520320I237500J0D01*
G01*
X67578800Y-118520320D01*
G75*
G02*
X67816300Y-118757820I0J-237500D01*
G01*
G37*
G36*
G01*
X69566300Y-118757820D02*
X69566300Y-119232820D01*
G75*
G02*
X69328800Y-119470320I-237500J0D01*
G01*
X68753800Y-119470320D01*
G75*
G02*
X68516300Y-119232820I0J237500D01*
G01*
X68516300Y-118757820D01*
G75*
G02*
X68753800Y-118520320I237500J0D01*
G01*
X69328800Y-118520320D01*
G75*
G02*
X69566300Y-118757820I0J-237500D01*
G01*
G37*
%TD*%
%TO.C,R50*%
G36*
G01*
X71068260Y-117677580D02*
X70593260Y-117677580D01*
G75*
G02*
X70355760Y-117440080I0J237500D01*
G01*
X70355760Y-116865080D01*
G75*
G02*
X70593260Y-116627580I237500J0D01*
G01*
X71068260Y-116627580D01*
G75*
G02*
X71305760Y-116865080I0J-237500D01*
G01*
X71305760Y-117440080D01*
G75*
G02*
X71068260Y-117677580I-237500J0D01*
G01*
G37*
G36*
G01*
X71068260Y-119427580D02*
X70593260Y-119427580D01*
G75*
G02*
X70355760Y-119190080I0J237500D01*
G01*
X70355760Y-118615080D01*
G75*
G02*
X70593260Y-118377580I237500J0D01*
G01*
X71068260Y-118377580D01*
G75*
G02*
X71305760Y-118615080I0J-237500D01*
G01*
X71305760Y-119190080D01*
G75*
G02*
X71068260Y-119427580I-237500J0D01*
G01*
G37*
%TD*%
%TO.C,R47*%
G36*
G01*
X166351260Y-104709840D02*
X166826260Y-104709840D01*
G75*
G02*
X167063760Y-104947340I0J-237500D01*
G01*
X167063760Y-105522340D01*
G75*
G02*
X166826260Y-105759840I-237500J0D01*
G01*
X166351260Y-105759840D01*
G75*
G02*
X166113760Y-105522340I0J237500D01*
G01*
X166113760Y-104947340D01*
G75*
G02*
X166351260Y-104709840I237500J0D01*
G01*
G37*
G36*
G01*
X166351260Y-102959840D02*
X166826260Y-102959840D01*
G75*
G02*
X167063760Y-103197340I0J-237500D01*
G01*
X167063760Y-103772340D01*
G75*
G02*
X166826260Y-104009840I-237500J0D01*
G01*
X166351260Y-104009840D01*
G75*
G02*
X166113760Y-103772340I0J237500D01*
G01*
X166113760Y-103197340D01*
G75*
G02*
X166351260Y-102959840I237500J0D01*
G01*
G37*
%TD*%
%TO.C,R46*%
G36*
G01*
X168426460Y-104009840D02*
X167951460Y-104009840D01*
G75*
G02*
X167713960Y-103772340I0J237500D01*
G01*
X167713960Y-103197340D01*
G75*
G02*
X167951460Y-102959840I237500J0D01*
G01*
X168426460Y-102959840D01*
G75*
G02*
X168663960Y-103197340I0J-237500D01*
G01*
X168663960Y-103772340D01*
G75*
G02*
X168426460Y-104009840I-237500J0D01*
G01*
G37*
G36*
G01*
X168426460Y-105759840D02*
X167951460Y-105759840D01*
G75*
G02*
X167713960Y-105522340I0J237500D01*
G01*
X167713960Y-104947340D01*
G75*
G02*
X167951460Y-104709840I237500J0D01*
G01*
X168426460Y-104709840D01*
G75*
G02*
X168663960Y-104947340I0J-237500D01*
G01*
X168663960Y-105522340D01*
G75*
G02*
X168426460Y-105759840I-237500J0D01*
G01*
G37*
%TD*%
%TO.C,R45*%
G36*
G01*
X173762980Y-104648880D02*
X174237980Y-104648880D01*
G75*
G02*
X174475480Y-104886380I0J-237500D01*
G01*
X174475480Y-105461380D01*
G75*
G02*
X174237980Y-105698880I-237500J0D01*
G01*
X173762980Y-105698880D01*
G75*
G02*
X173525480Y-105461380I0J237500D01*
G01*
X173525480Y-104886380D01*
G75*
G02*
X173762980Y-104648880I237500J0D01*
G01*
G37*
G36*
G01*
X173762980Y-102898880D02*
X174237980Y-102898880D01*
G75*
G02*
X174475480Y-103136380I0J-237500D01*
G01*
X174475480Y-103711380D01*
G75*
G02*
X174237980Y-103948880I-237500J0D01*
G01*
X173762980Y-103948880D01*
G75*
G02*
X173525480Y-103711380I0J237500D01*
G01*
X173525480Y-103136380D01*
G75*
G02*
X173762980Y-102898880I237500J0D01*
G01*
G37*
%TD*%
%TO.C,R44*%
G36*
G01*
X171964660Y-104653960D02*
X172439660Y-104653960D01*
G75*
G02*
X172677160Y-104891460I0J-237500D01*
G01*
X172677160Y-105466460D01*
G75*
G02*
X172439660Y-105703960I-237500J0D01*
G01*
X171964660Y-105703960D01*
G75*
G02*
X171727160Y-105466460I0J237500D01*
G01*
X171727160Y-104891460D01*
G75*
G02*
X171964660Y-104653960I237500J0D01*
G01*
G37*
G36*
G01*
X171964660Y-102903960D02*
X172439660Y-102903960D01*
G75*
G02*
X172677160Y-103141460I0J-237500D01*
G01*
X172677160Y-103716460D01*
G75*
G02*
X172439660Y-103953960I-237500J0D01*
G01*
X171964660Y-103953960D01*
G75*
G02*
X171727160Y-103716460I0J237500D01*
G01*
X171727160Y-103141460D01*
G75*
G02*
X171964660Y-102903960I237500J0D01*
G01*
G37*
%TD*%
%TO.C,R43*%
G36*
G01*
X170748020Y-103948880D02*
X170273020Y-103948880D01*
G75*
G02*
X170035520Y-103711380I0J237500D01*
G01*
X170035520Y-103136380D01*
G75*
G02*
X170273020Y-102898880I237500J0D01*
G01*
X170748020Y-102898880D01*
G75*
G02*
X170985520Y-103136380I0J-237500D01*
G01*
X170985520Y-103711380D01*
G75*
G02*
X170748020Y-103948880I-237500J0D01*
G01*
G37*
G36*
G01*
X170748020Y-105698880D02*
X170273020Y-105698880D01*
G75*
G02*
X170035520Y-105461380I0J237500D01*
G01*
X170035520Y-104886380D01*
G75*
G02*
X170273020Y-104648880I237500J0D01*
G01*
X170748020Y-104648880D01*
G75*
G02*
X170985520Y-104886380I0J-237500D01*
G01*
X170985520Y-105461380D01*
G75*
G02*
X170748020Y-105698880I-237500J0D01*
G01*
G37*
%TD*%
%TO.C,R42*%
G36*
G01*
X196369000Y-90288760D02*
X195894000Y-90288760D01*
G75*
G02*
X195656500Y-90051260I0J237500D01*
G01*
X195656500Y-89476260D01*
G75*
G02*
X195894000Y-89238760I237500J0D01*
G01*
X196369000Y-89238760D01*
G75*
G02*
X196606500Y-89476260I0J-237500D01*
G01*
X196606500Y-90051260D01*
G75*
G02*
X196369000Y-90288760I-237500J0D01*
G01*
G37*
G36*
G01*
X196369000Y-92038760D02*
X195894000Y-92038760D01*
G75*
G02*
X195656500Y-91801260I0J237500D01*
G01*
X195656500Y-91226260D01*
G75*
G02*
X195894000Y-90988760I237500J0D01*
G01*
X196369000Y-90988760D01*
G75*
G02*
X196606500Y-91226260I0J-237500D01*
G01*
X196606500Y-91801260D01*
G75*
G02*
X196369000Y-92038760I-237500J0D01*
G01*
G37*
%TD*%
%TO.C,R41*%
G36*
G01*
X172756400Y-106601380D02*
X172756400Y-107076380D01*
G75*
G02*
X172518900Y-107313880I-237500J0D01*
G01*
X171943900Y-107313880D01*
G75*
G02*
X171706400Y-107076380I0J237500D01*
G01*
X171706400Y-106601380D01*
G75*
G02*
X171943900Y-106363880I237500J0D01*
G01*
X172518900Y-106363880D01*
G75*
G02*
X172756400Y-106601380I0J-237500D01*
G01*
G37*
G36*
G01*
X174506400Y-106601380D02*
X174506400Y-107076380D01*
G75*
G02*
X174268900Y-107313880I-237500J0D01*
G01*
X173693900Y-107313880D01*
G75*
G02*
X173456400Y-107076380I0J237500D01*
G01*
X173456400Y-106601380D01*
G75*
G02*
X173693900Y-106363880I237500J0D01*
G01*
X174268900Y-106363880D01*
G75*
G02*
X174506400Y-106601380I0J-237500D01*
G01*
G37*
%TD*%
%TO.C,R40*%
G36*
G01*
X177991280Y-106606460D02*
X177991280Y-107081460D01*
G75*
G02*
X177753780Y-107318960I-237500J0D01*
G01*
X177178780Y-107318960D01*
G75*
G02*
X176941280Y-107081460I0J237500D01*
G01*
X176941280Y-106606460D01*
G75*
G02*
X177178780Y-106368960I237500J0D01*
G01*
X177753780Y-106368960D01*
G75*
G02*
X177991280Y-106606460I0J-237500D01*
G01*
G37*
G36*
G01*
X176241280Y-106606460D02*
X176241280Y-107081460D01*
G75*
G02*
X176003780Y-107318960I-237500J0D01*
G01*
X175428780Y-107318960D01*
G75*
G02*
X175191280Y-107081460I0J237500D01*
G01*
X175191280Y-106606460D01*
G75*
G02*
X175428780Y-106368960I237500J0D01*
G01*
X176003780Y-106368960D01*
G75*
G02*
X176241280Y-106606460I0J-237500D01*
G01*
G37*
%TD*%
%TO.C,R39*%
G36*
G01*
X194227780Y-84035280D02*
X193752780Y-84035280D01*
G75*
G02*
X193515280Y-83797780I0J237500D01*
G01*
X193515280Y-83222780D01*
G75*
G02*
X193752780Y-82985280I237500J0D01*
G01*
X194227780Y-82985280D01*
G75*
G02*
X194465280Y-83222780I0J-237500D01*
G01*
X194465280Y-83797780D01*
G75*
G02*
X194227780Y-84035280I-237500J0D01*
G01*
G37*
G36*
G01*
X194227780Y-85785280D02*
X193752780Y-85785280D01*
G75*
G02*
X193515280Y-85547780I0J237500D01*
G01*
X193515280Y-84972780D01*
G75*
G02*
X193752780Y-84735280I237500J0D01*
G01*
X194227780Y-84735280D01*
G75*
G02*
X194465280Y-84972780I0J-237500D01*
G01*
X194465280Y-85547780D01*
G75*
G02*
X194227780Y-85785280I-237500J0D01*
G01*
G37*
%TD*%
%TO.C,R38*%
G36*
G01*
X84000360Y-117575300D02*
X84000360Y-118825300D01*
G75*
G02*
X83750360Y-119075300I-250000J0D01*
G01*
X82825360Y-119075300D01*
G75*
G02*
X82575360Y-118825300I0J250000D01*
G01*
X82575360Y-117575300D01*
G75*
G02*
X82825360Y-117325300I250000J0D01*
G01*
X83750360Y-117325300D01*
G75*
G02*
X84000360Y-117575300I0J-250000D01*
G01*
G37*
G36*
G01*
X86975360Y-117575300D02*
X86975360Y-118825300D01*
G75*
G02*
X86725360Y-119075300I-250000J0D01*
G01*
X85800360Y-119075300D01*
G75*
G02*
X85550360Y-118825300I0J250000D01*
G01*
X85550360Y-117575300D01*
G75*
G02*
X85800360Y-117325300I250000J0D01*
G01*
X86725360Y-117325300D01*
G75*
G02*
X86975360Y-117575300I0J-250000D01*
G01*
G37*
%TD*%
%TO.C,R37*%
G36*
G01*
X87898280Y-114869840D02*
X88373280Y-114869840D01*
G75*
G02*
X88610780Y-115107340I0J-237500D01*
G01*
X88610780Y-115682340D01*
G75*
G02*
X88373280Y-115919840I-237500J0D01*
G01*
X87898280Y-115919840D01*
G75*
G02*
X87660780Y-115682340I0J237500D01*
G01*
X87660780Y-115107340D01*
G75*
G02*
X87898280Y-114869840I237500J0D01*
G01*
G37*
G36*
G01*
X87898280Y-113119840D02*
X88373280Y-113119840D01*
G75*
G02*
X88610780Y-113357340I0J-237500D01*
G01*
X88610780Y-113932340D01*
G75*
G02*
X88373280Y-114169840I-237500J0D01*
G01*
X87898280Y-114169840D01*
G75*
G02*
X87660780Y-113932340I0J237500D01*
G01*
X87660780Y-113357340D01*
G75*
G02*
X87898280Y-113119840I237500J0D01*
G01*
G37*
%TD*%
%TO.C,R36*%
G36*
G01*
X89417960Y-110558720D02*
X89417960Y-110083720D01*
G75*
G02*
X89655460Y-109846220I237500J0D01*
G01*
X90230460Y-109846220D01*
G75*
G02*
X90467960Y-110083720I0J-237500D01*
G01*
X90467960Y-110558720D01*
G75*
G02*
X90230460Y-110796220I-237500J0D01*
G01*
X89655460Y-110796220D01*
G75*
G02*
X89417960Y-110558720I0J237500D01*
G01*
G37*
G36*
G01*
X87667960Y-110558720D02*
X87667960Y-110083720D01*
G75*
G02*
X87905460Y-109846220I237500J0D01*
G01*
X88480460Y-109846220D01*
G75*
G02*
X88717960Y-110083720I0J-237500D01*
G01*
X88717960Y-110558720D01*
G75*
G02*
X88480460Y-110796220I-237500J0D01*
G01*
X87905460Y-110796220D01*
G75*
G02*
X87667960Y-110558720I0J237500D01*
G01*
G37*
%TD*%
%TO.C,R35*%
G36*
G01*
X82957980Y-106901860D02*
X83432980Y-106901860D01*
G75*
G02*
X83670480Y-107139360I0J-237500D01*
G01*
X83670480Y-107714360D01*
G75*
G02*
X83432980Y-107951860I-237500J0D01*
G01*
X82957980Y-107951860D01*
G75*
G02*
X82720480Y-107714360I0J237500D01*
G01*
X82720480Y-107139360D01*
G75*
G02*
X82957980Y-106901860I237500J0D01*
G01*
G37*
G36*
G01*
X82957980Y-105151860D02*
X83432980Y-105151860D01*
G75*
G02*
X83670480Y-105389360I0J-237500D01*
G01*
X83670480Y-105964360D01*
G75*
G02*
X83432980Y-106201860I-237500J0D01*
G01*
X82957980Y-106201860D01*
G75*
G02*
X82720480Y-105964360I0J237500D01*
G01*
X82720480Y-105389360D01*
G75*
G02*
X82957980Y-105151860I237500J0D01*
G01*
G37*
%TD*%
%TO.C,R34*%
G36*
G01*
X86013600Y-106829440D02*
X86488600Y-106829440D01*
G75*
G02*
X86726100Y-107066940I0J-237500D01*
G01*
X86726100Y-107641940D01*
G75*
G02*
X86488600Y-107879440I-237500J0D01*
G01*
X86013600Y-107879440D01*
G75*
G02*
X85776100Y-107641940I0J237500D01*
G01*
X85776100Y-107066940D01*
G75*
G02*
X86013600Y-106829440I237500J0D01*
G01*
G37*
G36*
G01*
X86013600Y-105079440D02*
X86488600Y-105079440D01*
G75*
G02*
X86726100Y-105316940I0J-237500D01*
G01*
X86726100Y-105891940D01*
G75*
G02*
X86488600Y-106129440I-237500J0D01*
G01*
X86013600Y-106129440D01*
G75*
G02*
X85776100Y-105891940I0J237500D01*
G01*
X85776100Y-105316940D01*
G75*
G02*
X86013600Y-105079440I237500J0D01*
G01*
G37*
%TD*%
%TO.C,R33*%
G36*
G01*
X130059000Y-119372500D02*
X130059000Y-119847500D01*
G75*
G02*
X129821500Y-120085000I-237500J0D01*
G01*
X129246500Y-120085000D01*
G75*
G02*
X129009000Y-119847500I0J237500D01*
G01*
X129009000Y-119372500D01*
G75*
G02*
X129246500Y-119135000I237500J0D01*
G01*
X129821500Y-119135000D01*
G75*
G02*
X130059000Y-119372500I0J-237500D01*
G01*
G37*
G36*
G01*
X131809000Y-119372500D02*
X131809000Y-119847500D01*
G75*
G02*
X131571500Y-120085000I-237500J0D01*
G01*
X130996500Y-120085000D01*
G75*
G02*
X130759000Y-119847500I0J237500D01*
G01*
X130759000Y-119372500D01*
G75*
G02*
X130996500Y-119135000I237500J0D01*
G01*
X131571500Y-119135000D01*
G75*
G02*
X131809000Y-119372500I0J-237500D01*
G01*
G37*
%TD*%
%TO.C,R32*%
G36*
G01*
X133252540Y-120103280D02*
X132777540Y-120103280D01*
G75*
G02*
X132540040Y-119865780I0J237500D01*
G01*
X132540040Y-119290780D01*
G75*
G02*
X132777540Y-119053280I237500J0D01*
G01*
X133252540Y-119053280D01*
G75*
G02*
X133490040Y-119290780I0J-237500D01*
G01*
X133490040Y-119865780D01*
G75*
G02*
X133252540Y-120103280I-237500J0D01*
G01*
G37*
G36*
G01*
X133252540Y-121853280D02*
X132777540Y-121853280D01*
G75*
G02*
X132540040Y-121615780I0J237500D01*
G01*
X132540040Y-121040780D01*
G75*
G02*
X132777540Y-120803280I237500J0D01*
G01*
X133252540Y-120803280D01*
G75*
G02*
X133490040Y-121040780I0J-237500D01*
G01*
X133490040Y-121615780D01*
G75*
G02*
X133252540Y-121853280I-237500J0D01*
G01*
G37*
%TD*%
%TO.C,R31*%
G36*
G01*
X130033600Y-121023500D02*
X130033600Y-121498500D01*
G75*
G02*
X129796100Y-121736000I-237500J0D01*
G01*
X129221100Y-121736000D01*
G75*
G02*
X128983600Y-121498500I0J237500D01*
G01*
X128983600Y-121023500D01*
G75*
G02*
X129221100Y-120786000I237500J0D01*
G01*
X129796100Y-120786000D01*
G75*
G02*
X130033600Y-121023500I0J-237500D01*
G01*
G37*
G36*
G01*
X131783600Y-121023500D02*
X131783600Y-121498500D01*
G75*
G02*
X131546100Y-121736000I-237500J0D01*
G01*
X130971100Y-121736000D01*
G75*
G02*
X130733600Y-121498500I0J237500D01*
G01*
X130733600Y-121023500D01*
G75*
G02*
X130971100Y-120786000I237500J0D01*
G01*
X131546100Y-120786000D01*
G75*
G02*
X131783600Y-121023500I0J-237500D01*
G01*
G37*
%TD*%
%TO.C,R30*%
G36*
G01*
X109146140Y-90228560D02*
X109146140Y-89753560D01*
G75*
G02*
X109383640Y-89516060I237500J0D01*
G01*
X109958640Y-89516060D01*
G75*
G02*
X110196140Y-89753560I0J-237500D01*
G01*
X110196140Y-90228560D01*
G75*
G02*
X109958640Y-90466060I-237500J0D01*
G01*
X109383640Y-90466060D01*
G75*
G02*
X109146140Y-90228560I0J237500D01*
G01*
G37*
G36*
G01*
X107396140Y-90228560D02*
X107396140Y-89753560D01*
G75*
G02*
X107633640Y-89516060I237500J0D01*
G01*
X108208640Y-89516060D01*
G75*
G02*
X108446140Y-89753560I0J-237500D01*
G01*
X108446140Y-90228560D01*
G75*
G02*
X108208640Y-90466060I-237500J0D01*
G01*
X107633640Y-90466060D01*
G75*
G02*
X107396140Y-90228560I0J237500D01*
G01*
G37*
%TD*%
%TO.C,R29*%
G36*
G01*
X131350060Y-92401000D02*
X131825060Y-92401000D01*
G75*
G02*
X132062560Y-92638500I0J-237500D01*
G01*
X132062560Y-93213500D01*
G75*
G02*
X131825060Y-93451000I-237500J0D01*
G01*
X131350060Y-93451000D01*
G75*
G02*
X131112560Y-93213500I0J237500D01*
G01*
X131112560Y-92638500D01*
G75*
G02*
X131350060Y-92401000I237500J0D01*
G01*
G37*
G36*
G01*
X131350060Y-90651000D02*
X131825060Y-90651000D01*
G75*
G02*
X132062560Y-90888500I0J-237500D01*
G01*
X132062560Y-91463500D01*
G75*
G02*
X131825060Y-91701000I-237500J0D01*
G01*
X131350060Y-91701000D01*
G75*
G02*
X131112560Y-91463500I0J237500D01*
G01*
X131112560Y-90888500D01*
G75*
G02*
X131350060Y-90651000I237500J0D01*
G01*
G37*
%TD*%
%TO.C,R28*%
G36*
G01*
X107809360Y-105935160D02*
X107334360Y-105935160D01*
G75*
G02*
X107096860Y-105697660I0J237500D01*
G01*
X107096860Y-105122660D01*
G75*
G02*
X107334360Y-104885160I237500J0D01*
G01*
X107809360Y-104885160D01*
G75*
G02*
X108046860Y-105122660I0J-237500D01*
G01*
X108046860Y-105697660D01*
G75*
G02*
X107809360Y-105935160I-237500J0D01*
G01*
G37*
G36*
G01*
X107809360Y-107685160D02*
X107334360Y-107685160D01*
G75*
G02*
X107096860Y-107447660I0J237500D01*
G01*
X107096860Y-106872660D01*
G75*
G02*
X107334360Y-106635160I237500J0D01*
G01*
X107809360Y-106635160D01*
G75*
G02*
X108046860Y-106872660I0J-237500D01*
G01*
X108046860Y-107447660D01*
G75*
G02*
X107809360Y-107685160I-237500J0D01*
G01*
G37*
%TD*%
%TO.C,R27*%
G36*
G01*
X160847100Y-94241000D02*
X160372100Y-94241000D01*
G75*
G02*
X160134600Y-94003500I0J237500D01*
G01*
X160134600Y-93428500D01*
G75*
G02*
X160372100Y-93191000I237500J0D01*
G01*
X160847100Y-93191000D01*
G75*
G02*
X161084600Y-93428500I0J-237500D01*
G01*
X161084600Y-94003500D01*
G75*
G02*
X160847100Y-94241000I-237500J0D01*
G01*
G37*
G36*
G01*
X160847100Y-95991000D02*
X160372100Y-95991000D01*
G75*
G02*
X160134600Y-95753500I0J237500D01*
G01*
X160134600Y-95178500D01*
G75*
G02*
X160372100Y-94941000I237500J0D01*
G01*
X160847100Y-94941000D01*
G75*
G02*
X161084600Y-95178500I0J-237500D01*
G01*
X161084600Y-95753500D01*
G75*
G02*
X160847100Y-95991000I-237500J0D01*
G01*
G37*
%TD*%
%TO.C,R26*%
G36*
G01*
X158937100Y-94241000D02*
X158462100Y-94241000D01*
G75*
G02*
X158224600Y-94003500I0J237500D01*
G01*
X158224600Y-93428500D01*
G75*
G02*
X158462100Y-93191000I237500J0D01*
G01*
X158937100Y-93191000D01*
G75*
G02*
X159174600Y-93428500I0J-237500D01*
G01*
X159174600Y-94003500D01*
G75*
G02*
X158937100Y-94241000I-237500J0D01*
G01*
G37*
G36*
G01*
X158937100Y-95991000D02*
X158462100Y-95991000D01*
G75*
G02*
X158224600Y-95753500I0J237500D01*
G01*
X158224600Y-95178500D01*
G75*
G02*
X158462100Y-94941000I237500J0D01*
G01*
X158937100Y-94941000D01*
G75*
G02*
X159174600Y-95178500I0J-237500D01*
G01*
X159174600Y-95753500D01*
G75*
G02*
X158937100Y-95991000I-237500J0D01*
G01*
G37*
%TD*%
%TO.C,R25*%
G36*
G01*
X157037100Y-94235920D02*
X156562100Y-94235920D01*
G75*
G02*
X156324600Y-93998420I0J237500D01*
G01*
X156324600Y-93423420D01*
G75*
G02*
X156562100Y-93185920I237500J0D01*
G01*
X157037100Y-93185920D01*
G75*
G02*
X157274600Y-93423420I0J-237500D01*
G01*
X157274600Y-93998420D01*
G75*
G02*
X157037100Y-94235920I-237500J0D01*
G01*
G37*
G36*
G01*
X157037100Y-95985920D02*
X156562100Y-95985920D01*
G75*
G02*
X156324600Y-95748420I0J237500D01*
G01*
X156324600Y-95173420D01*
G75*
G02*
X156562100Y-94935920I237500J0D01*
G01*
X157037100Y-94935920D01*
G75*
G02*
X157274600Y-95173420I0J-237500D01*
G01*
X157274600Y-95748420D01*
G75*
G02*
X157037100Y-95985920I-237500J0D01*
G01*
G37*
%TD*%
%TO.C,R24*%
G36*
G01*
X155137180Y-94246080D02*
X154662180Y-94246080D01*
G75*
G02*
X154424680Y-94008580I0J237500D01*
G01*
X154424680Y-93433580D01*
G75*
G02*
X154662180Y-93196080I237500J0D01*
G01*
X155137180Y-93196080D01*
G75*
G02*
X155374680Y-93433580I0J-237500D01*
G01*
X155374680Y-94008580D01*
G75*
G02*
X155137180Y-94246080I-237500J0D01*
G01*
G37*
G36*
G01*
X155137180Y-95996080D02*
X154662180Y-95996080D01*
G75*
G02*
X154424680Y-95758580I0J237500D01*
G01*
X154424680Y-95183580D01*
G75*
G02*
X154662180Y-94946080I237500J0D01*
G01*
X155137180Y-94946080D01*
G75*
G02*
X155374680Y-95183580I0J-237500D01*
G01*
X155374680Y-95758580D01*
G75*
G02*
X155137180Y-95996080I-237500J0D01*
G01*
G37*
%TD*%
%TO.C,R23*%
G36*
G01*
X153232180Y-94251160D02*
X152757180Y-94251160D01*
G75*
G02*
X152519680Y-94013660I0J237500D01*
G01*
X152519680Y-93438660D01*
G75*
G02*
X152757180Y-93201160I237500J0D01*
G01*
X153232180Y-93201160D01*
G75*
G02*
X153469680Y-93438660I0J-237500D01*
G01*
X153469680Y-94013660D01*
G75*
G02*
X153232180Y-94251160I-237500J0D01*
G01*
G37*
G36*
G01*
X153232180Y-96001160D02*
X152757180Y-96001160D01*
G75*
G02*
X152519680Y-95763660I0J237500D01*
G01*
X152519680Y-95188660D01*
G75*
G02*
X152757180Y-94951160I237500J0D01*
G01*
X153232180Y-94951160D01*
G75*
G02*
X153469680Y-95188660I0J-237500D01*
G01*
X153469680Y-95763660D01*
G75*
G02*
X153232180Y-96001160I-237500J0D01*
G01*
G37*
%TD*%
%TO.C,R22*%
G36*
G01*
X151297100Y-94241000D02*
X150822100Y-94241000D01*
G75*
G02*
X150584600Y-94003500I0J237500D01*
G01*
X150584600Y-93428500D01*
G75*
G02*
X150822100Y-93191000I237500J0D01*
G01*
X151297100Y-93191000D01*
G75*
G02*
X151534600Y-93428500I0J-237500D01*
G01*
X151534600Y-94003500D01*
G75*
G02*
X151297100Y-94241000I-237500J0D01*
G01*
G37*
G36*
G01*
X151297100Y-95991000D02*
X150822100Y-95991000D01*
G75*
G02*
X150584600Y-95753500I0J237500D01*
G01*
X150584600Y-95178500D01*
G75*
G02*
X150822100Y-94941000I237500J0D01*
G01*
X151297100Y-94941000D01*
G75*
G02*
X151534600Y-95178500I0J-237500D01*
G01*
X151534600Y-95753500D01*
G75*
G02*
X151297100Y-95991000I-237500J0D01*
G01*
G37*
%TD*%
%TO.C,R21*%
G36*
G01*
X149417100Y-94266400D02*
X148942100Y-94266400D01*
G75*
G02*
X148704600Y-94028900I0J237500D01*
G01*
X148704600Y-93453900D01*
G75*
G02*
X148942100Y-93216400I237500J0D01*
G01*
X149417100Y-93216400D01*
G75*
G02*
X149654600Y-93453900I0J-237500D01*
G01*
X149654600Y-94028900D01*
G75*
G02*
X149417100Y-94266400I-237500J0D01*
G01*
G37*
G36*
G01*
X149417100Y-96016400D02*
X148942100Y-96016400D01*
G75*
G02*
X148704600Y-95778900I0J237500D01*
G01*
X148704600Y-95203900D01*
G75*
G02*
X148942100Y-94966400I237500J0D01*
G01*
X149417100Y-94966400D01*
G75*
G02*
X149654600Y-95203900I0J-237500D01*
G01*
X149654600Y-95778900D01*
G75*
G02*
X149417100Y-96016400I-237500J0D01*
G01*
G37*
%TD*%
%TO.C,R20*%
G36*
G01*
X147512100Y-94266400D02*
X147037100Y-94266400D01*
G75*
G02*
X146799600Y-94028900I0J237500D01*
G01*
X146799600Y-93453900D01*
G75*
G02*
X147037100Y-93216400I237500J0D01*
G01*
X147512100Y-93216400D01*
G75*
G02*
X147749600Y-93453900I0J-237500D01*
G01*
X147749600Y-94028900D01*
G75*
G02*
X147512100Y-94266400I-237500J0D01*
G01*
G37*
G36*
G01*
X147512100Y-96016400D02*
X147037100Y-96016400D01*
G75*
G02*
X146799600Y-95778900I0J237500D01*
G01*
X146799600Y-95203900D01*
G75*
G02*
X147037100Y-94966400I237500J0D01*
G01*
X147512100Y-94966400D01*
G75*
G02*
X147749600Y-95203900I0J-237500D01*
G01*
X147749600Y-95778900D01*
G75*
G02*
X147512100Y-96016400I-237500J0D01*
G01*
G37*
%TD*%
%TO.C,R19*%
G36*
G01*
X153775740Y-66321320D02*
X153300740Y-66321320D01*
G75*
G02*
X153063240Y-66083820I0J237500D01*
G01*
X153063240Y-65508820D01*
G75*
G02*
X153300740Y-65271320I237500J0D01*
G01*
X153775740Y-65271320D01*
G75*
G02*
X154013240Y-65508820I0J-237500D01*
G01*
X154013240Y-66083820D01*
G75*
G02*
X153775740Y-66321320I-237500J0D01*
G01*
G37*
G36*
G01*
X153775740Y-68071320D02*
X153300740Y-68071320D01*
G75*
G02*
X153063240Y-67833820I0J237500D01*
G01*
X153063240Y-67258820D01*
G75*
G02*
X153300740Y-67021320I237500J0D01*
G01*
X153775740Y-67021320D01*
G75*
G02*
X154013240Y-67258820I0J-237500D01*
G01*
X154013240Y-67833820D01*
G75*
G02*
X153775740Y-68071320I-237500J0D01*
G01*
G37*
%TD*%
%TO.C,R18*%
G36*
G01*
X158322320Y-67067040D02*
X158797320Y-67067040D01*
G75*
G02*
X159034820Y-67304540I0J-237500D01*
G01*
X159034820Y-67879540D01*
G75*
G02*
X158797320Y-68117040I-237500J0D01*
G01*
X158322320Y-68117040D01*
G75*
G02*
X158084820Y-67879540I0J237500D01*
G01*
X158084820Y-67304540D01*
G75*
G02*
X158322320Y-67067040I237500J0D01*
G01*
G37*
G36*
G01*
X158322320Y-65317040D02*
X158797320Y-65317040D01*
G75*
G02*
X159034820Y-65554540I0J-237500D01*
G01*
X159034820Y-66129540D01*
G75*
G02*
X158797320Y-66367040I-237500J0D01*
G01*
X158322320Y-66367040D01*
G75*
G02*
X158084820Y-66129540I0J237500D01*
G01*
X158084820Y-65554540D01*
G75*
G02*
X158322320Y-65317040I237500J0D01*
G01*
G37*
%TD*%
%TO.C,R17*%
G36*
G01*
X96618100Y-62708400D02*
X97093100Y-62708400D01*
G75*
G02*
X97330600Y-62945900I0J-237500D01*
G01*
X97330600Y-63520900D01*
G75*
G02*
X97093100Y-63758400I-237500J0D01*
G01*
X96618100Y-63758400D01*
G75*
G02*
X96380600Y-63520900I0J237500D01*
G01*
X96380600Y-62945900D01*
G75*
G02*
X96618100Y-62708400I237500J0D01*
G01*
G37*
G36*
G01*
X96618100Y-60958400D02*
X97093100Y-60958400D01*
G75*
G02*
X97330600Y-61195900I0J-237500D01*
G01*
X97330600Y-61770900D01*
G75*
G02*
X97093100Y-62008400I-237500J0D01*
G01*
X96618100Y-62008400D01*
G75*
G02*
X96380600Y-61770900I0J237500D01*
G01*
X96380600Y-61195900D01*
G75*
G02*
X96618100Y-60958400I237500J0D01*
G01*
G37*
%TD*%
%TO.C,R16*%
G36*
G01*
X122726780Y-72793240D02*
X122251780Y-72793240D01*
G75*
G02*
X122014280Y-72555740I0J237500D01*
G01*
X122014280Y-71980740D01*
G75*
G02*
X122251780Y-71743240I237500J0D01*
G01*
X122726780Y-71743240D01*
G75*
G02*
X122964280Y-71980740I0J-237500D01*
G01*
X122964280Y-72555740D01*
G75*
G02*
X122726780Y-72793240I-237500J0D01*
G01*
G37*
G36*
G01*
X122726780Y-74543240D02*
X122251780Y-74543240D01*
G75*
G02*
X122014280Y-74305740I0J237500D01*
G01*
X122014280Y-73730740D01*
G75*
G02*
X122251780Y-73493240I237500J0D01*
G01*
X122726780Y-73493240D01*
G75*
G02*
X122964280Y-73730740I0J-237500D01*
G01*
X122964280Y-74305740D01*
G75*
G02*
X122726780Y-74543240I-237500J0D01*
G01*
G37*
%TD*%
%TO.C,R15*%
G36*
G01*
X187432520Y-93403540D02*
X187432520Y-93878540D01*
G75*
G02*
X187195020Y-94116040I-237500J0D01*
G01*
X186620020Y-94116040D01*
G75*
G02*
X186382520Y-93878540I0J237500D01*
G01*
X186382520Y-93403540D01*
G75*
G02*
X186620020Y-93166040I237500J0D01*
G01*
X187195020Y-93166040D01*
G75*
G02*
X187432520Y-93403540I0J-237500D01*
G01*
G37*
G36*
G01*
X189182520Y-93403540D02*
X189182520Y-93878540D01*
G75*
G02*
X188945020Y-94116040I-237500J0D01*
G01*
X188370020Y-94116040D01*
G75*
G02*
X188132520Y-93878540I0J237500D01*
G01*
X188132520Y-93403540D01*
G75*
G02*
X188370020Y-93166040I237500J0D01*
G01*
X188945020Y-93166040D01*
G75*
G02*
X189182520Y-93403540I0J-237500D01*
G01*
G37*
%TD*%
%TO.C,R14*%
G36*
G01*
X187417280Y-91823660D02*
X187417280Y-92298660D01*
G75*
G02*
X187179780Y-92536160I-237500J0D01*
G01*
X186604780Y-92536160D01*
G75*
G02*
X186367280Y-92298660I0J237500D01*
G01*
X186367280Y-91823660D01*
G75*
G02*
X186604780Y-91586160I237500J0D01*
G01*
X187179780Y-91586160D01*
G75*
G02*
X187417280Y-91823660I0J-237500D01*
G01*
G37*
G36*
G01*
X189167280Y-91823660D02*
X189167280Y-92298660D01*
G75*
G02*
X188929780Y-92536160I-237500J0D01*
G01*
X188354780Y-92536160D01*
G75*
G02*
X188117280Y-92298660I0J237500D01*
G01*
X188117280Y-91823660D01*
G75*
G02*
X188354780Y-91586160I237500J0D01*
G01*
X188929780Y-91586160D01*
G75*
G02*
X189167280Y-91823660I0J-237500D01*
G01*
G37*
%TD*%
%TO.C,R13*%
G36*
G01*
X187402040Y-90253940D02*
X187402040Y-90728940D01*
G75*
G02*
X187164540Y-90966440I-237500J0D01*
G01*
X186589540Y-90966440D01*
G75*
G02*
X186352040Y-90728940I0J237500D01*
G01*
X186352040Y-90253940D01*
G75*
G02*
X186589540Y-90016440I237500J0D01*
G01*
X187164540Y-90016440D01*
G75*
G02*
X187402040Y-90253940I0J-237500D01*
G01*
G37*
G36*
G01*
X189152040Y-90253940D02*
X189152040Y-90728940D01*
G75*
G02*
X188914540Y-90966440I-237500J0D01*
G01*
X188339540Y-90966440D01*
G75*
G02*
X188102040Y-90728940I0J237500D01*
G01*
X188102040Y-90253940D01*
G75*
G02*
X188339540Y-90016440I237500J0D01*
G01*
X188914540Y-90016440D01*
G75*
G02*
X189152040Y-90253940I0J-237500D01*
G01*
G37*
%TD*%
%TO.C,R12*%
G36*
G01*
X194288720Y-136223620D02*
X194763720Y-136223620D01*
G75*
G02*
X195001220Y-136461120I0J-237500D01*
G01*
X195001220Y-137036120D01*
G75*
G02*
X194763720Y-137273620I-237500J0D01*
G01*
X194288720Y-137273620D01*
G75*
G02*
X194051220Y-137036120I0J237500D01*
G01*
X194051220Y-136461120D01*
G75*
G02*
X194288720Y-136223620I237500J0D01*
G01*
G37*
G36*
G01*
X194288720Y-134473620D02*
X194763720Y-134473620D01*
G75*
G02*
X195001220Y-134711120I0J-237500D01*
G01*
X195001220Y-135286120D01*
G75*
G02*
X194763720Y-135523620I-237500J0D01*
G01*
X194288720Y-135523620D01*
G75*
G02*
X194051220Y-135286120I0J237500D01*
G01*
X194051220Y-134711120D01*
G75*
G02*
X194288720Y-134473620I237500J0D01*
G01*
G37*
%TD*%
%TO.C,R11*%
G36*
G01*
X194291260Y-121184280D02*
X194766260Y-121184280D01*
G75*
G02*
X195003760Y-121421780I0J-237500D01*
G01*
X195003760Y-121996780D01*
G75*
G02*
X194766260Y-122234280I-237500J0D01*
G01*
X194291260Y-122234280D01*
G75*
G02*
X194053760Y-121996780I0J237500D01*
G01*
X194053760Y-121421780D01*
G75*
G02*
X194291260Y-121184280I237500J0D01*
G01*
G37*
G36*
G01*
X194291260Y-119434280D02*
X194766260Y-119434280D01*
G75*
G02*
X195003760Y-119671780I0J-237500D01*
G01*
X195003760Y-120246780D01*
G75*
G02*
X194766260Y-120484280I-237500J0D01*
G01*
X194291260Y-120484280D01*
G75*
G02*
X194053760Y-120246780I0J237500D01*
G01*
X194053760Y-119671780D01*
G75*
G02*
X194291260Y-119434280I237500J0D01*
G01*
G37*
%TD*%
%TO.C,R10*%
G36*
G01*
X194278560Y-104295880D02*
X194753560Y-104295880D01*
G75*
G02*
X194991060Y-104533380I0J-237500D01*
G01*
X194991060Y-105108380D01*
G75*
G02*
X194753560Y-105345880I-237500J0D01*
G01*
X194278560Y-105345880D01*
G75*
G02*
X194041060Y-105108380I0J237500D01*
G01*
X194041060Y-104533380D01*
G75*
G02*
X194278560Y-104295880I237500J0D01*
G01*
G37*
G36*
G01*
X194278560Y-106045880D02*
X194753560Y-106045880D01*
G75*
G02*
X194991060Y-106283380I0J-237500D01*
G01*
X194991060Y-106858380D01*
G75*
G02*
X194753560Y-107095880I-237500J0D01*
G01*
X194278560Y-107095880D01*
G75*
G02*
X194041060Y-106858380I0J237500D01*
G01*
X194041060Y-106283380D01*
G75*
G02*
X194278560Y-106045880I237500J0D01*
G01*
G37*
%TD*%
%TO.C,R9*%
G36*
G01*
X169130020Y-119238640D02*
X169605020Y-119238640D01*
G75*
G02*
X169842520Y-119476140I0J-237500D01*
G01*
X169842520Y-120051140D01*
G75*
G02*
X169605020Y-120288640I-237500J0D01*
G01*
X169130020Y-120288640D01*
G75*
G02*
X168892520Y-120051140I0J237500D01*
G01*
X168892520Y-119476140D01*
G75*
G02*
X169130020Y-119238640I237500J0D01*
G01*
G37*
G36*
G01*
X169130020Y-117488640D02*
X169605020Y-117488640D01*
G75*
G02*
X169842520Y-117726140I0J-237500D01*
G01*
X169842520Y-118301140D01*
G75*
G02*
X169605020Y-118538640I-237500J0D01*
G01*
X169130020Y-118538640D01*
G75*
G02*
X168892520Y-118301140I0J237500D01*
G01*
X168892520Y-117726140D01*
G75*
G02*
X169130020Y-117488640I237500J0D01*
G01*
G37*
%TD*%
D18*
%TO.C,Q1*%
X68138360Y-117247040D03*
X67188360Y-115247040D03*
X69088360Y-115247040D03*
%TD*%
D19*
%TO.C,J1*%
X83025600Y-64633400D03*
D20*
X82975600Y-53958400D03*
D21*
X85425600Y-53833400D03*
X86525600Y-53833400D03*
X87625600Y-53833400D03*
X88725600Y-53833400D03*
X89825600Y-53833400D03*
X90925600Y-53833400D03*
X92025600Y-53833400D03*
D22*
X82625600Y-62208400D03*
D23*
X94250600Y-63058400D03*
D24*
X94575600Y-61558400D03*
D25*
X94325600Y-53958400D03*
D21*
X93125600Y-53833400D03*
%TD*%
D26*
%TO.C,D16*%
X73673780Y-103562280D03*
X75673780Y-102612280D03*
X75673780Y-104512280D03*
%TD*%
D18*
%TO.C,D14*%
X75354500Y-109677840D03*
X74404500Y-107677840D03*
X76304500Y-107677840D03*
%TD*%
%TO.C,D12*%
X176596360Y-103309040D03*
X177546360Y-105309040D03*
X175646360Y-105309040D03*
%TD*%
%TO.C,D11*%
G36*
G01*
X130835200Y-124165500D02*
X130835200Y-123690500D01*
G75*
G02*
X131072700Y-123453000I237500J0D01*
G01*
X131647700Y-123453000D01*
G75*
G02*
X131885200Y-123690500I0J-237500D01*
G01*
X131885200Y-124165500D01*
G75*
G02*
X131647700Y-124403000I-237500J0D01*
G01*
X131072700Y-124403000D01*
G75*
G02*
X130835200Y-124165500I0J237500D01*
G01*
G37*
G36*
G01*
X129085200Y-124165500D02*
X129085200Y-123690500D01*
G75*
G02*
X129322700Y-123453000I237500J0D01*
G01*
X129897700Y-123453000D01*
G75*
G02*
X130135200Y-123690500I0J-237500D01*
G01*
X130135200Y-124165500D01*
G75*
G02*
X129897700Y-124403000I-237500J0D01*
G01*
X129322700Y-124403000D01*
G75*
G02*
X129085200Y-124165500I0J237500D01*
G01*
G37*
%TD*%
%TO.C,D9*%
G36*
G01*
X160847100Y-90735800D02*
X160372100Y-90735800D01*
G75*
G02*
X160134600Y-90498300I0J237500D01*
G01*
X160134600Y-89923300D01*
G75*
G02*
X160372100Y-89685800I237500J0D01*
G01*
X160847100Y-89685800D01*
G75*
G02*
X161084600Y-89923300I0J-237500D01*
G01*
X161084600Y-90498300D01*
G75*
G02*
X160847100Y-90735800I-237500J0D01*
G01*
G37*
G36*
G01*
X160847100Y-92485800D02*
X160372100Y-92485800D01*
G75*
G02*
X160134600Y-92248300I0J237500D01*
G01*
X160134600Y-91673300D01*
G75*
G02*
X160372100Y-91435800I237500J0D01*
G01*
X160847100Y-91435800D01*
G75*
G02*
X161084600Y-91673300I0J-237500D01*
G01*
X161084600Y-92248300D01*
G75*
G02*
X160847100Y-92485800I-237500J0D01*
G01*
G37*
%TD*%
%TO.C,D8*%
G36*
G01*
X158942100Y-90735800D02*
X158467100Y-90735800D01*
G75*
G02*
X158229600Y-90498300I0J237500D01*
G01*
X158229600Y-89923300D01*
G75*
G02*
X158467100Y-89685800I237500J0D01*
G01*
X158942100Y-89685800D01*
G75*
G02*
X159179600Y-89923300I0J-237500D01*
G01*
X159179600Y-90498300D01*
G75*
G02*
X158942100Y-90735800I-237500J0D01*
G01*
G37*
G36*
G01*
X158942100Y-92485800D02*
X158467100Y-92485800D01*
G75*
G02*
X158229600Y-92248300I0J237500D01*
G01*
X158229600Y-91673300D01*
G75*
G02*
X158467100Y-91435800I237500J0D01*
G01*
X158942100Y-91435800D01*
G75*
G02*
X159179600Y-91673300I0J-237500D01*
G01*
X159179600Y-92248300D01*
G75*
G02*
X158942100Y-92485800I-237500J0D01*
G01*
G37*
%TD*%
%TO.C,D7*%
G36*
G01*
X157037100Y-90735800D02*
X156562100Y-90735800D01*
G75*
G02*
X156324600Y-90498300I0J237500D01*
G01*
X156324600Y-89923300D01*
G75*
G02*
X156562100Y-89685800I237500J0D01*
G01*
X157037100Y-89685800D01*
G75*
G02*
X157274600Y-89923300I0J-237500D01*
G01*
X157274600Y-90498300D01*
G75*
G02*
X157037100Y-90735800I-237500J0D01*
G01*
G37*
G36*
G01*
X157037100Y-92485800D02*
X156562100Y-92485800D01*
G75*
G02*
X156324600Y-92248300I0J237500D01*
G01*
X156324600Y-91673300D01*
G75*
G02*
X156562100Y-91435800I237500J0D01*
G01*
X157037100Y-91435800D01*
G75*
G02*
X157274600Y-91673300I0J-237500D01*
G01*
X157274600Y-92248300D01*
G75*
G02*
X157037100Y-92485800I-237500J0D01*
G01*
G37*
%TD*%
%TO.C,D6*%
G36*
G01*
X155132100Y-90735800D02*
X154657100Y-90735800D01*
G75*
G02*
X154419600Y-90498300I0J237500D01*
G01*
X154419600Y-89923300D01*
G75*
G02*
X154657100Y-89685800I237500J0D01*
G01*
X155132100Y-89685800D01*
G75*
G02*
X155369600Y-89923300I0J-237500D01*
G01*
X155369600Y-90498300D01*
G75*
G02*
X155132100Y-90735800I-237500J0D01*
G01*
G37*
G36*
G01*
X155132100Y-92485800D02*
X154657100Y-92485800D01*
G75*
G02*
X154419600Y-92248300I0J237500D01*
G01*
X154419600Y-91673300D01*
G75*
G02*
X154657100Y-91435800I237500J0D01*
G01*
X155132100Y-91435800D01*
G75*
G02*
X155369600Y-91673300I0J-237500D01*
G01*
X155369600Y-92248300D01*
G75*
G02*
X155132100Y-92485800I-237500J0D01*
G01*
G37*
%TD*%
%TO.C,D5*%
G36*
G01*
X153227100Y-90735800D02*
X152752100Y-90735800D01*
G75*
G02*
X152514600Y-90498300I0J237500D01*
G01*
X152514600Y-89923300D01*
G75*
G02*
X152752100Y-89685800I237500J0D01*
G01*
X153227100Y-89685800D01*
G75*
G02*
X153464600Y-89923300I0J-237500D01*
G01*
X153464600Y-90498300D01*
G75*
G02*
X153227100Y-90735800I-237500J0D01*
G01*
G37*
G36*
G01*
X153227100Y-92485800D02*
X152752100Y-92485800D01*
G75*
G02*
X152514600Y-92248300I0J237500D01*
G01*
X152514600Y-91673300D01*
G75*
G02*
X152752100Y-91435800I237500J0D01*
G01*
X153227100Y-91435800D01*
G75*
G02*
X153464600Y-91673300I0J-237500D01*
G01*
X153464600Y-92248300D01*
G75*
G02*
X153227100Y-92485800I-237500J0D01*
G01*
G37*
%TD*%
%TO.C,D4*%
G36*
G01*
X151322100Y-90735800D02*
X150847100Y-90735800D01*
G75*
G02*
X150609600Y-90498300I0J237500D01*
G01*
X150609600Y-89923300D01*
G75*
G02*
X150847100Y-89685800I237500J0D01*
G01*
X151322100Y-89685800D01*
G75*
G02*
X151559600Y-89923300I0J-237500D01*
G01*
X151559600Y-90498300D01*
G75*
G02*
X151322100Y-90735800I-237500J0D01*
G01*
G37*
G36*
G01*
X151322100Y-92485800D02*
X150847100Y-92485800D01*
G75*
G02*
X150609600Y-92248300I0J237500D01*
G01*
X150609600Y-91673300D01*
G75*
G02*
X150847100Y-91435800I237500J0D01*
G01*
X151322100Y-91435800D01*
G75*
G02*
X151559600Y-91673300I0J-237500D01*
G01*
X151559600Y-92248300D01*
G75*
G02*
X151322100Y-92485800I-237500J0D01*
G01*
G37*
%TD*%
%TO.C,D3*%
G36*
G01*
X149417100Y-90735800D02*
X148942100Y-90735800D01*
G75*
G02*
X148704600Y-90498300I0J237500D01*
G01*
X148704600Y-89923300D01*
G75*
G02*
X148942100Y-89685800I237500J0D01*
G01*
X149417100Y-89685800D01*
G75*
G02*
X149654600Y-89923300I0J-237500D01*
G01*
X149654600Y-90498300D01*
G75*
G02*
X149417100Y-90735800I-237500J0D01*
G01*
G37*
G36*
G01*
X149417100Y-92485800D02*
X148942100Y-92485800D01*
G75*
G02*
X148704600Y-92248300I0J237500D01*
G01*
X148704600Y-91673300D01*
G75*
G02*
X148942100Y-91435800I237500J0D01*
G01*
X149417100Y-91435800D01*
G75*
G02*
X149654600Y-91673300I0J-237500D01*
G01*
X149654600Y-92248300D01*
G75*
G02*
X149417100Y-92485800I-237500J0D01*
G01*
G37*
%TD*%
%TO.C,D2*%
G36*
G01*
X147512100Y-90735800D02*
X147037100Y-90735800D01*
G75*
G02*
X146799600Y-90498300I0J237500D01*
G01*
X146799600Y-89923300D01*
G75*
G02*
X147037100Y-89685800I237500J0D01*
G01*
X147512100Y-89685800D01*
G75*
G02*
X147749600Y-89923300I0J-237500D01*
G01*
X147749600Y-90498300D01*
G75*
G02*
X147512100Y-90735800I-237500J0D01*
G01*
G37*
G36*
G01*
X147512100Y-92485800D02*
X147037100Y-92485800D01*
G75*
G02*
X146799600Y-92248300I0J237500D01*
G01*
X146799600Y-91673300D01*
G75*
G02*
X147037100Y-91435800I237500J0D01*
G01*
X147512100Y-91435800D01*
G75*
G02*
X147749600Y-91673300I0J-237500D01*
G01*
X147749600Y-92248300D01*
G75*
G02*
X147512100Y-92485800I-237500J0D01*
G01*
G37*
%TD*%
D27*
%TO.C,D1*%
X191337020Y-96254380D03*
X191337020Y-98754380D03*
X192737020Y-98754380D03*
X192737020Y-96254380D03*
%TD*%
%TO.C,C23*%
G36*
G01*
X78190400Y-103879260D02*
X78665400Y-103879260D01*
G75*
G02*
X78902900Y-104116760I0J-237500D01*
G01*
X78902900Y-104691760D01*
G75*
G02*
X78665400Y-104929260I-237500J0D01*
G01*
X78190400Y-104929260D01*
G75*
G02*
X77952900Y-104691760I0J237500D01*
G01*
X77952900Y-104116760D01*
G75*
G02*
X78190400Y-103879260I237500J0D01*
G01*
G37*
G36*
G01*
X78190400Y-102129260D02*
X78665400Y-102129260D01*
G75*
G02*
X78902900Y-102366760I0J-237500D01*
G01*
X78902900Y-102941760D01*
G75*
G02*
X78665400Y-103179260I-237500J0D01*
G01*
X78190400Y-103179260D01*
G75*
G02*
X77952900Y-102941760I0J237500D01*
G01*
X77952900Y-102366760D01*
G75*
G02*
X78190400Y-102129260I237500J0D01*
G01*
G37*
%TD*%
%TO.C,C22*%
G36*
G01*
X79831240Y-103891960D02*
X80306240Y-103891960D01*
G75*
G02*
X80543740Y-104129460I0J-237500D01*
G01*
X80543740Y-104704460D01*
G75*
G02*
X80306240Y-104941960I-237500J0D01*
G01*
X79831240Y-104941960D01*
G75*
G02*
X79593740Y-104704460I0J237500D01*
G01*
X79593740Y-104129460D01*
G75*
G02*
X79831240Y-103891960I237500J0D01*
G01*
G37*
G36*
G01*
X79831240Y-102141960D02*
X80306240Y-102141960D01*
G75*
G02*
X80543740Y-102379460I0J-237500D01*
G01*
X80543740Y-102954460D01*
G75*
G02*
X80306240Y-103191960I-237500J0D01*
G01*
X79831240Y-103191960D01*
G75*
G02*
X79593740Y-102954460I0J237500D01*
G01*
X79593740Y-102379460D01*
G75*
G02*
X79831240Y-102141960I237500J0D01*
G01*
G37*
%TD*%
%TO.C,C21*%
G36*
G01*
X74694260Y-98250840D02*
X73444260Y-98250840D01*
G75*
G02*
X73194260Y-98000840I0J250000D01*
G01*
X73194260Y-97075840D01*
G75*
G02*
X73444260Y-96825840I250000J0D01*
G01*
X74694260Y-96825840D01*
G75*
G02*
X74944260Y-97075840I0J-250000D01*
G01*
X74944260Y-98000840D01*
G75*
G02*
X74694260Y-98250840I-250000J0D01*
G01*
G37*
G36*
G01*
X74694260Y-101225840D02*
X73444260Y-101225840D01*
G75*
G02*
X73194260Y-100975840I0J250000D01*
G01*
X73194260Y-100050840D01*
G75*
G02*
X73444260Y-99800840I250000J0D01*
G01*
X74694260Y-99800840D01*
G75*
G02*
X74944260Y-100050840I0J-250000D01*
G01*
X74944260Y-100975840D01*
G75*
G02*
X74694260Y-101225840I-250000J0D01*
G01*
G37*
%TD*%
%TO.C,C20*%
G36*
G01*
X73472060Y-120966200D02*
X73472060Y-122216200D01*
G75*
G02*
X73222060Y-122466200I-250000J0D01*
G01*
X72297060Y-122466200D01*
G75*
G02*
X72047060Y-122216200I0J250000D01*
G01*
X72047060Y-120966200D01*
G75*
G02*
X72297060Y-120716200I250000J0D01*
G01*
X73222060Y-120716200D01*
G75*
G02*
X73472060Y-120966200I0J-250000D01*
G01*
G37*
G36*
G01*
X76447060Y-120966200D02*
X76447060Y-122216200D01*
G75*
G02*
X76197060Y-122466200I-250000J0D01*
G01*
X75272060Y-122466200D01*
G75*
G02*
X75022060Y-122216200I0J250000D01*
G01*
X75022060Y-120966200D01*
G75*
G02*
X75272060Y-120716200I250000J0D01*
G01*
X76197060Y-120716200D01*
G75*
G02*
X76447060Y-120966200I0J-250000D01*
G01*
G37*
%TD*%
%TO.C,C19*%
G36*
G01*
X73588900Y-113330960D02*
X73588900Y-114580960D01*
G75*
G02*
X73338900Y-114830960I-250000J0D01*
G01*
X72413900Y-114830960D01*
G75*
G02*
X72163900Y-114580960I0J250000D01*
G01*
X72163900Y-113330960D01*
G75*
G02*
X72413900Y-113080960I250000J0D01*
G01*
X73338900Y-113080960D01*
G75*
G02*
X73588900Y-113330960I0J-250000D01*
G01*
G37*
G36*
G01*
X76563900Y-113330960D02*
X76563900Y-114580960D01*
G75*
G02*
X76313900Y-114830960I-250000J0D01*
G01*
X75388900Y-114830960D01*
G75*
G02*
X75138900Y-114580960I0J250000D01*
G01*
X75138900Y-113330960D01*
G75*
G02*
X75388900Y-113080960I250000J0D01*
G01*
X76313900Y-113080960D01*
G75*
G02*
X76563900Y-113330960I0J-250000D01*
G01*
G37*
%TD*%
%TO.C,C18*%
G36*
G01*
X194208560Y-67636820D02*
X195458560Y-67636820D01*
G75*
G02*
X195708560Y-67886820I0J-250000D01*
G01*
X195708560Y-68811820D01*
G75*
G02*
X195458560Y-69061820I-250000J0D01*
G01*
X194208560Y-69061820D01*
G75*
G02*
X193958560Y-68811820I0J250000D01*
G01*
X193958560Y-67886820D01*
G75*
G02*
X194208560Y-67636820I250000J0D01*
G01*
G37*
G36*
G01*
X194208560Y-64661820D02*
X195458560Y-64661820D01*
G75*
G02*
X195708560Y-64911820I0J-250000D01*
G01*
X195708560Y-65836820D01*
G75*
G02*
X195458560Y-66086820I-250000J0D01*
G01*
X194208560Y-66086820D01*
G75*
G02*
X193958560Y-65836820I0J250000D01*
G01*
X193958560Y-64911820D01*
G75*
G02*
X194208560Y-64661820I250000J0D01*
G01*
G37*
%TD*%
%TO.C,C16*%
G36*
G01*
X89412880Y-112285920D02*
X89412880Y-111810920D01*
G75*
G02*
X89650380Y-111573420I237500J0D01*
G01*
X90225380Y-111573420D01*
G75*
G02*
X90462880Y-111810920I0J-237500D01*
G01*
X90462880Y-112285920D01*
G75*
G02*
X90225380Y-112523420I-237500J0D01*
G01*
X89650380Y-112523420D01*
G75*
G02*
X89412880Y-112285920I0J237500D01*
G01*
G37*
G36*
G01*
X87662880Y-112285920D02*
X87662880Y-111810920D01*
G75*
G02*
X87900380Y-111573420I237500J0D01*
G01*
X88475380Y-111573420D01*
G75*
G02*
X88712880Y-111810920I0J-237500D01*
G01*
X88712880Y-112285920D01*
G75*
G02*
X88475380Y-112523420I-237500J0D01*
G01*
X87900380Y-112523420D01*
G75*
G02*
X87662880Y-112285920I0J237500D01*
G01*
G37*
%TD*%
%TO.C,C15*%
G36*
G01*
X90204620Y-114187620D02*
X89729620Y-114187620D01*
G75*
G02*
X89492120Y-113950120I0J237500D01*
G01*
X89492120Y-113375120D01*
G75*
G02*
X89729620Y-113137620I237500J0D01*
G01*
X90204620Y-113137620D01*
G75*
G02*
X90442120Y-113375120I0J-237500D01*
G01*
X90442120Y-113950120D01*
G75*
G02*
X90204620Y-114187620I-237500J0D01*
G01*
G37*
G36*
G01*
X90204620Y-115937620D02*
X89729620Y-115937620D01*
G75*
G02*
X89492120Y-115700120I0J237500D01*
G01*
X89492120Y-115125120D01*
G75*
G02*
X89729620Y-114887620I237500J0D01*
G01*
X90204620Y-114887620D01*
G75*
G02*
X90442120Y-115125120I0J-237500D01*
G01*
X90442120Y-115700120D01*
G75*
G02*
X90204620Y-115937620I-237500J0D01*
G01*
G37*
%TD*%
%TO.C,C14*%
G36*
G01*
X145145560Y-95783540D02*
X145145560Y-95308540D01*
G75*
G02*
X145383060Y-95071040I237500J0D01*
G01*
X145958060Y-95071040D01*
G75*
G02*
X146195560Y-95308540I0J-237500D01*
G01*
X146195560Y-95783540D01*
G75*
G02*
X145958060Y-96021040I-237500J0D01*
G01*
X145383060Y-96021040D01*
G75*
G02*
X145145560Y-95783540I0J237500D01*
G01*
G37*
G36*
G01*
X143395560Y-95783540D02*
X143395560Y-95308540D01*
G75*
G02*
X143633060Y-95071040I237500J0D01*
G01*
X144208060Y-95071040D01*
G75*
G02*
X144445560Y-95308540I0J-237500D01*
G01*
X144445560Y-95783540D01*
G75*
G02*
X144208060Y-96021040I-237500J0D01*
G01*
X143633060Y-96021040D01*
G75*
G02*
X143395560Y-95783540I0J237500D01*
G01*
G37*
%TD*%
%TO.C,C13*%
G36*
G01*
X161960360Y-110017700D02*
X161960360Y-109542700D01*
G75*
G02*
X162197860Y-109305200I237500J0D01*
G01*
X162772860Y-109305200D01*
G75*
G02*
X163010360Y-109542700I0J-237500D01*
G01*
X163010360Y-110017700D01*
G75*
G02*
X162772860Y-110255200I-237500J0D01*
G01*
X162197860Y-110255200D01*
G75*
G02*
X161960360Y-110017700I0J237500D01*
G01*
G37*
G36*
G01*
X160210360Y-110017700D02*
X160210360Y-109542700D01*
G75*
G02*
X160447860Y-109305200I237500J0D01*
G01*
X161022860Y-109305200D01*
G75*
G02*
X161260360Y-109542700I0J-237500D01*
G01*
X161260360Y-110017700D01*
G75*
G02*
X161022860Y-110255200I-237500J0D01*
G01*
X160447860Y-110255200D01*
G75*
G02*
X160210360Y-110017700I0J237500D01*
G01*
G37*
%TD*%
%TO.C,C12*%
G36*
G01*
X168401040Y-140920080D02*
X168876040Y-140920080D01*
G75*
G02*
X169113540Y-141157580I0J-237500D01*
G01*
X169113540Y-141732580D01*
G75*
G02*
X168876040Y-141970080I-237500J0D01*
G01*
X168401040Y-141970080D01*
G75*
G02*
X168163540Y-141732580I0J237500D01*
G01*
X168163540Y-141157580D01*
G75*
G02*
X168401040Y-140920080I237500J0D01*
G01*
G37*
G36*
G01*
X168401040Y-139170080D02*
X168876040Y-139170080D01*
G75*
G02*
X169113540Y-139407580I0J-237500D01*
G01*
X169113540Y-139982580D01*
G75*
G02*
X168876040Y-140220080I-237500J0D01*
G01*
X168401040Y-140220080D01*
G75*
G02*
X168163540Y-139982580I0J237500D01*
G01*
X168163540Y-139407580D01*
G75*
G02*
X168401040Y-139170080I237500J0D01*
G01*
G37*
%TD*%
%TO.C,C11*%
G36*
G01*
X154400080Y-110017700D02*
X154400080Y-109542700D01*
G75*
G02*
X154637580Y-109305200I237500J0D01*
G01*
X155212580Y-109305200D01*
G75*
G02*
X155450080Y-109542700I0J-237500D01*
G01*
X155450080Y-110017700D01*
G75*
G02*
X155212580Y-110255200I-237500J0D01*
G01*
X154637580Y-110255200D01*
G75*
G02*
X154400080Y-110017700I0J237500D01*
G01*
G37*
G36*
G01*
X152650080Y-110017700D02*
X152650080Y-109542700D01*
G75*
G02*
X152887580Y-109305200I237500J0D01*
G01*
X153462580Y-109305200D01*
G75*
G02*
X153700080Y-109542700I0J-237500D01*
G01*
X153700080Y-110017700D01*
G75*
G02*
X153462580Y-110255200I-237500J0D01*
G01*
X152887580Y-110255200D01*
G75*
G02*
X152650080Y-110017700I0J237500D01*
G01*
G37*
%TD*%
%TO.C,C10*%
G36*
G01*
X146679720Y-109966900D02*
X146679720Y-109491900D01*
G75*
G02*
X146917220Y-109254400I237500J0D01*
G01*
X147492220Y-109254400D01*
G75*
G02*
X147729720Y-109491900I0J-237500D01*
G01*
X147729720Y-109966900D01*
G75*
G02*
X147492220Y-110204400I-237500J0D01*
G01*
X146917220Y-110204400D01*
G75*
G02*
X146679720Y-109966900I0J237500D01*
G01*
G37*
G36*
G01*
X144929720Y-109966900D02*
X144929720Y-109491900D01*
G75*
G02*
X145167220Y-109254400I237500J0D01*
G01*
X145742220Y-109254400D01*
G75*
G02*
X145979720Y-109491900I0J-237500D01*
G01*
X145979720Y-109966900D01*
G75*
G02*
X145742220Y-110204400I-237500J0D01*
G01*
X145167220Y-110204400D01*
G75*
G02*
X144929720Y-109966900I0J237500D01*
G01*
G37*
%TD*%
%TO.C,C9*%
G36*
G01*
X109273820Y-85065700D02*
X108023820Y-85065700D01*
G75*
G02*
X107773820Y-84815700I0J250000D01*
G01*
X107773820Y-83890700D01*
G75*
G02*
X108023820Y-83640700I250000J0D01*
G01*
X109273820Y-83640700D01*
G75*
G02*
X109523820Y-83890700I0J-250000D01*
G01*
X109523820Y-84815700D01*
G75*
G02*
X109273820Y-85065700I-250000J0D01*
G01*
G37*
G36*
G01*
X109273820Y-88040700D02*
X108023820Y-88040700D01*
G75*
G02*
X107773820Y-87790700I0J250000D01*
G01*
X107773820Y-86865700D01*
G75*
G02*
X108023820Y-86615700I250000J0D01*
G01*
X109273820Y-86615700D01*
G75*
G02*
X109523820Y-86865700I0J-250000D01*
G01*
X109523820Y-87790700D01*
G75*
G02*
X109273820Y-88040700I-250000J0D01*
G01*
G37*
%TD*%
%TO.C,C8*%
G36*
G01*
X147677180Y-72285440D02*
X148152180Y-72285440D01*
G75*
G02*
X148389680Y-72522940I0J-237500D01*
G01*
X148389680Y-73097940D01*
G75*
G02*
X148152180Y-73335440I-237500J0D01*
G01*
X147677180Y-73335440D01*
G75*
G02*
X147439680Y-73097940I0J237500D01*
G01*
X147439680Y-72522940D01*
G75*
G02*
X147677180Y-72285440I237500J0D01*
G01*
G37*
G36*
G01*
X147677180Y-70535440D02*
X148152180Y-70535440D01*
G75*
G02*
X148389680Y-70772940I0J-237500D01*
G01*
X148389680Y-71347940D01*
G75*
G02*
X148152180Y-71585440I-237500J0D01*
G01*
X147677180Y-71585440D01*
G75*
G02*
X147439680Y-71347940I0J237500D01*
G01*
X147439680Y-70772940D01*
G75*
G02*
X147677180Y-70535440I237500J0D01*
G01*
G37*
%TD*%
%TO.C,C7*%
G36*
G01*
X156620540Y-66397520D02*
X156145540Y-66397520D01*
G75*
G02*
X155908040Y-66160020I0J237500D01*
G01*
X155908040Y-65585020D01*
G75*
G02*
X156145540Y-65347520I237500J0D01*
G01*
X156620540Y-65347520D01*
G75*
G02*
X156858040Y-65585020I0J-237500D01*
G01*
X156858040Y-66160020D01*
G75*
G02*
X156620540Y-66397520I-237500J0D01*
G01*
G37*
G36*
G01*
X156620540Y-68147520D02*
X156145540Y-68147520D01*
G75*
G02*
X155908040Y-67910020I0J237500D01*
G01*
X155908040Y-67335020D01*
G75*
G02*
X156145540Y-67097520I237500J0D01*
G01*
X156620540Y-67097520D01*
G75*
G02*
X156858040Y-67335020I0J-237500D01*
G01*
X156858040Y-67910020D01*
G75*
G02*
X156620540Y-68147520I-237500J0D01*
G01*
G37*
%TD*%
%TO.C,C6*%
G36*
G01*
X111578700Y-121433200D02*
X112053700Y-121433200D01*
G75*
G02*
X112291200Y-121670700I0J-237500D01*
G01*
X112291200Y-122245700D01*
G75*
G02*
X112053700Y-122483200I-237500J0D01*
G01*
X111578700Y-122483200D01*
G75*
G02*
X111341200Y-122245700I0J237500D01*
G01*
X111341200Y-121670700D01*
G75*
G02*
X111578700Y-121433200I237500J0D01*
G01*
G37*
G36*
G01*
X111578700Y-119683200D02*
X112053700Y-119683200D01*
G75*
G02*
X112291200Y-119920700I0J-237500D01*
G01*
X112291200Y-120495700D01*
G75*
G02*
X112053700Y-120733200I-237500J0D01*
G01*
X111578700Y-120733200D01*
G75*
G02*
X111341200Y-120495700I0J237500D01*
G01*
X111341200Y-119920700D01*
G75*
G02*
X111578700Y-119683200I237500J0D01*
G01*
G37*
%TD*%
%TO.C,C5*%
G36*
G01*
X145120160Y-93934420D02*
X145120160Y-93459420D01*
G75*
G02*
X145357660Y-93221920I237500J0D01*
G01*
X145932660Y-93221920D01*
G75*
G02*
X146170160Y-93459420I0J-237500D01*
G01*
X146170160Y-93934420D01*
G75*
G02*
X145932660Y-94171920I-237500J0D01*
G01*
X145357660Y-94171920D01*
G75*
G02*
X145120160Y-93934420I0J237500D01*
G01*
G37*
G36*
G01*
X143370160Y-93934420D02*
X143370160Y-93459420D01*
G75*
G02*
X143607660Y-93221920I237500J0D01*
G01*
X144182660Y-93221920D01*
G75*
G02*
X144420160Y-93459420I0J-237500D01*
G01*
X144420160Y-93934420D01*
G75*
G02*
X144182660Y-94171920I-237500J0D01*
G01*
X143607660Y-94171920D01*
G75*
G02*
X143370160Y-93934420I0J237500D01*
G01*
G37*
%TD*%
%TO.C,C4*%
G36*
G01*
X79882060Y-57291560D02*
X79407060Y-57291560D01*
G75*
G02*
X79169560Y-57054060I0J237500D01*
G01*
X79169560Y-56479060D01*
G75*
G02*
X79407060Y-56241560I237500J0D01*
G01*
X79882060Y-56241560D01*
G75*
G02*
X80119560Y-56479060I0J-237500D01*
G01*
X80119560Y-57054060D01*
G75*
G02*
X79882060Y-57291560I-237500J0D01*
G01*
G37*
G36*
G01*
X79882060Y-55541560D02*
X79407060Y-55541560D01*
G75*
G02*
X79169560Y-55304060I0J237500D01*
G01*
X79169560Y-54729060D01*
G75*
G02*
X79407060Y-54491560I237500J0D01*
G01*
X79882060Y-54491560D01*
G75*
G02*
X80119560Y-54729060I0J-237500D01*
G01*
X80119560Y-55304060D01*
G75*
G02*
X79882060Y-55541560I-237500J0D01*
G01*
G37*
%TD*%
%TO.C,C3*%
G36*
G01*
X132536240Y-69459720D02*
X133011240Y-69459720D01*
G75*
G02*
X133248740Y-69697220I0J-237500D01*
G01*
X133248740Y-70272220D01*
G75*
G02*
X133011240Y-70509720I-237500J0D01*
G01*
X132536240Y-70509720D01*
G75*
G02*
X132298740Y-70272220I0J237500D01*
G01*
X132298740Y-69697220D01*
G75*
G02*
X132536240Y-69459720I237500J0D01*
G01*
G37*
G36*
G01*
X132536240Y-67709720D02*
X133011240Y-67709720D01*
G75*
G02*
X133248740Y-67947220I0J-237500D01*
G01*
X133248740Y-68522220D01*
G75*
G02*
X133011240Y-68759720I-237500J0D01*
G01*
X132536240Y-68759720D01*
G75*
G02*
X132298740Y-68522220I0J237500D01*
G01*
X132298740Y-67947220D01*
G75*
G02*
X132536240Y-67709720I237500J0D01*
G01*
G37*
%TD*%
%TO.C,C2*%
G36*
G01*
X171547360Y-119570620D02*
X171547360Y-120045620D01*
G75*
G02*
X171309860Y-120283120I-237500J0D01*
G01*
X170734860Y-120283120D01*
G75*
G02*
X170497360Y-120045620I0J237500D01*
G01*
X170497360Y-119570620D01*
G75*
G02*
X170734860Y-119333120I237500J0D01*
G01*
X171309860Y-119333120D01*
G75*
G02*
X171547360Y-119570620I0J-237500D01*
G01*
G37*
G36*
G01*
X173297360Y-119570620D02*
X173297360Y-120045620D01*
G75*
G02*
X173059860Y-120283120I-237500J0D01*
G01*
X172484860Y-120283120D01*
G75*
G02*
X172247360Y-120045620I0J237500D01*
G01*
X172247360Y-119570620D01*
G75*
G02*
X172484860Y-119333120I237500J0D01*
G01*
X173059860Y-119333120D01*
G75*
G02*
X173297360Y-119570620I0J-237500D01*
G01*
G37*
%TD*%
%TO.C,C1*%
G36*
G01*
X121293400Y-56606560D02*
X121293400Y-57081560D01*
G75*
G02*
X121055900Y-57319060I-237500J0D01*
G01*
X120480900Y-57319060D01*
G75*
G02*
X120243400Y-57081560I0J237500D01*
G01*
X120243400Y-56606560D01*
G75*
G02*
X120480900Y-56369060I237500J0D01*
G01*
X121055900Y-56369060D01*
G75*
G02*
X121293400Y-56606560I0J-237500D01*
G01*
G37*
G36*
G01*
X119543400Y-56606560D02*
X119543400Y-57081560D01*
G75*
G02*
X119305900Y-57319060I-237500J0D01*
G01*
X118730900Y-57319060D01*
G75*
G02*
X118493400Y-57081560I0J237500D01*
G01*
X118493400Y-56606560D01*
G75*
G02*
X118730900Y-56369060I237500J0D01*
G01*
X119305900Y-56369060D01*
G75*
G02*
X119543400Y-56606560I0J-237500D01*
G01*
G37*
%TD*%
%TO.C,C17*%
G36*
G01*
X168475460Y-66240800D02*
X168475460Y-65765800D01*
G75*
G02*
X168712960Y-65528300I237500J0D01*
G01*
X169287960Y-65528300D01*
G75*
G02*
X169525460Y-65765800I0J-237500D01*
G01*
X169525460Y-66240800D01*
G75*
G02*
X169287960Y-66478300I-237500J0D01*
G01*
X168712960Y-66478300D01*
G75*
G02*
X168475460Y-66240800I0J237500D01*
G01*
G37*
G36*
G01*
X166725460Y-66240800D02*
X166725460Y-65765800D01*
G75*
G02*
X166962960Y-65528300I237500J0D01*
G01*
X167537960Y-65528300D01*
G75*
G02*
X167775460Y-65765800I0J-237500D01*
G01*
X167775460Y-66240800D01*
G75*
G02*
X167537960Y-66478300I-237500J0D01*
G01*
X166962960Y-66478300D01*
G75*
G02*
X166725460Y-66240800I0J237500D01*
G01*
G37*
%TD*%
%TO.C,C24*%
G36*
G01*
X177782240Y-68045300D02*
X177782240Y-69295300D01*
G75*
G02*
X177532240Y-69545300I-250000J0D01*
G01*
X176607240Y-69545300D01*
G75*
G02*
X176357240Y-69295300I0J250000D01*
G01*
X176357240Y-68045300D01*
G75*
G02*
X176607240Y-67795300I250000J0D01*
G01*
X177532240Y-67795300D01*
G75*
G02*
X177782240Y-68045300I0J-250000D01*
G01*
G37*
G36*
G01*
X180757240Y-68045300D02*
X180757240Y-69295300D01*
G75*
G02*
X180507240Y-69545300I-250000J0D01*
G01*
X179582240Y-69545300D01*
G75*
G02*
X179332240Y-69295300I0J250000D01*
G01*
X179332240Y-68045300D01*
G75*
G02*
X179582240Y-67795300I250000J0D01*
G01*
X180507240Y-67795300D01*
G75*
G02*
X180757240Y-68045300I0J-250000D01*
G01*
G37*
%TD*%
D28*
%TO.C,D13*%
X174574540Y-73818880D03*
X179974540Y-73818880D03*
%TD*%
D29*
%TO.C,L1*%
X168186420Y-68954180D03*
X168186420Y-73324180D03*
%TD*%
%TO.C,R48*%
G36*
G01*
X178387580Y-65933440D02*
X178387580Y-66408440D01*
G75*
G02*
X178150080Y-66645940I-237500J0D01*
G01*
X177575080Y-66645940D01*
G75*
G02*
X177337580Y-66408440I0J237500D01*
G01*
X177337580Y-65933440D01*
G75*
G02*
X177575080Y-65695940I237500J0D01*
G01*
X178150080Y-65695940D01*
G75*
G02*
X178387580Y-65933440I0J-237500D01*
G01*
G37*
G36*
G01*
X180137580Y-65933440D02*
X180137580Y-66408440D01*
G75*
G02*
X179900080Y-66645940I-237500J0D01*
G01*
X179325080Y-66645940D01*
G75*
G02*
X179087580Y-66408440I0J237500D01*
G01*
X179087580Y-65933440D01*
G75*
G02*
X179325080Y-65695940I237500J0D01*
G01*
X179900080Y-65695940D01*
G75*
G02*
X180137580Y-65933440I0J-237500D01*
G01*
G37*
%TD*%
%TO.C,R54*%
G36*
G01*
X175014400Y-65928360D02*
X175014400Y-66403360D01*
G75*
G02*
X174776900Y-66640860I-237500J0D01*
G01*
X174201900Y-66640860D01*
G75*
G02*
X173964400Y-66403360I0J237500D01*
G01*
X173964400Y-65928360D01*
G75*
G02*
X174201900Y-65690860I237500J0D01*
G01*
X174776900Y-65690860D01*
G75*
G02*
X175014400Y-65928360I0J-237500D01*
G01*
G37*
G36*
G01*
X173264400Y-65928360D02*
X173264400Y-66403360D01*
G75*
G02*
X173026900Y-66640860I-237500J0D01*
G01*
X172451900Y-66640860D01*
G75*
G02*
X172214400Y-66403360I0J237500D01*
G01*
X172214400Y-65928360D01*
G75*
G02*
X172451900Y-65690860I237500J0D01*
G01*
X173026900Y-65690860D01*
G75*
G02*
X173264400Y-65928360I0J-237500D01*
G01*
G37*
%TD*%
D30*
%TO.C,U13*%
X172052120Y-69445000D03*
X172052120Y-70395000D03*
X172052120Y-68495000D03*
X174252120Y-68495000D03*
X174252120Y-69445000D03*
X174252120Y-70395000D03*
%TD*%
%TO.C,C25*%
G36*
G01*
X134371920Y-60513080D02*
X134371920Y-60988080D01*
G75*
G02*
X134134420Y-61225580I-237500J0D01*
G01*
X133559420Y-61225580D01*
G75*
G02*
X133321920Y-60988080I0J237500D01*
G01*
X133321920Y-60513080D01*
G75*
G02*
X133559420Y-60275580I237500J0D01*
G01*
X134134420Y-60275580D01*
G75*
G02*
X134371920Y-60513080I0J-237500D01*
G01*
G37*
G36*
G01*
X136121920Y-60513080D02*
X136121920Y-60988080D01*
G75*
G02*
X135884420Y-61225580I-237500J0D01*
G01*
X135309420Y-61225580D01*
G75*
G02*
X135071920Y-60988080I0J237500D01*
G01*
X135071920Y-60513080D01*
G75*
G02*
X135309420Y-60275580I237500J0D01*
G01*
X135884420Y-60275580D01*
G75*
G02*
X136121920Y-60513080I0J-237500D01*
G01*
G37*
%TD*%
%TO.C,C26*%
G36*
G01*
X141657400Y-60687540D02*
X141182400Y-60687540D01*
G75*
G02*
X140944900Y-60450040I0J237500D01*
G01*
X140944900Y-59875040D01*
G75*
G02*
X141182400Y-59637540I237500J0D01*
G01*
X141657400Y-59637540D01*
G75*
G02*
X141894900Y-59875040I0J-237500D01*
G01*
X141894900Y-60450040D01*
G75*
G02*
X141657400Y-60687540I-237500J0D01*
G01*
G37*
G36*
G01*
X141657400Y-58937540D02*
X141182400Y-58937540D01*
G75*
G02*
X140944900Y-58700040I0J237500D01*
G01*
X140944900Y-58125040D01*
G75*
G02*
X141182400Y-57887540I237500J0D01*
G01*
X141657400Y-57887540D01*
G75*
G02*
X141894900Y-58125040I0J-237500D01*
G01*
X141894900Y-58700040D01*
G75*
G02*
X141657400Y-58937540I-237500J0D01*
G01*
G37*
%TD*%
%TO.C,C27*%
G36*
G01*
X134371920Y-58006100D02*
X134371920Y-58481100D01*
G75*
G02*
X134134420Y-58718600I-237500J0D01*
G01*
X133559420Y-58718600D01*
G75*
G02*
X133321920Y-58481100I0J237500D01*
G01*
X133321920Y-58006100D01*
G75*
G02*
X133559420Y-57768600I237500J0D01*
G01*
X134134420Y-57768600D01*
G75*
G02*
X134371920Y-58006100I0J-237500D01*
G01*
G37*
G36*
G01*
X136121920Y-58006100D02*
X136121920Y-58481100D01*
G75*
G02*
X135884420Y-58718600I-237500J0D01*
G01*
X135309420Y-58718600D01*
G75*
G02*
X135071920Y-58481100I0J237500D01*
G01*
X135071920Y-58006100D01*
G75*
G02*
X135309420Y-57768600I237500J0D01*
G01*
X135884420Y-57768600D01*
G75*
G02*
X136121920Y-58006100I0J-237500D01*
G01*
G37*
%TD*%
%TO.C,U14*%
X139550321Y-59425981D03*
X139550321Y-58475981D03*
X139550321Y-60375981D03*
X137350321Y-60375981D03*
X137350321Y-59425981D03*
X137350321Y-58475981D03*
%TD*%
%TO.C,C28*%
G36*
G01*
X174936480Y-147842560D02*
X174461480Y-147842560D01*
G75*
G02*
X174223980Y-147605060I0J237500D01*
G01*
X174223980Y-147030060D01*
G75*
G02*
X174461480Y-146792560I237500J0D01*
G01*
X174936480Y-146792560D01*
G75*
G02*
X175173980Y-147030060I0J-237500D01*
G01*
X175173980Y-147605060D01*
G75*
G02*
X174936480Y-147842560I-237500J0D01*
G01*
G37*
G36*
G01*
X174936480Y-146092560D02*
X174461480Y-146092560D01*
G75*
G02*
X174223980Y-145855060I0J237500D01*
G01*
X174223980Y-145280060D01*
G75*
G02*
X174461480Y-145042560I237500J0D01*
G01*
X174936480Y-145042560D01*
G75*
G02*
X175173980Y-145280060I0J-237500D01*
G01*
X175173980Y-145855060D01*
G75*
G02*
X174936480Y-146092560I-237500J0D01*
G01*
G37*
%TD*%
%TO.C,R1*%
G36*
G01*
X177049000Y-139372460D02*
X177049000Y-139847460D01*
G75*
G02*
X176811500Y-140084960I-237500J0D01*
G01*
X176236500Y-140084960D01*
G75*
G02*
X175999000Y-139847460I0J237500D01*
G01*
X175999000Y-139372460D01*
G75*
G02*
X176236500Y-139134960I237500J0D01*
G01*
X176811500Y-139134960D01*
G75*
G02*
X177049000Y-139372460I0J-237500D01*
G01*
G37*
G36*
G01*
X178799000Y-139372460D02*
X178799000Y-139847460D01*
G75*
G02*
X178561500Y-140084960I-237500J0D01*
G01*
X177986500Y-140084960D01*
G75*
G02*
X177749000Y-139847460I0J237500D01*
G01*
X177749000Y-139372460D01*
G75*
G02*
X177986500Y-139134960I237500J0D01*
G01*
X178561500Y-139134960D01*
G75*
G02*
X178799000Y-139372460I0J-237500D01*
G01*
G37*
%TD*%
%TO.C,R2*%
G36*
G01*
X178781220Y-140924400D02*
X178781220Y-141399400D01*
G75*
G02*
X178543720Y-141636900I-237500J0D01*
G01*
X177968720Y-141636900D01*
G75*
G02*
X177731220Y-141399400I0J237500D01*
G01*
X177731220Y-140924400D01*
G75*
G02*
X177968720Y-140686900I237500J0D01*
G01*
X178543720Y-140686900D01*
G75*
G02*
X178781220Y-140924400I0J-237500D01*
G01*
G37*
G36*
G01*
X177031220Y-140924400D02*
X177031220Y-141399400D01*
G75*
G02*
X176793720Y-141636900I-237500J0D01*
G01*
X176218720Y-141636900D01*
G75*
G02*
X175981220Y-141399400I0J237500D01*
G01*
X175981220Y-140924400D01*
G75*
G02*
X176218720Y-140686900I237500J0D01*
G01*
X176793720Y-140686900D01*
G75*
G02*
X177031220Y-140924400I0J-237500D01*
G01*
G37*
%TD*%
%TO.C,R3*%
G36*
G01*
X178649140Y-147078820D02*
X178649140Y-147553820D01*
G75*
G02*
X178411640Y-147791320I-237500J0D01*
G01*
X177836640Y-147791320D01*
G75*
G02*
X177599140Y-147553820I0J237500D01*
G01*
X177599140Y-147078820D01*
G75*
G02*
X177836640Y-146841320I237500J0D01*
G01*
X178411640Y-146841320D01*
G75*
G02*
X178649140Y-147078820I0J-237500D01*
G01*
G37*
G36*
G01*
X176899140Y-147078820D02*
X176899140Y-147553820D01*
G75*
G02*
X176661640Y-147791320I-237500J0D01*
G01*
X176086640Y-147791320D01*
G75*
G02*
X175849140Y-147553820I0J237500D01*
G01*
X175849140Y-147078820D01*
G75*
G02*
X176086640Y-146841320I237500J0D01*
G01*
X176661640Y-146841320D01*
G75*
G02*
X176899140Y-147078820I0J-237500D01*
G01*
G37*
%TD*%
%TO.C,R4*%
G36*
G01*
X176914380Y-145326220D02*
X176914380Y-145801220D01*
G75*
G02*
X176676880Y-146038720I-237500J0D01*
G01*
X176101880Y-146038720D01*
G75*
G02*
X175864380Y-145801220I0J237500D01*
G01*
X175864380Y-145326220D01*
G75*
G02*
X176101880Y-145088720I237500J0D01*
G01*
X176676880Y-145088720D01*
G75*
G02*
X176914380Y-145326220I0J-237500D01*
G01*
G37*
G36*
G01*
X178664380Y-145326220D02*
X178664380Y-145801220D01*
G75*
G02*
X178426880Y-146038720I-237500J0D01*
G01*
X177851880Y-146038720D01*
G75*
G02*
X177614380Y-145801220I0J237500D01*
G01*
X177614380Y-145326220D01*
G75*
G02*
X177851880Y-145088720I237500J0D01*
G01*
X178426880Y-145088720D01*
G75*
G02*
X178664380Y-145326220I0J-237500D01*
G01*
G37*
%TD*%
%TO.C,U8*%
G36*
G01*
X171173600Y-143781320D02*
X170873600Y-143781320D01*
G75*
G02*
X170723600Y-143631320I0J150000D01*
G01*
X170723600Y-142181320D01*
G75*
G02*
X170873600Y-142031320I150000J0D01*
G01*
X171173600Y-142031320D01*
G75*
G02*
X171323600Y-142181320I0J-150000D01*
G01*
X171323600Y-143631320D01*
G75*
G02*
X171173600Y-143781320I-150000J0D01*
G01*
G37*
G36*
G01*
X172443600Y-143781320D02*
X172143600Y-143781320D01*
G75*
G02*
X171993600Y-143631320I0J150000D01*
G01*
X171993600Y-142181320D01*
G75*
G02*
X172143600Y-142031320I150000J0D01*
G01*
X172443600Y-142031320D01*
G75*
G02*
X172593600Y-142181320I0J-150000D01*
G01*
X172593600Y-143631320D01*
G75*
G02*
X172443600Y-143781320I-150000J0D01*
G01*
G37*
G36*
G01*
X173713600Y-143781320D02*
X173413600Y-143781320D01*
G75*
G02*
X173263600Y-143631320I0J150000D01*
G01*
X173263600Y-142181320D01*
G75*
G02*
X173413600Y-142031320I150000J0D01*
G01*
X173713600Y-142031320D01*
G75*
G02*
X173863600Y-142181320I0J-150000D01*
G01*
X173863600Y-143631320D01*
G75*
G02*
X173713600Y-143781320I-150000J0D01*
G01*
G37*
G36*
G01*
X174983600Y-143781320D02*
X174683600Y-143781320D01*
G75*
G02*
X174533600Y-143631320I0J150000D01*
G01*
X174533600Y-142181320D01*
G75*
G02*
X174683600Y-142031320I150000J0D01*
G01*
X174983600Y-142031320D01*
G75*
G02*
X175133600Y-142181320I0J-150000D01*
G01*
X175133600Y-143631320D01*
G75*
G02*
X174983600Y-143781320I-150000J0D01*
G01*
G37*
G36*
G01*
X174983600Y-138631320D02*
X174683600Y-138631320D01*
G75*
G02*
X174533600Y-138481320I0J150000D01*
G01*
X174533600Y-137031320D01*
G75*
G02*
X174683600Y-136881320I150000J0D01*
G01*
X174983600Y-136881320D01*
G75*
G02*
X175133600Y-137031320I0J-150000D01*
G01*
X175133600Y-138481320D01*
G75*
G02*
X174983600Y-138631320I-150000J0D01*
G01*
G37*
G36*
G01*
X173713600Y-138631320D02*
X173413600Y-138631320D01*
G75*
G02*
X173263600Y-138481320I0J150000D01*
G01*
X173263600Y-137031320D01*
G75*
G02*
X173413600Y-136881320I150000J0D01*
G01*
X173713600Y-136881320D01*
G75*
G02*
X173863600Y-137031320I0J-150000D01*
G01*
X173863600Y-138481320D01*
G75*
G02*
X173713600Y-138631320I-150000J0D01*
G01*
G37*
G36*
G01*
X172443600Y-138631320D02*
X172143600Y-138631320D01*
G75*
G02*
X171993600Y-138481320I0J150000D01*
G01*
X171993600Y-137031320D01*
G75*
G02*
X172143600Y-136881320I150000J0D01*
G01*
X172443600Y-136881320D01*
G75*
G02*
X172593600Y-137031320I0J-150000D01*
G01*
X172593600Y-138481320D01*
G75*
G02*
X172443600Y-138631320I-150000J0D01*
G01*
G37*
G36*
G01*
X171173600Y-138631320D02*
X170873600Y-138631320D01*
G75*
G02*
X170723600Y-138481320I0J150000D01*
G01*
X170723600Y-137031320D01*
G75*
G02*
X170873600Y-136881320I150000J0D01*
G01*
X171173600Y-136881320D01*
G75*
G02*
X171323600Y-137031320I0J-150000D01*
G01*
X171323600Y-138481320D01*
G75*
G02*
X171173600Y-138631320I-150000J0D01*
G01*
G37*
%TD*%
%TO.C,D17*%
G36*
G01*
X178755820Y-137746860D02*
X178755820Y-138221860D01*
G75*
G02*
X178518320Y-138459360I-237500J0D01*
G01*
X177943320Y-138459360D01*
G75*
G02*
X177705820Y-138221860I0J237500D01*
G01*
X177705820Y-137746860D01*
G75*
G02*
X177943320Y-137509360I237500J0D01*
G01*
X178518320Y-137509360D01*
G75*
G02*
X178755820Y-137746860I0J-237500D01*
G01*
G37*
G36*
G01*
X177005820Y-137746860D02*
X177005820Y-138221860D01*
G75*
G02*
X176768320Y-138459360I-237500J0D01*
G01*
X176193320Y-138459360D01*
G75*
G02*
X175955820Y-138221860I0J237500D01*
G01*
X175955820Y-137746860D01*
G75*
G02*
X176193320Y-137509360I237500J0D01*
G01*
X176768320Y-137509360D01*
G75*
G02*
X177005820Y-137746860I0J-237500D01*
G01*
G37*
%TD*%
%TO.C,D18*%
G36*
G01*
X177023600Y-142577940D02*
X177023600Y-143052940D01*
G75*
G02*
X176786100Y-143290440I-237500J0D01*
G01*
X176211100Y-143290440D01*
G75*
G02*
X175973600Y-143052940I0J237500D01*
G01*
X175973600Y-142577940D01*
G75*
G02*
X176211100Y-142340440I237500J0D01*
G01*
X176786100Y-142340440D01*
G75*
G02*
X177023600Y-142577940I0J-237500D01*
G01*
G37*
G36*
G01*
X178773600Y-142577940D02*
X178773600Y-143052940D01*
G75*
G02*
X178536100Y-143290440I-237500J0D01*
G01*
X177961100Y-143290440D01*
G75*
G02*
X177723600Y-143052940I0J237500D01*
G01*
X177723600Y-142577940D01*
G75*
G02*
X177961100Y-142340440I237500J0D01*
G01*
X178536100Y-142340440D01*
G75*
G02*
X178773600Y-142577940I0J-237500D01*
G01*
G37*
%TD*%
M02*
