M48
; DRILL file {KiCad 5.1.9} date Thu Apr 22 13:54:45 2021
; FORMAT={-:-/ absolute / inch / decimal}
; #@! TF.CreationDate,2021-04-22T13:54:45+02:00
; #@! TF.GenerationSoftware,Kicad,Pcbnew,5.1.9
; #@! TF.FileFunction,Plated,1,2,PTH
FMAT,2
INCH
T1C0.0157
T2C0.0197
T3C0.0300
T4C0.0315
T5C0.0354
T6C0.0390
T7C0.0394
T8C0.0469
T9C0.0472
T10C0.0512
T11C0.0591
T12C0.0984
T13C0.1260
%
G90
G05
T1
X2.0298Y-4.9858
X2.1063Y-3.2214
X2.1513Y-5.0368
X2.1541Y-3.1673
X2.1948Y-3.089
X2.2472Y-4.9444
X2.2494Y-4.6224
X2.2638Y-3.016
X2.2876Y-4.9196
X2.3122Y-4.7562
X2.3848Y-5.1318
X2.4547Y-4.2983
X2.4641Y-4.0166
X2.5088Y-3.0249
X2.515Y-3.7037
X2.5531Y-4.9122
X2.5588Y-3.6218
X2.5687Y-4.2576
X2.5702Y-3.8068
X2.5767Y-3.0983
X2.5859Y-4.2217
X2.5954Y-3.7352
X2.6082Y-3.0738
X2.6115Y-3.8139
X2.6161Y-5.0814
X2.629Y-4.0435
X2.6415Y-3.1018
X2.6418Y-3.902
X2.6521Y-4.4141
X2.673Y-3.0761
X2.7005Y-4.0984
X2.7076Y-3.1327
X2.7092Y-4.3941
X2.7132Y-4.7378
X2.7467Y-3.4595
X2.7794Y-5.2893
X2.7917Y-4.9293
X2.7927Y-4.8678
X2.7963Y-4.8077
X2.8032Y-3.9456
X2.8077Y-4.4931
X2.8133Y-4.3874
X2.8492Y-4.0641
X2.8541Y-3.2093
X2.8573Y-4.8689
X2.8577Y-4.9296
X2.87Y-4.3874
X2.9169Y-3.7773
X2.9182Y-3.6895
X2.9202Y-3.6037
X2.9208Y-3.5205
X2.9722Y-4.394
X2.9723Y-3.9569
X2.9773Y-4.8997
X2.997Y-4.5903
X3.0005Y-4.6826
X3.0079Y-3.6024
X3.0086Y-3.5198
X3.0318Y-4.0419
X3.0592Y-4.2591
X3.0616Y-4.8955
X3.0629Y-4.8265
X3.0636Y-3.8234
X3.0636Y-4.7604
X3.0673Y-4.4902
X3.0678Y-4.3935
X3.0693Y-4.683
X3.0728Y-4.5937
X3.1112Y-3.8668
X3.1113Y-3.6011
X3.1119Y-3.5205
X3.1192Y-3.3591
X3.1392Y-3.1841
X3.1404Y-4.8286
X3.1408Y-4.8972
X3.1417Y-4.7607
X3.1418Y-4.4932
X3.1426Y-4.592
X3.1428Y-4.6826
X3.1445Y-4.3925
X3.1652Y-5.2557
X3.1878Y-2.1669
X3.1882Y-2.2359
X3.2084Y-3.8356
X3.2553Y-4.0761
X3.2622Y-3.9425
X3.2701Y-3.3135
X3.2791Y-4.7167
X3.2888Y-4.0086
X3.3142Y-3.0861
X3.3142Y-4.2041
X3.328Y-3.5079
X3.3457Y-2.584
X3.3592Y-4.2591
X3.3604Y-3.5992
X3.4098Y-4.0101
X3.434Y-3.89
X3.4392Y-4.2691
X3.4948Y-2.2259
X3.5363Y-2.1889
X3.5392Y-3.3541
X3.5406Y-4.288
X3.5742Y-4.2336
X3.5786Y-2.1873
X3.5892Y-4.5491
X3.6228Y-2.1893
X3.6242Y-4.6591
X3.6623Y-3.1183
X3.6632Y-4.0101
X3.6742Y-4.8141
X3.7431Y-4.3902
X3.7656Y-2.5315
X3.7692Y-3.1341
X3.7992Y-3.5441
X3.8092Y-4.1441
X3.8334Y-3.8455
X3.8745Y-2.2622
X3.8745Y-2.798
X3.8747Y-2.4936
X3.8787Y-3.0232
X3.8801Y-5.2232
X3.8835Y-4.7633
X3.8837Y-4.9486
X3.8838Y-4.2554
X3.8842Y-4.4991
X3.8936Y-4.0977
X3.8999Y-4.3058
X3.9171Y-5.1917
X3.9264Y-4.3449
X3.931Y-2.537
X3.9313Y-2.2449
X3.9458Y-3.9904
X3.979Y-4.4217
X3.9994Y-4.9693
X4.02Y-2.9917
X4.0824Y-4.6243
X4.1395Y-4.2942
X4.1828Y-3.4706
X4.1903Y-3.7252
X4.204Y-5.2499
X4.2349Y-3.79
X4.2473Y-4.0174
X4.2642Y-4.3391
X4.2692Y-4.8141
X4.3842Y-3.1841
X4.5228Y-4.2313
X4.5542Y-3.1841
X4.6489Y-2.9692
X4.6774Y-2.9963
X4.6883Y-3.9687
X4.7042Y-3.1341
X4.7046Y-3.0248
X4.7542Y-2.4491
X4.7678Y-4.1094
X4.8142Y-3.1841
X4.8243Y-4.636
X4.8385Y-3.9451
X4.8665Y-3.0312
X4.8756Y-2.8642
X4.9193Y-3.909
X4.9222Y-4.6107
X4.956Y-2.6021
X4.9564Y-4.8771
X4.9783Y-4.0
X5.042Y-2.6048
X5.051Y-3.0322
X5.0512Y-4.5453
X5.072Y-3.0664
X5.1008Y-4.6665
X5.1437Y-2.6079
X5.1792Y-3.1841
X5.1954Y-4.8314
X5.211Y-2.8324
X5.2689Y-4.0685
X5.269Y-3.9084
X5.2707Y-2.3396
X5.2806Y-4.8353
X5.2941Y-2.798
X5.3042Y-2.4491
X5.3119Y-2.2397
X5.3508Y-2.3396
X5.3715Y-2.5825
X5.4022Y-2.5546
X5.4022Y-2.8428
X5.4324Y-2.5293
X5.48Y-4.9011
X5.5022Y-2.9062
X5.5722Y-4.6751
X5.6247Y-3.9541
X5.6548Y-5.2275
X5.674Y-2.3505
X5.7242Y-4.5871
X5.7392Y-3.1841
X5.7752Y-2.3515
X5.8271Y-4.537
X5.8735Y-4.4623
X5.874Y-2.3517
X5.9572Y-4.8951
X5.9701Y-5.3831
X5.9746Y-2.3523
X5.9815Y-2.818
X6.0528Y-4.6675
X6.0542Y-4.4781
X6.055Y-5.3485
X6.0797Y-2.8275
X6.1425Y-2.8177
X6.1496Y-5.1027
X6.1807Y-4.9209
X6.2106Y-4.9465
X6.2148Y-4.35
X6.2179Y-4.9852
X6.2446Y-3.0265
X6.2476Y-4.3718
X6.2582Y-4.9894
X6.2615Y-5.0306
X6.2619Y-4.4085
X6.2844Y-5.0626
X6.2948Y-5.1342
X6.2952Y-4.4295
X6.3092Y-3.1841
X6.3106Y-4.5007
X6.3126Y-4.2391
X6.334Y-4.5391
X6.3558Y-2.9816
X6.3618Y-4.5731
X6.39Y-3.6392
X6.4091Y-5.4978
X6.425Y-5.1537
X6.4313Y-5.5303
X6.4334Y-2.94
X6.4397Y-5.4088
X6.4492Y-4.8901
X6.4842Y-3.3591
X6.5012Y-2.9806
X6.5028Y-4.2725
X6.505Y-3.4755
X6.5444Y-4.6675
X6.5452Y-4.4661
X6.5582Y-4.1981
X6.5652Y-4.2503
X6.6296Y-5.4321
X6.6422Y-5.1613
X6.6536Y-2.497
X6.6536Y-2.5417
X6.6624Y-5.3927
X6.6651Y-3.4745
X6.6754Y-4.3059
X6.6772Y-4.5561
X6.718Y-2.4864
X6.7204Y-4.2055
X6.7288Y-5.4965
X6.7336Y-4.7627
X6.7342Y-5.5641
X6.763Y-2.647
X6.778Y-5.5128
X6.812Y-2.6473
X6.8202Y-3.7083
X6.8384Y-5.2637
X6.8602Y-4.4541
X6.8682Y-4.5253
X6.8689Y-4.2931
X6.8742Y-3.3591
X6.8742Y-4.6059
X6.8832Y-5.3632
X6.8838Y-3.5851
X6.9127Y-2.677
X6.9127Y-2.7315
X6.9178Y-4.2521
X6.933Y-3.6301
X6.9412Y-4.8971
X6.9496Y-4.1139
X6.983Y-3.5189
X6.9836Y-3.7212
X7.0042Y-4.1091
X7.0328Y-4.4923
X7.0335Y-4.3161
X7.0552Y-4.4486
X7.0552Y-4.4093
X7.0636Y-3.9589
X7.1621Y-4.3399
X7.1982Y-4.6471
X7.2061Y-4.9781
X7.2384Y-4.8557
X7.2597Y-3.986
X7.2792Y-3.3591
X7.2897Y-4.9566
X7.2907Y-4.3666
X7.2916Y-5.1431
X7.2925Y-5.5458
X7.5205Y-3.9783
X7.5892Y-3.5191
X7.6592Y-5.5391
X7.7461Y-2.6909
X7.7822Y-4.6733
X7.783Y-5.1433
X7.7837Y-4.3686
X7.7847Y-4.9586
X7.7847Y-5.5467
T2
X2.0315Y-2.126
X2.0315Y-5.748
X2.0592Y-2.0592
X2.0592Y-2.1928
X2.0592Y-5.6812
X2.0592Y-5.8148
X2.126Y-2.0315
X2.126Y-2.2205
X2.126Y-5.6535
X2.126Y-5.8425
X2.1928Y-2.0592
X2.1928Y-2.1928
X2.1928Y-5.6812
X2.1928Y-5.8148
X2.2205Y-2.126
X2.2205Y-5.748
X8.0157Y-2.126
X8.0157Y-5.748
X8.0434Y-2.0592
X8.0434Y-2.1928
X8.0434Y-5.6812
X8.0434Y-5.8148
X8.1102Y-2.0315
X8.1102Y-2.2205
X8.1102Y-5.6535
X8.1102Y-5.8425
X8.177Y-2.0592
X8.177Y-2.1928
X8.177Y-5.6812
X8.177Y-5.8148
X8.2047Y-2.126
X8.2047Y-5.748
T3
X4.5242Y-4.7091
X4.5242Y-4.8091
X4.6242Y-4.7091
X4.6242Y-4.8091
X4.7242Y-4.7091
X4.7242Y-4.8091
X4.8242Y-4.7091
X4.8242Y-4.8091
X5.7962Y-3.9451
X5.7962Y-4.0238
X5.7962Y-4.1025
X5.7962Y-4.1813
X6.0962Y-3.9451
X6.0962Y-4.0238
X6.0962Y-4.1025
X6.0962Y-4.1813
X6.3962Y-3.9451
X6.3962Y-4.0238
X6.3962Y-4.1025
X6.3962Y-4.1813
T4
X4.0242Y-2.2341
X4.1242Y-2.1341
X4.2242Y-2.2341
X4.3161Y-3.8297
X4.3161Y-3.9085
X4.3161Y-3.9872
X4.3161Y-4.0659
X4.3161Y-4.1447
X4.3161Y-4.2234
X4.3161Y-4.3022
X4.3161Y-4.3809
X4.3161Y-4.4596
X4.3161Y-4.5384
X5.1823Y-3.8297
X5.1823Y-3.9085
X5.1823Y-3.9872
X5.1823Y-4.0659
X5.1823Y-4.1447
X5.1823Y-4.2234
X5.1823Y-4.3022
X5.1823Y-4.3809
X5.1823Y-4.4596
X5.1823Y-4.5384
X7.1273Y-4.7636
X7.1273Y-4.8636
X7.1273Y-4.9636
X7.1273Y-5.0636
X7.1273Y-5.1636
X7.1273Y-5.2636
X7.1273Y-5.3636
X7.1273Y-5.4636
X7.1273Y-5.5636
T5
X7.4807Y-4.1556
X7.4807Y-4.7603
X7.4807Y-5.3508
X7.5807Y-4.1556
X7.5807Y-4.7603
X7.5807Y-5.3508
T6
X2.0742Y-4.2819
X2.0742Y-4.4591
X2.0742Y-4.6819
X2.0742Y-4.8591
T7
X2.3031Y-3.4449
X2.3031Y-3.5449
X2.3031Y-3.6449
X2.3031Y-3.7449
X2.3031Y-3.8449
X2.3031Y-3.9449
X2.3031Y-4.0449
X2.3031Y-4.1449
X2.3031Y-4.2449
X2.3031Y-4.3449
X2.4031Y-3.4449
X2.4031Y-3.5449
X2.4031Y-3.6449
X2.4031Y-3.7449
X2.4031Y-3.8449
X2.4031Y-3.9449
X2.4031Y-4.0449
X2.4031Y-4.1449
X2.4031Y-4.2449
X2.4031Y-4.3449
X4.0031Y-3.4449
X4.0031Y-3.5449
X4.0031Y-3.6449
X4.0031Y-3.7449
X4.0031Y-3.8449
X4.0031Y-3.9449
X4.0031Y-4.0449
X4.0031Y-4.1449
X4.0031Y-4.2449
X4.0031Y-4.3449
X4.1031Y-3.4449
X4.1031Y-3.5449
X4.1031Y-3.6449
X4.1031Y-3.7449
X4.1031Y-3.8449
X4.1031Y-3.9449
X4.1031Y-4.0449
X4.1031Y-4.1449
X4.1031Y-4.2449
X4.1031Y-4.3449
X5.353Y-3.5862
X5.353Y-3.6862
X5.353Y-3.7862
X5.353Y-3.8862
X5.353Y-3.9862
X5.353Y-4.0862
X5.353Y-4.1862
X5.353Y-4.2862
X5.353Y-4.3862
X5.353Y-4.4862
X5.353Y-4.5862
X5.353Y-4.6862
X5.353Y-4.7862
X5.453Y-3.5862
X5.453Y-3.6862
X5.453Y-3.7862
X5.453Y-3.8862
X5.453Y-3.9862
X5.453Y-4.0862
X5.453Y-4.1862
X5.453Y-4.2862
X5.453Y-4.3862
X5.453Y-4.4862
X5.453Y-4.5862
X5.453Y-4.6862
X5.453Y-4.7862
X5.553Y-3.5862
X5.553Y-3.6862
X5.553Y-3.7862
X5.553Y-3.8862
X5.553Y-4.0862
X5.553Y-4.1862
X5.553Y-4.2862
X5.553Y-4.3862
X6.5992Y-3.5591
X6.5992Y-3.6591
X6.5992Y-3.7591
X6.5992Y-3.8591
X6.5992Y-3.9591
X6.6992Y-3.5591
X6.6992Y-3.6591
X6.6992Y-3.7591
X6.6992Y-3.8591
X6.6992Y-3.9591
X7.1213Y-5.7154
X7.1213Y-5.8154
X7.7242Y-3.0872
X7.7242Y-3.1856
X7.7242Y-3.2841
T8
X7.8337Y-3.6354
X7.9337Y-3.6354
X8.0337Y-3.6354
X8.1337Y-3.6354
T9
X4.6742Y-2.1091
X4.7742Y-2.1091
X4.8742Y-2.1091
X4.9742Y-2.1091
X5.0742Y-2.1091
X5.1742Y-2.1091
X5.2742Y-2.1091
X5.3742Y-2.1091
X5.4742Y-2.1091
X5.5742Y-2.1091
X5.6742Y-2.1091
X5.7742Y-2.1091
X5.8742Y-2.1091
X5.9742Y-2.1091
X6.0742Y-2.1091
X6.1742Y-2.1091
T10
X2.1722Y-4.2323
X2.1722Y-4.5083
X2.1722Y-4.6323
X2.1722Y-4.9083
X7.9742Y-2.5341
X7.9742Y-2.7341
T11
X2.049Y-2.4242
X2.049Y-2.9439
X2.4242Y-2.499
X2.4242Y-2.6841
X2.4242Y-2.8691
T12
X4.4577Y-2.1091
X4.4577Y-3.3296
X7.4104Y-3.3296
X7.4104Y-2.1091
T13
X2.126Y-2.126
X2.126Y-5.748
X8.0709Y-3.937
X8.0709Y-4.2913
X8.0709Y-4.6457
X8.0709Y-5.0
X8.0709Y-5.3543
X8.1102Y-2.126
X8.1102Y-5.748
T0
M30
