%TF.GenerationSoftware,KiCad,Pcbnew,5.1.9*%
%TF.CreationDate,2021-04-22T13:54:56+02:00*%
%TF.ProjectId,MCT_Labor_5529,4d43545f-4c61-4626-9f72-5f353532392e,rev?*%
%TF.SameCoordinates,Original*%
%TF.FileFunction,Soldermask,Top*%
%TF.FilePolarity,Negative*%
%FSLAX46Y46*%
G04 Gerber Fmt 4.6, Leading zero omitted, Abs format (unit mm)*
G04 Created by KiCad (PCBNEW 5.1.9) date 2021-04-22 13:54:56*
%MOMM*%
%LPD*%
G01*
G04 APERTURE LIST*
%ADD10C,0.010000*%
%ADD11O,1.740000X2.190000*%
%ADD12C,6.400000*%
%ADD13C,0.800000*%
%ADD14C,1.500000*%
%ADD15C,2.390000*%
%ADD16C,3.450000*%
%ADD17R,7.340000X6.350000*%
%ADD18C,1.524000*%
%ADD19R,1.524000X1.524000*%
%ADD20C,2.540000*%
%ADD21O,3.810000X2.000000*%
%ADD22C,2.100000*%
%ADD23C,1.750000*%
%ADD24C,1.800000*%
%ADD25R,1.800000X1.800000*%
%ADD26C,6.500000*%
%ADD27C,3.000000*%
%ADD28O,1.800000X2.600000*%
%ADD29R,1.800000X2.600000*%
%ADD30O,2.000000X1.200000*%
%ADD31R,0.600000X2.200000*%
%ADD32R,3.450000X2.150000*%
%ADD33R,0.650000X1.060000*%
%ADD34R,2.500000X1.000000*%
%ADD35R,1.000000X1.800000*%
%ADD36R,2.500000X1.200000*%
%ADD37R,1.200000X2.500000*%
%ADD38C,4.000000*%
%ADD39C,1.440000*%
%ADD40O,1.600000X1.600000*%
%ADD41R,1.600000X1.600000*%
%ADD42R,0.800000X0.900000*%
%ADD43O,1.700000X1.700000*%
%ADD44R,1.700000X1.700000*%
%ADD45C,2.600000*%
%ADD46R,2.600000X2.600000*%
%ADD47R,1.000000X1.550000*%
%ADD48R,1.500000X1.500000*%
%ADD49R,0.700000X1.750000*%
%ADD50R,0.800000X1.400000*%
%ADD51R,1.450000X1.000000*%
%ADD52R,0.800000X1.500000*%
%ADD53R,1.300000X1.500000*%
%ADD54R,0.900000X0.800000*%
%ADD55R,0.800000X1.000000*%
%ADD56R,3.500000X2.300000*%
%ADD57R,3.400000X3.000000*%
%ADD58R,1.060000X0.650000*%
G04 APERTURE END LIST*
D10*
%TO.C,REF\u002A\u002A*%
G36*
X198055014Y-50689998D02*
G01*
X198213006Y-50690863D01*
X198327347Y-50693205D01*
X198405407Y-50697762D01*
X198454554Y-50705270D01*
X198482159Y-50716466D01*
X198495592Y-50732088D01*
X198502221Y-50752873D01*
X198502865Y-50755563D01*
X198512935Y-50804113D01*
X198531575Y-50899905D01*
X198556845Y-51032743D01*
X198586807Y-51192431D01*
X198619522Y-51368774D01*
X198620664Y-51374967D01*
X198653433Y-51547782D01*
X198684093Y-51700469D01*
X198710664Y-51823871D01*
X198731167Y-51908831D01*
X198743626Y-51946190D01*
X198744220Y-51946852D01*
X198780919Y-51965095D01*
X198856586Y-51995497D01*
X198954878Y-52031493D01*
X198955425Y-52031685D01*
X199079233Y-52078222D01*
X199225196Y-52137504D01*
X199362781Y-52197109D01*
X199369293Y-52200056D01*
X199593390Y-52301765D01*
X200089619Y-51962897D01*
X200241846Y-51859592D01*
X200379741Y-51767237D01*
X200495315Y-51691084D01*
X200580579Y-51636385D01*
X200627544Y-51608393D01*
X200632004Y-51606317D01*
X200666134Y-51615560D01*
X200729881Y-51660156D01*
X200825731Y-51742209D01*
X200956169Y-51863821D01*
X201089328Y-51993205D01*
X201217694Y-52120702D01*
X201332581Y-52237046D01*
X201427073Y-52335052D01*
X201494253Y-52407536D01*
X201527206Y-52447313D01*
X201528432Y-52449361D01*
X201532074Y-52476656D01*
X201518350Y-52521234D01*
X201483869Y-52589112D01*
X201425239Y-52686311D01*
X201339070Y-52818851D01*
X201224200Y-52989476D01*
X201122254Y-53139655D01*
X201031123Y-53274350D01*
X200956073Y-53385740D01*
X200902369Y-53466005D01*
X200875280Y-53507325D01*
X200873574Y-53510130D01*
X200876882Y-53549721D01*
X200901953Y-53626669D01*
X200943798Y-53726432D01*
X200958712Y-53758291D01*
X201023786Y-53900226D01*
X201093212Y-54061273D01*
X201149609Y-54200621D01*
X201190247Y-54304044D01*
X201222526Y-54382642D01*
X201241178Y-54423720D01*
X201243497Y-54426885D01*
X201277803Y-54432128D01*
X201358669Y-54446494D01*
X201475343Y-54467937D01*
X201617075Y-54494413D01*
X201773110Y-54523877D01*
X201932698Y-54554283D01*
X202085085Y-54583588D01*
X202219521Y-54609745D01*
X202325252Y-54630710D01*
X202391526Y-54644439D01*
X202407782Y-54648320D01*
X202424573Y-54657900D01*
X202437249Y-54679536D01*
X202446378Y-54720531D01*
X202452531Y-54788189D01*
X202456280Y-54889812D01*
X202458192Y-55032703D01*
X202458840Y-55224165D01*
X202458874Y-55302645D01*
X202458874Y-55940906D01*
X202305598Y-55971160D01*
X202220322Y-55987564D01*
X202093070Y-56011509D01*
X201939315Y-56040107D01*
X201774534Y-56070467D01*
X201728989Y-56078806D01*
X201576932Y-56108370D01*
X201444468Y-56137442D01*
X201342714Y-56163329D01*
X201282788Y-56183337D01*
X201272805Y-56189301D01*
X201248293Y-56231534D01*
X201213148Y-56313370D01*
X201174173Y-56418683D01*
X201166442Y-56441368D01*
X201115360Y-56582018D01*
X201051954Y-56740714D01*
X200989904Y-56883225D01*
X200989598Y-56883886D01*
X200886267Y-57107440D01*
X201565961Y-58107232D01*
X201129621Y-58544300D01*
X200997649Y-58674381D01*
X200877279Y-58789048D01*
X200775273Y-58882181D01*
X200698391Y-58947658D01*
X200653393Y-58979357D01*
X200646938Y-58981368D01*
X200609040Y-58965529D01*
X200531708Y-58921496D01*
X200423389Y-58854490D01*
X200292532Y-58769734D01*
X200151052Y-58674816D01*
X200007461Y-58577998D01*
X199879435Y-58493751D01*
X199775105Y-58427258D01*
X199702600Y-58383702D01*
X199670158Y-58368264D01*
X199630576Y-58381328D01*
X199555519Y-58415750D01*
X199460468Y-58464380D01*
X199450392Y-58469785D01*
X199322391Y-58533980D01*
X199234618Y-58565463D01*
X199180028Y-58565798D01*
X199151575Y-58536548D01*
X199151410Y-58536138D01*
X199137188Y-58501498D01*
X199103269Y-58419269D01*
X199052284Y-58295814D01*
X198986862Y-58137498D01*
X198909634Y-57950686D01*
X198823229Y-57741742D01*
X198739551Y-57539446D01*
X198647588Y-57316200D01*
X198563150Y-57109392D01*
X198488769Y-56925362D01*
X198426974Y-56770451D01*
X198380297Y-56650996D01*
X198351268Y-56573339D01*
X198342322Y-56544356D01*
X198364756Y-56511110D01*
X198423439Y-56458123D01*
X198501689Y-56399704D01*
X198724534Y-56214952D01*
X198898718Y-56003182D01*
X199022154Y-55768856D01*
X199092754Y-55516434D01*
X199108431Y-55250377D01*
X199097036Y-55127575D01*
X199034950Y-54872793D01*
X198928023Y-54647801D01*
X198782889Y-54454817D01*
X198606178Y-54296061D01*
X198404522Y-54173750D01*
X198184554Y-54090105D01*
X197952906Y-54047344D01*
X197716209Y-54047687D01*
X197481095Y-54093352D01*
X197254196Y-54186559D01*
X197042144Y-54329527D01*
X196953636Y-54410383D01*
X196783889Y-54618007D01*
X196665699Y-54844895D01*
X196598278Y-55084433D01*
X196580840Y-55330007D01*
X196612598Y-55575003D01*
X196692765Y-55812808D01*
X196820555Y-56036807D01*
X196995180Y-56240387D01*
X197190312Y-56399704D01*
X197271591Y-56460602D01*
X197329009Y-56513015D01*
X197349678Y-56544406D01*
X197338856Y-56578639D01*
X197308077Y-56660419D01*
X197259874Y-56783407D01*
X197196778Y-56941263D01*
X197121322Y-57127649D01*
X197036038Y-57336226D01*
X196952219Y-57539496D01*
X196859745Y-57762933D01*
X196774089Y-57969984D01*
X196697882Y-58154286D01*
X196633753Y-58309475D01*
X196584332Y-58429188D01*
X196552248Y-58507061D01*
X196540359Y-58536138D01*
X196512274Y-58565677D01*
X196457949Y-58565591D01*
X196370395Y-58534326D01*
X196242619Y-58470329D01*
X196241608Y-58469785D01*
X196145402Y-58420121D01*
X196067631Y-58383945D01*
X196023777Y-58368408D01*
X196021842Y-58368264D01*
X195988829Y-58384024D01*
X195915946Y-58427850D01*
X195811322Y-58494557D01*
X195683090Y-58578964D01*
X195540948Y-58674816D01*
X195396233Y-58771867D01*
X195265804Y-58856270D01*
X195158110Y-58922801D01*
X195081598Y-58966238D01*
X195045062Y-58981368D01*
X195011418Y-58961482D01*
X194943776Y-58905903D01*
X194848893Y-58820754D01*
X194733530Y-58712153D01*
X194604445Y-58586221D01*
X194562229Y-58544149D01*
X194125739Y-58106931D01*
X194457977Y-57619340D01*
X194558946Y-57469605D01*
X194647562Y-57335220D01*
X194718854Y-57223969D01*
X194767850Y-57143639D01*
X194789578Y-57102014D01*
X194790215Y-57099053D01*
X194778760Y-57059818D01*
X194747949Y-56980895D01*
X194703116Y-56875509D01*
X194671647Y-56804954D01*
X194612808Y-56669876D01*
X194557396Y-56533409D01*
X194514436Y-56418103D01*
X194502766Y-56382977D01*
X194469611Y-56289174D01*
X194437201Y-56216694D01*
X194419399Y-56189301D01*
X194380114Y-56172536D01*
X194294374Y-56148770D01*
X194173303Y-56120697D01*
X194028027Y-56091009D01*
X193963012Y-56078806D01*
X193797913Y-56048468D01*
X193639552Y-56019093D01*
X193503404Y-55993569D01*
X193404943Y-55974785D01*
X193386402Y-55971160D01*
X193233127Y-55940906D01*
X193233127Y-55302645D01*
X193233471Y-55092770D01*
X193234884Y-54933980D01*
X193237936Y-54818973D01*
X193243197Y-54740446D01*
X193251237Y-54691096D01*
X193262627Y-54663619D01*
X193277937Y-54650713D01*
X193284218Y-54648320D01*
X193322104Y-54639833D01*
X193405805Y-54622900D01*
X193524567Y-54599566D01*
X193667639Y-54571875D01*
X193824268Y-54541873D01*
X193983703Y-54511604D01*
X194135191Y-54483115D01*
X194267981Y-54458449D01*
X194371319Y-54439651D01*
X194434455Y-54428767D01*
X194448503Y-54426885D01*
X194461230Y-54401704D01*
X194489400Y-54334622D01*
X194527748Y-54238333D01*
X194542391Y-54200621D01*
X194601452Y-54054921D01*
X194671000Y-53893951D01*
X194733288Y-53758291D01*
X194779121Y-53654561D01*
X194809613Y-53569326D01*
X194819792Y-53517126D01*
X194818169Y-53510130D01*
X194796657Y-53477102D01*
X194747535Y-53403643D01*
X194676077Y-53297577D01*
X194587555Y-53166726D01*
X194487241Y-53018912D01*
X194467406Y-52989734D01*
X194351012Y-52816863D01*
X194265452Y-52685226D01*
X194207316Y-52588761D01*
X194173192Y-52521408D01*
X194159669Y-52477106D01*
X194163336Y-52449794D01*
X194163430Y-52449620D01*
X194192293Y-52413746D01*
X194256133Y-52344391D01*
X194348031Y-52248745D01*
X194461067Y-52133999D01*
X194588321Y-52007341D01*
X194602672Y-51993205D01*
X194763043Y-51837903D01*
X194886805Y-51723870D01*
X194976445Y-51649002D01*
X195034448Y-51611196D01*
X195059996Y-51606317D01*
X195097282Y-51627603D01*
X195174657Y-51676773D01*
X195284133Y-51748575D01*
X195417720Y-51837755D01*
X195567430Y-51939063D01*
X195602382Y-51962897D01*
X196098610Y-52301765D01*
X196322707Y-52200056D01*
X196458989Y-52140783D01*
X196605276Y-52081170D01*
X196731035Y-52033640D01*
X196736575Y-52031685D01*
X196834943Y-51995677D01*
X196910771Y-51965229D01*
X196947718Y-51946905D01*
X196947780Y-51946852D01*
X196959504Y-51913729D01*
X196979432Y-51832267D01*
X197005587Y-51711625D01*
X197035990Y-51560959D01*
X197068663Y-51389428D01*
X197071336Y-51374967D01*
X197104110Y-51198235D01*
X197134198Y-51037810D01*
X197159661Y-50903888D01*
X197178559Y-50806663D01*
X197188953Y-50756332D01*
X197189135Y-50755563D01*
X197195461Y-50734153D01*
X197207761Y-50717988D01*
X197233406Y-50706331D01*
X197279765Y-50698445D01*
X197354208Y-50693593D01*
X197464105Y-50691039D01*
X197616825Y-50690045D01*
X197819738Y-50689874D01*
X197846000Y-50689874D01*
X198055014Y-50689998D01*
G37*
X198055014Y-50689998D02*
X198213006Y-50690863D01*
X198327347Y-50693205D01*
X198405407Y-50697762D01*
X198454554Y-50705270D01*
X198482159Y-50716466D01*
X198495592Y-50732088D01*
X198502221Y-50752873D01*
X198502865Y-50755563D01*
X198512935Y-50804113D01*
X198531575Y-50899905D01*
X198556845Y-51032743D01*
X198586807Y-51192431D01*
X198619522Y-51368774D01*
X198620664Y-51374967D01*
X198653433Y-51547782D01*
X198684093Y-51700469D01*
X198710664Y-51823871D01*
X198731167Y-51908831D01*
X198743626Y-51946190D01*
X198744220Y-51946852D01*
X198780919Y-51965095D01*
X198856586Y-51995497D01*
X198954878Y-52031493D01*
X198955425Y-52031685D01*
X199079233Y-52078222D01*
X199225196Y-52137504D01*
X199362781Y-52197109D01*
X199369293Y-52200056D01*
X199593390Y-52301765D01*
X200089619Y-51962897D01*
X200241846Y-51859592D01*
X200379741Y-51767237D01*
X200495315Y-51691084D01*
X200580579Y-51636385D01*
X200627544Y-51608393D01*
X200632004Y-51606317D01*
X200666134Y-51615560D01*
X200729881Y-51660156D01*
X200825731Y-51742209D01*
X200956169Y-51863821D01*
X201089328Y-51993205D01*
X201217694Y-52120702D01*
X201332581Y-52237046D01*
X201427073Y-52335052D01*
X201494253Y-52407536D01*
X201527206Y-52447313D01*
X201528432Y-52449361D01*
X201532074Y-52476656D01*
X201518350Y-52521234D01*
X201483869Y-52589112D01*
X201425239Y-52686311D01*
X201339070Y-52818851D01*
X201224200Y-52989476D01*
X201122254Y-53139655D01*
X201031123Y-53274350D01*
X200956073Y-53385740D01*
X200902369Y-53466005D01*
X200875280Y-53507325D01*
X200873574Y-53510130D01*
X200876882Y-53549721D01*
X200901953Y-53626669D01*
X200943798Y-53726432D01*
X200958712Y-53758291D01*
X201023786Y-53900226D01*
X201093212Y-54061273D01*
X201149609Y-54200621D01*
X201190247Y-54304044D01*
X201222526Y-54382642D01*
X201241178Y-54423720D01*
X201243497Y-54426885D01*
X201277803Y-54432128D01*
X201358669Y-54446494D01*
X201475343Y-54467937D01*
X201617075Y-54494413D01*
X201773110Y-54523877D01*
X201932698Y-54554283D01*
X202085085Y-54583588D01*
X202219521Y-54609745D01*
X202325252Y-54630710D01*
X202391526Y-54644439D01*
X202407782Y-54648320D01*
X202424573Y-54657900D01*
X202437249Y-54679536D01*
X202446378Y-54720531D01*
X202452531Y-54788189D01*
X202456280Y-54889812D01*
X202458192Y-55032703D01*
X202458840Y-55224165D01*
X202458874Y-55302645D01*
X202458874Y-55940906D01*
X202305598Y-55971160D01*
X202220322Y-55987564D01*
X202093070Y-56011509D01*
X201939315Y-56040107D01*
X201774534Y-56070467D01*
X201728989Y-56078806D01*
X201576932Y-56108370D01*
X201444468Y-56137442D01*
X201342714Y-56163329D01*
X201282788Y-56183337D01*
X201272805Y-56189301D01*
X201248293Y-56231534D01*
X201213148Y-56313370D01*
X201174173Y-56418683D01*
X201166442Y-56441368D01*
X201115360Y-56582018D01*
X201051954Y-56740714D01*
X200989904Y-56883225D01*
X200989598Y-56883886D01*
X200886267Y-57107440D01*
X201565961Y-58107232D01*
X201129621Y-58544300D01*
X200997649Y-58674381D01*
X200877279Y-58789048D01*
X200775273Y-58882181D01*
X200698391Y-58947658D01*
X200653393Y-58979357D01*
X200646938Y-58981368D01*
X200609040Y-58965529D01*
X200531708Y-58921496D01*
X200423389Y-58854490D01*
X200292532Y-58769734D01*
X200151052Y-58674816D01*
X200007461Y-58577998D01*
X199879435Y-58493751D01*
X199775105Y-58427258D01*
X199702600Y-58383702D01*
X199670158Y-58368264D01*
X199630576Y-58381328D01*
X199555519Y-58415750D01*
X199460468Y-58464380D01*
X199450392Y-58469785D01*
X199322391Y-58533980D01*
X199234618Y-58565463D01*
X199180028Y-58565798D01*
X199151575Y-58536548D01*
X199151410Y-58536138D01*
X199137188Y-58501498D01*
X199103269Y-58419269D01*
X199052284Y-58295814D01*
X198986862Y-58137498D01*
X198909634Y-57950686D01*
X198823229Y-57741742D01*
X198739551Y-57539446D01*
X198647588Y-57316200D01*
X198563150Y-57109392D01*
X198488769Y-56925362D01*
X198426974Y-56770451D01*
X198380297Y-56650996D01*
X198351268Y-56573339D01*
X198342322Y-56544356D01*
X198364756Y-56511110D01*
X198423439Y-56458123D01*
X198501689Y-56399704D01*
X198724534Y-56214952D01*
X198898718Y-56003182D01*
X199022154Y-55768856D01*
X199092754Y-55516434D01*
X199108431Y-55250377D01*
X199097036Y-55127575D01*
X199034950Y-54872793D01*
X198928023Y-54647801D01*
X198782889Y-54454817D01*
X198606178Y-54296061D01*
X198404522Y-54173750D01*
X198184554Y-54090105D01*
X197952906Y-54047344D01*
X197716209Y-54047687D01*
X197481095Y-54093352D01*
X197254196Y-54186559D01*
X197042144Y-54329527D01*
X196953636Y-54410383D01*
X196783889Y-54618007D01*
X196665699Y-54844895D01*
X196598278Y-55084433D01*
X196580840Y-55330007D01*
X196612598Y-55575003D01*
X196692765Y-55812808D01*
X196820555Y-56036807D01*
X196995180Y-56240387D01*
X197190312Y-56399704D01*
X197271591Y-56460602D01*
X197329009Y-56513015D01*
X197349678Y-56544406D01*
X197338856Y-56578639D01*
X197308077Y-56660419D01*
X197259874Y-56783407D01*
X197196778Y-56941263D01*
X197121322Y-57127649D01*
X197036038Y-57336226D01*
X196952219Y-57539496D01*
X196859745Y-57762933D01*
X196774089Y-57969984D01*
X196697882Y-58154286D01*
X196633753Y-58309475D01*
X196584332Y-58429188D01*
X196552248Y-58507061D01*
X196540359Y-58536138D01*
X196512274Y-58565677D01*
X196457949Y-58565591D01*
X196370395Y-58534326D01*
X196242619Y-58470329D01*
X196241608Y-58469785D01*
X196145402Y-58420121D01*
X196067631Y-58383945D01*
X196023777Y-58368408D01*
X196021842Y-58368264D01*
X195988829Y-58384024D01*
X195915946Y-58427850D01*
X195811322Y-58494557D01*
X195683090Y-58578964D01*
X195540948Y-58674816D01*
X195396233Y-58771867D01*
X195265804Y-58856270D01*
X195158110Y-58922801D01*
X195081598Y-58966238D01*
X195045062Y-58981368D01*
X195011418Y-58961482D01*
X194943776Y-58905903D01*
X194848893Y-58820754D01*
X194733530Y-58712153D01*
X194604445Y-58586221D01*
X194562229Y-58544149D01*
X194125739Y-58106931D01*
X194457977Y-57619340D01*
X194558946Y-57469605D01*
X194647562Y-57335220D01*
X194718854Y-57223969D01*
X194767850Y-57143639D01*
X194789578Y-57102014D01*
X194790215Y-57099053D01*
X194778760Y-57059818D01*
X194747949Y-56980895D01*
X194703116Y-56875509D01*
X194671647Y-56804954D01*
X194612808Y-56669876D01*
X194557396Y-56533409D01*
X194514436Y-56418103D01*
X194502766Y-56382977D01*
X194469611Y-56289174D01*
X194437201Y-56216694D01*
X194419399Y-56189301D01*
X194380114Y-56172536D01*
X194294374Y-56148770D01*
X194173303Y-56120697D01*
X194028027Y-56091009D01*
X193963012Y-56078806D01*
X193797913Y-56048468D01*
X193639552Y-56019093D01*
X193503404Y-55993569D01*
X193404943Y-55974785D01*
X193386402Y-55971160D01*
X193233127Y-55940906D01*
X193233127Y-55302645D01*
X193233471Y-55092770D01*
X193234884Y-54933980D01*
X193237936Y-54818973D01*
X193243197Y-54740446D01*
X193251237Y-54691096D01*
X193262627Y-54663619D01*
X193277937Y-54650713D01*
X193284218Y-54648320D01*
X193322104Y-54639833D01*
X193405805Y-54622900D01*
X193524567Y-54599566D01*
X193667639Y-54571875D01*
X193824268Y-54541873D01*
X193983703Y-54511604D01*
X194135191Y-54483115D01*
X194267981Y-54458449D01*
X194371319Y-54439651D01*
X194434455Y-54428767D01*
X194448503Y-54426885D01*
X194461230Y-54401704D01*
X194489400Y-54334622D01*
X194527748Y-54238333D01*
X194542391Y-54200621D01*
X194601452Y-54054921D01*
X194671000Y-53893951D01*
X194733288Y-53758291D01*
X194779121Y-53654561D01*
X194809613Y-53569326D01*
X194819792Y-53517126D01*
X194818169Y-53510130D01*
X194796657Y-53477102D01*
X194747535Y-53403643D01*
X194676077Y-53297577D01*
X194587555Y-53166726D01*
X194487241Y-53018912D01*
X194467406Y-52989734D01*
X194351012Y-52816863D01*
X194265452Y-52685226D01*
X194207316Y-52588761D01*
X194173192Y-52521408D01*
X194159669Y-52477106D01*
X194163336Y-52449794D01*
X194163430Y-52449620D01*
X194192293Y-52413746D01*
X194256133Y-52344391D01*
X194348031Y-52248745D01*
X194461067Y-52133999D01*
X194588321Y-52007341D01*
X194602672Y-51993205D01*
X194763043Y-51837903D01*
X194886805Y-51723870D01*
X194976445Y-51649002D01*
X195034448Y-51611196D01*
X195059996Y-51606317D01*
X195097282Y-51627603D01*
X195174657Y-51676773D01*
X195284133Y-51748575D01*
X195417720Y-51837755D01*
X195567430Y-51939063D01*
X195602382Y-51962897D01*
X196098610Y-52301765D01*
X196322707Y-52200056D01*
X196458989Y-52140783D01*
X196605276Y-52081170D01*
X196731035Y-52033640D01*
X196736575Y-52031685D01*
X196834943Y-51995677D01*
X196910771Y-51965229D01*
X196947718Y-51946905D01*
X196947780Y-51946852D01*
X196959504Y-51913729D01*
X196979432Y-51832267D01*
X197005587Y-51711625D01*
X197035990Y-51560959D01*
X197068663Y-51389428D01*
X197071336Y-51374967D01*
X197104110Y-51198235D01*
X197134198Y-51037810D01*
X197159661Y-50903888D01*
X197178559Y-50806663D01*
X197188953Y-50756332D01*
X197189135Y-50755563D01*
X197195461Y-50734153D01*
X197207761Y-50717988D01*
X197233406Y-50706331D01*
X197279765Y-50698445D01*
X197354208Y-50693593D01*
X197464105Y-50691039D01*
X197616825Y-50690045D01*
X197819738Y-50689874D01*
X197846000Y-50689874D01*
X198055014Y-50689998D01*
%TD*%
%TO.C,D15*%
G36*
G01*
X51736320Y-128421780D02*
X51261320Y-128421780D01*
G75*
G02*
X51023820Y-128184280I0J237500D01*
G01*
X51023820Y-127609280D01*
G75*
G02*
X51261320Y-127371780I237500J0D01*
G01*
X51736320Y-127371780D01*
G75*
G02*
X51973820Y-127609280I0J-237500D01*
G01*
X51973820Y-128184280D01*
G75*
G02*
X51736320Y-128421780I-237500J0D01*
G01*
G37*
G36*
G01*
X51736320Y-130171780D02*
X51261320Y-130171780D01*
G75*
G02*
X51023820Y-129934280I0J237500D01*
G01*
X51023820Y-129359280D01*
G75*
G02*
X51261320Y-129121780I237500J0D01*
G01*
X51736320Y-129121780D01*
G75*
G02*
X51973820Y-129359280I0J-237500D01*
G01*
X51973820Y-129934280D01*
G75*
G02*
X51736320Y-130171780I-237500J0D01*
G01*
G37*
%TD*%
%TO.C,J10*%
G36*
G01*
X207466300Y-91493019D02*
X207466300Y-93183021D01*
G75*
G02*
X207216301Y-93433020I-249999J0D01*
G01*
X205976299Y-93433020D01*
G75*
G02*
X205726300Y-93183021I0J249999D01*
G01*
X205726300Y-91493019D01*
G75*
G02*
X205976299Y-91243020I249999J0D01*
G01*
X207216301Y-91243020D01*
G75*
G02*
X207466300Y-91493019I0J-249999D01*
G01*
G37*
D11*
X204056300Y-92338020D03*
X201516300Y-92338020D03*
X198976300Y-92338020D03*
%TD*%
D12*
%TO.C,REF\u002A\u002A*%
X206000000Y-146000000D03*
D13*
X208400000Y-146000000D03*
X207697056Y-147697056D03*
X206000000Y-148400000D03*
X204302944Y-147697056D03*
X203600000Y-146000000D03*
X204302944Y-144302944D03*
X206000000Y-143600000D03*
X207697056Y-144302944D03*
%TD*%
D12*
%TO.C,REF\u002A\u002A*%
X54000000Y-54000000D03*
D13*
X56400000Y-54000000D03*
X55697056Y-55697056D03*
X54000000Y-56400000D03*
X52302944Y-55697056D03*
X51600000Y-54000000D03*
X52302944Y-52302944D03*
X54000000Y-51600000D03*
X55697056Y-52302944D03*
%TD*%
%TO.C,e*%
X55697056Y-144302944D03*
X54000000Y-143600000D03*
X52302944Y-144302944D03*
X51600000Y-146000000D03*
X52302944Y-147697056D03*
X54000000Y-148400000D03*
X55697056Y-147697056D03*
X56400000Y-146000000D03*
D12*
X54000000Y-146000000D03*
%TD*%
D13*
%TO.C,REF\u002A\u002A*%
X207697056Y-52302944D03*
X206000000Y-51600000D03*
X204302944Y-52302944D03*
X203600000Y-54000000D03*
X204302944Y-55697056D03*
X206000000Y-56400000D03*
X207697056Y-55697056D03*
X208400000Y-54000000D03*
D12*
X206000000Y-54000000D03*
%TD*%
D14*
%TO.C,U10*%
X58500000Y-87500000D03*
X61040000Y-87500000D03*
X104220000Y-87500000D03*
X101680000Y-87500000D03*
X58500000Y-90040000D03*
X58500000Y-92580000D03*
X58500000Y-95120000D03*
X58500000Y-97660000D03*
X58500000Y-100200000D03*
X58500000Y-102740000D03*
X58500000Y-105280000D03*
X58500000Y-107820000D03*
X58500000Y-110360000D03*
X104220000Y-110360000D03*
X104220000Y-107820000D03*
X104220000Y-105280000D03*
X104220000Y-102740000D03*
X104220000Y-100200000D03*
X104220000Y-97660000D03*
X104220000Y-95120000D03*
X104220000Y-92580000D03*
X104220000Y-90040000D03*
X61040000Y-90040000D03*
X61040000Y-92580000D03*
X61040000Y-95120000D03*
X61040000Y-97660000D03*
X61040000Y-100200000D03*
X61040000Y-102740000D03*
X61040000Y-105280000D03*
X61040000Y-107820000D03*
X61040000Y-110360000D03*
X101680000Y-110360000D03*
X101680000Y-107820000D03*
X101680000Y-105280000D03*
X101680000Y-102740000D03*
X101680000Y-100200000D03*
X101680000Y-97660000D03*
X101680000Y-95120000D03*
X101680000Y-92580000D03*
X101680000Y-90040000D03*
%TD*%
D15*
%TO.C,BT1*%
X61840000Y-128120000D03*
D16*
X70170000Y-144120000D03*
X125370000Y-128120000D03*
D17*
X137100000Y-136120000D03*
X58440000Y-136120000D03*
%TD*%
%TO.C,U3*%
G36*
G01*
X177399680Y-118093480D02*
X177399680Y-118393480D01*
G75*
G02*
X177249680Y-118543480I-150000J0D01*
G01*
X175599680Y-118543480D01*
G75*
G02*
X175449680Y-118393480I0J150000D01*
G01*
X175449680Y-118093480D01*
G75*
G02*
X175599680Y-117943480I150000J0D01*
G01*
X177249680Y-117943480D01*
G75*
G02*
X177399680Y-118093480I0J-150000D01*
G01*
G37*
G36*
G01*
X177399680Y-116823480D02*
X177399680Y-117123480D01*
G75*
G02*
X177249680Y-117273480I-150000J0D01*
G01*
X175599680Y-117273480D01*
G75*
G02*
X175449680Y-117123480I0J150000D01*
G01*
X175449680Y-116823480D01*
G75*
G02*
X175599680Y-116673480I150000J0D01*
G01*
X177249680Y-116673480D01*
G75*
G02*
X177399680Y-116823480I0J-150000D01*
G01*
G37*
G36*
G01*
X177399680Y-115553480D02*
X177399680Y-115853480D01*
G75*
G02*
X177249680Y-116003480I-150000J0D01*
G01*
X175599680Y-116003480D01*
G75*
G02*
X175449680Y-115853480I0J150000D01*
G01*
X175449680Y-115553480D01*
G75*
G02*
X175599680Y-115403480I150000J0D01*
G01*
X177249680Y-115403480D01*
G75*
G02*
X177399680Y-115553480I0J-150000D01*
G01*
G37*
G36*
G01*
X177399680Y-114283480D02*
X177399680Y-114583480D01*
G75*
G02*
X177249680Y-114733480I-150000J0D01*
G01*
X175599680Y-114733480D01*
G75*
G02*
X175449680Y-114583480I0J150000D01*
G01*
X175449680Y-114283480D01*
G75*
G02*
X175599680Y-114133480I150000J0D01*
G01*
X177249680Y-114133480D01*
G75*
G02*
X177399680Y-114283480I0J-150000D01*
G01*
G37*
G36*
G01*
X177399680Y-113013480D02*
X177399680Y-113313480D01*
G75*
G02*
X177249680Y-113463480I-150000J0D01*
G01*
X175599680Y-113463480D01*
G75*
G02*
X175449680Y-113313480I0J150000D01*
G01*
X175449680Y-113013480D01*
G75*
G02*
X175599680Y-112863480I150000J0D01*
G01*
X177249680Y-112863480D01*
G75*
G02*
X177399680Y-113013480I0J-150000D01*
G01*
G37*
G36*
G01*
X177399680Y-111743480D02*
X177399680Y-112043480D01*
G75*
G02*
X177249680Y-112193480I-150000J0D01*
G01*
X175599680Y-112193480D01*
G75*
G02*
X175449680Y-112043480I0J150000D01*
G01*
X175449680Y-111743480D01*
G75*
G02*
X175599680Y-111593480I150000J0D01*
G01*
X177249680Y-111593480D01*
G75*
G02*
X177399680Y-111743480I0J-150000D01*
G01*
G37*
G36*
G01*
X177399680Y-110473480D02*
X177399680Y-110773480D01*
G75*
G02*
X177249680Y-110923480I-150000J0D01*
G01*
X175599680Y-110923480D01*
G75*
G02*
X175449680Y-110773480I0J150000D01*
G01*
X175449680Y-110473480D01*
G75*
G02*
X175599680Y-110323480I150000J0D01*
G01*
X177249680Y-110323480D01*
G75*
G02*
X177399680Y-110473480I0J-150000D01*
G01*
G37*
G36*
G01*
X177399680Y-109203480D02*
X177399680Y-109503480D01*
G75*
G02*
X177249680Y-109653480I-150000J0D01*
G01*
X175599680Y-109653480D01*
G75*
G02*
X175449680Y-109503480I0J150000D01*
G01*
X175449680Y-109203480D01*
G75*
G02*
X175599680Y-109053480I150000J0D01*
G01*
X177249680Y-109053480D01*
G75*
G02*
X177399680Y-109203480I0J-150000D01*
G01*
G37*
G36*
G01*
X172449680Y-109203480D02*
X172449680Y-109503480D01*
G75*
G02*
X172299680Y-109653480I-150000J0D01*
G01*
X170649680Y-109653480D01*
G75*
G02*
X170499680Y-109503480I0J150000D01*
G01*
X170499680Y-109203480D01*
G75*
G02*
X170649680Y-109053480I150000J0D01*
G01*
X172299680Y-109053480D01*
G75*
G02*
X172449680Y-109203480I0J-150000D01*
G01*
G37*
G36*
G01*
X172449680Y-110473480D02*
X172449680Y-110773480D01*
G75*
G02*
X172299680Y-110923480I-150000J0D01*
G01*
X170649680Y-110923480D01*
G75*
G02*
X170499680Y-110773480I0J150000D01*
G01*
X170499680Y-110473480D01*
G75*
G02*
X170649680Y-110323480I150000J0D01*
G01*
X172299680Y-110323480D01*
G75*
G02*
X172449680Y-110473480I0J-150000D01*
G01*
G37*
G36*
G01*
X172449680Y-111743480D02*
X172449680Y-112043480D01*
G75*
G02*
X172299680Y-112193480I-150000J0D01*
G01*
X170649680Y-112193480D01*
G75*
G02*
X170499680Y-112043480I0J150000D01*
G01*
X170499680Y-111743480D01*
G75*
G02*
X170649680Y-111593480I150000J0D01*
G01*
X172299680Y-111593480D01*
G75*
G02*
X172449680Y-111743480I0J-150000D01*
G01*
G37*
G36*
G01*
X172449680Y-113013480D02*
X172449680Y-113313480D01*
G75*
G02*
X172299680Y-113463480I-150000J0D01*
G01*
X170649680Y-113463480D01*
G75*
G02*
X170499680Y-113313480I0J150000D01*
G01*
X170499680Y-113013480D01*
G75*
G02*
X170649680Y-112863480I150000J0D01*
G01*
X172299680Y-112863480D01*
G75*
G02*
X172449680Y-113013480I0J-150000D01*
G01*
G37*
G36*
G01*
X172449680Y-114283480D02*
X172449680Y-114583480D01*
G75*
G02*
X172299680Y-114733480I-150000J0D01*
G01*
X170649680Y-114733480D01*
G75*
G02*
X170499680Y-114583480I0J150000D01*
G01*
X170499680Y-114283480D01*
G75*
G02*
X170649680Y-114133480I150000J0D01*
G01*
X172299680Y-114133480D01*
G75*
G02*
X172449680Y-114283480I0J-150000D01*
G01*
G37*
G36*
G01*
X172449680Y-115553480D02*
X172449680Y-115853480D01*
G75*
G02*
X172299680Y-116003480I-150000J0D01*
G01*
X170649680Y-116003480D01*
G75*
G02*
X170499680Y-115853480I0J150000D01*
G01*
X170499680Y-115553480D01*
G75*
G02*
X170649680Y-115403480I150000J0D01*
G01*
X172299680Y-115403480D01*
G75*
G02*
X172449680Y-115553480I0J-150000D01*
G01*
G37*
G36*
G01*
X172449680Y-116823480D02*
X172449680Y-117123480D01*
G75*
G02*
X172299680Y-117273480I-150000J0D01*
G01*
X170649680Y-117273480D01*
G75*
G02*
X170499680Y-117123480I0J150000D01*
G01*
X170499680Y-116823480D01*
G75*
G02*
X170649680Y-116673480I150000J0D01*
G01*
X172299680Y-116673480D01*
G75*
G02*
X172449680Y-116823480I0J-150000D01*
G01*
G37*
G36*
G01*
X172449680Y-118093480D02*
X172449680Y-118393480D01*
G75*
G02*
X172299680Y-118543480I-150000J0D01*
G01*
X170649680Y-118543480D01*
G75*
G02*
X170499680Y-118393480I0J150000D01*
G01*
X170499680Y-118093480D01*
G75*
G02*
X170649680Y-117943480I150000J0D01*
G01*
X172299680Y-117943480D01*
G75*
G02*
X172449680Y-118093480I0J-150000D01*
G01*
G37*
%TD*%
D18*
%TO.C,J6*%
X162463800Y-106204400D03*
X162463800Y-104204400D03*
X162463800Y-102204400D03*
D19*
X162463800Y-100204400D03*
%TD*%
D20*
%TO.C,SW3*%
X52045000Y-74775000D03*
X52045000Y-61575000D03*
D21*
X61575000Y-72875000D03*
X61575000Y-68175000D03*
X61575000Y-63475000D03*
%TD*%
D22*
%TO.C,SW2*%
X55175000Y-124670000D03*
D23*
X52685000Y-123420000D03*
X52685000Y-118920000D03*
D22*
X55175000Y-117660000D03*
%TD*%
%TO.C,SW1*%
X55175000Y-114510000D03*
D23*
X52685000Y-113260000D03*
X52685000Y-108760000D03*
D22*
X55175000Y-107500000D03*
%TD*%
%TO.C,R49*%
G36*
G01*
X67887420Y-113276500D02*
X67887420Y-113751500D01*
G75*
G02*
X67649920Y-113989000I-237500J0D01*
G01*
X67074920Y-113989000D01*
G75*
G02*
X66837420Y-113751500I0J237500D01*
G01*
X66837420Y-113276500D01*
G75*
G02*
X67074920Y-113039000I237500J0D01*
G01*
X67649920Y-113039000D01*
G75*
G02*
X67887420Y-113276500I0J-237500D01*
G01*
G37*
G36*
G01*
X69637420Y-113276500D02*
X69637420Y-113751500D01*
G75*
G02*
X69399920Y-113989000I-237500J0D01*
G01*
X68824920Y-113989000D01*
G75*
G02*
X68587420Y-113751500I0J237500D01*
G01*
X68587420Y-113276500D01*
G75*
G02*
X68824920Y-113039000I237500J0D01*
G01*
X69399920Y-113039000D01*
G75*
G02*
X69637420Y-113276500I0J-237500D01*
G01*
G37*
%TD*%
D24*
%TO.C,LD_F3*%
X192550100Y-135911100D03*
D25*
X190010100Y-135911100D03*
%TD*%
D24*
%TO.C,LD_F2*%
X192550100Y-120911100D03*
D25*
X190010100Y-120911100D03*
%TD*%
%TO.C,LD_F1*%
X190010100Y-105551100D03*
D24*
X192550100Y-105551100D03*
%TD*%
D26*
%TO.C,J13*%
X205000000Y-136000000D03*
%TD*%
%TO.C,J12*%
X205000000Y-118000000D03*
%TD*%
%TO.C,J11*%
X205000000Y-127000000D03*
%TD*%
%TO.C,J8*%
X205000000Y-109000000D03*
%TD*%
D27*
%TO.C,U1*%
X188225000Y-53570000D03*
X188224480Y-84570700D03*
X113225900Y-84570700D03*
X113225900Y-53570000D03*
D28*
X156825000Y-53570000D03*
X154285000Y-53570000D03*
X151745000Y-53570000D03*
X149205000Y-53570000D03*
X146665000Y-53570000D03*
X144125000Y-53570000D03*
X141585000Y-53570000D03*
X139045000Y-53570000D03*
X136505000Y-53570000D03*
X133965000Y-53570000D03*
X131425000Y-53570000D03*
X128885000Y-53570000D03*
X126345000Y-53570000D03*
X123805000Y-53570000D03*
X121265000Y-53570000D03*
D29*
X118725000Y-53570000D03*
%TD*%
D30*
%TO.C,X1*%
X109630000Y-115275000D03*
X131630000Y-115275000D03*
X109630000Y-113275000D03*
X131630000Y-113275000D03*
X109630000Y-111275000D03*
X131630000Y-111275000D03*
X109630000Y-109275000D03*
X131630000Y-109275000D03*
X109630000Y-107275000D03*
X131630000Y-107275000D03*
X109630000Y-105275000D03*
X131630000Y-105275000D03*
X109630000Y-103275000D03*
X131630000Y-103275000D03*
X109630000Y-101275000D03*
X131630000Y-101275000D03*
X109630000Y-99275000D03*
X131630000Y-99275000D03*
X109630000Y-97275000D03*
X131630000Y-97275000D03*
%TD*%
D31*
%TO.C,U12*%
X76474640Y-100121180D03*
X81554640Y-100121180D03*
X79014640Y-100121180D03*
D32*
X79014640Y-93821180D03*
D31*
X77744640Y-100121180D03*
X80284640Y-100121180D03*
%TD*%
D33*
%TO.C,U11*%
X72656980Y-116765020D03*
X74556980Y-116765020D03*
X74556980Y-118965020D03*
X73606980Y-118965020D03*
X72656980Y-118965020D03*
%TD*%
%TO.C,U9*%
G36*
G01*
X86290440Y-115012120D02*
X86490440Y-115012120D01*
G75*
G02*
X86590440Y-115112120I0J-100000D01*
G01*
X86590440Y-116537120D01*
G75*
G02*
X86490440Y-116637120I-100000J0D01*
G01*
X86290440Y-116637120D01*
G75*
G02*
X86190440Y-116537120I0J100000D01*
G01*
X86190440Y-115112120D01*
G75*
G02*
X86290440Y-115012120I100000J0D01*
G01*
G37*
G36*
G01*
X85640440Y-115012120D02*
X85840440Y-115012120D01*
G75*
G02*
X85940440Y-115112120I0J-100000D01*
G01*
X85940440Y-116537120D01*
G75*
G02*
X85840440Y-116637120I-100000J0D01*
G01*
X85640440Y-116637120D01*
G75*
G02*
X85540440Y-116537120I0J100000D01*
G01*
X85540440Y-115112120D01*
G75*
G02*
X85640440Y-115012120I100000J0D01*
G01*
G37*
G36*
G01*
X84990440Y-115012120D02*
X85190440Y-115012120D01*
G75*
G02*
X85290440Y-115112120I0J-100000D01*
G01*
X85290440Y-116537120D01*
G75*
G02*
X85190440Y-116637120I-100000J0D01*
G01*
X84990440Y-116637120D01*
G75*
G02*
X84890440Y-116537120I0J100000D01*
G01*
X84890440Y-115112120D01*
G75*
G02*
X84990440Y-115012120I100000J0D01*
G01*
G37*
G36*
G01*
X84340440Y-115012120D02*
X84540440Y-115012120D01*
G75*
G02*
X84640440Y-115112120I0J-100000D01*
G01*
X84640440Y-116537120D01*
G75*
G02*
X84540440Y-116637120I-100000J0D01*
G01*
X84340440Y-116637120D01*
G75*
G02*
X84240440Y-116537120I0J100000D01*
G01*
X84240440Y-115112120D01*
G75*
G02*
X84340440Y-115012120I100000J0D01*
G01*
G37*
G36*
G01*
X84340440Y-110787120D02*
X84540440Y-110787120D01*
G75*
G02*
X84640440Y-110887120I0J-100000D01*
G01*
X84640440Y-112312120D01*
G75*
G02*
X84540440Y-112412120I-100000J0D01*
G01*
X84340440Y-112412120D01*
G75*
G02*
X84240440Y-112312120I0J100000D01*
G01*
X84240440Y-110887120D01*
G75*
G02*
X84340440Y-110787120I100000J0D01*
G01*
G37*
G36*
G01*
X84990440Y-110787120D02*
X85190440Y-110787120D01*
G75*
G02*
X85290440Y-110887120I0J-100000D01*
G01*
X85290440Y-112312120D01*
G75*
G02*
X85190440Y-112412120I-100000J0D01*
G01*
X84990440Y-112412120D01*
G75*
G02*
X84890440Y-112312120I0J100000D01*
G01*
X84890440Y-110887120D01*
G75*
G02*
X84990440Y-110787120I100000J0D01*
G01*
G37*
G36*
G01*
X85640440Y-110787120D02*
X85840440Y-110787120D01*
G75*
G02*
X85940440Y-110887120I0J-100000D01*
G01*
X85940440Y-112312120D01*
G75*
G02*
X85840440Y-112412120I-100000J0D01*
G01*
X85640440Y-112412120D01*
G75*
G02*
X85540440Y-112312120I0J100000D01*
G01*
X85540440Y-110887120D01*
G75*
G02*
X85640440Y-110787120I100000J0D01*
G01*
G37*
G36*
G01*
X86290440Y-110787120D02*
X86490440Y-110787120D01*
G75*
G02*
X86590440Y-110887120I0J-100000D01*
G01*
X86590440Y-112312120D01*
G75*
G02*
X86490440Y-112412120I-100000J0D01*
G01*
X86290440Y-112412120D01*
G75*
G02*
X86190440Y-112312120I0J100000D01*
G01*
X86190440Y-110887120D01*
G75*
G02*
X86290440Y-110787120I100000J0D01*
G01*
G37*
%TD*%
D34*
%TO.C,U7*%
X128230000Y-99600000D03*
X128230000Y-101600000D03*
X128230000Y-103600000D03*
X128230000Y-105600000D03*
X128230000Y-107600000D03*
X128230000Y-109600000D03*
X128230000Y-111600000D03*
X128230000Y-113600000D03*
D35*
X125630000Y-115100000D03*
X123630000Y-115100000D03*
X121630000Y-115100000D03*
X119630000Y-115100000D03*
X117630000Y-115100000D03*
X115630000Y-115100000D03*
D34*
X113030000Y-113600000D03*
X113030000Y-111600000D03*
X113030000Y-109600000D03*
X113030000Y-107600000D03*
X113030000Y-105600000D03*
X113030000Y-103600000D03*
X113030000Y-101600000D03*
X113030000Y-99600000D03*
%TD*%
%TO.C,U6*%
G36*
G01*
X149878240Y-70745120D02*
X149578240Y-70745120D01*
G75*
G02*
X149428240Y-70595120I0J150000D01*
G01*
X149428240Y-68945120D01*
G75*
G02*
X149578240Y-68795120I150000J0D01*
G01*
X149878240Y-68795120D01*
G75*
G02*
X150028240Y-68945120I0J-150000D01*
G01*
X150028240Y-70595120D01*
G75*
G02*
X149878240Y-70745120I-150000J0D01*
G01*
G37*
G36*
G01*
X151148240Y-70745120D02*
X150848240Y-70745120D01*
G75*
G02*
X150698240Y-70595120I0J150000D01*
G01*
X150698240Y-68945120D01*
G75*
G02*
X150848240Y-68795120I150000J0D01*
G01*
X151148240Y-68795120D01*
G75*
G02*
X151298240Y-68945120I0J-150000D01*
G01*
X151298240Y-70595120D01*
G75*
G02*
X151148240Y-70745120I-150000J0D01*
G01*
G37*
G36*
G01*
X152418240Y-70745120D02*
X152118240Y-70745120D01*
G75*
G02*
X151968240Y-70595120I0J150000D01*
G01*
X151968240Y-68945120D01*
G75*
G02*
X152118240Y-68795120I150000J0D01*
G01*
X152418240Y-68795120D01*
G75*
G02*
X152568240Y-68945120I0J-150000D01*
G01*
X152568240Y-70595120D01*
G75*
G02*
X152418240Y-70745120I-150000J0D01*
G01*
G37*
G36*
G01*
X153688240Y-70745120D02*
X153388240Y-70745120D01*
G75*
G02*
X153238240Y-70595120I0J150000D01*
G01*
X153238240Y-68945120D01*
G75*
G02*
X153388240Y-68795120I150000J0D01*
G01*
X153688240Y-68795120D01*
G75*
G02*
X153838240Y-68945120I0J-150000D01*
G01*
X153838240Y-70595120D01*
G75*
G02*
X153688240Y-70745120I-150000J0D01*
G01*
G37*
G36*
G01*
X154958240Y-70745120D02*
X154658240Y-70745120D01*
G75*
G02*
X154508240Y-70595120I0J150000D01*
G01*
X154508240Y-68945120D01*
G75*
G02*
X154658240Y-68795120I150000J0D01*
G01*
X154958240Y-68795120D01*
G75*
G02*
X155108240Y-68945120I0J-150000D01*
G01*
X155108240Y-70595120D01*
G75*
G02*
X154958240Y-70745120I-150000J0D01*
G01*
G37*
G36*
G01*
X156228240Y-70745120D02*
X155928240Y-70745120D01*
G75*
G02*
X155778240Y-70595120I0J150000D01*
G01*
X155778240Y-68945120D01*
G75*
G02*
X155928240Y-68795120I150000J0D01*
G01*
X156228240Y-68795120D01*
G75*
G02*
X156378240Y-68945120I0J-150000D01*
G01*
X156378240Y-70595120D01*
G75*
G02*
X156228240Y-70745120I-150000J0D01*
G01*
G37*
G36*
G01*
X157498240Y-70745120D02*
X157198240Y-70745120D01*
G75*
G02*
X157048240Y-70595120I0J150000D01*
G01*
X157048240Y-68945120D01*
G75*
G02*
X157198240Y-68795120I150000J0D01*
G01*
X157498240Y-68795120D01*
G75*
G02*
X157648240Y-68945120I0J-150000D01*
G01*
X157648240Y-70595120D01*
G75*
G02*
X157498240Y-70745120I-150000J0D01*
G01*
G37*
G36*
G01*
X158768240Y-70745120D02*
X158468240Y-70745120D01*
G75*
G02*
X158318240Y-70595120I0J150000D01*
G01*
X158318240Y-68945120D01*
G75*
G02*
X158468240Y-68795120I150000J0D01*
G01*
X158768240Y-68795120D01*
G75*
G02*
X158918240Y-68945120I0J-150000D01*
G01*
X158918240Y-70595120D01*
G75*
G02*
X158768240Y-70745120I-150000J0D01*
G01*
G37*
G36*
G01*
X158768240Y-75695120D02*
X158468240Y-75695120D01*
G75*
G02*
X158318240Y-75545120I0J150000D01*
G01*
X158318240Y-73895120D01*
G75*
G02*
X158468240Y-73745120I150000J0D01*
G01*
X158768240Y-73745120D01*
G75*
G02*
X158918240Y-73895120I0J-150000D01*
G01*
X158918240Y-75545120D01*
G75*
G02*
X158768240Y-75695120I-150000J0D01*
G01*
G37*
G36*
G01*
X157498240Y-75695120D02*
X157198240Y-75695120D01*
G75*
G02*
X157048240Y-75545120I0J150000D01*
G01*
X157048240Y-73895120D01*
G75*
G02*
X157198240Y-73745120I150000J0D01*
G01*
X157498240Y-73745120D01*
G75*
G02*
X157648240Y-73895120I0J-150000D01*
G01*
X157648240Y-75545120D01*
G75*
G02*
X157498240Y-75695120I-150000J0D01*
G01*
G37*
G36*
G01*
X156228240Y-75695120D02*
X155928240Y-75695120D01*
G75*
G02*
X155778240Y-75545120I0J150000D01*
G01*
X155778240Y-73895120D01*
G75*
G02*
X155928240Y-73745120I150000J0D01*
G01*
X156228240Y-73745120D01*
G75*
G02*
X156378240Y-73895120I0J-150000D01*
G01*
X156378240Y-75545120D01*
G75*
G02*
X156228240Y-75695120I-150000J0D01*
G01*
G37*
G36*
G01*
X154958240Y-75695120D02*
X154658240Y-75695120D01*
G75*
G02*
X154508240Y-75545120I0J150000D01*
G01*
X154508240Y-73895120D01*
G75*
G02*
X154658240Y-73745120I150000J0D01*
G01*
X154958240Y-73745120D01*
G75*
G02*
X155108240Y-73895120I0J-150000D01*
G01*
X155108240Y-75545120D01*
G75*
G02*
X154958240Y-75695120I-150000J0D01*
G01*
G37*
G36*
G01*
X153688240Y-75695120D02*
X153388240Y-75695120D01*
G75*
G02*
X153238240Y-75545120I0J150000D01*
G01*
X153238240Y-73895120D01*
G75*
G02*
X153388240Y-73745120I150000J0D01*
G01*
X153688240Y-73745120D01*
G75*
G02*
X153838240Y-73895120I0J-150000D01*
G01*
X153838240Y-75545120D01*
G75*
G02*
X153688240Y-75695120I-150000J0D01*
G01*
G37*
G36*
G01*
X152418240Y-75695120D02*
X152118240Y-75695120D01*
G75*
G02*
X151968240Y-75545120I0J150000D01*
G01*
X151968240Y-73895120D01*
G75*
G02*
X152118240Y-73745120I150000J0D01*
G01*
X152418240Y-73745120D01*
G75*
G02*
X152568240Y-73895120I0J-150000D01*
G01*
X152568240Y-75545120D01*
G75*
G02*
X152418240Y-75695120I-150000J0D01*
G01*
G37*
G36*
G01*
X151148240Y-75695120D02*
X150848240Y-75695120D01*
G75*
G02*
X150698240Y-75545120I0J150000D01*
G01*
X150698240Y-73895120D01*
G75*
G02*
X150848240Y-73745120I150000J0D01*
G01*
X151148240Y-73745120D01*
G75*
G02*
X151298240Y-73895120I0J-150000D01*
G01*
X151298240Y-75545120D01*
G75*
G02*
X151148240Y-75695120I-150000J0D01*
G01*
G37*
G36*
G01*
X149878240Y-75695120D02*
X149578240Y-75695120D01*
G75*
G02*
X149428240Y-75545120I0J150000D01*
G01*
X149428240Y-73895120D01*
G75*
G02*
X149578240Y-73745120I150000J0D01*
G01*
X149878240Y-73745120D01*
G75*
G02*
X150028240Y-73895120I0J-150000D01*
G01*
X150028240Y-75545120D01*
G75*
G02*
X149878240Y-75695120I-150000J0D01*
G01*
G37*
%TD*%
D18*
%TO.C,U5*%
X122535000Y-119610000D03*
X122535000Y-122150000D03*
X119995000Y-119610000D03*
X119995000Y-122150000D03*
X117455000Y-119610000D03*
X117455000Y-122150000D03*
X114915000Y-119610000D03*
D19*
X114915000Y-122150000D03*
%TD*%
%TO.C,U4*%
G36*
G01*
X129496000Y-68289440D02*
X129496000Y-67989440D01*
G75*
G02*
X129646000Y-67839440I150000J0D01*
G01*
X131296000Y-67839440D01*
G75*
G02*
X131446000Y-67989440I0J-150000D01*
G01*
X131446000Y-68289440D01*
G75*
G02*
X131296000Y-68439440I-150000J0D01*
G01*
X129646000Y-68439440D01*
G75*
G02*
X129496000Y-68289440I0J150000D01*
G01*
G37*
G36*
G01*
X129496000Y-69559440D02*
X129496000Y-69259440D01*
G75*
G02*
X129646000Y-69109440I150000J0D01*
G01*
X131296000Y-69109440D01*
G75*
G02*
X131446000Y-69259440I0J-150000D01*
G01*
X131446000Y-69559440D01*
G75*
G02*
X131296000Y-69709440I-150000J0D01*
G01*
X129646000Y-69709440D01*
G75*
G02*
X129496000Y-69559440I0J150000D01*
G01*
G37*
G36*
G01*
X129496000Y-70829440D02*
X129496000Y-70529440D01*
G75*
G02*
X129646000Y-70379440I150000J0D01*
G01*
X131296000Y-70379440D01*
G75*
G02*
X131446000Y-70529440I0J-150000D01*
G01*
X131446000Y-70829440D01*
G75*
G02*
X131296000Y-70979440I-150000J0D01*
G01*
X129646000Y-70979440D01*
G75*
G02*
X129496000Y-70829440I0J150000D01*
G01*
G37*
G36*
G01*
X129496000Y-72099440D02*
X129496000Y-71799440D01*
G75*
G02*
X129646000Y-71649440I150000J0D01*
G01*
X131296000Y-71649440D01*
G75*
G02*
X131446000Y-71799440I0J-150000D01*
G01*
X131446000Y-72099440D01*
G75*
G02*
X131296000Y-72249440I-150000J0D01*
G01*
X129646000Y-72249440D01*
G75*
G02*
X129496000Y-72099440I0J150000D01*
G01*
G37*
G36*
G01*
X129496000Y-73369440D02*
X129496000Y-73069440D01*
G75*
G02*
X129646000Y-72919440I150000J0D01*
G01*
X131296000Y-72919440D01*
G75*
G02*
X131446000Y-73069440I0J-150000D01*
G01*
X131446000Y-73369440D01*
G75*
G02*
X131296000Y-73519440I-150000J0D01*
G01*
X129646000Y-73519440D01*
G75*
G02*
X129496000Y-73369440I0J150000D01*
G01*
G37*
G36*
G01*
X129496000Y-74639440D02*
X129496000Y-74339440D01*
G75*
G02*
X129646000Y-74189440I150000J0D01*
G01*
X131296000Y-74189440D01*
G75*
G02*
X131446000Y-74339440I0J-150000D01*
G01*
X131446000Y-74639440D01*
G75*
G02*
X131296000Y-74789440I-150000J0D01*
G01*
X129646000Y-74789440D01*
G75*
G02*
X129496000Y-74639440I0J150000D01*
G01*
G37*
G36*
G01*
X129496000Y-75909440D02*
X129496000Y-75609440D01*
G75*
G02*
X129646000Y-75459440I150000J0D01*
G01*
X131296000Y-75459440D01*
G75*
G02*
X131446000Y-75609440I0J-150000D01*
G01*
X131446000Y-75909440D01*
G75*
G02*
X131296000Y-76059440I-150000J0D01*
G01*
X129646000Y-76059440D01*
G75*
G02*
X129496000Y-75909440I0J150000D01*
G01*
G37*
G36*
G01*
X129496000Y-77179440D02*
X129496000Y-76879440D01*
G75*
G02*
X129646000Y-76729440I150000J0D01*
G01*
X131296000Y-76729440D01*
G75*
G02*
X131446000Y-76879440I0J-150000D01*
G01*
X131446000Y-77179440D01*
G75*
G02*
X131296000Y-77329440I-150000J0D01*
G01*
X129646000Y-77329440D01*
G75*
G02*
X129496000Y-77179440I0J150000D01*
G01*
G37*
G36*
G01*
X124546000Y-77179440D02*
X124546000Y-76879440D01*
G75*
G02*
X124696000Y-76729440I150000J0D01*
G01*
X126346000Y-76729440D01*
G75*
G02*
X126496000Y-76879440I0J-150000D01*
G01*
X126496000Y-77179440D01*
G75*
G02*
X126346000Y-77329440I-150000J0D01*
G01*
X124696000Y-77329440D01*
G75*
G02*
X124546000Y-77179440I0J150000D01*
G01*
G37*
G36*
G01*
X124546000Y-75909440D02*
X124546000Y-75609440D01*
G75*
G02*
X124696000Y-75459440I150000J0D01*
G01*
X126346000Y-75459440D01*
G75*
G02*
X126496000Y-75609440I0J-150000D01*
G01*
X126496000Y-75909440D01*
G75*
G02*
X126346000Y-76059440I-150000J0D01*
G01*
X124696000Y-76059440D01*
G75*
G02*
X124546000Y-75909440I0J150000D01*
G01*
G37*
G36*
G01*
X124546000Y-74639440D02*
X124546000Y-74339440D01*
G75*
G02*
X124696000Y-74189440I150000J0D01*
G01*
X126346000Y-74189440D01*
G75*
G02*
X126496000Y-74339440I0J-150000D01*
G01*
X126496000Y-74639440D01*
G75*
G02*
X126346000Y-74789440I-150000J0D01*
G01*
X124696000Y-74789440D01*
G75*
G02*
X124546000Y-74639440I0J150000D01*
G01*
G37*
G36*
G01*
X124546000Y-73369440D02*
X124546000Y-73069440D01*
G75*
G02*
X124696000Y-72919440I150000J0D01*
G01*
X126346000Y-72919440D01*
G75*
G02*
X126496000Y-73069440I0J-150000D01*
G01*
X126496000Y-73369440D01*
G75*
G02*
X126346000Y-73519440I-150000J0D01*
G01*
X124696000Y-73519440D01*
G75*
G02*
X124546000Y-73369440I0J150000D01*
G01*
G37*
G36*
G01*
X124546000Y-72099440D02*
X124546000Y-71799440D01*
G75*
G02*
X124696000Y-71649440I150000J0D01*
G01*
X126346000Y-71649440D01*
G75*
G02*
X126496000Y-71799440I0J-150000D01*
G01*
X126496000Y-72099440D01*
G75*
G02*
X126346000Y-72249440I-150000J0D01*
G01*
X124696000Y-72249440D01*
G75*
G02*
X124546000Y-72099440I0J150000D01*
G01*
G37*
G36*
G01*
X124546000Y-70829440D02*
X124546000Y-70529440D01*
G75*
G02*
X124696000Y-70379440I150000J0D01*
G01*
X126346000Y-70379440D01*
G75*
G02*
X126496000Y-70529440I0J-150000D01*
G01*
X126496000Y-70829440D01*
G75*
G02*
X126346000Y-70979440I-150000J0D01*
G01*
X124696000Y-70979440D01*
G75*
G02*
X124546000Y-70829440I0J150000D01*
G01*
G37*
G36*
G01*
X124546000Y-69559440D02*
X124546000Y-69259440D01*
G75*
G02*
X124696000Y-69109440I150000J0D01*
G01*
X126346000Y-69109440D01*
G75*
G02*
X126496000Y-69259440I0J-150000D01*
G01*
X126496000Y-69559440D01*
G75*
G02*
X126346000Y-69709440I-150000J0D01*
G01*
X124696000Y-69709440D01*
G75*
G02*
X124546000Y-69559440I0J150000D01*
G01*
G37*
G36*
G01*
X124546000Y-68289440D02*
X124546000Y-67989440D01*
G75*
G02*
X124696000Y-67839440I150000J0D01*
G01*
X126346000Y-67839440D01*
G75*
G02*
X126496000Y-67989440I0J-150000D01*
G01*
X126496000Y-68289440D01*
G75*
G02*
X126346000Y-68439440I-150000J0D01*
G01*
X124696000Y-68439440D01*
G75*
G02*
X124546000Y-68289440I0J150000D01*
G01*
G37*
%TD*%
%TO.C,U2*%
G36*
G01*
X178454960Y-90697320D02*
X178454960Y-90397320D01*
G75*
G02*
X178604960Y-90247320I150000J0D01*
G01*
X180254960Y-90247320D01*
G75*
G02*
X180404960Y-90397320I0J-150000D01*
G01*
X180404960Y-90697320D01*
G75*
G02*
X180254960Y-90847320I-150000J0D01*
G01*
X178604960Y-90847320D01*
G75*
G02*
X178454960Y-90697320I0J150000D01*
G01*
G37*
G36*
G01*
X178454960Y-91967320D02*
X178454960Y-91667320D01*
G75*
G02*
X178604960Y-91517320I150000J0D01*
G01*
X180254960Y-91517320D01*
G75*
G02*
X180404960Y-91667320I0J-150000D01*
G01*
X180404960Y-91967320D01*
G75*
G02*
X180254960Y-92117320I-150000J0D01*
G01*
X178604960Y-92117320D01*
G75*
G02*
X178454960Y-91967320I0J150000D01*
G01*
G37*
G36*
G01*
X178454960Y-93237320D02*
X178454960Y-92937320D01*
G75*
G02*
X178604960Y-92787320I150000J0D01*
G01*
X180254960Y-92787320D01*
G75*
G02*
X180404960Y-92937320I0J-150000D01*
G01*
X180404960Y-93237320D01*
G75*
G02*
X180254960Y-93387320I-150000J0D01*
G01*
X178604960Y-93387320D01*
G75*
G02*
X178454960Y-93237320I0J150000D01*
G01*
G37*
G36*
G01*
X178454960Y-94507320D02*
X178454960Y-94207320D01*
G75*
G02*
X178604960Y-94057320I150000J0D01*
G01*
X180254960Y-94057320D01*
G75*
G02*
X180404960Y-94207320I0J-150000D01*
G01*
X180404960Y-94507320D01*
G75*
G02*
X180254960Y-94657320I-150000J0D01*
G01*
X178604960Y-94657320D01*
G75*
G02*
X178454960Y-94507320I0J150000D01*
G01*
G37*
G36*
G01*
X178454960Y-95777320D02*
X178454960Y-95477320D01*
G75*
G02*
X178604960Y-95327320I150000J0D01*
G01*
X180254960Y-95327320D01*
G75*
G02*
X180404960Y-95477320I0J-150000D01*
G01*
X180404960Y-95777320D01*
G75*
G02*
X180254960Y-95927320I-150000J0D01*
G01*
X178604960Y-95927320D01*
G75*
G02*
X178454960Y-95777320I0J150000D01*
G01*
G37*
G36*
G01*
X178454960Y-97047320D02*
X178454960Y-96747320D01*
G75*
G02*
X178604960Y-96597320I150000J0D01*
G01*
X180254960Y-96597320D01*
G75*
G02*
X180404960Y-96747320I0J-150000D01*
G01*
X180404960Y-97047320D01*
G75*
G02*
X180254960Y-97197320I-150000J0D01*
G01*
X178604960Y-97197320D01*
G75*
G02*
X178454960Y-97047320I0J150000D01*
G01*
G37*
G36*
G01*
X178454960Y-98317320D02*
X178454960Y-98017320D01*
G75*
G02*
X178604960Y-97867320I150000J0D01*
G01*
X180254960Y-97867320D01*
G75*
G02*
X180404960Y-98017320I0J-150000D01*
G01*
X180404960Y-98317320D01*
G75*
G02*
X180254960Y-98467320I-150000J0D01*
G01*
X178604960Y-98467320D01*
G75*
G02*
X178454960Y-98317320I0J150000D01*
G01*
G37*
G36*
G01*
X178454960Y-99587320D02*
X178454960Y-99287320D01*
G75*
G02*
X178604960Y-99137320I150000J0D01*
G01*
X180254960Y-99137320D01*
G75*
G02*
X180404960Y-99287320I0J-150000D01*
G01*
X180404960Y-99587320D01*
G75*
G02*
X180254960Y-99737320I-150000J0D01*
G01*
X178604960Y-99737320D01*
G75*
G02*
X178454960Y-99587320I0J150000D01*
G01*
G37*
G36*
G01*
X183404960Y-99587320D02*
X183404960Y-99287320D01*
G75*
G02*
X183554960Y-99137320I150000J0D01*
G01*
X185204960Y-99137320D01*
G75*
G02*
X185354960Y-99287320I0J-150000D01*
G01*
X185354960Y-99587320D01*
G75*
G02*
X185204960Y-99737320I-150000J0D01*
G01*
X183554960Y-99737320D01*
G75*
G02*
X183404960Y-99587320I0J150000D01*
G01*
G37*
G36*
G01*
X183404960Y-98317320D02*
X183404960Y-98017320D01*
G75*
G02*
X183554960Y-97867320I150000J0D01*
G01*
X185204960Y-97867320D01*
G75*
G02*
X185354960Y-98017320I0J-150000D01*
G01*
X185354960Y-98317320D01*
G75*
G02*
X185204960Y-98467320I-150000J0D01*
G01*
X183554960Y-98467320D01*
G75*
G02*
X183404960Y-98317320I0J150000D01*
G01*
G37*
G36*
G01*
X183404960Y-97047320D02*
X183404960Y-96747320D01*
G75*
G02*
X183554960Y-96597320I150000J0D01*
G01*
X185204960Y-96597320D01*
G75*
G02*
X185354960Y-96747320I0J-150000D01*
G01*
X185354960Y-97047320D01*
G75*
G02*
X185204960Y-97197320I-150000J0D01*
G01*
X183554960Y-97197320D01*
G75*
G02*
X183404960Y-97047320I0J150000D01*
G01*
G37*
G36*
G01*
X183404960Y-95777320D02*
X183404960Y-95477320D01*
G75*
G02*
X183554960Y-95327320I150000J0D01*
G01*
X185204960Y-95327320D01*
G75*
G02*
X185354960Y-95477320I0J-150000D01*
G01*
X185354960Y-95777320D01*
G75*
G02*
X185204960Y-95927320I-150000J0D01*
G01*
X183554960Y-95927320D01*
G75*
G02*
X183404960Y-95777320I0J150000D01*
G01*
G37*
G36*
G01*
X183404960Y-94507320D02*
X183404960Y-94207320D01*
G75*
G02*
X183554960Y-94057320I150000J0D01*
G01*
X185204960Y-94057320D01*
G75*
G02*
X185354960Y-94207320I0J-150000D01*
G01*
X185354960Y-94507320D01*
G75*
G02*
X185204960Y-94657320I-150000J0D01*
G01*
X183554960Y-94657320D01*
G75*
G02*
X183404960Y-94507320I0J150000D01*
G01*
G37*
G36*
G01*
X183404960Y-93237320D02*
X183404960Y-92937320D01*
G75*
G02*
X183554960Y-92787320I150000J0D01*
G01*
X185204960Y-92787320D01*
G75*
G02*
X185354960Y-92937320I0J-150000D01*
G01*
X185354960Y-93237320D01*
G75*
G02*
X185204960Y-93387320I-150000J0D01*
G01*
X183554960Y-93387320D01*
G75*
G02*
X183404960Y-93237320I0J150000D01*
G01*
G37*
G36*
G01*
X183404960Y-91967320D02*
X183404960Y-91667320D01*
G75*
G02*
X183554960Y-91517320I150000J0D01*
G01*
X185204960Y-91517320D01*
G75*
G02*
X185354960Y-91667320I0J-150000D01*
G01*
X185354960Y-91967320D01*
G75*
G02*
X185204960Y-92117320I-150000J0D01*
G01*
X183554960Y-92117320D01*
G75*
G02*
X183404960Y-91967320I0J150000D01*
G01*
G37*
G36*
G01*
X183404960Y-90697320D02*
X183404960Y-90397320D01*
G75*
G02*
X183554960Y-90247320I150000J0D01*
G01*
X185204960Y-90247320D01*
G75*
G02*
X185354960Y-90397320I0J-150000D01*
G01*
X185354960Y-90697320D01*
G75*
G02*
X185204960Y-90847320I-150000J0D01*
G01*
X183554960Y-90847320D01*
G75*
G02*
X183404960Y-90697320I0J150000D01*
G01*
G37*
%TD*%
D36*
%TO.C,SW_UP1*%
X166250000Y-119810000D03*
X153750000Y-119810000D03*
X166250000Y-112190000D03*
X153750000Y-112190000D03*
%TD*%
D37*
%TO.C,SW_RIGHT1*%
X168690000Y-134750000D03*
X168690000Y-122250000D03*
X176310000Y-134750000D03*
X176310000Y-122250000D03*
%TD*%
%TO.C,SW_LEFT1*%
X143690000Y-134750000D03*
X143690000Y-122250000D03*
X151310000Y-134750000D03*
X151310000Y-122250000D03*
%TD*%
D36*
%TO.C,SW_F3*%
X197685100Y-147221100D03*
X185185100Y-147221100D03*
X197685100Y-139601100D03*
X185185100Y-139601100D03*
%TD*%
%TO.C,SW_F2*%
X197685100Y-132221100D03*
X185185100Y-132221100D03*
X197685100Y-124601100D03*
X185185100Y-124601100D03*
%TD*%
%TO.C,SW_F1*%
X197685100Y-117221100D03*
X185185100Y-117221100D03*
X197685100Y-109601100D03*
X185185100Y-109601100D03*
%TD*%
%TO.C,SW_DOWN1*%
X166250000Y-144810000D03*
X153750000Y-144810000D03*
X166250000Y-137190000D03*
X153750000Y-137190000D03*
%TD*%
D37*
%TO.C,SW_CENTER1*%
X156190000Y-134750000D03*
X156190000Y-122250000D03*
X163810000Y-134750000D03*
X163810000Y-122250000D03*
%TD*%
D38*
%TO.C,RV2*%
X203195000Y-85315000D03*
X203195000Y-76515000D03*
D24*
X196195000Y-83415000D03*
X196195000Y-80915000D03*
X196195000Y-78415000D03*
%TD*%
D39*
%TO.C,RV1*%
X102215000Y-56745000D03*
X104755000Y-54205000D03*
X107295000Y-56745000D03*
%TD*%
D40*
%TO.C,RN1*%
X181033740Y-120994300D03*
X181033740Y-123534300D03*
X181033740Y-126074300D03*
X181033740Y-128614300D03*
X181033740Y-131154300D03*
X181033740Y-133694300D03*
X181033740Y-136234300D03*
X181033740Y-138774300D03*
D41*
X181033740Y-141314300D03*
%TD*%
%TO.C,R53*%
G36*
G01*
X81494940Y-102149580D02*
X81969940Y-102149580D01*
G75*
G02*
X82207440Y-102387080I0J-237500D01*
G01*
X82207440Y-102962080D01*
G75*
G02*
X81969940Y-103199580I-237500J0D01*
G01*
X81494940Y-103199580D01*
G75*
G02*
X81257440Y-102962080I0J237500D01*
G01*
X81257440Y-102387080D01*
G75*
G02*
X81494940Y-102149580I237500J0D01*
G01*
G37*
G36*
G01*
X81494940Y-103899580D02*
X81969940Y-103899580D01*
G75*
G02*
X82207440Y-104137080I0J-237500D01*
G01*
X82207440Y-104712080D01*
G75*
G02*
X81969940Y-104949580I-237500J0D01*
G01*
X81494940Y-104949580D01*
G75*
G02*
X81257440Y-104712080I0J237500D01*
G01*
X81257440Y-104137080D01*
G75*
G02*
X81494940Y-103899580I237500J0D01*
G01*
G37*
%TD*%
%TO.C,R52*%
G36*
G01*
X53476220Y-128421780D02*
X53001220Y-128421780D01*
G75*
G02*
X52763720Y-128184280I0J237500D01*
G01*
X52763720Y-127609280D01*
G75*
G02*
X53001220Y-127371780I237500J0D01*
G01*
X53476220Y-127371780D01*
G75*
G02*
X53713720Y-127609280I0J-237500D01*
G01*
X53713720Y-128184280D01*
G75*
G02*
X53476220Y-128421780I-237500J0D01*
G01*
G37*
G36*
G01*
X53476220Y-130171780D02*
X53001220Y-130171780D01*
G75*
G02*
X52763720Y-129934280I0J237500D01*
G01*
X52763720Y-129359280D01*
G75*
G02*
X53001220Y-129121780I237500J0D01*
G01*
X53476220Y-129121780D01*
G75*
G02*
X53713720Y-129359280I0J-237500D01*
G01*
X53713720Y-129934280D01*
G75*
G02*
X53476220Y-130171780I-237500J0D01*
G01*
G37*
%TD*%
%TO.C,R51*%
G36*
G01*
X67816300Y-118757820D02*
X67816300Y-119232820D01*
G75*
G02*
X67578800Y-119470320I-237500J0D01*
G01*
X67003800Y-119470320D01*
G75*
G02*
X66766300Y-119232820I0J237500D01*
G01*
X66766300Y-118757820D01*
G75*
G02*
X67003800Y-118520320I237500J0D01*
G01*
X67578800Y-118520320D01*
G75*
G02*
X67816300Y-118757820I0J-237500D01*
G01*
G37*
G36*
G01*
X69566300Y-118757820D02*
X69566300Y-119232820D01*
G75*
G02*
X69328800Y-119470320I-237500J0D01*
G01*
X68753800Y-119470320D01*
G75*
G02*
X68516300Y-119232820I0J237500D01*
G01*
X68516300Y-118757820D01*
G75*
G02*
X68753800Y-118520320I237500J0D01*
G01*
X69328800Y-118520320D01*
G75*
G02*
X69566300Y-118757820I0J-237500D01*
G01*
G37*
%TD*%
%TO.C,R50*%
G36*
G01*
X71068260Y-117677580D02*
X70593260Y-117677580D01*
G75*
G02*
X70355760Y-117440080I0J237500D01*
G01*
X70355760Y-116865080D01*
G75*
G02*
X70593260Y-116627580I237500J0D01*
G01*
X71068260Y-116627580D01*
G75*
G02*
X71305760Y-116865080I0J-237500D01*
G01*
X71305760Y-117440080D01*
G75*
G02*
X71068260Y-117677580I-237500J0D01*
G01*
G37*
G36*
G01*
X71068260Y-119427580D02*
X70593260Y-119427580D01*
G75*
G02*
X70355760Y-119190080I0J237500D01*
G01*
X70355760Y-118615080D01*
G75*
G02*
X70593260Y-118377580I237500J0D01*
G01*
X71068260Y-118377580D01*
G75*
G02*
X71305760Y-118615080I0J-237500D01*
G01*
X71305760Y-119190080D01*
G75*
G02*
X71068260Y-119427580I-237500J0D01*
G01*
G37*
%TD*%
%TO.C,R47*%
G36*
G01*
X166351260Y-104709840D02*
X166826260Y-104709840D01*
G75*
G02*
X167063760Y-104947340I0J-237500D01*
G01*
X167063760Y-105522340D01*
G75*
G02*
X166826260Y-105759840I-237500J0D01*
G01*
X166351260Y-105759840D01*
G75*
G02*
X166113760Y-105522340I0J237500D01*
G01*
X166113760Y-104947340D01*
G75*
G02*
X166351260Y-104709840I237500J0D01*
G01*
G37*
G36*
G01*
X166351260Y-102959840D02*
X166826260Y-102959840D01*
G75*
G02*
X167063760Y-103197340I0J-237500D01*
G01*
X167063760Y-103772340D01*
G75*
G02*
X166826260Y-104009840I-237500J0D01*
G01*
X166351260Y-104009840D01*
G75*
G02*
X166113760Y-103772340I0J237500D01*
G01*
X166113760Y-103197340D01*
G75*
G02*
X166351260Y-102959840I237500J0D01*
G01*
G37*
%TD*%
%TO.C,R46*%
G36*
G01*
X168426460Y-104009840D02*
X167951460Y-104009840D01*
G75*
G02*
X167713960Y-103772340I0J237500D01*
G01*
X167713960Y-103197340D01*
G75*
G02*
X167951460Y-102959840I237500J0D01*
G01*
X168426460Y-102959840D01*
G75*
G02*
X168663960Y-103197340I0J-237500D01*
G01*
X168663960Y-103772340D01*
G75*
G02*
X168426460Y-104009840I-237500J0D01*
G01*
G37*
G36*
G01*
X168426460Y-105759840D02*
X167951460Y-105759840D01*
G75*
G02*
X167713960Y-105522340I0J237500D01*
G01*
X167713960Y-104947340D01*
G75*
G02*
X167951460Y-104709840I237500J0D01*
G01*
X168426460Y-104709840D01*
G75*
G02*
X168663960Y-104947340I0J-237500D01*
G01*
X168663960Y-105522340D01*
G75*
G02*
X168426460Y-105759840I-237500J0D01*
G01*
G37*
%TD*%
%TO.C,R45*%
G36*
G01*
X173762980Y-104648880D02*
X174237980Y-104648880D01*
G75*
G02*
X174475480Y-104886380I0J-237500D01*
G01*
X174475480Y-105461380D01*
G75*
G02*
X174237980Y-105698880I-237500J0D01*
G01*
X173762980Y-105698880D01*
G75*
G02*
X173525480Y-105461380I0J237500D01*
G01*
X173525480Y-104886380D01*
G75*
G02*
X173762980Y-104648880I237500J0D01*
G01*
G37*
G36*
G01*
X173762980Y-102898880D02*
X174237980Y-102898880D01*
G75*
G02*
X174475480Y-103136380I0J-237500D01*
G01*
X174475480Y-103711380D01*
G75*
G02*
X174237980Y-103948880I-237500J0D01*
G01*
X173762980Y-103948880D01*
G75*
G02*
X173525480Y-103711380I0J237500D01*
G01*
X173525480Y-103136380D01*
G75*
G02*
X173762980Y-102898880I237500J0D01*
G01*
G37*
%TD*%
%TO.C,R44*%
G36*
G01*
X171964660Y-104653960D02*
X172439660Y-104653960D01*
G75*
G02*
X172677160Y-104891460I0J-237500D01*
G01*
X172677160Y-105466460D01*
G75*
G02*
X172439660Y-105703960I-237500J0D01*
G01*
X171964660Y-105703960D01*
G75*
G02*
X171727160Y-105466460I0J237500D01*
G01*
X171727160Y-104891460D01*
G75*
G02*
X171964660Y-104653960I237500J0D01*
G01*
G37*
G36*
G01*
X171964660Y-102903960D02*
X172439660Y-102903960D01*
G75*
G02*
X172677160Y-103141460I0J-237500D01*
G01*
X172677160Y-103716460D01*
G75*
G02*
X172439660Y-103953960I-237500J0D01*
G01*
X171964660Y-103953960D01*
G75*
G02*
X171727160Y-103716460I0J237500D01*
G01*
X171727160Y-103141460D01*
G75*
G02*
X171964660Y-102903960I237500J0D01*
G01*
G37*
%TD*%
%TO.C,R43*%
G36*
G01*
X170748020Y-103948880D02*
X170273020Y-103948880D01*
G75*
G02*
X170035520Y-103711380I0J237500D01*
G01*
X170035520Y-103136380D01*
G75*
G02*
X170273020Y-102898880I237500J0D01*
G01*
X170748020Y-102898880D01*
G75*
G02*
X170985520Y-103136380I0J-237500D01*
G01*
X170985520Y-103711380D01*
G75*
G02*
X170748020Y-103948880I-237500J0D01*
G01*
G37*
G36*
G01*
X170748020Y-105698880D02*
X170273020Y-105698880D01*
G75*
G02*
X170035520Y-105461380I0J237500D01*
G01*
X170035520Y-104886380D01*
G75*
G02*
X170273020Y-104648880I237500J0D01*
G01*
X170748020Y-104648880D01*
G75*
G02*
X170985520Y-104886380I0J-237500D01*
G01*
X170985520Y-105461380D01*
G75*
G02*
X170748020Y-105698880I-237500J0D01*
G01*
G37*
%TD*%
%TO.C,R42*%
G36*
G01*
X196369000Y-90288760D02*
X195894000Y-90288760D01*
G75*
G02*
X195656500Y-90051260I0J237500D01*
G01*
X195656500Y-89476260D01*
G75*
G02*
X195894000Y-89238760I237500J0D01*
G01*
X196369000Y-89238760D01*
G75*
G02*
X196606500Y-89476260I0J-237500D01*
G01*
X196606500Y-90051260D01*
G75*
G02*
X196369000Y-90288760I-237500J0D01*
G01*
G37*
G36*
G01*
X196369000Y-92038760D02*
X195894000Y-92038760D01*
G75*
G02*
X195656500Y-91801260I0J237500D01*
G01*
X195656500Y-91226260D01*
G75*
G02*
X195894000Y-90988760I237500J0D01*
G01*
X196369000Y-90988760D01*
G75*
G02*
X196606500Y-91226260I0J-237500D01*
G01*
X196606500Y-91801260D01*
G75*
G02*
X196369000Y-92038760I-237500J0D01*
G01*
G37*
%TD*%
%TO.C,R41*%
G36*
G01*
X172756400Y-106601380D02*
X172756400Y-107076380D01*
G75*
G02*
X172518900Y-107313880I-237500J0D01*
G01*
X171943900Y-107313880D01*
G75*
G02*
X171706400Y-107076380I0J237500D01*
G01*
X171706400Y-106601380D01*
G75*
G02*
X171943900Y-106363880I237500J0D01*
G01*
X172518900Y-106363880D01*
G75*
G02*
X172756400Y-106601380I0J-237500D01*
G01*
G37*
G36*
G01*
X174506400Y-106601380D02*
X174506400Y-107076380D01*
G75*
G02*
X174268900Y-107313880I-237500J0D01*
G01*
X173693900Y-107313880D01*
G75*
G02*
X173456400Y-107076380I0J237500D01*
G01*
X173456400Y-106601380D01*
G75*
G02*
X173693900Y-106363880I237500J0D01*
G01*
X174268900Y-106363880D01*
G75*
G02*
X174506400Y-106601380I0J-237500D01*
G01*
G37*
%TD*%
%TO.C,R40*%
G36*
G01*
X177991280Y-106606460D02*
X177991280Y-107081460D01*
G75*
G02*
X177753780Y-107318960I-237500J0D01*
G01*
X177178780Y-107318960D01*
G75*
G02*
X176941280Y-107081460I0J237500D01*
G01*
X176941280Y-106606460D01*
G75*
G02*
X177178780Y-106368960I237500J0D01*
G01*
X177753780Y-106368960D01*
G75*
G02*
X177991280Y-106606460I0J-237500D01*
G01*
G37*
G36*
G01*
X176241280Y-106606460D02*
X176241280Y-107081460D01*
G75*
G02*
X176003780Y-107318960I-237500J0D01*
G01*
X175428780Y-107318960D01*
G75*
G02*
X175191280Y-107081460I0J237500D01*
G01*
X175191280Y-106606460D01*
G75*
G02*
X175428780Y-106368960I237500J0D01*
G01*
X176003780Y-106368960D01*
G75*
G02*
X176241280Y-106606460I0J-237500D01*
G01*
G37*
%TD*%
%TO.C,R39*%
G36*
G01*
X194227780Y-84035280D02*
X193752780Y-84035280D01*
G75*
G02*
X193515280Y-83797780I0J237500D01*
G01*
X193515280Y-83222780D01*
G75*
G02*
X193752780Y-82985280I237500J0D01*
G01*
X194227780Y-82985280D01*
G75*
G02*
X194465280Y-83222780I0J-237500D01*
G01*
X194465280Y-83797780D01*
G75*
G02*
X194227780Y-84035280I-237500J0D01*
G01*
G37*
G36*
G01*
X194227780Y-85785280D02*
X193752780Y-85785280D01*
G75*
G02*
X193515280Y-85547780I0J237500D01*
G01*
X193515280Y-84972780D01*
G75*
G02*
X193752780Y-84735280I237500J0D01*
G01*
X194227780Y-84735280D01*
G75*
G02*
X194465280Y-84972780I0J-237500D01*
G01*
X194465280Y-85547780D01*
G75*
G02*
X194227780Y-85785280I-237500J0D01*
G01*
G37*
%TD*%
%TO.C,R38*%
G36*
G01*
X84000360Y-117575300D02*
X84000360Y-118825300D01*
G75*
G02*
X83750360Y-119075300I-250000J0D01*
G01*
X82825360Y-119075300D01*
G75*
G02*
X82575360Y-118825300I0J250000D01*
G01*
X82575360Y-117575300D01*
G75*
G02*
X82825360Y-117325300I250000J0D01*
G01*
X83750360Y-117325300D01*
G75*
G02*
X84000360Y-117575300I0J-250000D01*
G01*
G37*
G36*
G01*
X86975360Y-117575300D02*
X86975360Y-118825300D01*
G75*
G02*
X86725360Y-119075300I-250000J0D01*
G01*
X85800360Y-119075300D01*
G75*
G02*
X85550360Y-118825300I0J250000D01*
G01*
X85550360Y-117575300D01*
G75*
G02*
X85800360Y-117325300I250000J0D01*
G01*
X86725360Y-117325300D01*
G75*
G02*
X86975360Y-117575300I0J-250000D01*
G01*
G37*
%TD*%
%TO.C,R37*%
G36*
G01*
X87898280Y-114869840D02*
X88373280Y-114869840D01*
G75*
G02*
X88610780Y-115107340I0J-237500D01*
G01*
X88610780Y-115682340D01*
G75*
G02*
X88373280Y-115919840I-237500J0D01*
G01*
X87898280Y-115919840D01*
G75*
G02*
X87660780Y-115682340I0J237500D01*
G01*
X87660780Y-115107340D01*
G75*
G02*
X87898280Y-114869840I237500J0D01*
G01*
G37*
G36*
G01*
X87898280Y-113119840D02*
X88373280Y-113119840D01*
G75*
G02*
X88610780Y-113357340I0J-237500D01*
G01*
X88610780Y-113932340D01*
G75*
G02*
X88373280Y-114169840I-237500J0D01*
G01*
X87898280Y-114169840D01*
G75*
G02*
X87660780Y-113932340I0J237500D01*
G01*
X87660780Y-113357340D01*
G75*
G02*
X87898280Y-113119840I237500J0D01*
G01*
G37*
%TD*%
%TO.C,R36*%
G36*
G01*
X89417960Y-110558720D02*
X89417960Y-110083720D01*
G75*
G02*
X89655460Y-109846220I237500J0D01*
G01*
X90230460Y-109846220D01*
G75*
G02*
X90467960Y-110083720I0J-237500D01*
G01*
X90467960Y-110558720D01*
G75*
G02*
X90230460Y-110796220I-237500J0D01*
G01*
X89655460Y-110796220D01*
G75*
G02*
X89417960Y-110558720I0J237500D01*
G01*
G37*
G36*
G01*
X87667960Y-110558720D02*
X87667960Y-110083720D01*
G75*
G02*
X87905460Y-109846220I237500J0D01*
G01*
X88480460Y-109846220D01*
G75*
G02*
X88717960Y-110083720I0J-237500D01*
G01*
X88717960Y-110558720D01*
G75*
G02*
X88480460Y-110796220I-237500J0D01*
G01*
X87905460Y-110796220D01*
G75*
G02*
X87667960Y-110558720I0J237500D01*
G01*
G37*
%TD*%
%TO.C,R35*%
G36*
G01*
X82957980Y-106901860D02*
X83432980Y-106901860D01*
G75*
G02*
X83670480Y-107139360I0J-237500D01*
G01*
X83670480Y-107714360D01*
G75*
G02*
X83432980Y-107951860I-237500J0D01*
G01*
X82957980Y-107951860D01*
G75*
G02*
X82720480Y-107714360I0J237500D01*
G01*
X82720480Y-107139360D01*
G75*
G02*
X82957980Y-106901860I237500J0D01*
G01*
G37*
G36*
G01*
X82957980Y-105151860D02*
X83432980Y-105151860D01*
G75*
G02*
X83670480Y-105389360I0J-237500D01*
G01*
X83670480Y-105964360D01*
G75*
G02*
X83432980Y-106201860I-237500J0D01*
G01*
X82957980Y-106201860D01*
G75*
G02*
X82720480Y-105964360I0J237500D01*
G01*
X82720480Y-105389360D01*
G75*
G02*
X82957980Y-105151860I237500J0D01*
G01*
G37*
%TD*%
%TO.C,R34*%
G36*
G01*
X86013600Y-106829440D02*
X86488600Y-106829440D01*
G75*
G02*
X86726100Y-107066940I0J-237500D01*
G01*
X86726100Y-107641940D01*
G75*
G02*
X86488600Y-107879440I-237500J0D01*
G01*
X86013600Y-107879440D01*
G75*
G02*
X85776100Y-107641940I0J237500D01*
G01*
X85776100Y-107066940D01*
G75*
G02*
X86013600Y-106829440I237500J0D01*
G01*
G37*
G36*
G01*
X86013600Y-105079440D02*
X86488600Y-105079440D01*
G75*
G02*
X86726100Y-105316940I0J-237500D01*
G01*
X86726100Y-105891940D01*
G75*
G02*
X86488600Y-106129440I-237500J0D01*
G01*
X86013600Y-106129440D01*
G75*
G02*
X85776100Y-105891940I0J237500D01*
G01*
X85776100Y-105316940D01*
G75*
G02*
X86013600Y-105079440I237500J0D01*
G01*
G37*
%TD*%
%TO.C,R33*%
G36*
G01*
X130059000Y-119372500D02*
X130059000Y-119847500D01*
G75*
G02*
X129821500Y-120085000I-237500J0D01*
G01*
X129246500Y-120085000D01*
G75*
G02*
X129009000Y-119847500I0J237500D01*
G01*
X129009000Y-119372500D01*
G75*
G02*
X129246500Y-119135000I237500J0D01*
G01*
X129821500Y-119135000D01*
G75*
G02*
X130059000Y-119372500I0J-237500D01*
G01*
G37*
G36*
G01*
X131809000Y-119372500D02*
X131809000Y-119847500D01*
G75*
G02*
X131571500Y-120085000I-237500J0D01*
G01*
X130996500Y-120085000D01*
G75*
G02*
X130759000Y-119847500I0J237500D01*
G01*
X130759000Y-119372500D01*
G75*
G02*
X130996500Y-119135000I237500J0D01*
G01*
X131571500Y-119135000D01*
G75*
G02*
X131809000Y-119372500I0J-237500D01*
G01*
G37*
%TD*%
%TO.C,R32*%
G36*
G01*
X133252540Y-120103280D02*
X132777540Y-120103280D01*
G75*
G02*
X132540040Y-119865780I0J237500D01*
G01*
X132540040Y-119290780D01*
G75*
G02*
X132777540Y-119053280I237500J0D01*
G01*
X133252540Y-119053280D01*
G75*
G02*
X133490040Y-119290780I0J-237500D01*
G01*
X133490040Y-119865780D01*
G75*
G02*
X133252540Y-120103280I-237500J0D01*
G01*
G37*
G36*
G01*
X133252540Y-121853280D02*
X132777540Y-121853280D01*
G75*
G02*
X132540040Y-121615780I0J237500D01*
G01*
X132540040Y-121040780D01*
G75*
G02*
X132777540Y-120803280I237500J0D01*
G01*
X133252540Y-120803280D01*
G75*
G02*
X133490040Y-121040780I0J-237500D01*
G01*
X133490040Y-121615780D01*
G75*
G02*
X133252540Y-121853280I-237500J0D01*
G01*
G37*
%TD*%
%TO.C,R31*%
G36*
G01*
X130033600Y-121023500D02*
X130033600Y-121498500D01*
G75*
G02*
X129796100Y-121736000I-237500J0D01*
G01*
X129221100Y-121736000D01*
G75*
G02*
X128983600Y-121498500I0J237500D01*
G01*
X128983600Y-121023500D01*
G75*
G02*
X129221100Y-120786000I237500J0D01*
G01*
X129796100Y-120786000D01*
G75*
G02*
X130033600Y-121023500I0J-237500D01*
G01*
G37*
G36*
G01*
X131783600Y-121023500D02*
X131783600Y-121498500D01*
G75*
G02*
X131546100Y-121736000I-237500J0D01*
G01*
X130971100Y-121736000D01*
G75*
G02*
X130733600Y-121498500I0J237500D01*
G01*
X130733600Y-121023500D01*
G75*
G02*
X130971100Y-120786000I237500J0D01*
G01*
X131546100Y-120786000D01*
G75*
G02*
X131783600Y-121023500I0J-237500D01*
G01*
G37*
%TD*%
%TO.C,R30*%
G36*
G01*
X109146140Y-90228560D02*
X109146140Y-89753560D01*
G75*
G02*
X109383640Y-89516060I237500J0D01*
G01*
X109958640Y-89516060D01*
G75*
G02*
X110196140Y-89753560I0J-237500D01*
G01*
X110196140Y-90228560D01*
G75*
G02*
X109958640Y-90466060I-237500J0D01*
G01*
X109383640Y-90466060D01*
G75*
G02*
X109146140Y-90228560I0J237500D01*
G01*
G37*
G36*
G01*
X107396140Y-90228560D02*
X107396140Y-89753560D01*
G75*
G02*
X107633640Y-89516060I237500J0D01*
G01*
X108208640Y-89516060D01*
G75*
G02*
X108446140Y-89753560I0J-237500D01*
G01*
X108446140Y-90228560D01*
G75*
G02*
X108208640Y-90466060I-237500J0D01*
G01*
X107633640Y-90466060D01*
G75*
G02*
X107396140Y-90228560I0J237500D01*
G01*
G37*
%TD*%
%TO.C,R29*%
G36*
G01*
X131350060Y-92401000D02*
X131825060Y-92401000D01*
G75*
G02*
X132062560Y-92638500I0J-237500D01*
G01*
X132062560Y-93213500D01*
G75*
G02*
X131825060Y-93451000I-237500J0D01*
G01*
X131350060Y-93451000D01*
G75*
G02*
X131112560Y-93213500I0J237500D01*
G01*
X131112560Y-92638500D01*
G75*
G02*
X131350060Y-92401000I237500J0D01*
G01*
G37*
G36*
G01*
X131350060Y-90651000D02*
X131825060Y-90651000D01*
G75*
G02*
X132062560Y-90888500I0J-237500D01*
G01*
X132062560Y-91463500D01*
G75*
G02*
X131825060Y-91701000I-237500J0D01*
G01*
X131350060Y-91701000D01*
G75*
G02*
X131112560Y-91463500I0J237500D01*
G01*
X131112560Y-90888500D01*
G75*
G02*
X131350060Y-90651000I237500J0D01*
G01*
G37*
%TD*%
%TO.C,R28*%
G36*
G01*
X107809360Y-105935160D02*
X107334360Y-105935160D01*
G75*
G02*
X107096860Y-105697660I0J237500D01*
G01*
X107096860Y-105122660D01*
G75*
G02*
X107334360Y-104885160I237500J0D01*
G01*
X107809360Y-104885160D01*
G75*
G02*
X108046860Y-105122660I0J-237500D01*
G01*
X108046860Y-105697660D01*
G75*
G02*
X107809360Y-105935160I-237500J0D01*
G01*
G37*
G36*
G01*
X107809360Y-107685160D02*
X107334360Y-107685160D01*
G75*
G02*
X107096860Y-107447660I0J237500D01*
G01*
X107096860Y-106872660D01*
G75*
G02*
X107334360Y-106635160I237500J0D01*
G01*
X107809360Y-106635160D01*
G75*
G02*
X108046860Y-106872660I0J-237500D01*
G01*
X108046860Y-107447660D01*
G75*
G02*
X107809360Y-107685160I-237500J0D01*
G01*
G37*
%TD*%
%TO.C,R27*%
G36*
G01*
X160847100Y-94241000D02*
X160372100Y-94241000D01*
G75*
G02*
X160134600Y-94003500I0J237500D01*
G01*
X160134600Y-93428500D01*
G75*
G02*
X160372100Y-93191000I237500J0D01*
G01*
X160847100Y-93191000D01*
G75*
G02*
X161084600Y-93428500I0J-237500D01*
G01*
X161084600Y-94003500D01*
G75*
G02*
X160847100Y-94241000I-237500J0D01*
G01*
G37*
G36*
G01*
X160847100Y-95991000D02*
X160372100Y-95991000D01*
G75*
G02*
X160134600Y-95753500I0J237500D01*
G01*
X160134600Y-95178500D01*
G75*
G02*
X160372100Y-94941000I237500J0D01*
G01*
X160847100Y-94941000D01*
G75*
G02*
X161084600Y-95178500I0J-237500D01*
G01*
X161084600Y-95753500D01*
G75*
G02*
X160847100Y-95991000I-237500J0D01*
G01*
G37*
%TD*%
%TO.C,R26*%
G36*
G01*
X158937100Y-94241000D02*
X158462100Y-94241000D01*
G75*
G02*
X158224600Y-94003500I0J237500D01*
G01*
X158224600Y-93428500D01*
G75*
G02*
X158462100Y-93191000I237500J0D01*
G01*
X158937100Y-93191000D01*
G75*
G02*
X159174600Y-93428500I0J-237500D01*
G01*
X159174600Y-94003500D01*
G75*
G02*
X158937100Y-94241000I-237500J0D01*
G01*
G37*
G36*
G01*
X158937100Y-95991000D02*
X158462100Y-95991000D01*
G75*
G02*
X158224600Y-95753500I0J237500D01*
G01*
X158224600Y-95178500D01*
G75*
G02*
X158462100Y-94941000I237500J0D01*
G01*
X158937100Y-94941000D01*
G75*
G02*
X159174600Y-95178500I0J-237500D01*
G01*
X159174600Y-95753500D01*
G75*
G02*
X158937100Y-95991000I-237500J0D01*
G01*
G37*
%TD*%
%TO.C,R25*%
G36*
G01*
X157037100Y-94235920D02*
X156562100Y-94235920D01*
G75*
G02*
X156324600Y-93998420I0J237500D01*
G01*
X156324600Y-93423420D01*
G75*
G02*
X156562100Y-93185920I237500J0D01*
G01*
X157037100Y-93185920D01*
G75*
G02*
X157274600Y-93423420I0J-237500D01*
G01*
X157274600Y-93998420D01*
G75*
G02*
X157037100Y-94235920I-237500J0D01*
G01*
G37*
G36*
G01*
X157037100Y-95985920D02*
X156562100Y-95985920D01*
G75*
G02*
X156324600Y-95748420I0J237500D01*
G01*
X156324600Y-95173420D01*
G75*
G02*
X156562100Y-94935920I237500J0D01*
G01*
X157037100Y-94935920D01*
G75*
G02*
X157274600Y-95173420I0J-237500D01*
G01*
X157274600Y-95748420D01*
G75*
G02*
X157037100Y-95985920I-237500J0D01*
G01*
G37*
%TD*%
%TO.C,R24*%
G36*
G01*
X155137180Y-94246080D02*
X154662180Y-94246080D01*
G75*
G02*
X154424680Y-94008580I0J237500D01*
G01*
X154424680Y-93433580D01*
G75*
G02*
X154662180Y-93196080I237500J0D01*
G01*
X155137180Y-93196080D01*
G75*
G02*
X155374680Y-93433580I0J-237500D01*
G01*
X155374680Y-94008580D01*
G75*
G02*
X155137180Y-94246080I-237500J0D01*
G01*
G37*
G36*
G01*
X155137180Y-95996080D02*
X154662180Y-95996080D01*
G75*
G02*
X154424680Y-95758580I0J237500D01*
G01*
X154424680Y-95183580D01*
G75*
G02*
X154662180Y-94946080I237500J0D01*
G01*
X155137180Y-94946080D01*
G75*
G02*
X155374680Y-95183580I0J-237500D01*
G01*
X155374680Y-95758580D01*
G75*
G02*
X155137180Y-95996080I-237500J0D01*
G01*
G37*
%TD*%
%TO.C,R23*%
G36*
G01*
X153232180Y-94251160D02*
X152757180Y-94251160D01*
G75*
G02*
X152519680Y-94013660I0J237500D01*
G01*
X152519680Y-93438660D01*
G75*
G02*
X152757180Y-93201160I237500J0D01*
G01*
X153232180Y-93201160D01*
G75*
G02*
X153469680Y-93438660I0J-237500D01*
G01*
X153469680Y-94013660D01*
G75*
G02*
X153232180Y-94251160I-237500J0D01*
G01*
G37*
G36*
G01*
X153232180Y-96001160D02*
X152757180Y-96001160D01*
G75*
G02*
X152519680Y-95763660I0J237500D01*
G01*
X152519680Y-95188660D01*
G75*
G02*
X152757180Y-94951160I237500J0D01*
G01*
X153232180Y-94951160D01*
G75*
G02*
X153469680Y-95188660I0J-237500D01*
G01*
X153469680Y-95763660D01*
G75*
G02*
X153232180Y-96001160I-237500J0D01*
G01*
G37*
%TD*%
%TO.C,R22*%
G36*
G01*
X151297100Y-94241000D02*
X150822100Y-94241000D01*
G75*
G02*
X150584600Y-94003500I0J237500D01*
G01*
X150584600Y-93428500D01*
G75*
G02*
X150822100Y-93191000I237500J0D01*
G01*
X151297100Y-93191000D01*
G75*
G02*
X151534600Y-93428500I0J-237500D01*
G01*
X151534600Y-94003500D01*
G75*
G02*
X151297100Y-94241000I-237500J0D01*
G01*
G37*
G36*
G01*
X151297100Y-95991000D02*
X150822100Y-95991000D01*
G75*
G02*
X150584600Y-95753500I0J237500D01*
G01*
X150584600Y-95178500D01*
G75*
G02*
X150822100Y-94941000I237500J0D01*
G01*
X151297100Y-94941000D01*
G75*
G02*
X151534600Y-95178500I0J-237500D01*
G01*
X151534600Y-95753500D01*
G75*
G02*
X151297100Y-95991000I-237500J0D01*
G01*
G37*
%TD*%
%TO.C,R21*%
G36*
G01*
X149417100Y-94266400D02*
X148942100Y-94266400D01*
G75*
G02*
X148704600Y-94028900I0J237500D01*
G01*
X148704600Y-93453900D01*
G75*
G02*
X148942100Y-93216400I237500J0D01*
G01*
X149417100Y-93216400D01*
G75*
G02*
X149654600Y-93453900I0J-237500D01*
G01*
X149654600Y-94028900D01*
G75*
G02*
X149417100Y-94266400I-237500J0D01*
G01*
G37*
G36*
G01*
X149417100Y-96016400D02*
X148942100Y-96016400D01*
G75*
G02*
X148704600Y-95778900I0J237500D01*
G01*
X148704600Y-95203900D01*
G75*
G02*
X148942100Y-94966400I237500J0D01*
G01*
X149417100Y-94966400D01*
G75*
G02*
X149654600Y-95203900I0J-237500D01*
G01*
X149654600Y-95778900D01*
G75*
G02*
X149417100Y-96016400I-237500J0D01*
G01*
G37*
%TD*%
%TO.C,R20*%
G36*
G01*
X147512100Y-94266400D02*
X147037100Y-94266400D01*
G75*
G02*
X146799600Y-94028900I0J237500D01*
G01*
X146799600Y-93453900D01*
G75*
G02*
X147037100Y-93216400I237500J0D01*
G01*
X147512100Y-93216400D01*
G75*
G02*
X147749600Y-93453900I0J-237500D01*
G01*
X147749600Y-94028900D01*
G75*
G02*
X147512100Y-94266400I-237500J0D01*
G01*
G37*
G36*
G01*
X147512100Y-96016400D02*
X147037100Y-96016400D01*
G75*
G02*
X146799600Y-95778900I0J237500D01*
G01*
X146799600Y-95203900D01*
G75*
G02*
X147037100Y-94966400I237500J0D01*
G01*
X147512100Y-94966400D01*
G75*
G02*
X147749600Y-95203900I0J-237500D01*
G01*
X147749600Y-95778900D01*
G75*
G02*
X147512100Y-96016400I-237500J0D01*
G01*
G37*
%TD*%
%TO.C,R19*%
G36*
G01*
X153775740Y-66321320D02*
X153300740Y-66321320D01*
G75*
G02*
X153063240Y-66083820I0J237500D01*
G01*
X153063240Y-65508820D01*
G75*
G02*
X153300740Y-65271320I237500J0D01*
G01*
X153775740Y-65271320D01*
G75*
G02*
X154013240Y-65508820I0J-237500D01*
G01*
X154013240Y-66083820D01*
G75*
G02*
X153775740Y-66321320I-237500J0D01*
G01*
G37*
G36*
G01*
X153775740Y-68071320D02*
X153300740Y-68071320D01*
G75*
G02*
X153063240Y-67833820I0J237500D01*
G01*
X153063240Y-67258820D01*
G75*
G02*
X153300740Y-67021320I237500J0D01*
G01*
X153775740Y-67021320D01*
G75*
G02*
X154013240Y-67258820I0J-237500D01*
G01*
X154013240Y-67833820D01*
G75*
G02*
X153775740Y-68071320I-237500J0D01*
G01*
G37*
%TD*%
%TO.C,R18*%
G36*
G01*
X158322320Y-67067040D02*
X158797320Y-67067040D01*
G75*
G02*
X159034820Y-67304540I0J-237500D01*
G01*
X159034820Y-67879540D01*
G75*
G02*
X158797320Y-68117040I-237500J0D01*
G01*
X158322320Y-68117040D01*
G75*
G02*
X158084820Y-67879540I0J237500D01*
G01*
X158084820Y-67304540D01*
G75*
G02*
X158322320Y-67067040I237500J0D01*
G01*
G37*
G36*
G01*
X158322320Y-65317040D02*
X158797320Y-65317040D01*
G75*
G02*
X159034820Y-65554540I0J-237500D01*
G01*
X159034820Y-66129540D01*
G75*
G02*
X158797320Y-66367040I-237500J0D01*
G01*
X158322320Y-66367040D01*
G75*
G02*
X158084820Y-66129540I0J237500D01*
G01*
X158084820Y-65554540D01*
G75*
G02*
X158322320Y-65317040I237500J0D01*
G01*
G37*
%TD*%
%TO.C,R17*%
G36*
G01*
X96618100Y-62708400D02*
X97093100Y-62708400D01*
G75*
G02*
X97330600Y-62945900I0J-237500D01*
G01*
X97330600Y-63520900D01*
G75*
G02*
X97093100Y-63758400I-237500J0D01*
G01*
X96618100Y-63758400D01*
G75*
G02*
X96380600Y-63520900I0J237500D01*
G01*
X96380600Y-62945900D01*
G75*
G02*
X96618100Y-62708400I237500J0D01*
G01*
G37*
G36*
G01*
X96618100Y-60958400D02*
X97093100Y-60958400D01*
G75*
G02*
X97330600Y-61195900I0J-237500D01*
G01*
X97330600Y-61770900D01*
G75*
G02*
X97093100Y-62008400I-237500J0D01*
G01*
X96618100Y-62008400D01*
G75*
G02*
X96380600Y-61770900I0J237500D01*
G01*
X96380600Y-61195900D01*
G75*
G02*
X96618100Y-60958400I237500J0D01*
G01*
G37*
%TD*%
%TO.C,R16*%
G36*
G01*
X122726780Y-72793240D02*
X122251780Y-72793240D01*
G75*
G02*
X122014280Y-72555740I0J237500D01*
G01*
X122014280Y-71980740D01*
G75*
G02*
X122251780Y-71743240I237500J0D01*
G01*
X122726780Y-71743240D01*
G75*
G02*
X122964280Y-71980740I0J-237500D01*
G01*
X122964280Y-72555740D01*
G75*
G02*
X122726780Y-72793240I-237500J0D01*
G01*
G37*
G36*
G01*
X122726780Y-74543240D02*
X122251780Y-74543240D01*
G75*
G02*
X122014280Y-74305740I0J237500D01*
G01*
X122014280Y-73730740D01*
G75*
G02*
X122251780Y-73493240I237500J0D01*
G01*
X122726780Y-73493240D01*
G75*
G02*
X122964280Y-73730740I0J-237500D01*
G01*
X122964280Y-74305740D01*
G75*
G02*
X122726780Y-74543240I-237500J0D01*
G01*
G37*
%TD*%
%TO.C,R15*%
G36*
G01*
X187432520Y-93403540D02*
X187432520Y-93878540D01*
G75*
G02*
X187195020Y-94116040I-237500J0D01*
G01*
X186620020Y-94116040D01*
G75*
G02*
X186382520Y-93878540I0J237500D01*
G01*
X186382520Y-93403540D01*
G75*
G02*
X186620020Y-93166040I237500J0D01*
G01*
X187195020Y-93166040D01*
G75*
G02*
X187432520Y-93403540I0J-237500D01*
G01*
G37*
G36*
G01*
X189182520Y-93403540D02*
X189182520Y-93878540D01*
G75*
G02*
X188945020Y-94116040I-237500J0D01*
G01*
X188370020Y-94116040D01*
G75*
G02*
X188132520Y-93878540I0J237500D01*
G01*
X188132520Y-93403540D01*
G75*
G02*
X188370020Y-93166040I237500J0D01*
G01*
X188945020Y-93166040D01*
G75*
G02*
X189182520Y-93403540I0J-237500D01*
G01*
G37*
%TD*%
%TO.C,R14*%
G36*
G01*
X187417280Y-91823660D02*
X187417280Y-92298660D01*
G75*
G02*
X187179780Y-92536160I-237500J0D01*
G01*
X186604780Y-92536160D01*
G75*
G02*
X186367280Y-92298660I0J237500D01*
G01*
X186367280Y-91823660D01*
G75*
G02*
X186604780Y-91586160I237500J0D01*
G01*
X187179780Y-91586160D01*
G75*
G02*
X187417280Y-91823660I0J-237500D01*
G01*
G37*
G36*
G01*
X189167280Y-91823660D02*
X189167280Y-92298660D01*
G75*
G02*
X188929780Y-92536160I-237500J0D01*
G01*
X188354780Y-92536160D01*
G75*
G02*
X188117280Y-92298660I0J237500D01*
G01*
X188117280Y-91823660D01*
G75*
G02*
X188354780Y-91586160I237500J0D01*
G01*
X188929780Y-91586160D01*
G75*
G02*
X189167280Y-91823660I0J-237500D01*
G01*
G37*
%TD*%
%TO.C,R13*%
G36*
G01*
X187402040Y-90253940D02*
X187402040Y-90728940D01*
G75*
G02*
X187164540Y-90966440I-237500J0D01*
G01*
X186589540Y-90966440D01*
G75*
G02*
X186352040Y-90728940I0J237500D01*
G01*
X186352040Y-90253940D01*
G75*
G02*
X186589540Y-90016440I237500J0D01*
G01*
X187164540Y-90016440D01*
G75*
G02*
X187402040Y-90253940I0J-237500D01*
G01*
G37*
G36*
G01*
X189152040Y-90253940D02*
X189152040Y-90728940D01*
G75*
G02*
X188914540Y-90966440I-237500J0D01*
G01*
X188339540Y-90966440D01*
G75*
G02*
X188102040Y-90728940I0J237500D01*
G01*
X188102040Y-90253940D01*
G75*
G02*
X188339540Y-90016440I237500J0D01*
G01*
X188914540Y-90016440D01*
G75*
G02*
X189152040Y-90253940I0J-237500D01*
G01*
G37*
%TD*%
%TO.C,R12*%
G36*
G01*
X194288720Y-136223620D02*
X194763720Y-136223620D01*
G75*
G02*
X195001220Y-136461120I0J-237500D01*
G01*
X195001220Y-137036120D01*
G75*
G02*
X194763720Y-137273620I-237500J0D01*
G01*
X194288720Y-137273620D01*
G75*
G02*
X194051220Y-137036120I0J237500D01*
G01*
X194051220Y-136461120D01*
G75*
G02*
X194288720Y-136223620I237500J0D01*
G01*
G37*
G36*
G01*
X194288720Y-134473620D02*
X194763720Y-134473620D01*
G75*
G02*
X195001220Y-134711120I0J-237500D01*
G01*
X195001220Y-135286120D01*
G75*
G02*
X194763720Y-135523620I-237500J0D01*
G01*
X194288720Y-135523620D01*
G75*
G02*
X194051220Y-135286120I0J237500D01*
G01*
X194051220Y-134711120D01*
G75*
G02*
X194288720Y-134473620I237500J0D01*
G01*
G37*
%TD*%
%TO.C,R11*%
G36*
G01*
X194291260Y-121184280D02*
X194766260Y-121184280D01*
G75*
G02*
X195003760Y-121421780I0J-237500D01*
G01*
X195003760Y-121996780D01*
G75*
G02*
X194766260Y-122234280I-237500J0D01*
G01*
X194291260Y-122234280D01*
G75*
G02*
X194053760Y-121996780I0J237500D01*
G01*
X194053760Y-121421780D01*
G75*
G02*
X194291260Y-121184280I237500J0D01*
G01*
G37*
G36*
G01*
X194291260Y-119434280D02*
X194766260Y-119434280D01*
G75*
G02*
X195003760Y-119671780I0J-237500D01*
G01*
X195003760Y-120246780D01*
G75*
G02*
X194766260Y-120484280I-237500J0D01*
G01*
X194291260Y-120484280D01*
G75*
G02*
X194053760Y-120246780I0J237500D01*
G01*
X194053760Y-119671780D01*
G75*
G02*
X194291260Y-119434280I237500J0D01*
G01*
G37*
%TD*%
%TO.C,R10*%
G36*
G01*
X194278560Y-104295880D02*
X194753560Y-104295880D01*
G75*
G02*
X194991060Y-104533380I0J-237500D01*
G01*
X194991060Y-105108380D01*
G75*
G02*
X194753560Y-105345880I-237500J0D01*
G01*
X194278560Y-105345880D01*
G75*
G02*
X194041060Y-105108380I0J237500D01*
G01*
X194041060Y-104533380D01*
G75*
G02*
X194278560Y-104295880I237500J0D01*
G01*
G37*
G36*
G01*
X194278560Y-106045880D02*
X194753560Y-106045880D01*
G75*
G02*
X194991060Y-106283380I0J-237500D01*
G01*
X194991060Y-106858380D01*
G75*
G02*
X194753560Y-107095880I-237500J0D01*
G01*
X194278560Y-107095880D01*
G75*
G02*
X194041060Y-106858380I0J237500D01*
G01*
X194041060Y-106283380D01*
G75*
G02*
X194278560Y-106045880I237500J0D01*
G01*
G37*
%TD*%
%TO.C,R9*%
G36*
G01*
X169130020Y-119238640D02*
X169605020Y-119238640D01*
G75*
G02*
X169842520Y-119476140I0J-237500D01*
G01*
X169842520Y-120051140D01*
G75*
G02*
X169605020Y-120288640I-237500J0D01*
G01*
X169130020Y-120288640D01*
G75*
G02*
X168892520Y-120051140I0J237500D01*
G01*
X168892520Y-119476140D01*
G75*
G02*
X169130020Y-119238640I237500J0D01*
G01*
G37*
G36*
G01*
X169130020Y-117488640D02*
X169605020Y-117488640D01*
G75*
G02*
X169842520Y-117726140I0J-237500D01*
G01*
X169842520Y-118301140D01*
G75*
G02*
X169605020Y-118538640I-237500J0D01*
G01*
X169130020Y-118538640D01*
G75*
G02*
X168892520Y-118301140I0J237500D01*
G01*
X168892520Y-117726140D01*
G75*
G02*
X169130020Y-117488640I237500J0D01*
G01*
G37*
%TD*%
D42*
%TO.C,Q1*%
X68138360Y-117247040D03*
X67188360Y-115247040D03*
X69088360Y-115247040D03*
%TD*%
D43*
%TO.C,JP5*%
X135966520Y-106329640D03*
X138506520Y-106329640D03*
D44*
X141046520Y-106329640D03*
%TD*%
D43*
%TO.C,JP4*%
X135966520Y-103789640D03*
X138506520Y-103789640D03*
D44*
X141046520Y-103789640D03*
%TD*%
D43*
%TO.C,JP3*%
X135966520Y-111409640D03*
X138506520Y-111409640D03*
D44*
X141046520Y-111409640D03*
%TD*%
D43*
%TO.C,JP1*%
X135966520Y-108869640D03*
X138506520Y-108869640D03*
D44*
X141046520Y-108869640D03*
%TD*%
D45*
%TO.C,J18*%
X202545000Y-69445000D03*
D46*
X202545000Y-64365000D03*
%TD*%
D43*
%TO.C,J14*%
X167620000Y-90400000D03*
X170160000Y-90400000D03*
X167620000Y-92940000D03*
X170160000Y-92940000D03*
X167620000Y-95480000D03*
X170160000Y-95480000D03*
X167620000Y-98020000D03*
X170160000Y-98020000D03*
X167620000Y-100560000D03*
D44*
X170160000Y-100560000D03*
%TD*%
D43*
%TO.C,J7*%
X141046520Y-98709640D03*
X141046520Y-96169640D03*
X141046520Y-93629640D03*
D44*
X141046520Y-91089640D03*
%TD*%
D18*
%TO.C,J5*%
X154843800Y-106204400D03*
X154843800Y-104204400D03*
X154843800Y-102204400D03*
D19*
X154843800Y-100204400D03*
%TD*%
D43*
%TO.C,J4*%
X138506520Y-121569640D03*
X135966520Y-121569640D03*
X138506520Y-119029640D03*
X135966520Y-119029640D03*
X138506520Y-116489640D03*
X135966520Y-116489640D03*
X138506520Y-113949640D03*
D44*
X135966520Y-113949640D03*
%TD*%
D18*
%TO.C,J3*%
X147223800Y-106204400D03*
X147223800Y-104204400D03*
X147223800Y-102204400D03*
D19*
X147223800Y-100204400D03*
%TD*%
D43*
%TO.C,J2*%
X138506520Y-101249640D03*
X135966520Y-101249640D03*
X138506520Y-98709640D03*
X135966520Y-98709640D03*
X138506520Y-96169640D03*
X135966520Y-96169640D03*
X138506520Y-93629640D03*
X135966520Y-93629640D03*
X138506520Y-91089640D03*
D44*
X135966520Y-91089640D03*
%TD*%
D47*
%TO.C,J1*%
X83025600Y-64633400D03*
D48*
X82975600Y-53958400D03*
D49*
X85425600Y-53833400D03*
X86525600Y-53833400D03*
X87625600Y-53833400D03*
X88725600Y-53833400D03*
X89825600Y-53833400D03*
X90925600Y-53833400D03*
X92025600Y-53833400D03*
D50*
X82625600Y-62208400D03*
D51*
X94250600Y-63058400D03*
D52*
X94575600Y-61558400D03*
D53*
X94325600Y-53958400D03*
D49*
X93125600Y-53833400D03*
%TD*%
D54*
%TO.C,D16*%
X73673780Y-103562280D03*
X75673780Y-102612280D03*
X75673780Y-104512280D03*
%TD*%
D42*
%TO.C,D14*%
X75354500Y-109677840D03*
X74404500Y-107677840D03*
X76304500Y-107677840D03*
%TD*%
%TO.C,D12*%
X176596360Y-103309040D03*
X177546360Y-105309040D03*
X175646360Y-105309040D03*
%TD*%
%TO.C,D11*%
G36*
G01*
X130835200Y-124165500D02*
X130835200Y-123690500D01*
G75*
G02*
X131072700Y-123453000I237500J0D01*
G01*
X131647700Y-123453000D01*
G75*
G02*
X131885200Y-123690500I0J-237500D01*
G01*
X131885200Y-124165500D01*
G75*
G02*
X131647700Y-124403000I-237500J0D01*
G01*
X131072700Y-124403000D01*
G75*
G02*
X130835200Y-124165500I0J237500D01*
G01*
G37*
G36*
G01*
X129085200Y-124165500D02*
X129085200Y-123690500D01*
G75*
G02*
X129322700Y-123453000I237500J0D01*
G01*
X129897700Y-123453000D01*
G75*
G02*
X130135200Y-123690500I0J-237500D01*
G01*
X130135200Y-124165500D01*
G75*
G02*
X129897700Y-124403000I-237500J0D01*
G01*
X129322700Y-124403000D01*
G75*
G02*
X129085200Y-124165500I0J237500D01*
G01*
G37*
%TD*%
%TO.C,D9*%
G36*
G01*
X160847100Y-90735800D02*
X160372100Y-90735800D01*
G75*
G02*
X160134600Y-90498300I0J237500D01*
G01*
X160134600Y-89923300D01*
G75*
G02*
X160372100Y-89685800I237500J0D01*
G01*
X160847100Y-89685800D01*
G75*
G02*
X161084600Y-89923300I0J-237500D01*
G01*
X161084600Y-90498300D01*
G75*
G02*
X160847100Y-90735800I-237500J0D01*
G01*
G37*
G36*
G01*
X160847100Y-92485800D02*
X160372100Y-92485800D01*
G75*
G02*
X160134600Y-92248300I0J237500D01*
G01*
X160134600Y-91673300D01*
G75*
G02*
X160372100Y-91435800I237500J0D01*
G01*
X160847100Y-91435800D01*
G75*
G02*
X161084600Y-91673300I0J-237500D01*
G01*
X161084600Y-92248300D01*
G75*
G02*
X160847100Y-92485800I-237500J0D01*
G01*
G37*
%TD*%
%TO.C,D8*%
G36*
G01*
X158942100Y-90735800D02*
X158467100Y-90735800D01*
G75*
G02*
X158229600Y-90498300I0J237500D01*
G01*
X158229600Y-89923300D01*
G75*
G02*
X158467100Y-89685800I237500J0D01*
G01*
X158942100Y-89685800D01*
G75*
G02*
X159179600Y-89923300I0J-237500D01*
G01*
X159179600Y-90498300D01*
G75*
G02*
X158942100Y-90735800I-237500J0D01*
G01*
G37*
G36*
G01*
X158942100Y-92485800D02*
X158467100Y-92485800D01*
G75*
G02*
X158229600Y-92248300I0J237500D01*
G01*
X158229600Y-91673300D01*
G75*
G02*
X158467100Y-91435800I237500J0D01*
G01*
X158942100Y-91435800D01*
G75*
G02*
X159179600Y-91673300I0J-237500D01*
G01*
X159179600Y-92248300D01*
G75*
G02*
X158942100Y-92485800I-237500J0D01*
G01*
G37*
%TD*%
%TO.C,D7*%
G36*
G01*
X157037100Y-90735800D02*
X156562100Y-90735800D01*
G75*
G02*
X156324600Y-90498300I0J237500D01*
G01*
X156324600Y-89923300D01*
G75*
G02*
X156562100Y-89685800I237500J0D01*
G01*
X157037100Y-89685800D01*
G75*
G02*
X157274600Y-89923300I0J-237500D01*
G01*
X157274600Y-90498300D01*
G75*
G02*
X157037100Y-90735800I-237500J0D01*
G01*
G37*
G36*
G01*
X157037100Y-92485800D02*
X156562100Y-92485800D01*
G75*
G02*
X156324600Y-92248300I0J237500D01*
G01*
X156324600Y-91673300D01*
G75*
G02*
X156562100Y-91435800I237500J0D01*
G01*
X157037100Y-91435800D01*
G75*
G02*
X157274600Y-91673300I0J-237500D01*
G01*
X157274600Y-92248300D01*
G75*
G02*
X157037100Y-92485800I-237500J0D01*
G01*
G37*
%TD*%
%TO.C,D6*%
G36*
G01*
X155132100Y-90735800D02*
X154657100Y-90735800D01*
G75*
G02*
X154419600Y-90498300I0J237500D01*
G01*
X154419600Y-89923300D01*
G75*
G02*
X154657100Y-89685800I237500J0D01*
G01*
X155132100Y-89685800D01*
G75*
G02*
X155369600Y-89923300I0J-237500D01*
G01*
X155369600Y-90498300D01*
G75*
G02*
X155132100Y-90735800I-237500J0D01*
G01*
G37*
G36*
G01*
X155132100Y-92485800D02*
X154657100Y-92485800D01*
G75*
G02*
X154419600Y-92248300I0J237500D01*
G01*
X154419600Y-91673300D01*
G75*
G02*
X154657100Y-91435800I237500J0D01*
G01*
X155132100Y-91435800D01*
G75*
G02*
X155369600Y-91673300I0J-237500D01*
G01*
X155369600Y-92248300D01*
G75*
G02*
X155132100Y-92485800I-237500J0D01*
G01*
G37*
%TD*%
%TO.C,D5*%
G36*
G01*
X153227100Y-90735800D02*
X152752100Y-90735800D01*
G75*
G02*
X152514600Y-90498300I0J237500D01*
G01*
X152514600Y-89923300D01*
G75*
G02*
X152752100Y-89685800I237500J0D01*
G01*
X153227100Y-89685800D01*
G75*
G02*
X153464600Y-89923300I0J-237500D01*
G01*
X153464600Y-90498300D01*
G75*
G02*
X153227100Y-90735800I-237500J0D01*
G01*
G37*
G36*
G01*
X153227100Y-92485800D02*
X152752100Y-92485800D01*
G75*
G02*
X152514600Y-92248300I0J237500D01*
G01*
X152514600Y-91673300D01*
G75*
G02*
X152752100Y-91435800I237500J0D01*
G01*
X153227100Y-91435800D01*
G75*
G02*
X153464600Y-91673300I0J-237500D01*
G01*
X153464600Y-92248300D01*
G75*
G02*
X153227100Y-92485800I-237500J0D01*
G01*
G37*
%TD*%
%TO.C,D4*%
G36*
G01*
X151322100Y-90735800D02*
X150847100Y-90735800D01*
G75*
G02*
X150609600Y-90498300I0J237500D01*
G01*
X150609600Y-89923300D01*
G75*
G02*
X150847100Y-89685800I237500J0D01*
G01*
X151322100Y-89685800D01*
G75*
G02*
X151559600Y-89923300I0J-237500D01*
G01*
X151559600Y-90498300D01*
G75*
G02*
X151322100Y-90735800I-237500J0D01*
G01*
G37*
G36*
G01*
X151322100Y-92485800D02*
X150847100Y-92485800D01*
G75*
G02*
X150609600Y-92248300I0J237500D01*
G01*
X150609600Y-91673300D01*
G75*
G02*
X150847100Y-91435800I237500J0D01*
G01*
X151322100Y-91435800D01*
G75*
G02*
X151559600Y-91673300I0J-237500D01*
G01*
X151559600Y-92248300D01*
G75*
G02*
X151322100Y-92485800I-237500J0D01*
G01*
G37*
%TD*%
%TO.C,D3*%
G36*
G01*
X149417100Y-90735800D02*
X148942100Y-90735800D01*
G75*
G02*
X148704600Y-90498300I0J237500D01*
G01*
X148704600Y-89923300D01*
G75*
G02*
X148942100Y-89685800I237500J0D01*
G01*
X149417100Y-89685800D01*
G75*
G02*
X149654600Y-89923300I0J-237500D01*
G01*
X149654600Y-90498300D01*
G75*
G02*
X149417100Y-90735800I-237500J0D01*
G01*
G37*
G36*
G01*
X149417100Y-92485800D02*
X148942100Y-92485800D01*
G75*
G02*
X148704600Y-92248300I0J237500D01*
G01*
X148704600Y-91673300D01*
G75*
G02*
X148942100Y-91435800I237500J0D01*
G01*
X149417100Y-91435800D01*
G75*
G02*
X149654600Y-91673300I0J-237500D01*
G01*
X149654600Y-92248300D01*
G75*
G02*
X149417100Y-92485800I-237500J0D01*
G01*
G37*
%TD*%
%TO.C,D2*%
G36*
G01*
X147512100Y-90735800D02*
X147037100Y-90735800D01*
G75*
G02*
X146799600Y-90498300I0J237500D01*
G01*
X146799600Y-89923300D01*
G75*
G02*
X147037100Y-89685800I237500J0D01*
G01*
X147512100Y-89685800D01*
G75*
G02*
X147749600Y-89923300I0J-237500D01*
G01*
X147749600Y-90498300D01*
G75*
G02*
X147512100Y-90735800I-237500J0D01*
G01*
G37*
G36*
G01*
X147512100Y-92485800D02*
X147037100Y-92485800D01*
G75*
G02*
X146799600Y-92248300I0J237500D01*
G01*
X146799600Y-91673300D01*
G75*
G02*
X147037100Y-91435800I237500J0D01*
G01*
X147512100Y-91435800D01*
G75*
G02*
X147749600Y-91673300I0J-237500D01*
G01*
X147749600Y-92248300D01*
G75*
G02*
X147512100Y-92485800I-237500J0D01*
G01*
G37*
%TD*%
D55*
%TO.C,D1*%
X191337020Y-96254380D03*
X191337020Y-98754380D03*
X192737020Y-98754380D03*
X192737020Y-96254380D03*
%TD*%
%TO.C,C23*%
G36*
G01*
X78190400Y-103879260D02*
X78665400Y-103879260D01*
G75*
G02*
X78902900Y-104116760I0J-237500D01*
G01*
X78902900Y-104691760D01*
G75*
G02*
X78665400Y-104929260I-237500J0D01*
G01*
X78190400Y-104929260D01*
G75*
G02*
X77952900Y-104691760I0J237500D01*
G01*
X77952900Y-104116760D01*
G75*
G02*
X78190400Y-103879260I237500J0D01*
G01*
G37*
G36*
G01*
X78190400Y-102129260D02*
X78665400Y-102129260D01*
G75*
G02*
X78902900Y-102366760I0J-237500D01*
G01*
X78902900Y-102941760D01*
G75*
G02*
X78665400Y-103179260I-237500J0D01*
G01*
X78190400Y-103179260D01*
G75*
G02*
X77952900Y-102941760I0J237500D01*
G01*
X77952900Y-102366760D01*
G75*
G02*
X78190400Y-102129260I237500J0D01*
G01*
G37*
%TD*%
%TO.C,C22*%
G36*
G01*
X79831240Y-103891960D02*
X80306240Y-103891960D01*
G75*
G02*
X80543740Y-104129460I0J-237500D01*
G01*
X80543740Y-104704460D01*
G75*
G02*
X80306240Y-104941960I-237500J0D01*
G01*
X79831240Y-104941960D01*
G75*
G02*
X79593740Y-104704460I0J237500D01*
G01*
X79593740Y-104129460D01*
G75*
G02*
X79831240Y-103891960I237500J0D01*
G01*
G37*
G36*
G01*
X79831240Y-102141960D02*
X80306240Y-102141960D01*
G75*
G02*
X80543740Y-102379460I0J-237500D01*
G01*
X80543740Y-102954460D01*
G75*
G02*
X80306240Y-103191960I-237500J0D01*
G01*
X79831240Y-103191960D01*
G75*
G02*
X79593740Y-102954460I0J237500D01*
G01*
X79593740Y-102379460D01*
G75*
G02*
X79831240Y-102141960I237500J0D01*
G01*
G37*
%TD*%
%TO.C,C21*%
G36*
G01*
X74694260Y-98250840D02*
X73444260Y-98250840D01*
G75*
G02*
X73194260Y-98000840I0J250000D01*
G01*
X73194260Y-97075840D01*
G75*
G02*
X73444260Y-96825840I250000J0D01*
G01*
X74694260Y-96825840D01*
G75*
G02*
X74944260Y-97075840I0J-250000D01*
G01*
X74944260Y-98000840D01*
G75*
G02*
X74694260Y-98250840I-250000J0D01*
G01*
G37*
G36*
G01*
X74694260Y-101225840D02*
X73444260Y-101225840D01*
G75*
G02*
X73194260Y-100975840I0J250000D01*
G01*
X73194260Y-100050840D01*
G75*
G02*
X73444260Y-99800840I250000J0D01*
G01*
X74694260Y-99800840D01*
G75*
G02*
X74944260Y-100050840I0J-250000D01*
G01*
X74944260Y-100975840D01*
G75*
G02*
X74694260Y-101225840I-250000J0D01*
G01*
G37*
%TD*%
%TO.C,C20*%
G36*
G01*
X73472060Y-120966200D02*
X73472060Y-122216200D01*
G75*
G02*
X73222060Y-122466200I-250000J0D01*
G01*
X72297060Y-122466200D01*
G75*
G02*
X72047060Y-122216200I0J250000D01*
G01*
X72047060Y-120966200D01*
G75*
G02*
X72297060Y-120716200I250000J0D01*
G01*
X73222060Y-120716200D01*
G75*
G02*
X73472060Y-120966200I0J-250000D01*
G01*
G37*
G36*
G01*
X76447060Y-120966200D02*
X76447060Y-122216200D01*
G75*
G02*
X76197060Y-122466200I-250000J0D01*
G01*
X75272060Y-122466200D01*
G75*
G02*
X75022060Y-122216200I0J250000D01*
G01*
X75022060Y-120966200D01*
G75*
G02*
X75272060Y-120716200I250000J0D01*
G01*
X76197060Y-120716200D01*
G75*
G02*
X76447060Y-120966200I0J-250000D01*
G01*
G37*
%TD*%
%TO.C,C19*%
G36*
G01*
X73588900Y-113330960D02*
X73588900Y-114580960D01*
G75*
G02*
X73338900Y-114830960I-250000J0D01*
G01*
X72413900Y-114830960D01*
G75*
G02*
X72163900Y-114580960I0J250000D01*
G01*
X72163900Y-113330960D01*
G75*
G02*
X72413900Y-113080960I250000J0D01*
G01*
X73338900Y-113080960D01*
G75*
G02*
X73588900Y-113330960I0J-250000D01*
G01*
G37*
G36*
G01*
X76563900Y-113330960D02*
X76563900Y-114580960D01*
G75*
G02*
X76313900Y-114830960I-250000J0D01*
G01*
X75388900Y-114830960D01*
G75*
G02*
X75138900Y-114580960I0J250000D01*
G01*
X75138900Y-113330960D01*
G75*
G02*
X75388900Y-113080960I250000J0D01*
G01*
X76313900Y-113080960D01*
G75*
G02*
X76563900Y-113330960I0J-250000D01*
G01*
G37*
%TD*%
%TO.C,C18*%
G36*
G01*
X194208560Y-67636820D02*
X195458560Y-67636820D01*
G75*
G02*
X195708560Y-67886820I0J-250000D01*
G01*
X195708560Y-68811820D01*
G75*
G02*
X195458560Y-69061820I-250000J0D01*
G01*
X194208560Y-69061820D01*
G75*
G02*
X193958560Y-68811820I0J250000D01*
G01*
X193958560Y-67886820D01*
G75*
G02*
X194208560Y-67636820I250000J0D01*
G01*
G37*
G36*
G01*
X194208560Y-64661820D02*
X195458560Y-64661820D01*
G75*
G02*
X195708560Y-64911820I0J-250000D01*
G01*
X195708560Y-65836820D01*
G75*
G02*
X195458560Y-66086820I-250000J0D01*
G01*
X194208560Y-66086820D01*
G75*
G02*
X193958560Y-65836820I0J250000D01*
G01*
X193958560Y-64911820D01*
G75*
G02*
X194208560Y-64661820I250000J0D01*
G01*
G37*
%TD*%
%TO.C,C16*%
G36*
G01*
X89412880Y-112285920D02*
X89412880Y-111810920D01*
G75*
G02*
X89650380Y-111573420I237500J0D01*
G01*
X90225380Y-111573420D01*
G75*
G02*
X90462880Y-111810920I0J-237500D01*
G01*
X90462880Y-112285920D01*
G75*
G02*
X90225380Y-112523420I-237500J0D01*
G01*
X89650380Y-112523420D01*
G75*
G02*
X89412880Y-112285920I0J237500D01*
G01*
G37*
G36*
G01*
X87662880Y-112285920D02*
X87662880Y-111810920D01*
G75*
G02*
X87900380Y-111573420I237500J0D01*
G01*
X88475380Y-111573420D01*
G75*
G02*
X88712880Y-111810920I0J-237500D01*
G01*
X88712880Y-112285920D01*
G75*
G02*
X88475380Y-112523420I-237500J0D01*
G01*
X87900380Y-112523420D01*
G75*
G02*
X87662880Y-112285920I0J237500D01*
G01*
G37*
%TD*%
%TO.C,C15*%
G36*
G01*
X90204620Y-114187620D02*
X89729620Y-114187620D01*
G75*
G02*
X89492120Y-113950120I0J237500D01*
G01*
X89492120Y-113375120D01*
G75*
G02*
X89729620Y-113137620I237500J0D01*
G01*
X90204620Y-113137620D01*
G75*
G02*
X90442120Y-113375120I0J-237500D01*
G01*
X90442120Y-113950120D01*
G75*
G02*
X90204620Y-114187620I-237500J0D01*
G01*
G37*
G36*
G01*
X90204620Y-115937620D02*
X89729620Y-115937620D01*
G75*
G02*
X89492120Y-115700120I0J237500D01*
G01*
X89492120Y-115125120D01*
G75*
G02*
X89729620Y-114887620I237500J0D01*
G01*
X90204620Y-114887620D01*
G75*
G02*
X90442120Y-115125120I0J-237500D01*
G01*
X90442120Y-115700120D01*
G75*
G02*
X90204620Y-115937620I-237500J0D01*
G01*
G37*
%TD*%
%TO.C,C14*%
G36*
G01*
X145145560Y-95783540D02*
X145145560Y-95308540D01*
G75*
G02*
X145383060Y-95071040I237500J0D01*
G01*
X145958060Y-95071040D01*
G75*
G02*
X146195560Y-95308540I0J-237500D01*
G01*
X146195560Y-95783540D01*
G75*
G02*
X145958060Y-96021040I-237500J0D01*
G01*
X145383060Y-96021040D01*
G75*
G02*
X145145560Y-95783540I0J237500D01*
G01*
G37*
G36*
G01*
X143395560Y-95783540D02*
X143395560Y-95308540D01*
G75*
G02*
X143633060Y-95071040I237500J0D01*
G01*
X144208060Y-95071040D01*
G75*
G02*
X144445560Y-95308540I0J-237500D01*
G01*
X144445560Y-95783540D01*
G75*
G02*
X144208060Y-96021040I-237500J0D01*
G01*
X143633060Y-96021040D01*
G75*
G02*
X143395560Y-95783540I0J237500D01*
G01*
G37*
%TD*%
%TO.C,C13*%
G36*
G01*
X161960360Y-110017700D02*
X161960360Y-109542700D01*
G75*
G02*
X162197860Y-109305200I237500J0D01*
G01*
X162772860Y-109305200D01*
G75*
G02*
X163010360Y-109542700I0J-237500D01*
G01*
X163010360Y-110017700D01*
G75*
G02*
X162772860Y-110255200I-237500J0D01*
G01*
X162197860Y-110255200D01*
G75*
G02*
X161960360Y-110017700I0J237500D01*
G01*
G37*
G36*
G01*
X160210360Y-110017700D02*
X160210360Y-109542700D01*
G75*
G02*
X160447860Y-109305200I237500J0D01*
G01*
X161022860Y-109305200D01*
G75*
G02*
X161260360Y-109542700I0J-237500D01*
G01*
X161260360Y-110017700D01*
G75*
G02*
X161022860Y-110255200I-237500J0D01*
G01*
X160447860Y-110255200D01*
G75*
G02*
X160210360Y-110017700I0J237500D01*
G01*
G37*
%TD*%
%TO.C,C12*%
G36*
G01*
X168401040Y-140920080D02*
X168876040Y-140920080D01*
G75*
G02*
X169113540Y-141157580I0J-237500D01*
G01*
X169113540Y-141732580D01*
G75*
G02*
X168876040Y-141970080I-237500J0D01*
G01*
X168401040Y-141970080D01*
G75*
G02*
X168163540Y-141732580I0J237500D01*
G01*
X168163540Y-141157580D01*
G75*
G02*
X168401040Y-140920080I237500J0D01*
G01*
G37*
G36*
G01*
X168401040Y-139170080D02*
X168876040Y-139170080D01*
G75*
G02*
X169113540Y-139407580I0J-237500D01*
G01*
X169113540Y-139982580D01*
G75*
G02*
X168876040Y-140220080I-237500J0D01*
G01*
X168401040Y-140220080D01*
G75*
G02*
X168163540Y-139982580I0J237500D01*
G01*
X168163540Y-139407580D01*
G75*
G02*
X168401040Y-139170080I237500J0D01*
G01*
G37*
%TD*%
%TO.C,C11*%
G36*
G01*
X154400080Y-110017700D02*
X154400080Y-109542700D01*
G75*
G02*
X154637580Y-109305200I237500J0D01*
G01*
X155212580Y-109305200D01*
G75*
G02*
X155450080Y-109542700I0J-237500D01*
G01*
X155450080Y-110017700D01*
G75*
G02*
X155212580Y-110255200I-237500J0D01*
G01*
X154637580Y-110255200D01*
G75*
G02*
X154400080Y-110017700I0J237500D01*
G01*
G37*
G36*
G01*
X152650080Y-110017700D02*
X152650080Y-109542700D01*
G75*
G02*
X152887580Y-109305200I237500J0D01*
G01*
X153462580Y-109305200D01*
G75*
G02*
X153700080Y-109542700I0J-237500D01*
G01*
X153700080Y-110017700D01*
G75*
G02*
X153462580Y-110255200I-237500J0D01*
G01*
X152887580Y-110255200D01*
G75*
G02*
X152650080Y-110017700I0J237500D01*
G01*
G37*
%TD*%
%TO.C,C10*%
G36*
G01*
X146679720Y-109966900D02*
X146679720Y-109491900D01*
G75*
G02*
X146917220Y-109254400I237500J0D01*
G01*
X147492220Y-109254400D01*
G75*
G02*
X147729720Y-109491900I0J-237500D01*
G01*
X147729720Y-109966900D01*
G75*
G02*
X147492220Y-110204400I-237500J0D01*
G01*
X146917220Y-110204400D01*
G75*
G02*
X146679720Y-109966900I0J237500D01*
G01*
G37*
G36*
G01*
X144929720Y-109966900D02*
X144929720Y-109491900D01*
G75*
G02*
X145167220Y-109254400I237500J0D01*
G01*
X145742220Y-109254400D01*
G75*
G02*
X145979720Y-109491900I0J-237500D01*
G01*
X145979720Y-109966900D01*
G75*
G02*
X145742220Y-110204400I-237500J0D01*
G01*
X145167220Y-110204400D01*
G75*
G02*
X144929720Y-109966900I0J237500D01*
G01*
G37*
%TD*%
%TO.C,C9*%
G36*
G01*
X109273820Y-85065700D02*
X108023820Y-85065700D01*
G75*
G02*
X107773820Y-84815700I0J250000D01*
G01*
X107773820Y-83890700D01*
G75*
G02*
X108023820Y-83640700I250000J0D01*
G01*
X109273820Y-83640700D01*
G75*
G02*
X109523820Y-83890700I0J-250000D01*
G01*
X109523820Y-84815700D01*
G75*
G02*
X109273820Y-85065700I-250000J0D01*
G01*
G37*
G36*
G01*
X109273820Y-88040700D02*
X108023820Y-88040700D01*
G75*
G02*
X107773820Y-87790700I0J250000D01*
G01*
X107773820Y-86865700D01*
G75*
G02*
X108023820Y-86615700I250000J0D01*
G01*
X109273820Y-86615700D01*
G75*
G02*
X109523820Y-86865700I0J-250000D01*
G01*
X109523820Y-87790700D01*
G75*
G02*
X109273820Y-88040700I-250000J0D01*
G01*
G37*
%TD*%
%TO.C,C8*%
G36*
G01*
X147677180Y-72285440D02*
X148152180Y-72285440D01*
G75*
G02*
X148389680Y-72522940I0J-237500D01*
G01*
X148389680Y-73097940D01*
G75*
G02*
X148152180Y-73335440I-237500J0D01*
G01*
X147677180Y-73335440D01*
G75*
G02*
X147439680Y-73097940I0J237500D01*
G01*
X147439680Y-72522940D01*
G75*
G02*
X147677180Y-72285440I237500J0D01*
G01*
G37*
G36*
G01*
X147677180Y-70535440D02*
X148152180Y-70535440D01*
G75*
G02*
X148389680Y-70772940I0J-237500D01*
G01*
X148389680Y-71347940D01*
G75*
G02*
X148152180Y-71585440I-237500J0D01*
G01*
X147677180Y-71585440D01*
G75*
G02*
X147439680Y-71347940I0J237500D01*
G01*
X147439680Y-70772940D01*
G75*
G02*
X147677180Y-70535440I237500J0D01*
G01*
G37*
%TD*%
%TO.C,C7*%
G36*
G01*
X156620540Y-66397520D02*
X156145540Y-66397520D01*
G75*
G02*
X155908040Y-66160020I0J237500D01*
G01*
X155908040Y-65585020D01*
G75*
G02*
X156145540Y-65347520I237500J0D01*
G01*
X156620540Y-65347520D01*
G75*
G02*
X156858040Y-65585020I0J-237500D01*
G01*
X156858040Y-66160020D01*
G75*
G02*
X156620540Y-66397520I-237500J0D01*
G01*
G37*
G36*
G01*
X156620540Y-68147520D02*
X156145540Y-68147520D01*
G75*
G02*
X155908040Y-67910020I0J237500D01*
G01*
X155908040Y-67335020D01*
G75*
G02*
X156145540Y-67097520I237500J0D01*
G01*
X156620540Y-67097520D01*
G75*
G02*
X156858040Y-67335020I0J-237500D01*
G01*
X156858040Y-67910020D01*
G75*
G02*
X156620540Y-68147520I-237500J0D01*
G01*
G37*
%TD*%
%TO.C,C6*%
G36*
G01*
X111578700Y-121433200D02*
X112053700Y-121433200D01*
G75*
G02*
X112291200Y-121670700I0J-237500D01*
G01*
X112291200Y-122245700D01*
G75*
G02*
X112053700Y-122483200I-237500J0D01*
G01*
X111578700Y-122483200D01*
G75*
G02*
X111341200Y-122245700I0J237500D01*
G01*
X111341200Y-121670700D01*
G75*
G02*
X111578700Y-121433200I237500J0D01*
G01*
G37*
G36*
G01*
X111578700Y-119683200D02*
X112053700Y-119683200D01*
G75*
G02*
X112291200Y-119920700I0J-237500D01*
G01*
X112291200Y-120495700D01*
G75*
G02*
X112053700Y-120733200I-237500J0D01*
G01*
X111578700Y-120733200D01*
G75*
G02*
X111341200Y-120495700I0J237500D01*
G01*
X111341200Y-119920700D01*
G75*
G02*
X111578700Y-119683200I237500J0D01*
G01*
G37*
%TD*%
%TO.C,C5*%
G36*
G01*
X145120160Y-93934420D02*
X145120160Y-93459420D01*
G75*
G02*
X145357660Y-93221920I237500J0D01*
G01*
X145932660Y-93221920D01*
G75*
G02*
X146170160Y-93459420I0J-237500D01*
G01*
X146170160Y-93934420D01*
G75*
G02*
X145932660Y-94171920I-237500J0D01*
G01*
X145357660Y-94171920D01*
G75*
G02*
X145120160Y-93934420I0J237500D01*
G01*
G37*
G36*
G01*
X143370160Y-93934420D02*
X143370160Y-93459420D01*
G75*
G02*
X143607660Y-93221920I237500J0D01*
G01*
X144182660Y-93221920D01*
G75*
G02*
X144420160Y-93459420I0J-237500D01*
G01*
X144420160Y-93934420D01*
G75*
G02*
X144182660Y-94171920I-237500J0D01*
G01*
X143607660Y-94171920D01*
G75*
G02*
X143370160Y-93934420I0J237500D01*
G01*
G37*
%TD*%
%TO.C,C4*%
G36*
G01*
X79882060Y-57291560D02*
X79407060Y-57291560D01*
G75*
G02*
X79169560Y-57054060I0J237500D01*
G01*
X79169560Y-56479060D01*
G75*
G02*
X79407060Y-56241560I237500J0D01*
G01*
X79882060Y-56241560D01*
G75*
G02*
X80119560Y-56479060I0J-237500D01*
G01*
X80119560Y-57054060D01*
G75*
G02*
X79882060Y-57291560I-237500J0D01*
G01*
G37*
G36*
G01*
X79882060Y-55541560D02*
X79407060Y-55541560D01*
G75*
G02*
X79169560Y-55304060I0J237500D01*
G01*
X79169560Y-54729060D01*
G75*
G02*
X79407060Y-54491560I237500J0D01*
G01*
X79882060Y-54491560D01*
G75*
G02*
X80119560Y-54729060I0J-237500D01*
G01*
X80119560Y-55304060D01*
G75*
G02*
X79882060Y-55541560I-237500J0D01*
G01*
G37*
%TD*%
%TO.C,C3*%
G36*
G01*
X132536240Y-69459720D02*
X133011240Y-69459720D01*
G75*
G02*
X133248740Y-69697220I0J-237500D01*
G01*
X133248740Y-70272220D01*
G75*
G02*
X133011240Y-70509720I-237500J0D01*
G01*
X132536240Y-70509720D01*
G75*
G02*
X132298740Y-70272220I0J237500D01*
G01*
X132298740Y-69697220D01*
G75*
G02*
X132536240Y-69459720I237500J0D01*
G01*
G37*
G36*
G01*
X132536240Y-67709720D02*
X133011240Y-67709720D01*
G75*
G02*
X133248740Y-67947220I0J-237500D01*
G01*
X133248740Y-68522220D01*
G75*
G02*
X133011240Y-68759720I-237500J0D01*
G01*
X132536240Y-68759720D01*
G75*
G02*
X132298740Y-68522220I0J237500D01*
G01*
X132298740Y-67947220D01*
G75*
G02*
X132536240Y-67709720I237500J0D01*
G01*
G37*
%TD*%
%TO.C,C2*%
G36*
G01*
X171547360Y-119570620D02*
X171547360Y-120045620D01*
G75*
G02*
X171309860Y-120283120I-237500J0D01*
G01*
X170734860Y-120283120D01*
G75*
G02*
X170497360Y-120045620I0J237500D01*
G01*
X170497360Y-119570620D01*
G75*
G02*
X170734860Y-119333120I237500J0D01*
G01*
X171309860Y-119333120D01*
G75*
G02*
X171547360Y-119570620I0J-237500D01*
G01*
G37*
G36*
G01*
X173297360Y-119570620D02*
X173297360Y-120045620D01*
G75*
G02*
X173059860Y-120283120I-237500J0D01*
G01*
X172484860Y-120283120D01*
G75*
G02*
X172247360Y-120045620I0J237500D01*
G01*
X172247360Y-119570620D01*
G75*
G02*
X172484860Y-119333120I237500J0D01*
G01*
X173059860Y-119333120D01*
G75*
G02*
X173297360Y-119570620I0J-237500D01*
G01*
G37*
%TD*%
%TO.C,C1*%
G36*
G01*
X121293400Y-56606560D02*
X121293400Y-57081560D01*
G75*
G02*
X121055900Y-57319060I-237500J0D01*
G01*
X120480900Y-57319060D01*
G75*
G02*
X120243400Y-57081560I0J237500D01*
G01*
X120243400Y-56606560D01*
G75*
G02*
X120480900Y-56369060I237500J0D01*
G01*
X121055900Y-56369060D01*
G75*
G02*
X121293400Y-56606560I0J-237500D01*
G01*
G37*
G36*
G01*
X119543400Y-56606560D02*
X119543400Y-57081560D01*
G75*
G02*
X119305900Y-57319060I-237500J0D01*
G01*
X118730900Y-57319060D01*
G75*
G02*
X118493400Y-57081560I0J237500D01*
G01*
X118493400Y-56606560D01*
G75*
G02*
X118730900Y-56369060I237500J0D01*
G01*
X119305900Y-56369060D01*
G75*
G02*
X119543400Y-56606560I0J-237500D01*
G01*
G37*
%TD*%
%TO.C,C17*%
G36*
G01*
X168475460Y-66240800D02*
X168475460Y-65765800D01*
G75*
G02*
X168712960Y-65528300I237500J0D01*
G01*
X169287960Y-65528300D01*
G75*
G02*
X169525460Y-65765800I0J-237500D01*
G01*
X169525460Y-66240800D01*
G75*
G02*
X169287960Y-66478300I-237500J0D01*
G01*
X168712960Y-66478300D01*
G75*
G02*
X168475460Y-66240800I0J237500D01*
G01*
G37*
G36*
G01*
X166725460Y-66240800D02*
X166725460Y-65765800D01*
G75*
G02*
X166962960Y-65528300I237500J0D01*
G01*
X167537960Y-65528300D01*
G75*
G02*
X167775460Y-65765800I0J-237500D01*
G01*
X167775460Y-66240800D01*
G75*
G02*
X167537960Y-66478300I-237500J0D01*
G01*
X166962960Y-66478300D01*
G75*
G02*
X166725460Y-66240800I0J237500D01*
G01*
G37*
%TD*%
%TO.C,C24*%
G36*
G01*
X177782240Y-68045300D02*
X177782240Y-69295300D01*
G75*
G02*
X177532240Y-69545300I-250000J0D01*
G01*
X176607240Y-69545300D01*
G75*
G02*
X176357240Y-69295300I0J250000D01*
G01*
X176357240Y-68045300D01*
G75*
G02*
X176607240Y-67795300I250000J0D01*
G01*
X177532240Y-67795300D01*
G75*
G02*
X177782240Y-68045300I0J-250000D01*
G01*
G37*
G36*
G01*
X180757240Y-68045300D02*
X180757240Y-69295300D01*
G75*
G02*
X180507240Y-69545300I-250000J0D01*
G01*
X179582240Y-69545300D01*
G75*
G02*
X179332240Y-69295300I0J250000D01*
G01*
X179332240Y-68045300D01*
G75*
G02*
X179582240Y-67795300I250000J0D01*
G01*
X180507240Y-67795300D01*
G75*
G02*
X180757240Y-68045300I0J-250000D01*
G01*
G37*
%TD*%
D56*
%TO.C,D13*%
X174574540Y-73818880D03*
X179974540Y-73818880D03*
%TD*%
D57*
%TO.C,L1*%
X168186420Y-68954180D03*
X168186420Y-73324180D03*
%TD*%
%TO.C,R48*%
G36*
G01*
X178387580Y-65933440D02*
X178387580Y-66408440D01*
G75*
G02*
X178150080Y-66645940I-237500J0D01*
G01*
X177575080Y-66645940D01*
G75*
G02*
X177337580Y-66408440I0J237500D01*
G01*
X177337580Y-65933440D01*
G75*
G02*
X177575080Y-65695940I237500J0D01*
G01*
X178150080Y-65695940D01*
G75*
G02*
X178387580Y-65933440I0J-237500D01*
G01*
G37*
G36*
G01*
X180137580Y-65933440D02*
X180137580Y-66408440D01*
G75*
G02*
X179900080Y-66645940I-237500J0D01*
G01*
X179325080Y-66645940D01*
G75*
G02*
X179087580Y-66408440I0J237500D01*
G01*
X179087580Y-65933440D01*
G75*
G02*
X179325080Y-65695940I237500J0D01*
G01*
X179900080Y-65695940D01*
G75*
G02*
X180137580Y-65933440I0J-237500D01*
G01*
G37*
%TD*%
%TO.C,R54*%
G36*
G01*
X175014400Y-65928360D02*
X175014400Y-66403360D01*
G75*
G02*
X174776900Y-66640860I-237500J0D01*
G01*
X174201900Y-66640860D01*
G75*
G02*
X173964400Y-66403360I0J237500D01*
G01*
X173964400Y-65928360D01*
G75*
G02*
X174201900Y-65690860I237500J0D01*
G01*
X174776900Y-65690860D01*
G75*
G02*
X175014400Y-65928360I0J-237500D01*
G01*
G37*
G36*
G01*
X173264400Y-65928360D02*
X173264400Y-66403360D01*
G75*
G02*
X173026900Y-66640860I-237500J0D01*
G01*
X172451900Y-66640860D01*
G75*
G02*
X172214400Y-66403360I0J237500D01*
G01*
X172214400Y-65928360D01*
G75*
G02*
X172451900Y-65690860I237500J0D01*
G01*
X173026900Y-65690860D01*
G75*
G02*
X173264400Y-65928360I0J-237500D01*
G01*
G37*
%TD*%
D58*
%TO.C,U13*%
X172052120Y-69445000D03*
X172052120Y-70395000D03*
X172052120Y-68495000D03*
X174252120Y-68495000D03*
X174252120Y-69445000D03*
X174252120Y-70395000D03*
%TD*%
%TO.C,C25*%
G36*
G01*
X134371920Y-60513080D02*
X134371920Y-60988080D01*
G75*
G02*
X134134420Y-61225580I-237500J0D01*
G01*
X133559420Y-61225580D01*
G75*
G02*
X133321920Y-60988080I0J237500D01*
G01*
X133321920Y-60513080D01*
G75*
G02*
X133559420Y-60275580I237500J0D01*
G01*
X134134420Y-60275580D01*
G75*
G02*
X134371920Y-60513080I0J-237500D01*
G01*
G37*
G36*
G01*
X136121920Y-60513080D02*
X136121920Y-60988080D01*
G75*
G02*
X135884420Y-61225580I-237500J0D01*
G01*
X135309420Y-61225580D01*
G75*
G02*
X135071920Y-60988080I0J237500D01*
G01*
X135071920Y-60513080D01*
G75*
G02*
X135309420Y-60275580I237500J0D01*
G01*
X135884420Y-60275580D01*
G75*
G02*
X136121920Y-60513080I0J-237500D01*
G01*
G37*
%TD*%
%TO.C,C26*%
G36*
G01*
X141657400Y-60687540D02*
X141182400Y-60687540D01*
G75*
G02*
X140944900Y-60450040I0J237500D01*
G01*
X140944900Y-59875040D01*
G75*
G02*
X141182400Y-59637540I237500J0D01*
G01*
X141657400Y-59637540D01*
G75*
G02*
X141894900Y-59875040I0J-237500D01*
G01*
X141894900Y-60450040D01*
G75*
G02*
X141657400Y-60687540I-237500J0D01*
G01*
G37*
G36*
G01*
X141657400Y-58937540D02*
X141182400Y-58937540D01*
G75*
G02*
X140944900Y-58700040I0J237500D01*
G01*
X140944900Y-58125040D01*
G75*
G02*
X141182400Y-57887540I237500J0D01*
G01*
X141657400Y-57887540D01*
G75*
G02*
X141894900Y-58125040I0J-237500D01*
G01*
X141894900Y-58700040D01*
G75*
G02*
X141657400Y-58937540I-237500J0D01*
G01*
G37*
%TD*%
%TO.C,C27*%
G36*
G01*
X134371920Y-58006100D02*
X134371920Y-58481100D01*
G75*
G02*
X134134420Y-58718600I-237500J0D01*
G01*
X133559420Y-58718600D01*
G75*
G02*
X133321920Y-58481100I0J237500D01*
G01*
X133321920Y-58006100D01*
G75*
G02*
X133559420Y-57768600I237500J0D01*
G01*
X134134420Y-57768600D01*
G75*
G02*
X134371920Y-58006100I0J-237500D01*
G01*
G37*
G36*
G01*
X136121920Y-58006100D02*
X136121920Y-58481100D01*
G75*
G02*
X135884420Y-58718600I-237500J0D01*
G01*
X135309420Y-58718600D01*
G75*
G02*
X135071920Y-58481100I0J237500D01*
G01*
X135071920Y-58006100D01*
G75*
G02*
X135309420Y-57768600I237500J0D01*
G01*
X135884420Y-57768600D01*
G75*
G02*
X136121920Y-58006100I0J-237500D01*
G01*
G37*
%TD*%
%TO.C,U14*%
X139550321Y-59425981D03*
X139550321Y-58475981D03*
X139550321Y-60375981D03*
X137350321Y-60375981D03*
X137350321Y-59425981D03*
X137350321Y-58475981D03*
%TD*%
D26*
%TO.C,J9*%
X205000000Y-100000000D03*
%TD*%
%TO.C,C28*%
G36*
G01*
X174936480Y-147842560D02*
X174461480Y-147842560D01*
G75*
G02*
X174223980Y-147605060I0J237500D01*
G01*
X174223980Y-147030060D01*
G75*
G02*
X174461480Y-146792560I237500J0D01*
G01*
X174936480Y-146792560D01*
G75*
G02*
X175173980Y-147030060I0J-237500D01*
G01*
X175173980Y-147605060D01*
G75*
G02*
X174936480Y-147842560I-237500J0D01*
G01*
G37*
G36*
G01*
X174936480Y-146092560D02*
X174461480Y-146092560D01*
G75*
G02*
X174223980Y-145855060I0J237500D01*
G01*
X174223980Y-145280060D01*
G75*
G02*
X174461480Y-145042560I237500J0D01*
G01*
X174936480Y-145042560D01*
G75*
G02*
X175173980Y-145280060I0J-237500D01*
G01*
X175173980Y-145855060D01*
G75*
G02*
X174936480Y-146092560I-237500J0D01*
G01*
G37*
%TD*%
%TO.C,R1*%
G36*
G01*
X177049000Y-139372460D02*
X177049000Y-139847460D01*
G75*
G02*
X176811500Y-140084960I-237500J0D01*
G01*
X176236500Y-140084960D01*
G75*
G02*
X175999000Y-139847460I0J237500D01*
G01*
X175999000Y-139372460D01*
G75*
G02*
X176236500Y-139134960I237500J0D01*
G01*
X176811500Y-139134960D01*
G75*
G02*
X177049000Y-139372460I0J-237500D01*
G01*
G37*
G36*
G01*
X178799000Y-139372460D02*
X178799000Y-139847460D01*
G75*
G02*
X178561500Y-140084960I-237500J0D01*
G01*
X177986500Y-140084960D01*
G75*
G02*
X177749000Y-139847460I0J237500D01*
G01*
X177749000Y-139372460D01*
G75*
G02*
X177986500Y-139134960I237500J0D01*
G01*
X178561500Y-139134960D01*
G75*
G02*
X178799000Y-139372460I0J-237500D01*
G01*
G37*
%TD*%
%TO.C,R2*%
G36*
G01*
X178781220Y-140924400D02*
X178781220Y-141399400D01*
G75*
G02*
X178543720Y-141636900I-237500J0D01*
G01*
X177968720Y-141636900D01*
G75*
G02*
X177731220Y-141399400I0J237500D01*
G01*
X177731220Y-140924400D01*
G75*
G02*
X177968720Y-140686900I237500J0D01*
G01*
X178543720Y-140686900D01*
G75*
G02*
X178781220Y-140924400I0J-237500D01*
G01*
G37*
G36*
G01*
X177031220Y-140924400D02*
X177031220Y-141399400D01*
G75*
G02*
X176793720Y-141636900I-237500J0D01*
G01*
X176218720Y-141636900D01*
G75*
G02*
X175981220Y-141399400I0J237500D01*
G01*
X175981220Y-140924400D01*
G75*
G02*
X176218720Y-140686900I237500J0D01*
G01*
X176793720Y-140686900D01*
G75*
G02*
X177031220Y-140924400I0J-237500D01*
G01*
G37*
%TD*%
%TO.C,R3*%
G36*
G01*
X178649140Y-147078820D02*
X178649140Y-147553820D01*
G75*
G02*
X178411640Y-147791320I-237500J0D01*
G01*
X177836640Y-147791320D01*
G75*
G02*
X177599140Y-147553820I0J237500D01*
G01*
X177599140Y-147078820D01*
G75*
G02*
X177836640Y-146841320I237500J0D01*
G01*
X178411640Y-146841320D01*
G75*
G02*
X178649140Y-147078820I0J-237500D01*
G01*
G37*
G36*
G01*
X176899140Y-147078820D02*
X176899140Y-147553820D01*
G75*
G02*
X176661640Y-147791320I-237500J0D01*
G01*
X176086640Y-147791320D01*
G75*
G02*
X175849140Y-147553820I0J237500D01*
G01*
X175849140Y-147078820D01*
G75*
G02*
X176086640Y-146841320I237500J0D01*
G01*
X176661640Y-146841320D01*
G75*
G02*
X176899140Y-147078820I0J-237500D01*
G01*
G37*
%TD*%
%TO.C,R4*%
G36*
G01*
X176914380Y-145326220D02*
X176914380Y-145801220D01*
G75*
G02*
X176676880Y-146038720I-237500J0D01*
G01*
X176101880Y-146038720D01*
G75*
G02*
X175864380Y-145801220I0J237500D01*
G01*
X175864380Y-145326220D01*
G75*
G02*
X176101880Y-145088720I237500J0D01*
G01*
X176676880Y-145088720D01*
G75*
G02*
X176914380Y-145326220I0J-237500D01*
G01*
G37*
G36*
G01*
X178664380Y-145326220D02*
X178664380Y-145801220D01*
G75*
G02*
X178426880Y-146038720I-237500J0D01*
G01*
X177851880Y-146038720D01*
G75*
G02*
X177614380Y-145801220I0J237500D01*
G01*
X177614380Y-145326220D01*
G75*
G02*
X177851880Y-145088720I237500J0D01*
G01*
X178426880Y-145088720D01*
G75*
G02*
X178664380Y-145326220I0J-237500D01*
G01*
G37*
%TD*%
%TO.C,U8*%
G36*
G01*
X171173600Y-143781320D02*
X170873600Y-143781320D01*
G75*
G02*
X170723600Y-143631320I0J150000D01*
G01*
X170723600Y-142181320D01*
G75*
G02*
X170873600Y-142031320I150000J0D01*
G01*
X171173600Y-142031320D01*
G75*
G02*
X171323600Y-142181320I0J-150000D01*
G01*
X171323600Y-143631320D01*
G75*
G02*
X171173600Y-143781320I-150000J0D01*
G01*
G37*
G36*
G01*
X172443600Y-143781320D02*
X172143600Y-143781320D01*
G75*
G02*
X171993600Y-143631320I0J150000D01*
G01*
X171993600Y-142181320D01*
G75*
G02*
X172143600Y-142031320I150000J0D01*
G01*
X172443600Y-142031320D01*
G75*
G02*
X172593600Y-142181320I0J-150000D01*
G01*
X172593600Y-143631320D01*
G75*
G02*
X172443600Y-143781320I-150000J0D01*
G01*
G37*
G36*
G01*
X173713600Y-143781320D02*
X173413600Y-143781320D01*
G75*
G02*
X173263600Y-143631320I0J150000D01*
G01*
X173263600Y-142181320D01*
G75*
G02*
X173413600Y-142031320I150000J0D01*
G01*
X173713600Y-142031320D01*
G75*
G02*
X173863600Y-142181320I0J-150000D01*
G01*
X173863600Y-143631320D01*
G75*
G02*
X173713600Y-143781320I-150000J0D01*
G01*
G37*
G36*
G01*
X174983600Y-143781320D02*
X174683600Y-143781320D01*
G75*
G02*
X174533600Y-143631320I0J150000D01*
G01*
X174533600Y-142181320D01*
G75*
G02*
X174683600Y-142031320I150000J0D01*
G01*
X174983600Y-142031320D01*
G75*
G02*
X175133600Y-142181320I0J-150000D01*
G01*
X175133600Y-143631320D01*
G75*
G02*
X174983600Y-143781320I-150000J0D01*
G01*
G37*
G36*
G01*
X174983600Y-138631320D02*
X174683600Y-138631320D01*
G75*
G02*
X174533600Y-138481320I0J150000D01*
G01*
X174533600Y-137031320D01*
G75*
G02*
X174683600Y-136881320I150000J0D01*
G01*
X174983600Y-136881320D01*
G75*
G02*
X175133600Y-137031320I0J-150000D01*
G01*
X175133600Y-138481320D01*
G75*
G02*
X174983600Y-138631320I-150000J0D01*
G01*
G37*
G36*
G01*
X173713600Y-138631320D02*
X173413600Y-138631320D01*
G75*
G02*
X173263600Y-138481320I0J150000D01*
G01*
X173263600Y-137031320D01*
G75*
G02*
X173413600Y-136881320I150000J0D01*
G01*
X173713600Y-136881320D01*
G75*
G02*
X173863600Y-137031320I0J-150000D01*
G01*
X173863600Y-138481320D01*
G75*
G02*
X173713600Y-138631320I-150000J0D01*
G01*
G37*
G36*
G01*
X172443600Y-138631320D02*
X172143600Y-138631320D01*
G75*
G02*
X171993600Y-138481320I0J150000D01*
G01*
X171993600Y-137031320D01*
G75*
G02*
X172143600Y-136881320I150000J0D01*
G01*
X172443600Y-136881320D01*
G75*
G02*
X172593600Y-137031320I0J-150000D01*
G01*
X172593600Y-138481320D01*
G75*
G02*
X172443600Y-138631320I-150000J0D01*
G01*
G37*
G36*
G01*
X171173600Y-138631320D02*
X170873600Y-138631320D01*
G75*
G02*
X170723600Y-138481320I0J150000D01*
G01*
X170723600Y-137031320D01*
G75*
G02*
X170873600Y-136881320I150000J0D01*
G01*
X171173600Y-136881320D01*
G75*
G02*
X171323600Y-137031320I0J-150000D01*
G01*
X171323600Y-138481320D01*
G75*
G02*
X171173600Y-138631320I-150000J0D01*
G01*
G37*
%TD*%
D44*
%TO.C,J15*%
X180881340Y-147710020D03*
D43*
X180881340Y-145170020D03*
%TD*%
%TO.C,D17*%
G36*
G01*
X178755820Y-137746860D02*
X178755820Y-138221860D01*
G75*
G02*
X178518320Y-138459360I-237500J0D01*
G01*
X177943320Y-138459360D01*
G75*
G02*
X177705820Y-138221860I0J237500D01*
G01*
X177705820Y-137746860D01*
G75*
G02*
X177943320Y-137509360I237500J0D01*
G01*
X178518320Y-137509360D01*
G75*
G02*
X178755820Y-137746860I0J-237500D01*
G01*
G37*
G36*
G01*
X177005820Y-137746860D02*
X177005820Y-138221860D01*
G75*
G02*
X176768320Y-138459360I-237500J0D01*
G01*
X176193320Y-138459360D01*
G75*
G02*
X175955820Y-138221860I0J237500D01*
G01*
X175955820Y-137746860D01*
G75*
G02*
X176193320Y-137509360I237500J0D01*
G01*
X176768320Y-137509360D01*
G75*
G02*
X177005820Y-137746860I0J-237500D01*
G01*
G37*
%TD*%
%TO.C,D18*%
G36*
G01*
X177023600Y-142577940D02*
X177023600Y-143052940D01*
G75*
G02*
X176786100Y-143290440I-237500J0D01*
G01*
X176211100Y-143290440D01*
G75*
G02*
X175973600Y-143052940I0J237500D01*
G01*
X175973600Y-142577940D01*
G75*
G02*
X176211100Y-142340440I237500J0D01*
G01*
X176786100Y-142340440D01*
G75*
G02*
X177023600Y-142577940I0J-237500D01*
G01*
G37*
G36*
G01*
X178773600Y-142577940D02*
X178773600Y-143052940D01*
G75*
G02*
X178536100Y-143290440I-237500J0D01*
G01*
X177961100Y-143290440D01*
G75*
G02*
X177723600Y-143052940I0J237500D01*
G01*
X177723600Y-142577940D01*
G75*
G02*
X177961100Y-142340440I237500J0D01*
G01*
X178536100Y-142340440D01*
G75*
G02*
X178773600Y-142577940I0J-237500D01*
G01*
G37*
%TD*%
M02*
